G75*
G70*
%OFA0B0*%
%FSLAX24Y24*%
%IPPOS*%
%LPD*%
%AMOC8*
5,1,8,0,0,1.08239X$1,22.5*
%
%ADD10C,0.0100*%
%ADD11OC8,0.0560*%
%ADD12C,0.0050*%
%ADD13R,0.0760X0.1500*%
%ADD14R,0.0800X0.0800*%
%ADD15C,0.0800*%
%ADD16OC8,0.0740*%
%ADD17C,0.0705*%
%ADD18C,0.0400*%
%ADD19R,0.0356X0.0356*%
%ADD20C,0.0356*%
%ADD21C,0.0320*%
D10*
X001710Y001597D02*
X001547Y001914D01*
X001473Y002263D01*
X001472Y002384D01*
X001472Y002448D01*
X001477Y002525D01*
X001472Y002530D01*
X001472Y018957D01*
X001473Y018958D01*
X001472Y019039D01*
X001472Y019042D01*
X001480Y019208D01*
X001563Y019532D01*
X001729Y019822D01*
X001965Y020058D01*
X002255Y020223D01*
X002548Y020298D01*
X002548Y013935D01*
X002647Y013837D01*
X002764Y013720D01*
X003992Y013720D01*
X003992Y013004D01*
X004472Y013004D01*
X004472Y012904D01*
X004572Y012904D01*
X004572Y012054D01*
X004879Y012054D01*
X004888Y012034D01*
X004897Y012025D01*
X004897Y011985D01*
X004889Y011917D01*
X004897Y011887D01*
X004897Y010944D01*
X004872Y010954D01*
X004673Y010954D01*
X004620Y010932D01*
X004534Y010932D01*
X004424Y010887D01*
X004340Y010802D01*
X004294Y010692D01*
X004294Y010606D01*
X004272Y010554D01*
X004272Y010355D01*
X004294Y010302D01*
X004294Y010216D01*
X004340Y010106D01*
X004424Y010022D01*
X004534Y009976D01*
X004543Y009976D01*
X004647Y009872D01*
X004647Y009480D01*
X004723Y009296D01*
X004864Y009155D01*
X005397Y008622D01*
X005397Y005105D01*
X005473Y004921D01*
X005614Y004780D01*
X006596Y003798D01*
X006489Y003753D01*
X005614Y002878D01*
X005509Y002773D01*
X005509Y003029D01*
X005056Y003029D01*
X005056Y003129D01*
X004956Y003129D01*
X004956Y003029D01*
X004504Y003029D01*
X004504Y002687D01*
X004516Y002609D01*
X004526Y002579D01*
X003683Y002579D01*
X003690Y002597D01*
X003690Y003561D01*
X003591Y003801D01*
X003407Y003985D01*
X003168Y004084D01*
X002908Y004084D01*
X002668Y003985D01*
X002485Y003801D01*
X002385Y003561D01*
X002385Y002597D01*
X002485Y002357D01*
X002522Y002320D01*
X002522Y002105D01*
X002598Y001921D01*
X002739Y001780D01*
X002864Y001655D01*
X003048Y001579D01*
X005747Y001579D01*
X005930Y001655D01*
X006071Y001796D01*
X006321Y002046D01*
X006397Y002230D01*
X006397Y002247D01*
X006446Y002296D01*
X006545Y002058D01*
X006742Y001861D01*
X006999Y001754D01*
X007277Y001754D01*
X007535Y001861D01*
X007732Y002058D01*
X007827Y002288D01*
X007923Y002058D01*
X008120Y001861D01*
X008377Y001754D01*
X008655Y001754D01*
X008913Y001861D01*
X009110Y002058D01*
X009205Y002288D01*
X009301Y002058D01*
X009498Y001861D01*
X009755Y001754D01*
X010033Y001754D01*
X010291Y001861D01*
X010488Y002058D01*
X010572Y002262D01*
X010572Y001994D01*
X010618Y001884D01*
X010702Y001800D01*
X010812Y001754D01*
X011732Y001754D01*
X011842Y001800D01*
X011926Y001884D01*
X011972Y001994D01*
X011972Y002914D01*
X011926Y003024D01*
X011871Y003079D01*
X013247Y003079D01*
X013299Y003101D01*
X013385Y003101D01*
X013495Y003147D01*
X013579Y003231D01*
X013625Y003341D01*
X013625Y003427D01*
X013647Y003480D01*
X013647Y003679D01*
X013636Y003704D01*
X013775Y003704D01*
X013727Y003657D01*
X013727Y003102D01*
X014000Y002829D01*
X013727Y002557D01*
X013727Y002002D01*
X014120Y001609D01*
X014675Y001609D01*
X014897Y001832D01*
X015120Y001609D01*
X015675Y001609D01*
X015897Y001832D01*
X016120Y001609D01*
X016675Y001609D01*
X016897Y001832D01*
X017120Y001609D01*
X017675Y001609D01*
X018003Y001938D01*
X018182Y001759D01*
X018347Y001759D01*
X018347Y002229D01*
X018447Y002229D01*
X018447Y001759D01*
X018612Y001759D01*
X018917Y002064D01*
X018917Y002229D01*
X018447Y002229D01*
X018447Y002329D01*
X018917Y002329D01*
X018917Y002495D01*
X018612Y002799D01*
X018447Y002799D01*
X018447Y002329D01*
X018347Y002329D01*
X018347Y002799D01*
X018182Y002799D01*
X018003Y002621D01*
X017795Y002829D01*
X018003Y003038D01*
X018182Y002859D01*
X018347Y002859D01*
X018347Y003329D01*
X018447Y003329D01*
X018447Y002859D01*
X018612Y002859D01*
X018917Y003164D01*
X018917Y003329D01*
X018447Y003329D01*
X018447Y003429D01*
X018917Y003429D01*
X018917Y003595D01*
X018612Y003899D01*
X018447Y003899D01*
X018447Y003429D01*
X018347Y003429D01*
X018347Y003899D01*
X018182Y003899D01*
X018003Y003721D01*
X017675Y004049D01*
X017120Y004049D01*
X016897Y003827D01*
X016897Y004554D01*
X016821Y004737D01*
X016446Y005112D01*
X016305Y005253D01*
X016122Y005329D01*
X012630Y005329D01*
X012702Y005401D01*
X012702Y005539D01*
X012312Y005539D01*
X012312Y005619D01*
X012702Y005619D01*
X012702Y005757D01*
X012450Y006009D01*
X012312Y006009D01*
X012312Y005619D01*
X012232Y005619D01*
X012232Y006009D01*
X012094Y006009D01*
X012022Y005937D01*
X012022Y006721D01*
X012094Y006649D01*
X012232Y006649D01*
X012232Y007039D01*
X012312Y007039D01*
X012312Y006649D01*
X012450Y006649D01*
X012702Y006901D01*
X012702Y007039D01*
X012312Y007039D01*
X012312Y007119D01*
X012702Y007119D01*
X012702Y007257D01*
X012450Y007509D01*
X012312Y007509D01*
X012312Y007119D01*
X012232Y007119D01*
X012232Y007509D01*
X012094Y007509D01*
X012022Y007437D01*
X012022Y008221D01*
X012094Y008149D01*
X012232Y008149D01*
X012232Y008539D01*
X012312Y008539D01*
X012312Y008149D01*
X012450Y008149D01*
X012702Y008401D01*
X012702Y008539D01*
X012312Y008539D01*
X012312Y008619D01*
X012702Y008619D01*
X012702Y008757D01*
X012450Y009009D01*
X012312Y009009D01*
X012312Y008619D01*
X012232Y008619D01*
X012232Y009009D01*
X012094Y009009D01*
X012022Y008937D01*
X012022Y009721D01*
X012094Y009649D01*
X012232Y009649D01*
X012232Y010039D01*
X012312Y010039D01*
X012312Y009649D01*
X012450Y009649D01*
X012702Y009901D01*
X012702Y010039D01*
X012312Y010039D01*
X012312Y010119D01*
X012702Y010119D01*
X012702Y010257D01*
X012572Y010387D01*
X012659Y010351D01*
X012745Y010351D01*
X012798Y010329D01*
X012997Y010329D01*
X013049Y010351D01*
X013135Y010351D01*
X013245Y010397D01*
X013246Y010398D01*
X013364Y010280D01*
X013548Y010204D01*
X015122Y010204D01*
X015174Y010226D01*
X015260Y010226D01*
X015370Y010272D01*
X015454Y010356D01*
X015500Y010466D01*
X015500Y010552D01*
X015522Y010605D01*
X015522Y010804D01*
X015500Y010856D01*
X015500Y010942D01*
X015454Y011052D01*
X015370Y011137D01*
X015260Y011182D01*
X015174Y011182D01*
X015122Y011204D01*
X015022Y011204D01*
X015022Y011929D01*
X015072Y011950D01*
X015156Y012034D01*
X015165Y012054D01*
X015472Y012054D01*
X015472Y012904D01*
X015572Y012904D01*
X015572Y012054D01*
X015922Y012054D01*
X015960Y012064D01*
X015994Y012084D01*
X016022Y012112D01*
X016042Y012146D01*
X016052Y012184D01*
X016052Y012904D01*
X015572Y012904D01*
X015572Y013004D01*
X016052Y013004D01*
X016052Y013720D01*
X017447Y013720D01*
X017565Y013837D01*
X017663Y013935D01*
X017663Y020314D01*
X019454Y020314D01*
X019631Y020299D01*
X019974Y020197D01*
X020277Y020009D01*
X020519Y019747D01*
X020683Y019429D01*
X020756Y019080D01*
X020757Y018959D01*
X020757Y018895D01*
X020752Y018819D01*
X020757Y018813D01*
X020757Y002333D01*
X020742Y002155D01*
X020640Y001813D01*
X020452Y001509D01*
X020189Y001267D01*
X019872Y001104D01*
X019523Y001030D01*
X019402Y001029D01*
X019338Y001029D01*
X019262Y001034D01*
X019256Y001029D01*
X002775Y001029D01*
X002598Y001045D01*
X002255Y001146D01*
X001952Y001334D01*
X001710Y001597D01*
X001700Y001617D02*
X002956Y001617D01*
X002803Y001716D02*
X001649Y001716D01*
X001598Y001814D02*
X002705Y001814D01*
X002606Y001913D02*
X001547Y001913D01*
X001526Y002011D02*
X002561Y002011D01*
X002522Y002110D02*
X001505Y002110D01*
X001484Y002208D02*
X002522Y002208D01*
X002522Y002307D02*
X001473Y002307D01*
X001472Y002405D02*
X002465Y002405D01*
X002424Y002504D02*
X001475Y002504D01*
X001472Y002602D02*
X002385Y002602D01*
X002385Y002701D02*
X001472Y002701D01*
X001472Y002799D02*
X002385Y002799D01*
X002385Y002898D02*
X001472Y002898D01*
X001472Y002996D02*
X002385Y002996D01*
X002385Y003095D02*
X001472Y003095D01*
X001472Y003193D02*
X002385Y003193D01*
X002385Y003292D02*
X001472Y003292D01*
X001472Y003390D02*
X002385Y003390D01*
X002385Y003489D02*
X001472Y003489D01*
X001472Y003587D02*
X001903Y003587D01*
X001923Y003579D02*
X002122Y003579D01*
X002174Y003601D01*
X002260Y003601D01*
X002370Y003647D01*
X002454Y003731D01*
X002500Y003841D01*
X002500Y003927D01*
X002522Y003980D01*
X002522Y009424D01*
X002579Y009481D01*
X002625Y009591D01*
X002625Y009677D01*
X002647Y009730D01*
X002647Y009929D01*
X002625Y009981D01*
X002625Y010067D01*
X002579Y010177D01*
X002495Y010262D01*
X002385Y010307D01*
X002299Y010307D01*
X002247Y010329D01*
X002048Y010329D01*
X001995Y010307D01*
X001909Y010307D01*
X001799Y010262D01*
X001715Y010177D01*
X001669Y010067D01*
X001669Y010058D01*
X001598Y009987D01*
X001522Y009804D01*
X001522Y003980D01*
X001544Y003927D01*
X001544Y003841D01*
X001590Y003731D01*
X001674Y003647D01*
X001784Y003601D01*
X001870Y003601D01*
X001923Y003579D01*
X002141Y003587D02*
X002396Y003587D01*
X002409Y003686D02*
X002437Y003686D01*
X002476Y003784D02*
X002478Y003784D01*
X002500Y003883D02*
X002566Y003883D01*
X002522Y003981D02*
X002665Y003981D01*
X002522Y004080D02*
X002897Y004080D01*
X003178Y004080D02*
X006314Y004080D01*
X006216Y004178D02*
X002522Y004178D01*
X002522Y004277D02*
X006117Y004277D01*
X006019Y004375D02*
X002522Y004375D01*
X002522Y004474D02*
X005920Y004474D01*
X005822Y004572D02*
X002522Y004572D01*
X002522Y004671D02*
X005723Y004671D01*
X005625Y004769D02*
X002522Y004769D01*
X002522Y004868D02*
X005526Y004868D01*
X005454Y004966D02*
X002522Y004966D01*
X002522Y005065D02*
X005414Y005065D01*
X005397Y005163D02*
X002522Y005163D01*
X002522Y005262D02*
X005397Y005262D01*
X005397Y005360D02*
X002522Y005360D01*
X002522Y005459D02*
X005397Y005459D01*
X005397Y005557D02*
X002522Y005557D01*
X002522Y005656D02*
X005397Y005656D01*
X005397Y005754D02*
X002522Y005754D01*
X002522Y005853D02*
X005397Y005853D01*
X005397Y005951D02*
X002522Y005951D01*
X002522Y006050D02*
X005397Y006050D01*
X005397Y006148D02*
X002522Y006148D01*
X002522Y006247D02*
X005397Y006247D01*
X005397Y006345D02*
X002522Y006345D01*
X002522Y006444D02*
X005397Y006444D01*
X005397Y006542D02*
X002522Y006542D01*
X002522Y006641D02*
X005397Y006641D01*
X005397Y006739D02*
X002522Y006739D01*
X002522Y006838D02*
X005397Y006838D01*
X005397Y006936D02*
X002522Y006936D01*
X002522Y007035D02*
X005397Y007035D01*
X005397Y007133D02*
X002522Y007133D01*
X002522Y007232D02*
X005397Y007232D01*
X005397Y007330D02*
X002522Y007330D01*
X002522Y007429D02*
X005397Y007429D01*
X005397Y007527D02*
X002522Y007527D01*
X002522Y007626D02*
X005397Y007626D01*
X005397Y007724D02*
X002522Y007724D01*
X002522Y007823D02*
X005397Y007823D01*
X005397Y007921D02*
X002522Y007921D01*
X002522Y008020D02*
X005397Y008020D01*
X005397Y008118D02*
X002522Y008118D01*
X002522Y008217D02*
X005397Y008217D01*
X005397Y008315D02*
X002522Y008315D01*
X002522Y008414D02*
X005397Y008414D01*
X005397Y008512D02*
X002522Y008512D01*
X002522Y008611D02*
X005397Y008611D01*
X005310Y008709D02*
X002522Y008709D01*
X002522Y008808D02*
X005211Y008808D01*
X005113Y008906D02*
X002522Y008906D01*
X002522Y009005D02*
X005014Y009005D01*
X004916Y009103D02*
X002522Y009103D01*
X002522Y009202D02*
X004817Y009202D01*
X004721Y009300D02*
X002522Y009300D01*
X002522Y009399D02*
X004681Y009399D01*
X004647Y009497D02*
X002586Y009497D01*
X002625Y009596D02*
X004647Y009596D01*
X004647Y009694D02*
X002632Y009694D01*
X002647Y009793D02*
X004647Y009793D01*
X004628Y009891D02*
X002647Y009891D01*
X002625Y009990D02*
X004501Y009990D01*
X004358Y010088D02*
X002616Y010088D01*
X002570Y010187D02*
X004306Y010187D01*
X004294Y010285D02*
X002438Y010285D01*
X001856Y010285D02*
X001472Y010285D01*
X001472Y010187D02*
X001724Y010187D01*
X001678Y010088D02*
X001472Y010088D01*
X001472Y009990D02*
X001600Y009990D01*
X001558Y009891D02*
X001472Y009891D01*
X001472Y009793D02*
X001522Y009793D01*
X001522Y009694D02*
X001472Y009694D01*
X001472Y009596D02*
X001522Y009596D01*
X001522Y009497D02*
X001472Y009497D01*
X001472Y009399D02*
X001522Y009399D01*
X001522Y009300D02*
X001472Y009300D01*
X001472Y009202D02*
X001522Y009202D01*
X001522Y009103D02*
X001472Y009103D01*
X001472Y009005D02*
X001522Y009005D01*
X001522Y008906D02*
X001472Y008906D01*
X001472Y008808D02*
X001522Y008808D01*
X001522Y008709D02*
X001472Y008709D01*
X001472Y008611D02*
X001522Y008611D01*
X001522Y008512D02*
X001472Y008512D01*
X001472Y008414D02*
X001522Y008414D01*
X001522Y008315D02*
X001472Y008315D01*
X001472Y008217D02*
X001522Y008217D01*
X001522Y008118D02*
X001472Y008118D01*
X001472Y008020D02*
X001522Y008020D01*
X001522Y007921D02*
X001472Y007921D01*
X001472Y007823D02*
X001522Y007823D01*
X001522Y007724D02*
X001472Y007724D01*
X001472Y007626D02*
X001522Y007626D01*
X001522Y007527D02*
X001472Y007527D01*
X001472Y007429D02*
X001522Y007429D01*
X001522Y007330D02*
X001472Y007330D01*
X001472Y007232D02*
X001522Y007232D01*
X001522Y007133D02*
X001472Y007133D01*
X001472Y007035D02*
X001522Y007035D01*
X001522Y006936D02*
X001472Y006936D01*
X001472Y006838D02*
X001522Y006838D01*
X001522Y006739D02*
X001472Y006739D01*
X001472Y006641D02*
X001522Y006641D01*
X001522Y006542D02*
X001472Y006542D01*
X001472Y006444D02*
X001522Y006444D01*
X001522Y006345D02*
X001472Y006345D01*
X001472Y006247D02*
X001522Y006247D01*
X001522Y006148D02*
X001472Y006148D01*
X001472Y006050D02*
X001522Y006050D01*
X001522Y005951D02*
X001472Y005951D01*
X001472Y005853D02*
X001522Y005853D01*
X001522Y005754D02*
X001472Y005754D01*
X001472Y005656D02*
X001522Y005656D01*
X001522Y005557D02*
X001472Y005557D01*
X001472Y005459D02*
X001522Y005459D01*
X001522Y005360D02*
X001472Y005360D01*
X001472Y005262D02*
X001522Y005262D01*
X001522Y005163D02*
X001472Y005163D01*
X001472Y005065D02*
X001522Y005065D01*
X001522Y004966D02*
X001472Y004966D01*
X001472Y004868D02*
X001522Y004868D01*
X001522Y004769D02*
X001472Y004769D01*
X001472Y004671D02*
X001522Y004671D01*
X001522Y004572D02*
X001472Y004572D01*
X001472Y004474D02*
X001522Y004474D01*
X001522Y004375D02*
X001472Y004375D01*
X001472Y004277D02*
X001522Y004277D01*
X001522Y004178D02*
X001472Y004178D01*
X001472Y004080D02*
X001522Y004080D01*
X001522Y003981D02*
X001472Y003981D01*
X001472Y003883D02*
X001544Y003883D01*
X001568Y003784D02*
X001472Y003784D01*
X001472Y003686D02*
X001635Y003686D01*
X001272Y002454D02*
X001272Y019014D01*
X001473Y019052D02*
X002548Y019052D01*
X002548Y019150D02*
X001477Y019150D01*
X001491Y019249D02*
X002548Y019249D01*
X002548Y019347D02*
X001516Y019347D01*
X001541Y019446D02*
X002548Y019446D01*
X002548Y019544D02*
X001570Y019544D01*
X001627Y019643D02*
X002548Y019643D01*
X002548Y019741D02*
X001683Y019741D01*
X001747Y019840D02*
X002548Y019840D01*
X002548Y019938D02*
X001845Y019938D01*
X001944Y020037D02*
X002548Y020037D01*
X002548Y020135D02*
X002101Y020135D01*
X002296Y020234D02*
X002548Y020234D01*
X002748Y020514D02*
X002748Y014018D01*
X002847Y013920D01*
X017365Y013920D01*
X017463Y014018D01*
X017463Y020514D01*
X019382Y020514D01*
X019851Y020234D02*
X017663Y020234D01*
X017663Y020135D02*
X020074Y020135D01*
X020232Y020037D02*
X017663Y020037D01*
X017663Y019938D02*
X020342Y019938D01*
X020433Y019840D02*
X017663Y019840D01*
X017663Y019741D02*
X020522Y019741D01*
X020573Y019643D02*
X017663Y019643D01*
X017663Y019544D02*
X020623Y019544D01*
X020674Y019446D02*
X017663Y019446D01*
X017663Y019347D02*
X020700Y019347D01*
X020721Y019249D02*
X017663Y019249D01*
X017663Y019150D02*
X020742Y019150D01*
X020756Y019052D02*
X017663Y019052D01*
X017663Y018953D02*
X020757Y018953D01*
X020755Y018855D02*
X017663Y018855D01*
X017663Y018756D02*
X020757Y018756D01*
X020757Y018658D02*
X017663Y018658D01*
X017663Y018559D02*
X020757Y018559D01*
X020757Y018461D02*
X017663Y018461D01*
X017663Y018362D02*
X020757Y018362D01*
X020757Y018264D02*
X017663Y018264D01*
X017663Y018165D02*
X020757Y018165D01*
X020757Y018067D02*
X017663Y018067D01*
X017663Y017968D02*
X020757Y017968D01*
X020757Y017870D02*
X017663Y017870D01*
X017663Y017771D02*
X020757Y017771D01*
X020757Y017673D02*
X017663Y017673D01*
X017663Y017574D02*
X020757Y017574D01*
X020757Y017476D02*
X017663Y017476D01*
X017663Y017377D02*
X020757Y017377D01*
X020757Y017279D02*
X017663Y017279D01*
X017663Y017180D02*
X020757Y017180D01*
X020757Y017082D02*
X017663Y017082D01*
X017663Y016983D02*
X020757Y016983D01*
X020757Y016885D02*
X017663Y016885D01*
X017663Y016786D02*
X020757Y016786D01*
X020757Y016688D02*
X017663Y016688D01*
X017663Y016589D02*
X020757Y016589D01*
X020757Y016491D02*
X017663Y016491D01*
X017663Y016392D02*
X020757Y016392D01*
X020757Y016294D02*
X017663Y016294D01*
X017663Y016195D02*
X020757Y016195D01*
X020757Y016097D02*
X017663Y016097D01*
X017663Y015998D02*
X020757Y015998D01*
X020757Y015900D02*
X017663Y015900D01*
X017663Y015801D02*
X020757Y015801D01*
X020757Y015703D02*
X017663Y015703D01*
X017663Y015604D02*
X020757Y015604D01*
X020757Y015506D02*
X017663Y015506D01*
X017663Y015407D02*
X020757Y015407D01*
X020757Y015309D02*
X017663Y015309D01*
X017663Y015210D02*
X020757Y015210D01*
X020757Y015112D02*
X017663Y015112D01*
X017663Y015013D02*
X020757Y015013D01*
X020757Y014915D02*
X017663Y014915D01*
X017663Y014816D02*
X020757Y014816D01*
X020757Y014718D02*
X017663Y014718D01*
X017663Y014619D02*
X020757Y014619D01*
X020757Y014521D02*
X017663Y014521D01*
X017663Y014422D02*
X020757Y014422D01*
X020757Y014324D02*
X017663Y014324D01*
X017663Y014225D02*
X020757Y014225D01*
X020757Y014127D02*
X017663Y014127D01*
X017663Y014028D02*
X020757Y014028D01*
X020757Y013930D02*
X017657Y013930D01*
X017565Y013837D02*
X017565Y013837D01*
X017559Y013831D02*
X020757Y013831D01*
X020757Y013733D02*
X017460Y013733D01*
X016052Y013634D02*
X020757Y013634D01*
X020757Y013536D02*
X016052Y013536D01*
X016052Y013437D02*
X020757Y013437D01*
X020757Y013339D02*
X016052Y013339D01*
X016052Y013240D02*
X020757Y013240D01*
X020757Y013142D02*
X016052Y013142D01*
X016052Y013043D02*
X020757Y013043D01*
X020757Y012945D02*
X015572Y012945D01*
X015572Y012846D02*
X015472Y012846D01*
X015472Y012748D02*
X015572Y012748D01*
X015572Y012649D02*
X015472Y012649D01*
X015472Y012551D02*
X015572Y012551D01*
X015572Y012452D02*
X015472Y012452D01*
X015472Y012354D02*
X015572Y012354D01*
X015572Y012255D02*
X015472Y012255D01*
X015472Y012157D02*
X015572Y012157D01*
X015572Y012058D02*
X015472Y012058D01*
X015082Y011960D02*
X020757Y011960D01*
X020757Y012058D02*
X015937Y012058D01*
X016045Y012157D02*
X020757Y012157D01*
X020757Y012255D02*
X016052Y012255D01*
X016052Y012354D02*
X020757Y012354D01*
X020757Y012452D02*
X016052Y012452D01*
X016052Y012551D02*
X020757Y012551D01*
X020757Y012649D02*
X016052Y012649D01*
X016052Y012748D02*
X020757Y012748D01*
X020757Y012846D02*
X016052Y012846D01*
X015022Y011861D02*
X020757Y011861D01*
X020757Y011763D02*
X015022Y011763D01*
X015022Y011664D02*
X020757Y011664D01*
X020757Y011566D02*
X015022Y011566D01*
X015022Y011467D02*
X020757Y011467D01*
X020757Y011369D02*
X015022Y011369D01*
X015022Y011270D02*
X020757Y011270D01*
X020757Y011172D02*
X015285Y011172D01*
X015434Y011073D02*
X020757Y011073D01*
X020757Y010975D02*
X015487Y010975D01*
X015500Y010876D02*
X020757Y010876D01*
X020757Y010778D02*
X015522Y010778D01*
X015522Y010679D02*
X020757Y010679D01*
X020757Y010581D02*
X015512Y010581D01*
X015500Y010482D02*
X020757Y010482D01*
X020757Y010384D02*
X015466Y010384D01*
X015384Y010285D02*
X020757Y010285D01*
X020757Y010187D02*
X012702Y010187D01*
X012674Y010285D02*
X013359Y010285D01*
X013260Y010384D02*
X013214Y010384D01*
X012580Y010384D02*
X012576Y010384D01*
X012455Y010504D02*
X012450Y010509D01*
X012312Y010509D01*
X012312Y010119D01*
X012232Y010119D01*
X012232Y010509D01*
X012094Y010509D01*
X012022Y010437D01*
X012022Y011929D01*
X012022Y011929D01*
X012022Y011105D01*
X012098Y010921D01*
X012419Y010600D01*
X012419Y010591D01*
X012455Y010504D01*
X012423Y010581D02*
X012022Y010581D01*
X012022Y010679D02*
X012340Y010679D01*
X012241Y010778D02*
X012022Y010778D01*
X012022Y010876D02*
X012143Y010876D01*
X012076Y010975D02*
X012022Y010975D01*
X012022Y011073D02*
X012035Y011073D01*
X012022Y011172D02*
X012022Y011172D01*
X012022Y011270D02*
X012022Y011270D01*
X012022Y011369D02*
X012022Y011369D01*
X012022Y011467D02*
X012022Y011467D01*
X012022Y011566D02*
X012022Y011566D01*
X012022Y011664D02*
X012022Y011664D01*
X012022Y011763D02*
X012022Y011763D01*
X012022Y011861D02*
X012022Y011861D01*
X012022Y010482D02*
X012067Y010482D01*
X012232Y010482D02*
X012312Y010482D01*
X012312Y010384D02*
X012232Y010384D01*
X012232Y010285D02*
X012312Y010285D01*
X012312Y010187D02*
X012232Y010187D01*
X012312Y010088D02*
X020757Y010088D01*
X020757Y009990D02*
X012702Y009990D01*
X012692Y009891D02*
X020757Y009891D01*
X020757Y009793D02*
X012594Y009793D01*
X012495Y009694D02*
X020757Y009694D01*
X020757Y009596D02*
X012022Y009596D01*
X012022Y009694D02*
X012049Y009694D01*
X012232Y009694D02*
X012312Y009694D01*
X012312Y009793D02*
X012232Y009793D01*
X012232Y009891D02*
X012312Y009891D01*
X012312Y009990D02*
X012232Y009990D01*
X012022Y009497D02*
X020757Y009497D01*
X020757Y009399D02*
X012022Y009399D01*
X012022Y009300D02*
X020757Y009300D01*
X020757Y009202D02*
X012022Y009202D01*
X012022Y009103D02*
X020757Y009103D01*
X020757Y009005D02*
X012455Y009005D01*
X012553Y008906D02*
X020757Y008906D01*
X020757Y008808D02*
X012652Y008808D01*
X012702Y008709D02*
X020757Y008709D01*
X020757Y008611D02*
X012312Y008611D01*
X012312Y008709D02*
X012232Y008709D01*
X012232Y008808D02*
X012312Y008808D01*
X012312Y008906D02*
X012232Y008906D01*
X012232Y009005D02*
X012312Y009005D01*
X012089Y009005D02*
X012022Y009005D01*
X012232Y008512D02*
X012312Y008512D01*
X012312Y008414D02*
X012232Y008414D01*
X012232Y008315D02*
X012312Y008315D01*
X012312Y008217D02*
X012232Y008217D01*
X012026Y008217D02*
X012022Y008217D01*
X012022Y008118D02*
X020757Y008118D01*
X020757Y008020D02*
X012022Y008020D01*
X012022Y007921D02*
X020757Y007921D01*
X020757Y007823D02*
X012022Y007823D01*
X012022Y007724D02*
X020757Y007724D01*
X020757Y007626D02*
X012022Y007626D01*
X012022Y007527D02*
X020757Y007527D01*
X020757Y007429D02*
X012531Y007429D01*
X012629Y007330D02*
X020757Y007330D01*
X020757Y007232D02*
X012702Y007232D01*
X012702Y007133D02*
X020757Y007133D01*
X020757Y007035D02*
X012702Y007035D01*
X012702Y006936D02*
X020757Y006936D01*
X020757Y006838D02*
X012639Y006838D01*
X012540Y006739D02*
X020757Y006739D01*
X020757Y006641D02*
X012022Y006641D01*
X012022Y006542D02*
X020757Y006542D01*
X020757Y006444D02*
X012022Y006444D01*
X012022Y006345D02*
X020757Y006345D01*
X020757Y006247D02*
X012022Y006247D01*
X012022Y006148D02*
X020757Y006148D01*
X020757Y006050D02*
X012022Y006050D01*
X012022Y005951D02*
X012036Y005951D01*
X012232Y005951D02*
X012312Y005951D01*
X012312Y005853D02*
X012232Y005853D01*
X012232Y005754D02*
X012312Y005754D01*
X012312Y005656D02*
X012232Y005656D01*
X012312Y005557D02*
X020757Y005557D01*
X020757Y005459D02*
X012702Y005459D01*
X012661Y005360D02*
X020757Y005360D01*
X020757Y005262D02*
X016284Y005262D01*
X016395Y005163D02*
X020757Y005163D01*
X020757Y005065D02*
X016494Y005065D01*
X016592Y004966D02*
X020757Y004966D01*
X020757Y004868D02*
X016691Y004868D01*
X016789Y004769D02*
X020757Y004769D01*
X020757Y004671D02*
X016849Y004671D01*
X016889Y004572D02*
X020757Y004572D01*
X020757Y004474D02*
X016897Y004474D01*
X016897Y004375D02*
X020757Y004375D01*
X020757Y004277D02*
X016897Y004277D01*
X016897Y004178D02*
X020757Y004178D01*
X020757Y004080D02*
X016897Y004080D01*
X016897Y003981D02*
X017052Y003981D01*
X016953Y003883D02*
X016897Y003883D01*
X016897Y003827D02*
X016897Y003827D01*
X017743Y003981D02*
X020757Y003981D01*
X020757Y003883D02*
X018629Y003883D01*
X018727Y003784D02*
X020757Y003784D01*
X020757Y003686D02*
X018826Y003686D01*
X018917Y003587D02*
X020757Y003587D01*
X020757Y003489D02*
X018917Y003489D01*
X018917Y003292D02*
X020757Y003292D01*
X020757Y003390D02*
X018447Y003390D01*
X018447Y003292D02*
X018347Y003292D01*
X018347Y003193D02*
X018447Y003193D01*
X018447Y003095D02*
X018347Y003095D01*
X018347Y002996D02*
X018447Y002996D01*
X018447Y002898D02*
X018347Y002898D01*
X018347Y002701D02*
X018447Y002701D01*
X018447Y002602D02*
X018347Y002602D01*
X018347Y002504D02*
X018447Y002504D01*
X018447Y002405D02*
X018347Y002405D01*
X018447Y002307D02*
X020755Y002307D01*
X020757Y002405D02*
X018917Y002405D01*
X018908Y002504D02*
X020757Y002504D01*
X020757Y002602D02*
X018809Y002602D01*
X018711Y002701D02*
X020757Y002701D01*
X020757Y002799D02*
X017825Y002799D01*
X017863Y002898D02*
X018143Y002898D01*
X018045Y002996D02*
X017962Y002996D01*
X017923Y002701D02*
X018083Y002701D01*
X018651Y002898D02*
X020757Y002898D01*
X020757Y002996D02*
X018749Y002996D01*
X018848Y003095D02*
X020757Y003095D01*
X020757Y003193D02*
X018917Y003193D01*
X018447Y003489D02*
X018347Y003489D01*
X018347Y003587D02*
X018447Y003587D01*
X018447Y003686D02*
X018347Y003686D01*
X018347Y003784D02*
X018447Y003784D01*
X018447Y003883D02*
X018347Y003883D01*
X018165Y003883D02*
X017841Y003883D01*
X017940Y003784D02*
X018067Y003784D01*
X019332Y000829D02*
X019409Y000826D01*
X019486Y000827D01*
X019563Y000832D01*
X019640Y000841D01*
X019716Y000854D01*
X019791Y000870D01*
X019866Y000891D01*
X019939Y000915D01*
X020011Y000943D01*
X020082Y000974D01*
X020151Y001009D01*
X020218Y001047D01*
X020283Y001089D01*
X020346Y001133D01*
X020406Y001181D01*
X020464Y001232D01*
X020520Y001286D01*
X020572Y001343D01*
X020622Y001402D01*
X020668Y001463D01*
X020712Y001527D01*
X020752Y001593D01*
X020789Y001661D01*
X020822Y001730D01*
X020852Y001801D01*
X020879Y001874D01*
X020901Y001948D01*
X020920Y002023D01*
X020935Y002098D01*
X020946Y002175D01*
X020953Y002252D01*
X020957Y002329D01*
X020957Y002404D02*
X020957Y018889D01*
X020957Y018939D01*
X020957Y018889D02*
X020960Y018966D01*
X020959Y019043D01*
X020954Y019120D01*
X020945Y019197D01*
X020932Y019273D01*
X020916Y019348D01*
X020895Y019423D01*
X020871Y019496D01*
X020843Y019568D01*
X020812Y019639D01*
X020777Y019708D01*
X020739Y019775D01*
X020697Y019840D01*
X020653Y019903D01*
X020605Y019963D01*
X020554Y020021D01*
X020500Y020077D01*
X020443Y020129D01*
X020384Y020179D01*
X020323Y020225D01*
X020259Y020269D01*
X020193Y020309D01*
X020125Y020346D01*
X020056Y020379D01*
X019985Y020409D01*
X019912Y020436D01*
X019838Y020458D01*
X019763Y020477D01*
X019688Y020492D01*
X019611Y020503D01*
X019534Y020510D01*
X019457Y020514D01*
X009022Y011929D02*
X009022Y010659D01*
X008782Y010659D01*
X008442Y010319D01*
X008442Y009839D01*
X008782Y009499D01*
X009147Y009499D01*
X009147Y009159D01*
X008782Y009159D01*
X008442Y008819D01*
X008442Y008339D01*
X008782Y007999D01*
X009147Y007999D01*
X009147Y007659D01*
X008782Y007659D01*
X008442Y007319D01*
X008442Y006839D01*
X008782Y006499D01*
X009147Y006499D01*
X009147Y006159D01*
X008782Y006159D01*
X008442Y005819D01*
X008442Y005339D01*
X008682Y005099D01*
X008669Y005067D01*
X008669Y004981D01*
X008647Y004929D01*
X008647Y004829D01*
X007729Y004829D01*
X007409Y005149D01*
X007482Y005149D01*
X007482Y005539D01*
X007562Y005539D01*
X007562Y005149D01*
X007700Y005149D01*
X007952Y005401D01*
X007952Y005539D01*
X007562Y005539D01*
X007562Y005619D01*
X007952Y005619D01*
X007952Y005757D01*
X007700Y006009D01*
X007562Y006009D01*
X007562Y005619D01*
X007482Y005619D01*
X007482Y005539D01*
X007092Y005539D01*
X007092Y005466D01*
X006897Y005661D01*
X006897Y009179D01*
X006821Y009362D01*
X006272Y009911D01*
X006272Y010429D01*
X006196Y010612D01*
X005897Y010911D01*
X005897Y011904D01*
X005962Y011904D01*
X006072Y011950D01*
X006156Y012034D01*
X006165Y012054D01*
X006472Y012054D01*
X006472Y012904D01*
X006572Y012904D01*
X006572Y012054D01*
X006879Y012054D01*
X006888Y012034D01*
X006972Y011950D01*
X007022Y011929D01*
X007022Y010730D01*
X007044Y010677D01*
X007044Y010591D01*
X007090Y010481D01*
X007174Y010397D01*
X007215Y010380D01*
X007092Y010257D01*
X007092Y010119D01*
X007482Y010119D01*
X007482Y010039D01*
X007562Y010039D01*
X007562Y009649D01*
X007700Y009649D01*
X007952Y009901D01*
X007952Y010039D01*
X007562Y010039D01*
X007562Y010119D01*
X007952Y010119D01*
X007952Y010257D01*
X007829Y010380D01*
X007870Y010397D01*
X007954Y010481D01*
X008000Y010591D01*
X008000Y010677D01*
X008022Y010730D01*
X008022Y011929D01*
X008072Y011950D01*
X008156Y012034D01*
X008165Y012054D01*
X008472Y012054D01*
X008472Y012904D01*
X008572Y012904D01*
X008572Y012054D01*
X008879Y012054D01*
X008888Y012034D01*
X008972Y011950D01*
X009022Y011929D01*
X008962Y011960D02*
X008082Y011960D01*
X008022Y011861D02*
X009022Y011861D01*
X009022Y011763D02*
X008022Y011763D01*
X008022Y011664D02*
X009022Y011664D01*
X009022Y011566D02*
X008022Y011566D01*
X008022Y011467D02*
X009022Y011467D01*
X009022Y011369D02*
X008022Y011369D01*
X008022Y011270D02*
X009022Y011270D01*
X009022Y011172D02*
X008022Y011172D01*
X008022Y011073D02*
X009022Y011073D01*
X009022Y010975D02*
X008022Y010975D01*
X008022Y010876D02*
X009022Y010876D01*
X009022Y010778D02*
X008022Y010778D01*
X008001Y010679D02*
X009022Y010679D01*
X008703Y010581D02*
X007996Y010581D01*
X007955Y010482D02*
X008605Y010482D01*
X008506Y010384D02*
X007839Y010384D01*
X007924Y010285D02*
X008442Y010285D01*
X008442Y010187D02*
X007952Y010187D01*
X007952Y009990D02*
X008442Y009990D01*
X008442Y010088D02*
X007562Y010088D01*
X007482Y010088D02*
X006272Y010088D01*
X006272Y009990D02*
X007092Y009990D01*
X007092Y010039D02*
X007092Y009901D01*
X007344Y009649D01*
X007482Y009649D01*
X007482Y010039D01*
X007092Y010039D01*
X007092Y010187D02*
X006272Y010187D01*
X006272Y010285D02*
X007120Y010285D01*
X007205Y010384D02*
X006272Y010384D01*
X006250Y010482D02*
X007089Y010482D01*
X007048Y010581D02*
X006209Y010581D01*
X006129Y010679D02*
X007043Y010679D01*
X007022Y010778D02*
X006031Y010778D01*
X005932Y010876D02*
X007022Y010876D01*
X007022Y010975D02*
X005897Y010975D01*
X005897Y011073D02*
X007022Y011073D01*
X007022Y011172D02*
X005897Y011172D01*
X005897Y011270D02*
X007022Y011270D01*
X007022Y011369D02*
X005897Y011369D01*
X005897Y011467D02*
X007022Y011467D01*
X007022Y011566D02*
X005897Y011566D01*
X005897Y011664D02*
X007022Y011664D01*
X007022Y011763D02*
X005897Y011763D01*
X005897Y011861D02*
X007022Y011861D01*
X006962Y011960D02*
X006082Y011960D01*
X006472Y012058D02*
X006572Y012058D01*
X006572Y012157D02*
X006472Y012157D01*
X006472Y012255D02*
X006572Y012255D01*
X006572Y012354D02*
X006472Y012354D01*
X006472Y012452D02*
X006572Y012452D01*
X006572Y012551D02*
X006472Y012551D01*
X006472Y012649D02*
X006572Y012649D01*
X006572Y012748D02*
X006472Y012748D01*
X006472Y012846D02*
X006572Y012846D01*
X004894Y011960D02*
X001472Y011960D01*
X001472Y012058D02*
X004107Y012058D01*
X004122Y012054D02*
X004472Y012054D01*
X004472Y012904D01*
X003992Y012904D01*
X003992Y012184D01*
X004002Y012146D01*
X004022Y012112D01*
X004050Y012084D01*
X004084Y012064D01*
X004122Y012054D01*
X003999Y012157D02*
X001472Y012157D01*
X001472Y012255D02*
X003992Y012255D01*
X003992Y012354D02*
X001472Y012354D01*
X001472Y012452D02*
X003992Y012452D01*
X003992Y012551D02*
X001472Y012551D01*
X001472Y012649D02*
X003992Y012649D01*
X003992Y012748D02*
X001472Y012748D01*
X001472Y012846D02*
X003992Y012846D01*
X003992Y013043D02*
X001472Y013043D01*
X001472Y012945D02*
X004472Y012945D01*
X004472Y012846D02*
X004572Y012846D01*
X004572Y012748D02*
X004472Y012748D01*
X004472Y012649D02*
X004572Y012649D01*
X004572Y012551D02*
X004472Y012551D01*
X004472Y012452D02*
X004572Y012452D01*
X004572Y012354D02*
X004472Y012354D01*
X004472Y012255D02*
X004572Y012255D01*
X004572Y012157D02*
X004472Y012157D01*
X004472Y012058D02*
X004572Y012058D01*
X004897Y011861D02*
X001472Y011861D01*
X001472Y011763D02*
X004897Y011763D01*
X004897Y011664D02*
X001472Y011664D01*
X001472Y011566D02*
X004897Y011566D01*
X004897Y011467D02*
X001472Y011467D01*
X001472Y011369D02*
X004897Y011369D01*
X004897Y011270D02*
X001472Y011270D01*
X001472Y011172D02*
X004897Y011172D01*
X004897Y011073D02*
X001472Y011073D01*
X001472Y010975D02*
X004897Y010975D01*
X004414Y010876D02*
X001472Y010876D01*
X001472Y010778D02*
X004329Y010778D01*
X004294Y010679D02*
X001472Y010679D01*
X001472Y010581D02*
X004283Y010581D01*
X004272Y010482D02*
X001472Y010482D01*
X001472Y010384D02*
X004272Y010384D01*
X006292Y009891D02*
X007102Y009891D01*
X007200Y009793D02*
X006391Y009793D01*
X006489Y009694D02*
X007299Y009694D01*
X007482Y009694D02*
X007562Y009694D01*
X007562Y009793D02*
X007482Y009793D01*
X007482Y009891D02*
X007562Y009891D01*
X007562Y009990D02*
X007482Y009990D01*
X007844Y009793D02*
X008488Y009793D01*
X008442Y009891D02*
X007942Y009891D01*
X007745Y009694D02*
X008587Y009694D01*
X008685Y009596D02*
X006588Y009596D01*
X006686Y009497D02*
X009147Y009497D01*
X009147Y009399D02*
X006785Y009399D01*
X006847Y009300D02*
X009147Y009300D01*
X009147Y009202D02*
X006887Y009202D01*
X006897Y009103D02*
X008726Y009103D01*
X008627Y009005D02*
X007705Y009005D01*
X007700Y009009D02*
X007562Y009009D01*
X007562Y008619D01*
X007952Y008619D01*
X007952Y008757D01*
X007700Y009009D01*
X007562Y009005D02*
X007482Y009005D01*
X007482Y009009D02*
X007344Y009009D01*
X007092Y008757D01*
X007092Y008619D01*
X007482Y008619D01*
X007482Y008539D01*
X007562Y008539D01*
X007562Y008149D01*
X007700Y008149D01*
X007952Y008401D01*
X007952Y008539D01*
X007562Y008539D01*
X007562Y008619D01*
X007482Y008619D01*
X007482Y009009D01*
X007482Y008906D02*
X007562Y008906D01*
X007562Y008808D02*
X007482Y008808D01*
X007482Y008709D02*
X007562Y008709D01*
X007562Y008611D02*
X008442Y008611D01*
X008442Y008709D02*
X007952Y008709D01*
X007902Y008808D02*
X008442Y008808D01*
X008529Y008906D02*
X007803Y008906D01*
X007952Y008512D02*
X008442Y008512D01*
X008442Y008414D02*
X007952Y008414D01*
X007866Y008315D02*
X008466Y008315D01*
X008564Y008217D02*
X007768Y008217D01*
X007562Y008217D02*
X007482Y008217D01*
X007482Y008149D02*
X007344Y008149D01*
X007092Y008401D01*
X007092Y008539D01*
X007482Y008539D01*
X007482Y008149D01*
X007482Y008315D02*
X007562Y008315D01*
X007562Y008414D02*
X007482Y008414D01*
X007482Y008512D02*
X007562Y008512D01*
X007482Y008611D02*
X006897Y008611D01*
X006897Y008709D02*
X007092Y008709D01*
X007142Y008808D02*
X006897Y008808D01*
X006897Y008906D02*
X007241Y008906D01*
X007339Y009005D02*
X006897Y009005D01*
X006897Y008512D02*
X007092Y008512D01*
X007092Y008414D02*
X006897Y008414D01*
X006897Y008315D02*
X007178Y008315D01*
X007276Y008217D02*
X006897Y008217D01*
X006897Y008118D02*
X008663Y008118D01*
X008761Y008020D02*
X006897Y008020D01*
X006897Y007921D02*
X009147Y007921D01*
X009147Y007823D02*
X006897Y007823D01*
X006897Y007724D02*
X009147Y007724D01*
X008748Y007626D02*
X006897Y007626D01*
X006897Y007527D02*
X008650Y007527D01*
X008551Y007429D02*
X007781Y007429D01*
X007700Y007509D02*
X007562Y007509D01*
X007562Y007119D01*
X007952Y007119D01*
X007952Y007257D01*
X007700Y007509D01*
X007562Y007429D02*
X007482Y007429D01*
X007482Y007509D02*
X007344Y007509D01*
X007092Y007257D01*
X007092Y007119D01*
X007482Y007119D01*
X007482Y007039D01*
X007562Y007039D01*
X007562Y006649D01*
X007700Y006649D01*
X007952Y006901D01*
X007952Y007039D01*
X007562Y007039D01*
X007562Y007119D01*
X007482Y007119D01*
X007482Y007509D01*
X007482Y007330D02*
X007562Y007330D01*
X007562Y007232D02*
X007482Y007232D01*
X007482Y007133D02*
X007562Y007133D01*
X007562Y007035D02*
X007482Y007035D01*
X007482Y007039D02*
X007482Y006649D01*
X007344Y006649D01*
X007092Y006901D01*
X007092Y007039D01*
X007482Y007039D01*
X007482Y006936D02*
X007562Y006936D01*
X007562Y006838D02*
X007482Y006838D01*
X007482Y006739D02*
X007562Y006739D01*
X007790Y006739D02*
X008542Y006739D01*
X008640Y006641D02*
X006897Y006641D01*
X006897Y006739D02*
X007254Y006739D01*
X007155Y006838D02*
X006897Y006838D01*
X006897Y006936D02*
X007092Y006936D01*
X007092Y007035D02*
X006897Y007035D01*
X006897Y007133D02*
X007092Y007133D01*
X007092Y007232D02*
X006897Y007232D01*
X006897Y007330D02*
X007165Y007330D01*
X007263Y007429D02*
X006897Y007429D01*
X006897Y006542D02*
X008739Y006542D01*
X008443Y006838D02*
X007889Y006838D01*
X007952Y006936D02*
X008442Y006936D01*
X008442Y007035D02*
X007952Y007035D01*
X007952Y007133D02*
X008442Y007133D01*
X008442Y007232D02*
X007952Y007232D01*
X007879Y007330D02*
X008453Y007330D01*
X009147Y006444D02*
X006897Y006444D01*
X006897Y006345D02*
X009147Y006345D01*
X009147Y006247D02*
X006897Y006247D01*
X006897Y006148D02*
X008771Y006148D01*
X008672Y006050D02*
X006897Y006050D01*
X006897Y005951D02*
X007286Y005951D01*
X007344Y006009D02*
X007092Y005757D01*
X007092Y005619D01*
X007482Y005619D01*
X007482Y006009D01*
X007344Y006009D01*
X007482Y005951D02*
X007562Y005951D01*
X007562Y005853D02*
X007482Y005853D01*
X007482Y005754D02*
X007562Y005754D01*
X007562Y005656D02*
X007482Y005656D01*
X007482Y005557D02*
X007001Y005557D01*
X007092Y005656D02*
X006903Y005656D01*
X006897Y005754D02*
X007092Y005754D01*
X007187Y005853D02*
X006897Y005853D01*
X007482Y005459D02*
X007562Y005459D01*
X007562Y005557D02*
X008442Y005557D01*
X008442Y005459D02*
X007952Y005459D01*
X007911Y005360D02*
X008442Y005360D01*
X008519Y005262D02*
X007813Y005262D01*
X007714Y005163D02*
X008618Y005163D01*
X008669Y005065D02*
X007494Y005065D01*
X007482Y005163D02*
X007562Y005163D01*
X007562Y005262D02*
X007482Y005262D01*
X007482Y005360D02*
X007562Y005360D01*
X007592Y004966D02*
X008663Y004966D01*
X008647Y004868D02*
X007691Y004868D01*
X007952Y005656D02*
X008442Y005656D01*
X008442Y005754D02*
X007952Y005754D01*
X007857Y005853D02*
X008475Y005853D01*
X008574Y005951D02*
X007758Y005951D01*
X006413Y003981D02*
X003411Y003981D01*
X003510Y003883D02*
X004785Y003883D01*
X004813Y003897D02*
X004743Y003861D01*
X004679Y003815D01*
X004623Y003759D01*
X004577Y003695D01*
X004541Y003625D01*
X004516Y003549D01*
X004504Y003471D01*
X004504Y003129D01*
X004956Y003129D01*
X004956Y003932D01*
X004889Y003922D01*
X004813Y003897D01*
X004956Y003883D02*
X005056Y003883D01*
X005056Y003932D02*
X005056Y003129D01*
X005509Y003129D01*
X005509Y003471D01*
X005496Y003549D01*
X005472Y003625D01*
X005436Y003695D01*
X005390Y003759D01*
X005334Y003815D01*
X005270Y003861D01*
X005199Y003897D01*
X005124Y003922D01*
X005056Y003932D01*
X005056Y003784D02*
X004956Y003784D01*
X004956Y003686D02*
X005056Y003686D01*
X005056Y003587D02*
X004956Y003587D01*
X004956Y003489D02*
X005056Y003489D01*
X005056Y003390D02*
X004956Y003390D01*
X004956Y003292D02*
X005056Y003292D01*
X005056Y003193D02*
X004956Y003193D01*
X004956Y003095D02*
X003690Y003095D01*
X003690Y003193D02*
X004504Y003193D01*
X004504Y003292D02*
X003690Y003292D01*
X003690Y003390D02*
X004504Y003390D01*
X004507Y003489D02*
X003690Y003489D01*
X003680Y003587D02*
X004528Y003587D01*
X004572Y003686D02*
X003639Y003686D01*
X003598Y003784D02*
X004648Y003784D01*
X005228Y003883D02*
X006511Y003883D01*
X006564Y003784D02*
X005364Y003784D01*
X005441Y003686D02*
X006421Y003686D01*
X006323Y003587D02*
X005484Y003587D01*
X005506Y003489D02*
X006224Y003489D01*
X006126Y003390D02*
X005509Y003390D01*
X005509Y003292D02*
X006027Y003292D01*
X005929Y003193D02*
X005509Y003193D01*
X005509Y002996D02*
X005732Y002996D01*
X005633Y002898D02*
X005509Y002898D01*
X005509Y002799D02*
X005535Y002799D01*
X005830Y003095D02*
X005056Y003095D01*
X004504Y002996D02*
X003690Y002996D01*
X003690Y002898D02*
X004504Y002898D01*
X004504Y002799D02*
X003690Y002799D01*
X003690Y002701D02*
X004504Y002701D01*
X004518Y002602D02*
X003690Y002602D01*
X002772Y000829D02*
X002695Y000833D01*
X002618Y000840D01*
X002541Y000851D01*
X002466Y000866D01*
X002391Y000885D01*
X002317Y000907D01*
X002244Y000934D01*
X002173Y000964D01*
X002104Y000997D01*
X002036Y001034D01*
X001970Y001074D01*
X001906Y001118D01*
X001845Y001164D01*
X001786Y001214D01*
X001729Y001266D01*
X001675Y001322D01*
X001624Y001380D01*
X001576Y001440D01*
X001532Y001503D01*
X001490Y001568D01*
X001452Y001635D01*
X001417Y001704D01*
X001386Y001775D01*
X001358Y001847D01*
X001334Y001920D01*
X001313Y001995D01*
X001297Y002070D01*
X001284Y002146D01*
X001275Y002223D01*
X001270Y002300D01*
X001269Y002377D01*
X001272Y002454D01*
X001272Y002404D01*
X001782Y001519D02*
X020457Y001519D01*
X020519Y001617D02*
X017683Y001617D01*
X017781Y001716D02*
X020580Y001716D01*
X020641Y001814D02*
X018667Y001814D01*
X018766Y001913D02*
X020670Y001913D01*
X020699Y002011D02*
X018864Y002011D01*
X018917Y002110D02*
X020728Y002110D01*
X020746Y002208D02*
X018917Y002208D01*
X018447Y002208D02*
X018347Y002208D01*
X018347Y002110D02*
X018447Y002110D01*
X018447Y002011D02*
X018347Y002011D01*
X018347Y001913D02*
X018447Y001913D01*
X018447Y001814D02*
X018347Y001814D01*
X018127Y001814D02*
X017880Y001814D01*
X017978Y001913D02*
X018028Y001913D01*
X017112Y001617D02*
X016683Y001617D01*
X016781Y001716D02*
X017013Y001716D01*
X016915Y001814D02*
X016880Y001814D01*
X016112Y001617D02*
X015683Y001617D01*
X015781Y001716D02*
X016013Y001716D01*
X015915Y001814D02*
X015880Y001814D01*
X015112Y001617D02*
X014683Y001617D01*
X014781Y001716D02*
X015013Y001716D01*
X014915Y001814D02*
X014880Y001814D01*
X014112Y001617D02*
X005838Y001617D01*
X005991Y001716D02*
X014013Y001716D01*
X013915Y001814D02*
X011856Y001814D01*
X011938Y001913D02*
X013816Y001913D01*
X013727Y002011D02*
X011972Y002011D01*
X011972Y002110D02*
X013727Y002110D01*
X013727Y002208D02*
X011972Y002208D01*
X011972Y002307D02*
X013727Y002307D01*
X013727Y002405D02*
X011972Y002405D01*
X011972Y002504D02*
X013727Y002504D01*
X013773Y002602D02*
X011972Y002602D01*
X011972Y002701D02*
X013871Y002701D01*
X013970Y002799D02*
X011972Y002799D01*
X011972Y002898D02*
X013931Y002898D01*
X013833Y002996D02*
X011938Y002996D01*
X013284Y003095D02*
X013734Y003095D01*
X013727Y003193D02*
X013542Y003193D01*
X013605Y003292D02*
X013727Y003292D01*
X013727Y003390D02*
X013625Y003390D01*
X013647Y003489D02*
X013727Y003489D01*
X013727Y003587D02*
X013647Y003587D01*
X013644Y003686D02*
X013756Y003686D01*
X012702Y005656D02*
X020757Y005656D01*
X020757Y005754D02*
X012702Y005754D01*
X012607Y005853D02*
X020757Y005853D01*
X020757Y005951D02*
X012508Y005951D01*
X012312Y006739D02*
X012232Y006739D01*
X012232Y006838D02*
X012312Y006838D01*
X012312Y006936D02*
X012232Y006936D01*
X012232Y007035D02*
X012312Y007035D01*
X012312Y007133D02*
X012232Y007133D01*
X012232Y007232D02*
X012312Y007232D01*
X012312Y007330D02*
X012232Y007330D01*
X012232Y007429D02*
X012312Y007429D01*
X012518Y008217D02*
X020757Y008217D01*
X020757Y008315D02*
X012616Y008315D01*
X012702Y008414D02*
X020757Y008414D01*
X020757Y008512D02*
X012702Y008512D01*
X008572Y012058D02*
X008472Y012058D01*
X008472Y012157D02*
X008572Y012157D01*
X008572Y012255D02*
X008472Y012255D01*
X008472Y012354D02*
X008572Y012354D01*
X008572Y012452D02*
X008472Y012452D01*
X008472Y012551D02*
X008572Y012551D01*
X008572Y012649D02*
X008472Y012649D01*
X008472Y012748D02*
X008572Y012748D01*
X008572Y012846D02*
X008472Y012846D01*
X003992Y013142D02*
X001472Y013142D01*
X001472Y013240D02*
X003992Y013240D01*
X003992Y013339D02*
X001472Y013339D01*
X001472Y013437D02*
X003992Y013437D01*
X003992Y013536D02*
X001472Y013536D01*
X001472Y013634D02*
X003992Y013634D01*
X002751Y013733D02*
X001472Y013733D01*
X001472Y013831D02*
X002653Y013831D01*
X002554Y013930D02*
X001472Y013930D01*
X001472Y014028D02*
X002548Y014028D01*
X002548Y014127D02*
X001472Y014127D01*
X001472Y014225D02*
X002548Y014225D01*
X002548Y014324D02*
X001472Y014324D01*
X001472Y014422D02*
X002548Y014422D01*
X002548Y014521D02*
X001472Y014521D01*
X001472Y014619D02*
X002548Y014619D01*
X002548Y014718D02*
X001472Y014718D01*
X001472Y014816D02*
X002548Y014816D01*
X002548Y014915D02*
X001472Y014915D01*
X001472Y015013D02*
X002548Y015013D01*
X002548Y015112D02*
X001472Y015112D01*
X001472Y015210D02*
X002548Y015210D01*
X002548Y015309D02*
X001472Y015309D01*
X001472Y015407D02*
X002548Y015407D01*
X002548Y015506D02*
X001472Y015506D01*
X001472Y015604D02*
X002548Y015604D01*
X002548Y015703D02*
X001472Y015703D01*
X001472Y015801D02*
X002548Y015801D01*
X002548Y015900D02*
X001472Y015900D01*
X001472Y015998D02*
X002548Y015998D01*
X002548Y016097D02*
X001472Y016097D01*
X001472Y016195D02*
X002548Y016195D01*
X002548Y016294D02*
X001472Y016294D01*
X001472Y016392D02*
X002548Y016392D01*
X002548Y016491D02*
X001472Y016491D01*
X001472Y016589D02*
X002548Y016589D01*
X002548Y016688D02*
X001472Y016688D01*
X001472Y016786D02*
X002548Y016786D01*
X002548Y016885D02*
X001472Y016885D01*
X001472Y016983D02*
X002548Y016983D01*
X002548Y017082D02*
X001472Y017082D01*
X001472Y017180D02*
X002548Y017180D01*
X002548Y017279D02*
X001472Y017279D01*
X001472Y017377D02*
X002548Y017377D01*
X002548Y017476D02*
X001472Y017476D01*
X001472Y017574D02*
X002548Y017574D01*
X002548Y017673D02*
X001472Y017673D01*
X001472Y017771D02*
X002548Y017771D01*
X002548Y017870D02*
X001472Y017870D01*
X001472Y017968D02*
X002548Y017968D01*
X002548Y018067D02*
X001472Y018067D01*
X001472Y018165D02*
X002548Y018165D01*
X002548Y018264D02*
X001472Y018264D01*
X001472Y018362D02*
X002548Y018362D01*
X002548Y018461D02*
X001472Y018461D01*
X001472Y018559D02*
X002548Y018559D01*
X002548Y018658D02*
X001472Y018658D01*
X001472Y018756D02*
X002548Y018756D01*
X002548Y018855D02*
X001472Y018855D01*
X001472Y018953D02*
X002548Y018953D01*
X001272Y019038D02*
X001273Y019113D01*
X001277Y019188D01*
X001286Y019263D01*
X001298Y019337D01*
X001314Y019410D01*
X001334Y019483D01*
X001358Y019554D01*
X001385Y019624D01*
X001416Y019692D01*
X001450Y019759D01*
X001488Y019824D01*
X001529Y019887D01*
X001573Y019948D01*
X001621Y020006D01*
X001671Y020062D01*
X001724Y020115D01*
X001780Y020165D01*
X001838Y020213D01*
X001899Y020257D01*
X001962Y020298D01*
X002027Y020336D01*
X002094Y020370D01*
X002162Y020401D01*
X002232Y020428D01*
X002303Y020452D01*
X002376Y020472D01*
X002449Y020488D01*
X002523Y020500D01*
X002598Y020509D01*
X002673Y020513D01*
X002748Y020514D01*
X006388Y002208D02*
X006482Y002208D01*
X006523Y002110D02*
X006347Y002110D01*
X006286Y002011D02*
X006591Y002011D01*
X006690Y001913D02*
X006188Y001913D01*
X006089Y001814D02*
X006854Y001814D01*
X007422Y001814D02*
X008232Y001814D01*
X008068Y001913D02*
X007587Y001913D01*
X007685Y002011D02*
X007969Y002011D01*
X007901Y002110D02*
X007753Y002110D01*
X007794Y002208D02*
X007860Y002208D01*
X008800Y001814D02*
X009610Y001814D01*
X009446Y001913D02*
X008965Y001913D01*
X009063Y002011D02*
X009347Y002011D01*
X009279Y002110D02*
X009131Y002110D01*
X009172Y002208D02*
X009238Y002208D01*
X010178Y001814D02*
X010688Y001814D01*
X010606Y001913D02*
X010343Y001913D01*
X010441Y002011D02*
X010572Y002011D01*
X010572Y002110D02*
X010509Y002110D01*
X010550Y002208D02*
X010572Y002208D01*
X002847Y000829D02*
X019332Y000829D01*
X019382Y000829D01*
X019913Y001125D02*
X002327Y001125D01*
X002131Y001223D02*
X020104Y001223D01*
X020248Y001322D02*
X001973Y001322D01*
X001873Y001420D02*
X020355Y001420D01*
D11*
X012272Y005579D03*
X010772Y005579D03*
X010772Y007079D03*
X010772Y008579D03*
X012272Y008579D03*
X012272Y007079D03*
X012272Y010079D03*
X010772Y010079D03*
X009022Y010079D03*
X009022Y008579D03*
X009022Y007079D03*
X009022Y005579D03*
X007522Y005579D03*
X007522Y007079D03*
X007522Y008579D03*
X007522Y010079D03*
D12*
X002772Y014454D02*
X017272Y014454D01*
X017272Y016704D01*
X015772Y016704D01*
X015742Y016706D01*
X015712Y016711D01*
X015683Y016720D01*
X015656Y016733D01*
X015630Y016748D01*
X015606Y016767D01*
X015585Y016788D01*
X015566Y016812D01*
X015551Y016838D01*
X015538Y016865D01*
X015529Y016894D01*
X015524Y016924D01*
X015522Y016954D01*
X015522Y017704D01*
X015524Y017734D01*
X015529Y017764D01*
X015538Y017793D01*
X015551Y017820D01*
X015566Y017846D01*
X015585Y017870D01*
X015606Y017891D01*
X015630Y017910D01*
X015656Y017925D01*
X015683Y017938D01*
X015712Y017947D01*
X015742Y017952D01*
X015772Y017954D01*
X017272Y017954D01*
X017272Y020204D01*
X017272Y017954D02*
X017272Y016704D01*
X004522Y016954D02*
X004522Y017704D01*
X004520Y017734D01*
X004515Y017764D01*
X004506Y017793D01*
X004493Y017820D01*
X004478Y017846D01*
X004459Y017870D01*
X004438Y017891D01*
X004414Y017910D01*
X004388Y017925D01*
X004361Y017938D01*
X004332Y017947D01*
X004302Y017952D01*
X004272Y017954D01*
X002772Y017954D01*
X002772Y016704D01*
X004272Y016704D01*
X004302Y016706D01*
X004332Y016711D01*
X004361Y016720D01*
X004388Y016733D01*
X004414Y016748D01*
X004438Y016767D01*
X004459Y016788D01*
X004478Y016812D01*
X004493Y016838D01*
X004506Y016865D01*
X004515Y016894D01*
X004520Y016924D01*
X004522Y016954D01*
X002772Y016704D02*
X002772Y014454D01*
D13*
X004522Y012954D03*
X005522Y012954D03*
X006522Y012954D03*
X007522Y012954D03*
X008522Y012954D03*
X009522Y012954D03*
X010522Y012954D03*
X011522Y012954D03*
X012522Y012954D03*
X013522Y012954D03*
X014522Y012954D03*
X015522Y012954D03*
D14*
X011272Y002454D03*
D15*
X009894Y002454D03*
X008516Y002454D03*
X007138Y002454D03*
D16*
X014397Y002279D03*
X015397Y002279D03*
X016397Y002279D03*
X017397Y002279D03*
X018397Y002279D03*
X018397Y003379D03*
X017397Y003379D03*
X016397Y003379D03*
X015397Y003379D03*
X014397Y003379D03*
D17*
X005006Y003432D02*
X005006Y002727D01*
X003038Y002727D02*
X003038Y003432D01*
D18*
X003038Y003079D02*
X003022Y003063D01*
X003022Y002204D01*
X003147Y002079D01*
X005647Y002079D01*
X005897Y002329D01*
X005897Y002454D01*
X006772Y003329D01*
X010147Y003329D01*
X010397Y003579D01*
X013147Y003579D01*
X012647Y004204D02*
X012522Y004079D01*
X010147Y004079D01*
X009897Y003829D01*
X007272Y003829D01*
X005897Y005204D01*
X005897Y008829D01*
X005147Y009579D01*
X005147Y010079D01*
X004772Y010454D01*
X005397Y010704D02*
X005397Y011954D01*
X005522Y012954D01*
X006522Y012954D02*
X006522Y010329D01*
X006772Y010079D01*
X007522Y010079D01*
X007897Y010079D01*
X008522Y010704D01*
X008522Y012954D01*
X007522Y012954D02*
X007522Y010829D01*
X007522Y010079D02*
X007522Y008579D01*
X007522Y007079D01*
X007522Y005579D01*
X006397Y005454D02*
X006397Y009079D01*
X005772Y009704D01*
X005772Y010329D01*
X005397Y010704D01*
X004522Y011329D02*
X004272Y011079D01*
X004272Y005704D01*
X003272Y004704D01*
X002647Y004704D01*
X003272Y004079D01*
X004022Y004079D01*
X002022Y004079D02*
X002022Y009704D01*
X002147Y009829D01*
X004522Y011329D02*
X004522Y012954D01*
X009522Y012954D02*
X009522Y010704D01*
X009647Y010579D01*
X009647Y005329D01*
X009147Y004829D01*
X009647Y004329D02*
X007522Y004329D01*
X006397Y005454D01*
X009647Y004329D02*
X009897Y004579D01*
X012272Y004579D01*
X012522Y004829D01*
X016022Y004829D01*
X016397Y004454D01*
X016397Y003379D01*
X015397Y003379D02*
X015397Y004079D01*
X015272Y004204D01*
X012647Y004204D01*
X011522Y005079D02*
X011522Y012954D01*
X012522Y012954D02*
X012522Y011204D01*
X012897Y010829D01*
X013522Y010829D02*
X013522Y012954D01*
X014522Y012954D02*
X014522Y010829D01*
X014397Y010704D01*
X015022Y010704D01*
X014397Y010704D02*
X013647Y010704D01*
X013522Y010829D01*
X012272Y010079D02*
X015522Y010079D01*
X015647Y010204D01*
X015647Y011704D01*
X015522Y011829D01*
X015522Y012954D01*
X012272Y010079D02*
X012272Y008579D01*
X012272Y007079D01*
X012272Y005579D01*
X010772Y005579D02*
X010772Y007079D01*
X010772Y008579D01*
X010772Y010079D01*
X010647Y010204D02*
X010647Y010829D01*
X010522Y010954D01*
X010522Y012954D01*
X018397Y002279D02*
X018397Y001704D01*
X018147Y001454D01*
X013522Y001454D01*
X012897Y002079D01*
X012272Y002079D01*
D19*
X012272Y002079D03*
X013147Y003579D03*
X011522Y005079D03*
X009147Y004829D03*
X004022Y004079D03*
X002022Y004079D03*
X002147Y009829D03*
X004772Y010454D03*
X007522Y010829D03*
X012897Y010829D03*
X015022Y010704D03*
X015522Y011829D03*
D20*
X002647Y004704D03*
D21*
X010647Y010204D02*
X010772Y010079D01*
M02*
