G75*
G70*
%OFA0B0*%
%FSLAX24Y24*%
%IPPOS*%
%LPD*%
%AMOC8*
5,1,8,0,0,1.08239X$1,22.5*
%
%ADD10C,0.0100*%
%ADD11OC8,0.0600*%
%ADD12R,0.0670X0.0827*%
%ADD13C,0.0050*%
%ADD14R,0.0800X0.1540*%
%ADD15R,0.0827X0.0631*%
%ADD16R,0.0840X0.0840*%
%ADD17C,0.0840*%
%ADD18OC8,0.0780*%
%ADD19C,0.0745*%
D10*
X001272Y002404D02*
X001272Y002454D01*
X001272Y019014D01*
X001272Y019038D02*
X001273Y019113D01*
X001277Y019188D01*
X001286Y019263D01*
X001298Y019337D01*
X001314Y019410D01*
X001334Y019483D01*
X001358Y019554D01*
X001385Y019624D01*
X001416Y019692D01*
X001450Y019759D01*
X001488Y019824D01*
X001529Y019887D01*
X001573Y019948D01*
X001621Y020006D01*
X001671Y020062D01*
X001724Y020115D01*
X001780Y020165D01*
X001838Y020213D01*
X001899Y020257D01*
X001962Y020298D01*
X002027Y020336D01*
X002094Y020370D01*
X002162Y020401D01*
X002232Y020428D01*
X002303Y020452D01*
X002376Y020472D01*
X002449Y020488D01*
X002523Y020500D01*
X002598Y020509D01*
X002673Y020513D01*
X002748Y020514D01*
X002748Y014018D01*
X002847Y013920D01*
X017365Y013920D01*
X017463Y014018D01*
X017463Y020514D01*
X019382Y020514D01*
X019457Y020514D02*
X019534Y020510D01*
X019611Y020503D01*
X019688Y020492D01*
X019763Y020477D01*
X019838Y020458D01*
X019912Y020436D01*
X019985Y020409D01*
X020056Y020379D01*
X020125Y020346D01*
X020193Y020309D01*
X020259Y020269D01*
X020323Y020225D01*
X020384Y020179D01*
X020443Y020129D01*
X020500Y020077D01*
X020554Y020021D01*
X020605Y019963D01*
X020653Y019903D01*
X020697Y019840D01*
X020739Y019775D01*
X020777Y019708D01*
X020812Y019639D01*
X020843Y019568D01*
X020871Y019496D01*
X020895Y019423D01*
X020916Y019348D01*
X020932Y019273D01*
X020945Y019197D01*
X020954Y019120D01*
X020959Y019043D01*
X020960Y018966D01*
X020957Y018889D01*
X020957Y002404D01*
X020957Y002329D02*
X020953Y002252D01*
X020946Y002175D01*
X020935Y002098D01*
X020920Y002023D01*
X020901Y001948D01*
X020879Y001874D01*
X020852Y001801D01*
X020822Y001730D01*
X020789Y001661D01*
X020752Y001593D01*
X020712Y001527D01*
X020668Y001463D01*
X020622Y001402D01*
X020572Y001343D01*
X020520Y001286D01*
X020464Y001232D01*
X020406Y001181D01*
X020346Y001133D01*
X020283Y001089D01*
X020218Y001047D01*
X020151Y001009D01*
X020082Y000974D01*
X020011Y000943D01*
X019939Y000915D01*
X019866Y000891D01*
X019791Y000870D01*
X019716Y000854D01*
X019640Y000841D01*
X019563Y000832D01*
X019486Y000827D01*
X019409Y000826D01*
X019332Y000829D01*
X019382Y000829D01*
X019332Y000829D02*
X002847Y000829D01*
X002772Y000829D02*
X002695Y000833D01*
X002618Y000840D01*
X002541Y000851D01*
X002466Y000866D01*
X002391Y000885D01*
X002317Y000907D01*
X002244Y000934D01*
X002173Y000964D01*
X002104Y000997D01*
X002036Y001034D01*
X001970Y001074D01*
X001906Y001118D01*
X001845Y001164D01*
X001786Y001214D01*
X001729Y001266D01*
X001675Y001322D01*
X001624Y001380D01*
X001576Y001440D01*
X001532Y001503D01*
X001490Y001568D01*
X001452Y001635D01*
X001417Y001704D01*
X001386Y001775D01*
X001358Y001847D01*
X001334Y001920D01*
X001313Y001995D01*
X001297Y002070D01*
X001284Y002146D01*
X001275Y002223D01*
X001270Y002300D01*
X001269Y002377D01*
X001272Y002454D01*
X020957Y018889D02*
X020957Y018939D01*
D11*
X012272Y010079D03*
X012272Y008579D03*
X012272Y007079D03*
X012272Y005579D03*
X010772Y005579D03*
X010772Y007079D03*
X010772Y008579D03*
X010772Y010079D03*
X009022Y010079D03*
X009022Y008579D03*
X009022Y007079D03*
X009022Y005579D03*
X007522Y005579D03*
X007522Y007079D03*
X007522Y008579D03*
X007522Y010079D03*
D12*
X003573Y008935D03*
X002471Y008935D03*
D13*
X002772Y014454D02*
X017272Y014454D01*
X017272Y016704D01*
X015772Y016704D01*
X015742Y016706D01*
X015712Y016711D01*
X015683Y016720D01*
X015656Y016733D01*
X015630Y016748D01*
X015606Y016767D01*
X015585Y016788D01*
X015566Y016812D01*
X015551Y016838D01*
X015538Y016865D01*
X015529Y016894D01*
X015524Y016924D01*
X015522Y016954D01*
X015522Y017704D01*
X015524Y017734D01*
X015529Y017764D01*
X015538Y017793D01*
X015551Y017820D01*
X015566Y017846D01*
X015585Y017870D01*
X015606Y017891D01*
X015630Y017910D01*
X015656Y017925D01*
X015683Y017938D01*
X015712Y017947D01*
X015742Y017952D01*
X015772Y017954D01*
X017272Y017954D01*
X017272Y020204D01*
X017272Y017954D02*
X017272Y016704D01*
X004522Y016954D02*
X004522Y017704D01*
X004520Y017734D01*
X004515Y017764D01*
X004506Y017793D01*
X004493Y017820D01*
X004478Y017846D01*
X004459Y017870D01*
X004438Y017891D01*
X004414Y017910D01*
X004388Y017925D01*
X004361Y017938D01*
X004332Y017947D01*
X004302Y017952D01*
X004272Y017954D01*
X002772Y017954D01*
X002772Y016704D01*
X004272Y016704D01*
X004302Y016706D01*
X004332Y016711D01*
X004361Y016720D01*
X004388Y016733D01*
X004414Y016748D01*
X004438Y016767D01*
X004459Y016788D01*
X004478Y016812D01*
X004493Y016838D01*
X004506Y016865D01*
X004515Y016894D01*
X004520Y016924D01*
X004522Y016954D01*
X002772Y016704D02*
X002772Y014454D01*
D14*
X004022Y012954D03*
X005022Y012954D03*
X006022Y012954D03*
X007022Y012954D03*
X008022Y012954D03*
X009022Y012954D03*
X010022Y012954D03*
X011022Y012954D03*
X012022Y012954D03*
X013022Y012954D03*
X014022Y012954D03*
X015022Y012954D03*
X016022Y012954D03*
D15*
X005772Y006670D03*
X004647Y006670D03*
X003522Y006670D03*
X002397Y006670D03*
X002397Y005489D03*
X003522Y005489D03*
X004647Y005489D03*
X005772Y005489D03*
D16*
X011272Y002454D03*
D17*
X009894Y002454D03*
X008516Y002454D03*
X007138Y002454D03*
D18*
X014397Y002279D03*
X015397Y002279D03*
X016397Y002279D03*
X017397Y002279D03*
X018397Y002279D03*
X018397Y003379D03*
X017397Y003379D03*
X016397Y003379D03*
X015397Y003379D03*
X014397Y003379D03*
D19*
X005006Y003432D02*
X005006Y002727D01*
X003038Y002727D02*
X003038Y003432D01*
M02*
