G75*
G70*
%OFA0B0*%
%FSLAX24Y24*%
%IPPOS*%
%LPD*%
%AMOC8*
5,1,8,0,0,1.08239X$1,22.5*
%
%ADD10R,0.0594X0.0594*%
%ADD11C,0.0660*%
%ADD12C,0.0594*%
%ADD13C,0.0000*%
%ADD14OC8,0.0740*%
%ADD15C,0.0520*%
%ADD16C,0.0160*%
%ADD17R,0.0396X0.0396*%
%ADD18C,0.0240*%
%ADD19C,0.0320*%
%ADD20C,0.0396*%
%ADD21OC8,0.0396*%
D10*
X006960Y020930D03*
D11*
X006960Y021930D03*
X008960Y021930D03*
X008960Y019930D03*
D12*
X009960Y019930D03*
X010960Y019930D03*
X010960Y018930D03*
X009960Y018930D03*
X008960Y018930D03*
X008960Y020930D03*
X009960Y020930D03*
X010960Y020930D03*
X011960Y020930D03*
X012960Y020930D03*
X013960Y020930D03*
X014960Y020930D03*
X015960Y020930D03*
X016960Y020930D03*
X017960Y020930D03*
X018960Y020930D03*
X018960Y021930D03*
X017960Y021930D03*
X016960Y021930D03*
X015960Y021930D03*
X014960Y021930D03*
X013960Y021930D03*
X012960Y021930D03*
X011960Y021930D03*
X010960Y021930D03*
X009960Y021930D03*
X007960Y021930D03*
X007960Y020930D03*
X011960Y019930D03*
X011960Y018930D03*
X020960Y020930D03*
X020960Y021930D03*
D13*
X006010Y023030D02*
X006000Y000950D01*
X006001Y000950D02*
X031120Y000948D01*
X031120Y000950D02*
X031120Y008040D01*
X039460Y008040D01*
X039460Y010170D01*
X035560Y010170D01*
X035560Y015810D01*
X039500Y015810D01*
X039500Y022990D01*
X026060Y022980D01*
X026060Y018030D01*
X021810Y018030D01*
X021810Y023030D01*
X006010Y023030D01*
X015484Y008048D02*
X015486Y008095D01*
X015492Y008142D01*
X015501Y008188D01*
X015515Y008233D01*
X015532Y008277D01*
X015553Y008320D01*
X015577Y008360D01*
X015604Y008399D01*
X015635Y008435D01*
X015668Y008468D01*
X015704Y008499D01*
X015743Y008526D01*
X015783Y008550D01*
X015826Y008571D01*
X015870Y008588D01*
X015915Y008602D01*
X015961Y008611D01*
X016008Y008617D01*
X016055Y008619D01*
X016102Y008617D01*
X016149Y008611D01*
X016195Y008602D01*
X016240Y008588D01*
X016284Y008571D01*
X016327Y008550D01*
X016367Y008526D01*
X016406Y008499D01*
X016442Y008468D01*
X016475Y008435D01*
X016506Y008399D01*
X016533Y008360D01*
X016557Y008320D01*
X016578Y008277D01*
X016595Y008233D01*
X016609Y008188D01*
X016618Y008142D01*
X016624Y008095D01*
X016626Y008048D01*
X016624Y008001D01*
X016618Y007954D01*
X016609Y007908D01*
X016595Y007863D01*
X016578Y007819D01*
X016557Y007776D01*
X016533Y007736D01*
X016506Y007697D01*
X016475Y007661D01*
X016442Y007628D01*
X016406Y007597D01*
X016367Y007570D01*
X016327Y007546D01*
X016284Y007525D01*
X016240Y007508D01*
X016195Y007494D01*
X016149Y007485D01*
X016102Y007479D01*
X016055Y007477D01*
X016008Y007479D01*
X015961Y007485D01*
X015915Y007494D01*
X015870Y007508D01*
X015826Y007525D01*
X015783Y007546D01*
X015743Y007570D01*
X015704Y007597D01*
X015668Y007628D01*
X015635Y007661D01*
X015604Y007697D01*
X015577Y007736D01*
X015553Y007776D01*
X015532Y007819D01*
X015515Y007863D01*
X015501Y007908D01*
X015492Y007954D01*
X015486Y008001D01*
X015484Y008048D01*
X015418Y008043D02*
X015420Y008093D01*
X015426Y008143D01*
X015436Y008192D01*
X015450Y008240D01*
X015467Y008287D01*
X015488Y008332D01*
X015513Y008376D01*
X015541Y008417D01*
X015573Y008456D01*
X015607Y008493D01*
X015644Y008527D01*
X015684Y008557D01*
X015726Y008584D01*
X015770Y008608D01*
X015816Y008629D01*
X015863Y008645D01*
X015911Y008658D01*
X015961Y008667D01*
X016010Y008672D01*
X016061Y008673D01*
X016111Y008670D01*
X016160Y008663D01*
X016209Y008652D01*
X016257Y008637D01*
X016303Y008619D01*
X016348Y008597D01*
X016391Y008571D01*
X016432Y008542D01*
X016471Y008510D01*
X016507Y008475D01*
X016539Y008437D01*
X016569Y008397D01*
X016596Y008354D01*
X016619Y008310D01*
X016638Y008264D01*
X016654Y008216D01*
X016666Y008167D01*
X016674Y008118D01*
X016678Y008068D01*
X016678Y008018D01*
X016674Y007968D01*
X016666Y007919D01*
X016654Y007870D01*
X016638Y007822D01*
X016619Y007776D01*
X016596Y007732D01*
X016569Y007689D01*
X016539Y007649D01*
X016507Y007611D01*
X016471Y007576D01*
X016432Y007544D01*
X016391Y007515D01*
X016348Y007489D01*
X016303Y007467D01*
X016257Y007449D01*
X016209Y007434D01*
X016160Y007423D01*
X016111Y007416D01*
X016061Y007413D01*
X016010Y007414D01*
X015961Y007419D01*
X015911Y007428D01*
X015863Y007441D01*
X015816Y007457D01*
X015770Y007478D01*
X015726Y007502D01*
X015684Y007529D01*
X015644Y007559D01*
X015607Y007593D01*
X015573Y007630D01*
X015541Y007669D01*
X015513Y007710D01*
X015488Y007754D01*
X015467Y007799D01*
X015450Y007846D01*
X015436Y007894D01*
X015426Y007943D01*
X015420Y007993D01*
X015418Y008043D01*
X036929Y018091D02*
X036931Y018138D01*
X036937Y018185D01*
X036946Y018231D01*
X036960Y018276D01*
X036977Y018320D01*
X036998Y018363D01*
X037022Y018403D01*
X037049Y018442D01*
X037080Y018478D01*
X037113Y018511D01*
X037149Y018542D01*
X037188Y018569D01*
X037228Y018593D01*
X037271Y018614D01*
X037315Y018631D01*
X037360Y018645D01*
X037406Y018654D01*
X037453Y018660D01*
X037500Y018662D01*
X037547Y018660D01*
X037594Y018654D01*
X037640Y018645D01*
X037685Y018631D01*
X037729Y018614D01*
X037772Y018593D01*
X037812Y018569D01*
X037851Y018542D01*
X037887Y018511D01*
X037920Y018478D01*
X037951Y018442D01*
X037978Y018403D01*
X038002Y018363D01*
X038023Y018320D01*
X038040Y018276D01*
X038054Y018231D01*
X038063Y018185D01*
X038069Y018138D01*
X038071Y018091D01*
X038069Y018044D01*
X038063Y017997D01*
X038054Y017951D01*
X038040Y017906D01*
X038023Y017862D01*
X038002Y017819D01*
X037978Y017779D01*
X037951Y017740D01*
X037920Y017704D01*
X037887Y017671D01*
X037851Y017640D01*
X037812Y017613D01*
X037772Y017589D01*
X037729Y017568D01*
X037685Y017551D01*
X037640Y017537D01*
X037594Y017528D01*
X037547Y017522D01*
X037500Y017520D01*
X037453Y017522D01*
X037406Y017528D01*
X037360Y017537D01*
X037315Y017551D01*
X037271Y017568D01*
X037228Y017589D01*
X037188Y017613D01*
X037149Y017640D01*
X037113Y017671D01*
X037080Y017704D01*
X037049Y017740D01*
X037022Y017779D01*
X036998Y017819D01*
X036977Y017862D01*
X036960Y017906D01*
X036946Y017951D01*
X036937Y017997D01*
X036931Y018044D01*
X036929Y018091D01*
X036873Y018085D02*
X036875Y018135D01*
X036881Y018185D01*
X036891Y018234D01*
X036905Y018282D01*
X036922Y018329D01*
X036943Y018374D01*
X036968Y018418D01*
X036996Y018459D01*
X037028Y018498D01*
X037062Y018535D01*
X037099Y018569D01*
X037139Y018599D01*
X037181Y018626D01*
X037225Y018650D01*
X037271Y018671D01*
X037318Y018687D01*
X037366Y018700D01*
X037416Y018709D01*
X037465Y018714D01*
X037516Y018715D01*
X037566Y018712D01*
X037615Y018705D01*
X037664Y018694D01*
X037712Y018679D01*
X037758Y018661D01*
X037803Y018639D01*
X037846Y018613D01*
X037887Y018584D01*
X037926Y018552D01*
X037962Y018517D01*
X037994Y018479D01*
X038024Y018439D01*
X038051Y018396D01*
X038074Y018352D01*
X038093Y018306D01*
X038109Y018258D01*
X038121Y018209D01*
X038129Y018160D01*
X038133Y018110D01*
X038133Y018060D01*
X038129Y018010D01*
X038121Y017961D01*
X038109Y017912D01*
X038093Y017864D01*
X038074Y017818D01*
X038051Y017774D01*
X038024Y017731D01*
X037994Y017691D01*
X037962Y017653D01*
X037926Y017618D01*
X037887Y017586D01*
X037846Y017557D01*
X037803Y017531D01*
X037758Y017509D01*
X037712Y017491D01*
X037664Y017476D01*
X037615Y017465D01*
X037566Y017458D01*
X037516Y017455D01*
X037465Y017456D01*
X037416Y017461D01*
X037366Y017470D01*
X037318Y017483D01*
X037271Y017499D01*
X037225Y017520D01*
X037181Y017544D01*
X037139Y017571D01*
X037099Y017601D01*
X037062Y017635D01*
X037028Y017672D01*
X036996Y017711D01*
X036968Y017752D01*
X036943Y017796D01*
X036922Y017841D01*
X036905Y017888D01*
X036891Y017936D01*
X036881Y017985D01*
X036875Y018035D01*
X036873Y018085D01*
D14*
X031210Y020180D03*
X030210Y020180D03*
X029210Y020180D03*
X029210Y021180D03*
X030210Y021180D03*
X031210Y021180D03*
X008710Y016430D03*
X007710Y016430D03*
X007710Y015430D03*
X008710Y015430D03*
X008710Y014430D03*
X007710Y014430D03*
X007710Y010305D03*
X008710Y010305D03*
X008710Y009305D03*
X007710Y009305D03*
X007710Y008305D03*
X008710Y008305D03*
X008210Y003730D03*
X009210Y003730D03*
X010210Y003730D03*
X011210Y003730D03*
X012210Y003730D03*
X012210Y002630D03*
X011210Y002630D03*
X010210Y002630D03*
X009210Y002630D03*
X008210Y002630D03*
X016460Y002630D03*
X017460Y002630D03*
X018460Y002630D03*
X019460Y002630D03*
X020460Y002630D03*
X020460Y003730D03*
X019460Y003730D03*
X018460Y003730D03*
X017460Y003730D03*
X016460Y003730D03*
X024710Y003730D03*
X025710Y003730D03*
X026710Y003730D03*
X027710Y003730D03*
X028710Y003730D03*
X028710Y002630D03*
X027710Y002630D03*
X026710Y002630D03*
X025710Y002630D03*
X024710Y002630D03*
D15*
X024460Y012420D02*
X024460Y012940D01*
X023460Y012940D02*
X023460Y012420D01*
X022460Y012420D02*
X022460Y012940D01*
X021460Y012940D02*
X021460Y012420D01*
X020460Y012420D02*
X020460Y012940D01*
X019460Y012940D02*
X019460Y012420D01*
X019460Y015420D02*
X019460Y015940D01*
X020460Y015940D02*
X020460Y015420D01*
X021460Y015420D02*
X021460Y015940D01*
X022460Y015940D02*
X022460Y015420D01*
X023460Y015420D02*
X023460Y015940D01*
X024460Y015940D02*
X024460Y015420D01*
X025460Y015420D02*
X025460Y015940D01*
X026460Y015940D02*
X026460Y015420D01*
X027460Y015420D02*
X027460Y015940D01*
X028460Y015940D02*
X028460Y015420D01*
X029460Y015420D02*
X029460Y015940D01*
X030460Y015940D02*
X030460Y015420D01*
X031460Y015420D02*
X031460Y015940D01*
X032460Y015940D02*
X032460Y015420D01*
X032460Y012940D02*
X032460Y012420D01*
X031460Y012420D02*
X031460Y012940D01*
X030460Y012940D02*
X030460Y012420D01*
X029460Y012420D02*
X029460Y012940D01*
X028460Y012940D02*
X028460Y012420D01*
X027460Y012420D02*
X027460Y012940D01*
X026460Y012940D02*
X026460Y012420D01*
X025460Y012420D02*
X025460Y012940D01*
D16*
X025040Y012976D02*
X024880Y012976D01*
X024880Y013024D02*
X024816Y013178D01*
X024727Y013267D01*
X024698Y013339D01*
X024619Y013417D01*
X024448Y013589D01*
X024386Y013650D01*
X030844Y013650D01*
X031180Y013314D01*
X031180Y013254D01*
X031104Y013178D01*
X031040Y013024D01*
X031040Y012336D01*
X031104Y012182D01*
X031222Y012064D01*
X031377Y012000D01*
X031544Y012000D01*
X031698Y012064D01*
X031816Y012182D01*
X031880Y012336D01*
X031880Y013024D01*
X031816Y013178D01*
X031740Y013254D01*
X031740Y013486D01*
X031698Y013589D01*
X031619Y013667D01*
X031119Y014167D01*
X031016Y014210D01*
X029386Y014210D01*
X029448Y014271D01*
X029698Y014521D01*
X029740Y014624D01*
X029740Y015106D01*
X029816Y015182D01*
X029880Y015336D01*
X029880Y016024D01*
X029828Y016150D01*
X030093Y016150D01*
X030040Y016024D01*
X030040Y015336D01*
X030104Y015182D01*
X030222Y015064D01*
X030377Y015000D01*
X030544Y015000D01*
X030698Y015064D01*
X030816Y015182D01*
X030880Y015336D01*
X030880Y016024D01*
X030816Y016178D01*
X030727Y016267D01*
X030698Y016339D01*
X030448Y016589D01*
X030386Y016650D01*
X030594Y016650D01*
X031093Y016151D01*
X031040Y016024D01*
X031040Y015336D01*
X031104Y015182D01*
X031222Y015064D01*
X031377Y015000D01*
X031544Y015000D01*
X031698Y015064D01*
X031816Y015182D01*
X031880Y015336D01*
X031880Y016024D01*
X031816Y016178D01*
X031727Y016267D01*
X032040Y015954D01*
X032040Y015336D01*
X032104Y015182D01*
X032222Y015064D01*
X032377Y015000D01*
X032544Y015000D01*
X032698Y015064D01*
X032816Y015182D01*
X032880Y015336D01*
X032880Y016024D01*
X032816Y016178D01*
X032698Y016296D01*
X032544Y016360D01*
X032426Y016360D01*
X031198Y017589D01*
X031136Y017650D01*
X035266Y017650D01*
X035369Y017693D01*
X035842Y018165D01*
X035842Y017835D01*
X035989Y017356D01*
X036271Y016942D01*
X036271Y016942D01*
X036271Y016942D01*
X036663Y016630D01*
X037129Y016447D01*
X037628Y016410D01*
X038117Y016521D01*
X038550Y016772D01*
X038550Y016772D01*
X038891Y017139D01*
X039020Y017407D01*
X039020Y016290D01*
X035465Y016290D01*
X035288Y016217D01*
X035153Y016082D01*
X035080Y015905D01*
X035080Y010075D01*
X035153Y009898D01*
X035288Y009763D01*
X035465Y009690D01*
X038980Y009690D01*
X038980Y008520D01*
X031240Y008520D01*
X031240Y011486D01*
X031198Y011589D01*
X031119Y011667D01*
X030740Y012046D01*
X030740Y012106D01*
X030816Y012182D01*
X030880Y012336D01*
X030880Y013024D01*
X030816Y013178D01*
X030698Y013296D01*
X030544Y013360D01*
X030377Y013360D01*
X030222Y013296D01*
X030104Y013178D01*
X030040Y013024D01*
X030040Y012336D01*
X030104Y012182D01*
X030180Y012106D01*
X030180Y011874D01*
X030223Y011771D01*
X030680Y011314D01*
X030680Y008232D01*
X030640Y008135D01*
X030640Y005006D01*
X030344Y004710D01*
X028076Y004710D01*
X027198Y005589D01*
X027119Y005667D01*
X027016Y005710D01*
X026803Y005710D01*
X026725Y005788D01*
X026196Y005788D01*
X026102Y005694D01*
X026102Y005166D01*
X026196Y005072D01*
X026725Y005072D01*
X026803Y005150D01*
X026844Y005150D01*
X027734Y004260D01*
X027491Y004260D01*
X027210Y003980D01*
X026930Y004260D01*
X026491Y004260D01*
X026210Y003980D01*
X025990Y004200D01*
X025990Y006986D01*
X025948Y007089D01*
X025740Y007296D01*
X025740Y008736D01*
X025698Y008839D01*
X022740Y011796D01*
X022740Y012106D01*
X022816Y012182D01*
X022880Y012336D01*
X022880Y013024D01*
X022828Y013150D01*
X023093Y013150D01*
X023040Y013024D01*
X023040Y012336D01*
X023104Y012182D01*
X023222Y012064D01*
X023377Y012000D01*
X023544Y012000D01*
X023698Y012064D01*
X023816Y012182D01*
X023880Y012336D01*
X023880Y013024D01*
X023828Y013150D01*
X024093Y013150D01*
X024040Y013024D01*
X024040Y012336D01*
X024104Y012182D01*
X024222Y012064D01*
X024377Y012000D01*
X024544Y012000D01*
X024698Y012064D01*
X024816Y012182D01*
X024880Y012336D01*
X024880Y013024D01*
X024834Y013135D02*
X025086Y013135D01*
X025104Y013178D02*
X025040Y013024D01*
X025040Y012336D01*
X025104Y012182D01*
X025222Y012064D01*
X025377Y012000D01*
X025544Y012000D01*
X025698Y012064D01*
X025816Y012182D01*
X025880Y012336D01*
X025880Y013024D01*
X025816Y013178D01*
X025698Y013296D01*
X025544Y013360D01*
X025377Y013360D01*
X025222Y013296D01*
X025104Y013178D01*
X025219Y013293D02*
X024716Y013293D01*
X024619Y013417D02*
X024619Y013417D01*
X024585Y013452D02*
X031043Y013452D01*
X031180Y013293D02*
X030701Y013293D01*
X030834Y013135D02*
X031086Y013135D01*
X031040Y012976D02*
X030880Y012976D01*
X030880Y012818D02*
X031040Y012818D01*
X031040Y012659D02*
X030880Y012659D01*
X030880Y012501D02*
X031040Y012501D01*
X031040Y012342D02*
X030880Y012342D01*
X030817Y012184D02*
X031104Y012184D01*
X031316Y012025D02*
X030761Y012025D01*
X030920Y011867D02*
X035080Y011867D01*
X035080Y012025D02*
X032604Y012025D01*
X032544Y012000D02*
X032698Y012064D01*
X032816Y012182D01*
X032880Y012336D01*
X032880Y013024D01*
X032816Y013178D01*
X032698Y013296D01*
X032544Y013360D01*
X032377Y013360D01*
X032222Y013296D01*
X032104Y013178D01*
X032040Y013024D01*
X032040Y012336D01*
X032104Y012182D01*
X032222Y012064D01*
X032377Y012000D01*
X032544Y012000D01*
X032316Y012025D02*
X031604Y012025D01*
X031817Y012184D02*
X032104Y012184D01*
X032040Y012342D02*
X031880Y012342D01*
X031880Y012501D02*
X032040Y012501D01*
X032040Y012659D02*
X031880Y012659D01*
X031880Y012818D02*
X032040Y012818D01*
X032040Y012976D02*
X031880Y012976D01*
X031834Y013135D02*
X032086Y013135D01*
X032219Y013293D02*
X031740Y013293D01*
X031740Y013452D02*
X035080Y013452D01*
X035080Y013610D02*
X031676Y013610D01*
X031518Y013769D02*
X035080Y013769D01*
X035080Y013927D02*
X031359Y013927D01*
X031201Y014086D02*
X035080Y014086D01*
X035080Y014244D02*
X029420Y014244D01*
X029579Y014403D02*
X035080Y014403D01*
X035080Y014561D02*
X029714Y014561D01*
X029740Y014720D02*
X035080Y014720D01*
X035080Y014878D02*
X029740Y014878D01*
X029740Y015037D02*
X030289Y015037D01*
X030099Y015195D02*
X029822Y015195D01*
X029880Y015354D02*
X030040Y015354D01*
X030040Y015512D02*
X029880Y015512D01*
X029880Y015671D02*
X030040Y015671D01*
X030040Y015829D02*
X029880Y015829D01*
X029880Y015988D02*
X030040Y015988D01*
X030091Y016146D02*
X029830Y016146D01*
X030415Y016622D02*
X030623Y016622D01*
X030573Y016463D02*
X030781Y016463D01*
X030712Y016305D02*
X030940Y016305D01*
X030830Y016146D02*
X031091Y016146D01*
X031040Y015988D02*
X030880Y015988D01*
X030880Y015829D02*
X031040Y015829D01*
X031040Y015671D02*
X030880Y015671D01*
X030880Y015512D02*
X031040Y015512D01*
X031040Y015354D02*
X030880Y015354D01*
X030822Y015195D02*
X031099Y015195D01*
X031289Y015037D02*
X030632Y015037D01*
X031632Y015037D02*
X032289Y015037D01*
X032099Y015195D02*
X031822Y015195D01*
X031880Y015354D02*
X032040Y015354D01*
X032040Y015512D02*
X031880Y015512D01*
X031880Y015671D02*
X032040Y015671D01*
X032040Y015829D02*
X031880Y015829D01*
X031880Y015988D02*
X032007Y015988D01*
X031848Y016146D02*
X031830Y016146D01*
X031727Y016267D02*
X031727Y016267D01*
X032323Y016463D02*
X037088Y016463D01*
X037129Y016447D02*
X037129Y016447D01*
X036685Y016622D02*
X032165Y016622D01*
X032006Y016780D02*
X036475Y016780D01*
X036663Y016630D02*
X036663Y016630D01*
X036276Y016939D02*
X031848Y016939D01*
X031689Y017097D02*
X036166Y017097D01*
X036058Y017256D02*
X031531Y017256D01*
X031372Y017414D02*
X035971Y017414D01*
X035989Y017356D02*
X035989Y017356D01*
X035922Y017573D02*
X031214Y017573D01*
X032678Y016305D02*
X039020Y016305D01*
X039020Y016463D02*
X037862Y016463D01*
X037628Y016410D02*
X037628Y016410D01*
X038117Y016521D02*
X038117Y016521D01*
X038290Y016622D02*
X039020Y016622D01*
X039020Y016780D02*
X038558Y016780D01*
X038705Y016939D02*
X039020Y016939D01*
X039020Y017097D02*
X038852Y017097D01*
X038891Y017139D02*
X038891Y017139D01*
X038947Y017256D02*
X039020Y017256D01*
X035873Y017731D02*
X035407Y017731D01*
X035566Y017890D02*
X035842Y017890D01*
X035842Y018048D02*
X035724Y018048D01*
X035217Y016146D02*
X032830Y016146D01*
X032880Y015988D02*
X035114Y015988D01*
X035080Y015829D02*
X032880Y015829D01*
X032880Y015671D02*
X035080Y015671D01*
X035080Y015512D02*
X032880Y015512D01*
X032880Y015354D02*
X035080Y015354D01*
X035080Y015195D02*
X032822Y015195D01*
X032632Y015037D02*
X035080Y015037D01*
X035080Y013293D02*
X032701Y013293D01*
X032834Y013135D02*
X035080Y013135D01*
X035080Y012976D02*
X032880Y012976D01*
X032880Y012818D02*
X035080Y012818D01*
X035080Y012659D02*
X032880Y012659D01*
X032880Y012501D02*
X035080Y012501D01*
X035080Y012342D02*
X032880Y012342D01*
X032817Y012184D02*
X035080Y012184D01*
X035080Y011708D02*
X031078Y011708D01*
X031214Y011550D02*
X035080Y011550D01*
X035080Y011391D02*
X031240Y011391D01*
X031240Y011233D02*
X035080Y011233D01*
X035080Y011074D02*
X031240Y011074D01*
X031240Y010916D02*
X035080Y010916D01*
X035080Y010757D02*
X031240Y010757D01*
X031240Y010599D02*
X035080Y010599D01*
X035080Y010440D02*
X031240Y010440D01*
X031240Y010282D02*
X035080Y010282D01*
X035080Y010123D02*
X031240Y010123D01*
X031240Y009965D02*
X035126Y009965D01*
X035245Y009806D02*
X031240Y009806D01*
X031240Y009648D02*
X038980Y009648D01*
X038980Y009489D02*
X031240Y009489D01*
X031240Y009331D02*
X038980Y009331D01*
X038980Y009172D02*
X031240Y009172D01*
X031240Y009014D02*
X038980Y009014D01*
X038980Y008855D02*
X031240Y008855D01*
X031240Y008697D02*
X038980Y008697D01*
X038980Y008538D02*
X031240Y008538D01*
X030680Y008538D02*
X030490Y008538D01*
X030490Y008380D02*
X030680Y008380D01*
X030676Y008221D02*
X030490Y008221D01*
X030490Y008063D02*
X030640Y008063D01*
X030640Y007904D02*
X030490Y007904D01*
X030490Y007746D02*
X030640Y007746D01*
X030640Y007587D02*
X030490Y007587D01*
X030490Y007429D02*
X030640Y007429D01*
X030640Y007270D02*
X030490Y007270D01*
X030490Y007112D02*
X030640Y007112D01*
X030640Y006953D02*
X030490Y006953D01*
X030490Y006795D02*
X030640Y006795D01*
X030640Y006636D02*
X030490Y006636D01*
X030490Y006478D02*
X030640Y006478D01*
X030640Y006319D02*
X030490Y006319D01*
X030490Y006161D02*
X030640Y006161D01*
X030640Y006002D02*
X030490Y006002D01*
X030490Y005844D02*
X030640Y005844D01*
X030640Y005685D02*
X030490Y005685D01*
X030490Y005527D02*
X030640Y005527D01*
X030640Y005368D02*
X030520Y005368D01*
X030514Y005383D02*
X030568Y005251D01*
X030568Y005109D01*
X030514Y004977D01*
X030413Y004876D01*
X030281Y004822D01*
X030139Y004822D01*
X030007Y004876D01*
X029907Y004977D01*
X029852Y005109D01*
X029852Y005251D01*
X029907Y005383D01*
X029930Y005406D01*
X029930Y011064D01*
X029302Y011693D01*
X029223Y011771D01*
X029180Y011874D01*
X029180Y012106D01*
X029104Y012182D01*
X029040Y012336D01*
X029040Y013024D01*
X029104Y013178D01*
X029222Y013296D01*
X029377Y013360D01*
X029544Y013360D01*
X029698Y013296D01*
X029816Y013178D01*
X029880Y013024D01*
X029880Y012336D01*
X029816Y012182D01*
X029740Y012106D01*
X029740Y012046D01*
X030448Y011339D01*
X030490Y011236D01*
X030490Y005406D01*
X030514Y005383D01*
X030568Y005210D02*
X030640Y005210D01*
X030640Y005051D02*
X030544Y005051D01*
X030527Y004893D02*
X030429Y004893D01*
X030368Y004734D02*
X028052Y004734D01*
X027894Y004893D02*
X029991Y004893D01*
X029876Y005051D02*
X027735Y005051D01*
X027577Y005210D02*
X029852Y005210D01*
X029900Y005368D02*
X027418Y005368D01*
X027260Y005527D02*
X029930Y005527D01*
X029930Y005685D02*
X027076Y005685D01*
X026102Y005685D02*
X025990Y005685D01*
X025990Y005527D02*
X026102Y005527D01*
X026102Y005368D02*
X025990Y005368D01*
X025990Y005210D02*
X026102Y005210D01*
X025990Y005051D02*
X026943Y005051D01*
X027102Y004893D02*
X025990Y004893D01*
X025990Y004734D02*
X027260Y004734D01*
X027419Y004576D02*
X025990Y004576D01*
X025990Y004417D02*
X027577Y004417D01*
X027489Y004259D02*
X026931Y004259D01*
X027090Y004100D02*
X027331Y004100D01*
X026489Y004259D02*
X025990Y004259D01*
X026090Y004100D02*
X026331Y004100D01*
X025430Y004200D02*
X025210Y003980D01*
X024990Y004200D01*
X024990Y004588D01*
X025068Y004666D01*
X025068Y005194D01*
X024975Y005288D01*
X024446Y005288D01*
X024352Y005194D01*
X024352Y004666D01*
X024430Y004588D01*
X024430Y004200D01*
X024180Y003950D01*
X024180Y003510D01*
X024430Y003260D01*
X024430Y003100D01*
X024180Y002850D01*
X024180Y002410D01*
X024491Y002100D01*
X024930Y002100D01*
X025210Y002380D01*
X025491Y002100D01*
X025930Y002100D01*
X026210Y002380D01*
X026491Y002100D01*
X026930Y002100D01*
X027210Y002380D01*
X027491Y002100D01*
X027930Y002100D01*
X028196Y002366D01*
X028482Y002080D01*
X028690Y002080D01*
X028690Y002610D01*
X028730Y002610D01*
X028730Y002080D01*
X028938Y002080D01*
X029260Y002402D01*
X029260Y002610D01*
X028730Y002610D01*
X028730Y002650D01*
X028690Y002650D01*
X028690Y003180D01*
X028690Y003710D01*
X028730Y003710D01*
X028730Y003180D01*
X028938Y003180D01*
X029260Y003502D01*
X029260Y003710D01*
X028730Y003710D01*
X028730Y003750D01*
X029260Y003750D01*
X029260Y003958D01*
X029068Y004150D01*
X030516Y004150D01*
X030619Y004193D01*
X030640Y004214D01*
X030640Y001428D01*
X006480Y001430D01*
X006490Y021786D01*
X006545Y021652D01*
X006683Y021515D01*
X006863Y021440D01*
X007058Y021440D01*
X007238Y021515D01*
X007376Y021652D01*
X007391Y021690D01*
X007565Y021690D01*
X007573Y021671D01*
X007701Y021543D01*
X007869Y021473D01*
X008051Y021473D01*
X008219Y021543D01*
X008220Y021544D01*
X008220Y021316D01*
X008219Y021317D01*
X008051Y021387D01*
X007869Y021387D01*
X007701Y021317D01*
X007573Y021189D01*
X007503Y021021D01*
X007503Y020839D01*
X007573Y020671D01*
X007701Y020543D01*
X007869Y020473D01*
X008051Y020473D01*
X008219Y020543D01*
X008220Y020544D01*
X008220Y020132D01*
X008257Y020044D01*
X008472Y019829D01*
X008522Y019708D01*
X007417Y020813D01*
X007417Y021293D01*
X007323Y021387D01*
X006597Y021387D01*
X006503Y021293D01*
X006503Y020567D01*
X006597Y020473D01*
X007078Y020473D01*
X008511Y019040D01*
X008503Y019021D01*
X008503Y018839D01*
X008573Y018671D01*
X008701Y018543D01*
X008869Y018473D01*
X009051Y018473D01*
X009219Y018543D01*
X009348Y018671D01*
X009417Y018839D01*
X009417Y019021D01*
X009348Y019189D01*
X009219Y019317D01*
X009051Y019387D01*
X008869Y019387D01*
X008851Y019379D01*
X008738Y019492D01*
X008863Y019440D01*
X009058Y019440D01*
X009238Y019515D01*
X009376Y019652D01*
X009450Y019833D01*
X009450Y020027D01*
X009376Y020208D01*
X009238Y020345D01*
X009058Y020420D01*
X008863Y020420D01*
X008700Y020353D01*
X008700Y020544D01*
X008701Y020543D01*
X008869Y020473D01*
X009051Y020473D01*
X009219Y020543D01*
X009348Y020671D01*
X009417Y020839D01*
X009417Y021021D01*
X009348Y021189D01*
X009219Y021317D01*
X009051Y021387D01*
X008869Y021387D01*
X008701Y021317D01*
X008700Y021316D01*
X008700Y021490D01*
X008764Y021457D01*
X008841Y021433D01*
X008920Y021420D01*
X008942Y021420D01*
X008942Y021912D01*
X008979Y021912D01*
X008979Y021948D01*
X009470Y021948D01*
X009470Y021970D01*
X009458Y022049D01*
X009433Y022126D01*
X009396Y022197D01*
X009349Y022262D01*
X009292Y022319D01*
X009228Y022366D01*
X009156Y022403D01*
X009080Y022427D01*
X009000Y022440D01*
X008979Y022440D01*
X008979Y021948D01*
X008942Y021948D01*
X008942Y022440D01*
X008920Y022440D01*
X008841Y022427D01*
X008764Y022403D01*
X008693Y022366D01*
X008628Y022319D01*
X008571Y022262D01*
X008524Y022197D01*
X008488Y022126D01*
X008463Y022049D01*
X008458Y022021D01*
X008388Y022092D01*
X008348Y022189D01*
X008219Y022317D01*
X008051Y022387D01*
X007869Y022387D01*
X007701Y022317D01*
X007573Y022189D01*
X007565Y022170D01*
X007391Y022170D01*
X007376Y022208D01*
X007238Y022345D01*
X007058Y022420D01*
X006863Y022420D01*
X006683Y022345D01*
X006545Y022208D01*
X006490Y022075D01*
X006490Y022550D01*
X021330Y022550D01*
X021330Y022206D01*
X021219Y022317D01*
X021051Y022387D01*
X020869Y022387D01*
X020701Y022317D01*
X020573Y022189D01*
X020503Y022021D01*
X020503Y021839D01*
X020573Y021671D01*
X020701Y021543D01*
X020869Y021473D01*
X021051Y021473D01*
X021219Y021543D01*
X021330Y021654D01*
X021330Y021232D01*
X021324Y021241D01*
X021271Y021294D01*
X021210Y021338D01*
X021143Y021372D01*
X021072Y021395D01*
X020998Y021407D01*
X020979Y021407D01*
X020979Y020948D01*
X020942Y020948D01*
X020942Y020912D01*
X020483Y020912D01*
X020483Y020892D01*
X020495Y020818D01*
X020518Y020747D01*
X020552Y020680D01*
X020597Y020619D01*
X020650Y020566D01*
X020710Y020522D01*
X020777Y020488D01*
X020849Y020465D01*
X020923Y020453D01*
X020942Y020453D01*
X020942Y020912D01*
X020979Y020912D01*
X020979Y020453D01*
X020998Y020453D01*
X021072Y020465D01*
X021143Y020488D01*
X021210Y020522D01*
X021271Y020566D01*
X021324Y020619D01*
X021330Y020628D01*
X021330Y018210D01*
X019437Y018210D01*
X019413Y018234D01*
X019281Y018288D01*
X019139Y018288D01*
X019007Y018234D01*
X018907Y018133D01*
X018852Y018001D01*
X018852Y017859D01*
X018907Y017727D01*
X018924Y017710D01*
X016405Y017710D01*
X016302Y017667D01*
X016223Y017589D01*
X016223Y017589D01*
X015818Y017184D01*
X015818Y017251D01*
X015764Y017383D01*
X015663Y017484D01*
X015531Y017538D01*
X015389Y017538D01*
X015257Y017484D01*
X015157Y017383D01*
X015102Y017251D01*
X015102Y017218D01*
X012172Y014288D01*
X012139Y014288D01*
X012007Y014234D01*
X011907Y014133D01*
X011852Y014001D01*
X011852Y013859D01*
X011907Y013727D01*
X012007Y013626D01*
X012139Y013572D01*
X012206Y013572D01*
X009200Y010565D01*
X008930Y010835D01*
X008491Y010835D01*
X008224Y010569D01*
X007938Y010855D01*
X007730Y010855D01*
X007730Y010325D01*
X007690Y010325D01*
X007690Y010285D01*
X007160Y010285D01*
X007160Y010077D01*
X007432Y009805D01*
X007160Y009533D01*
X007160Y009325D01*
X007690Y009325D01*
X007690Y009285D01*
X007160Y009285D01*
X007160Y009077D01*
X007432Y008805D01*
X007160Y008533D01*
X007160Y008325D01*
X007690Y008325D01*
X007690Y008285D01*
X007160Y008285D01*
X007160Y008077D01*
X007482Y007755D01*
X007690Y007755D01*
X007690Y008285D01*
X007730Y008285D01*
X007730Y007755D01*
X007938Y007755D01*
X008224Y008041D01*
X008491Y007775D01*
X008909Y007775D01*
X007973Y006839D01*
X007930Y006736D01*
X007930Y004200D01*
X007680Y003950D01*
X007680Y003510D01*
X007970Y003220D01*
X007970Y003140D01*
X007680Y002850D01*
X007680Y002410D01*
X007991Y002100D01*
X008430Y002100D01*
X008710Y002380D01*
X008991Y002100D01*
X009430Y002100D01*
X009710Y002380D01*
X009991Y002100D01*
X010430Y002100D01*
X010710Y002380D01*
X010991Y002100D01*
X011430Y002100D01*
X011696Y002366D01*
X011982Y002080D01*
X012190Y002080D01*
X012190Y002610D01*
X012230Y002610D01*
X012230Y002080D01*
X012438Y002080D01*
X012760Y002402D01*
X012760Y002610D01*
X012230Y002610D01*
X012230Y002650D01*
X012190Y002650D01*
X012190Y003180D01*
X012190Y003710D01*
X012230Y003710D01*
X012230Y003180D01*
X012438Y003180D01*
X012760Y003502D01*
X012760Y003710D01*
X012230Y003710D01*
X012230Y003750D01*
X012190Y003750D01*
X012190Y004280D01*
X011982Y004280D01*
X011696Y003994D01*
X011430Y004260D01*
X010991Y004260D01*
X010710Y003980D01*
X010430Y004260D01*
X009991Y004260D01*
X009710Y003980D01*
X009490Y004200D01*
X009490Y006814D01*
X010119Y007443D01*
X010198Y007521D01*
X010240Y007624D01*
X010240Y007814D01*
X015576Y013150D01*
X019093Y013150D01*
X019040Y013024D01*
X019040Y012336D01*
X019104Y012182D01*
X019222Y012064D01*
X019377Y012000D01*
X019544Y012000D01*
X019698Y012064D01*
X019816Y012182D01*
X019880Y012336D01*
X019880Y013024D01*
X019828Y013150D01*
X020093Y013150D01*
X020040Y013024D01*
X020040Y012336D01*
X020104Y012182D01*
X020222Y012064D01*
X020377Y012000D01*
X020544Y012000D01*
X020698Y012064D01*
X020816Y012182D01*
X020880Y012336D01*
X020880Y013024D01*
X020828Y013150D01*
X021093Y013150D01*
X021040Y013024D01*
X021040Y012336D01*
X021104Y012182D01*
X021222Y012064D01*
X021377Y012000D01*
X021544Y012000D01*
X021698Y012064D01*
X021816Y012182D01*
X021880Y012336D01*
X021880Y013024D01*
X021828Y013150D01*
X022093Y013150D01*
X022040Y013024D01*
X022040Y012336D01*
X022104Y012182D01*
X022180Y012106D01*
X022180Y011624D01*
X022223Y011521D01*
X022302Y011443D01*
X025180Y008564D01*
X025180Y007124D01*
X025223Y007021D01*
X025302Y006943D01*
X025430Y006814D01*
X025430Y004200D01*
X025430Y004259D02*
X024990Y004259D01*
X024990Y004417D02*
X025430Y004417D01*
X025430Y004576D02*
X024990Y004576D01*
X025068Y004734D02*
X025430Y004734D01*
X025430Y004893D02*
X025068Y004893D01*
X025068Y005051D02*
X025430Y005051D01*
X025430Y005210D02*
X025053Y005210D01*
X025430Y005368D02*
X023238Y005368D01*
X023240Y005374D02*
X023198Y005271D01*
X023119Y005193D01*
X022619Y004693D01*
X022516Y004650D01*
X019826Y004650D01*
X019740Y004564D01*
X019740Y004200D01*
X019946Y003994D01*
X020232Y004280D01*
X020440Y004280D01*
X020440Y003750D01*
X020480Y003750D01*
X020480Y004280D01*
X020688Y004280D01*
X021010Y003958D01*
X021010Y003750D01*
X020480Y003750D01*
X020480Y003710D01*
X020480Y003180D01*
X020688Y003180D01*
X021010Y003502D01*
X021010Y003710D01*
X020480Y003710D01*
X020440Y003710D01*
X020440Y003180D01*
X020232Y003180D01*
X019946Y003466D01*
X019946Y003466D01*
X019680Y003200D01*
X019241Y003200D01*
X018960Y003480D01*
X018680Y003200D01*
X018241Y003200D01*
X017960Y003480D01*
X017700Y003220D01*
X017700Y003140D01*
X017960Y002880D01*
X018241Y003160D01*
X018680Y003160D01*
X018960Y002880D01*
X019241Y003160D01*
X019680Y003160D01*
X019946Y002894D01*
X020232Y003180D01*
X020440Y003180D01*
X020440Y002650D01*
X020480Y002650D01*
X020480Y003180D01*
X020688Y003180D01*
X021010Y002858D01*
X021010Y002650D01*
X020480Y002650D01*
X020480Y002610D01*
X020480Y002080D01*
X020688Y002080D01*
X021010Y002402D01*
X021010Y002610D01*
X020480Y002610D01*
X020440Y002610D01*
X020440Y002080D01*
X020232Y002080D01*
X019946Y002366D01*
X019680Y002100D01*
X019241Y002100D01*
X018960Y002380D01*
X018680Y002100D01*
X018241Y002100D01*
X017960Y002380D01*
X017680Y002100D01*
X017241Y002100D01*
X016960Y002380D01*
X016680Y002100D01*
X016241Y002100D01*
X015930Y002410D01*
X015930Y002850D01*
X016180Y003100D01*
X016180Y003260D01*
X015930Y003510D01*
X015930Y003950D01*
X016241Y004260D01*
X016440Y004260D01*
X016473Y004339D01*
X016552Y004417D01*
X017802Y005667D01*
X017905Y005710D01*
X021618Y005710D01*
X021696Y005788D01*
X022225Y005788D01*
X022318Y005694D01*
X022318Y005210D01*
X022344Y005210D01*
X022680Y005546D01*
X022680Y005588D01*
X022602Y005666D01*
X022602Y006194D01*
X022696Y006288D01*
X023225Y006288D01*
X023318Y006194D01*
X023318Y005666D01*
X023240Y005588D01*
X023240Y005374D01*
X023240Y005527D02*
X025430Y005527D01*
X025430Y005685D02*
X023318Y005685D01*
X023318Y005844D02*
X025430Y005844D01*
X025430Y006002D02*
X023318Y006002D01*
X023318Y006161D02*
X025430Y006161D01*
X025430Y006319D02*
X009490Y006319D01*
X009490Y006161D02*
X022602Y006161D01*
X022602Y006002D02*
X009490Y006002D01*
X009490Y005844D02*
X022602Y005844D01*
X022602Y005685D02*
X022318Y005685D01*
X022318Y005527D02*
X022661Y005527D01*
X022502Y005368D02*
X022318Y005368D01*
X022819Y004893D02*
X024352Y004893D01*
X024352Y005051D02*
X022977Y005051D01*
X023136Y005210D02*
X024367Y005210D01*
X024352Y004734D02*
X022660Y004734D01*
X024180Y003942D02*
X021010Y003942D01*
X021010Y003783D02*
X024180Y003783D01*
X024180Y003625D02*
X021010Y003625D01*
X020974Y003466D02*
X024225Y003466D01*
X024383Y003308D02*
X020816Y003308D01*
X020719Y003149D02*
X024430Y003149D01*
X024321Y002991D02*
X020878Y002991D01*
X021010Y002832D02*
X024180Y002832D01*
X024180Y002674D02*
X021010Y002674D01*
X021010Y002515D02*
X024180Y002515D01*
X024234Y002357D02*
X020965Y002357D01*
X020806Y002198D02*
X024393Y002198D01*
X025028Y002198D02*
X025393Y002198D01*
X025234Y002357D02*
X025186Y002357D01*
X026028Y002198D02*
X026393Y002198D01*
X026234Y002357D02*
X026186Y002357D01*
X026210Y002880D02*
X025990Y003100D01*
X025990Y003260D01*
X026210Y003480D01*
X026491Y003200D01*
X026930Y003200D01*
X027210Y003480D01*
X027491Y003200D01*
X027930Y003200D01*
X028196Y003466D01*
X028196Y003466D01*
X028482Y003180D01*
X028690Y003180D01*
X028482Y003180D01*
X028196Y002894D01*
X027930Y003160D01*
X027491Y003160D01*
X027210Y002880D01*
X026930Y003160D01*
X026491Y003160D01*
X026210Y002880D01*
X026099Y002991D02*
X026321Y002991D01*
X026480Y003149D02*
X025990Y003149D01*
X026037Y003308D02*
X026383Y003308D01*
X026225Y003466D02*
X026196Y003466D01*
X026941Y003149D02*
X027480Y003149D01*
X027383Y003308D02*
X027037Y003308D01*
X027196Y003466D02*
X027225Y003466D01*
X027321Y002991D02*
X027099Y002991D01*
X027186Y002357D02*
X027234Y002357D01*
X027393Y002198D02*
X027028Y002198D01*
X028028Y002198D02*
X028364Y002198D01*
X028206Y002357D02*
X028186Y002357D01*
X028690Y002357D02*
X028730Y002357D01*
X028730Y002515D02*
X028690Y002515D01*
X028730Y002650D02*
X029260Y002650D01*
X029260Y002858D01*
X028938Y003180D01*
X028730Y003180D01*
X028730Y002650D01*
X028730Y002674D02*
X028690Y002674D01*
X028690Y002832D02*
X028730Y002832D01*
X028730Y002991D02*
X028690Y002991D01*
X028690Y003149D02*
X028730Y003149D01*
X028730Y003308D02*
X028690Y003308D01*
X028690Y003466D02*
X028730Y003466D01*
X028730Y003625D02*
X028690Y003625D01*
X029224Y003466D02*
X030640Y003466D01*
X030640Y003308D02*
X029066Y003308D01*
X028969Y003149D02*
X030640Y003149D01*
X030640Y002991D02*
X029128Y002991D01*
X029260Y002832D02*
X030640Y002832D01*
X030640Y002674D02*
X029260Y002674D01*
X029260Y002515D02*
X030640Y002515D01*
X030640Y002357D02*
X029215Y002357D01*
X029056Y002198D02*
X030640Y002198D01*
X030640Y002040D02*
X006481Y002040D01*
X006481Y002198D02*
X007893Y002198D01*
X007734Y002357D02*
X006481Y002357D01*
X006481Y002515D02*
X007680Y002515D01*
X007680Y002674D02*
X006481Y002674D01*
X006481Y002832D02*
X007680Y002832D01*
X007821Y002991D02*
X006481Y002991D01*
X006481Y003149D02*
X007970Y003149D01*
X007883Y003308D02*
X006481Y003308D01*
X006481Y003466D02*
X007725Y003466D01*
X007680Y003625D02*
X006481Y003625D01*
X006482Y003783D02*
X007680Y003783D01*
X007680Y003942D02*
X006482Y003942D01*
X006482Y004100D02*
X007831Y004100D01*
X007930Y004259D02*
X006482Y004259D01*
X006482Y004417D02*
X007930Y004417D01*
X007930Y004576D02*
X006482Y004576D01*
X006482Y004734D02*
X007930Y004734D01*
X007930Y004893D02*
X006482Y004893D01*
X006482Y005051D02*
X007930Y005051D01*
X007930Y005210D02*
X006482Y005210D01*
X006482Y005368D02*
X007930Y005368D01*
X007930Y005527D02*
X006482Y005527D01*
X006482Y005685D02*
X007930Y005685D01*
X007930Y005844D02*
X006482Y005844D01*
X006483Y006002D02*
X007930Y006002D01*
X007930Y006161D02*
X006483Y006161D01*
X006483Y006319D02*
X007930Y006319D01*
X007930Y006478D02*
X006483Y006478D01*
X006483Y006636D02*
X007930Y006636D01*
X007955Y006795D02*
X006483Y006795D01*
X006483Y006953D02*
X008087Y006953D01*
X008246Y007112D02*
X006483Y007112D01*
X006483Y007270D02*
X008404Y007270D01*
X008563Y007429D02*
X006483Y007429D01*
X006483Y007587D02*
X008721Y007587D01*
X008880Y007746D02*
X006483Y007746D01*
X006483Y007904D02*
X007333Y007904D01*
X007175Y008063D02*
X006483Y008063D01*
X006484Y008221D02*
X007160Y008221D01*
X007160Y008380D02*
X006484Y008380D01*
X006484Y008538D02*
X007165Y008538D01*
X007324Y008697D02*
X006484Y008697D01*
X006484Y008855D02*
X007382Y008855D01*
X007224Y009014D02*
X006484Y009014D01*
X006484Y009172D02*
X007160Y009172D01*
X007160Y009331D02*
X006484Y009331D01*
X006484Y009489D02*
X007160Y009489D01*
X007275Y009648D02*
X006484Y009648D01*
X006484Y009806D02*
X007431Y009806D01*
X007273Y009965D02*
X006484Y009965D01*
X006484Y010123D02*
X007160Y010123D01*
X007160Y010282D02*
X006484Y010282D01*
X006485Y010440D02*
X007160Y010440D01*
X007160Y010533D02*
X007160Y010325D01*
X007690Y010325D01*
X007690Y010855D01*
X007482Y010855D01*
X007160Y010533D01*
X007226Y010599D02*
X006485Y010599D01*
X006485Y010757D02*
X007384Y010757D01*
X007690Y010757D02*
X007730Y010757D01*
X007730Y010599D02*
X007690Y010599D01*
X007690Y010440D02*
X007730Y010440D01*
X007730Y010285D02*
X007730Y009325D01*
X007690Y009325D01*
X007690Y009855D01*
X007690Y010285D01*
X007730Y010285D01*
X007730Y010282D02*
X007690Y010282D01*
X007690Y010123D02*
X007730Y010123D01*
X007730Y009965D02*
X007690Y009965D01*
X007690Y009806D02*
X007730Y009806D01*
X007730Y009648D02*
X007690Y009648D01*
X007690Y009489D02*
X007730Y009489D01*
X007730Y009331D02*
X007690Y009331D01*
X007690Y009285D02*
X007730Y009285D01*
X007730Y008325D01*
X007690Y008325D01*
X007690Y008855D01*
X007730Y008855D01*
X007690Y008855D02*
X007690Y009285D01*
X007690Y009172D02*
X007730Y009172D01*
X007730Y009014D02*
X007690Y009014D01*
X007690Y008697D02*
X007730Y008697D01*
X007730Y008538D02*
X007690Y008538D01*
X007690Y008380D02*
X007730Y008380D01*
X007730Y008221D02*
X007690Y008221D01*
X007690Y008063D02*
X007730Y008063D01*
X007730Y007904D02*
X007690Y007904D01*
X008087Y007904D02*
X008362Y007904D01*
X009629Y006953D02*
X013190Y006953D01*
X013196Y006947D02*
X013725Y006947D01*
X013818Y007041D01*
X013818Y007947D01*
X014225Y007947D01*
X014318Y008041D01*
X014318Y008569D01*
X014225Y008663D01*
X013818Y008663D01*
X013818Y008947D01*
X014225Y008947D01*
X014318Y009041D01*
X014318Y009569D01*
X014225Y009663D01*
X013818Y009663D01*
X013818Y010069D01*
X013725Y010163D01*
X013196Y010163D01*
X013102Y010069D01*
X013102Y009663D01*
X012696Y009663D01*
X012602Y009569D01*
X012602Y009041D01*
X012696Y008947D01*
X013102Y008947D01*
X013102Y008663D01*
X012696Y008663D01*
X012602Y008569D01*
X012602Y008041D01*
X012696Y007947D01*
X013102Y007947D01*
X013102Y007041D01*
X013196Y006947D01*
X013102Y007112D02*
X009788Y007112D01*
X009946Y007270D02*
X013102Y007270D01*
X013102Y007429D02*
X010105Y007429D01*
X010225Y007587D02*
X013102Y007587D01*
X013102Y007746D02*
X010240Y007746D01*
X010330Y007904D02*
X013102Y007904D01*
X012602Y008063D02*
X010489Y008063D01*
X010647Y008221D02*
X012602Y008221D01*
X012602Y008380D02*
X010806Y008380D01*
X010964Y008538D02*
X012602Y008538D01*
X013102Y008697D02*
X011123Y008697D01*
X011281Y008855D02*
X013102Y008855D01*
X012629Y009014D02*
X011440Y009014D01*
X011598Y009172D02*
X012602Y009172D01*
X012602Y009331D02*
X011757Y009331D01*
X011915Y009489D02*
X012602Y009489D01*
X012680Y009648D02*
X012074Y009648D01*
X012232Y009806D02*
X013102Y009806D01*
X013102Y009965D02*
X012391Y009965D01*
X012549Y010123D02*
X013156Y010123D01*
X012866Y010440D02*
X023304Y010440D01*
X023146Y010599D02*
X013025Y010599D01*
X013183Y010757D02*
X022987Y010757D01*
X022829Y010916D02*
X013342Y010916D01*
X013500Y011074D02*
X022670Y011074D01*
X022512Y011233D02*
X013659Y011233D01*
X013817Y011391D02*
X022353Y011391D01*
X022211Y011550D02*
X013976Y011550D01*
X014134Y011708D02*
X022180Y011708D01*
X022180Y011867D02*
X014293Y011867D01*
X014451Y012025D02*
X019316Y012025D01*
X019104Y012184D02*
X014610Y012184D01*
X014768Y012342D02*
X019040Y012342D01*
X019040Y012501D02*
X014927Y012501D01*
X015085Y012659D02*
X019040Y012659D01*
X019040Y012818D02*
X015244Y012818D01*
X015402Y012976D02*
X019040Y012976D01*
X019086Y013135D02*
X015561Y013135D01*
X012921Y015037D02*
X009066Y015037D01*
X008960Y014930D02*
X009240Y015210D01*
X009240Y015650D01*
X008960Y015930D01*
X009240Y016210D01*
X009240Y016650D01*
X008930Y016960D01*
X008491Y016960D01*
X008224Y016694D01*
X007938Y016980D01*
X007730Y016980D01*
X007730Y016450D01*
X007690Y016450D01*
X007690Y016410D01*
X007160Y016410D01*
X007160Y016202D01*
X007432Y015930D01*
X007160Y015658D01*
X007160Y015450D01*
X007690Y015450D01*
X007690Y015410D01*
X007160Y015410D01*
X007160Y015202D01*
X007432Y014930D01*
X007160Y014658D01*
X007160Y014450D01*
X007690Y014450D01*
X007690Y014410D01*
X007160Y014410D01*
X007160Y014202D01*
X007482Y013880D01*
X007690Y013880D01*
X007690Y014410D01*
X007730Y014410D01*
X007730Y013880D01*
X007938Y013880D01*
X008224Y014166D01*
X008491Y013900D01*
X008930Y013900D01*
X009240Y014210D01*
X009240Y014650D01*
X008960Y014930D01*
X009012Y014878D02*
X012762Y014878D01*
X012604Y014720D02*
X009170Y014720D01*
X009240Y014561D02*
X012445Y014561D01*
X012287Y014403D02*
X009240Y014403D01*
X009240Y014244D02*
X012033Y014244D01*
X011887Y014086D02*
X009115Y014086D01*
X008957Y013927D02*
X011852Y013927D01*
X011890Y013769D02*
X006486Y013769D01*
X006486Y013927D02*
X007435Y013927D01*
X007277Y014086D02*
X006486Y014086D01*
X006486Y014244D02*
X007160Y014244D01*
X007160Y014403D02*
X006486Y014403D01*
X006486Y014561D02*
X007160Y014561D01*
X007222Y014720D02*
X006486Y014720D01*
X006487Y014878D02*
X007380Y014878D01*
X007326Y015037D02*
X006487Y015037D01*
X006487Y015195D02*
X007167Y015195D01*
X007160Y015354D02*
X006487Y015354D01*
X006487Y015512D02*
X007160Y015512D01*
X007173Y015671D02*
X006487Y015671D01*
X006487Y015829D02*
X007331Y015829D01*
X007375Y015988D02*
X006487Y015988D01*
X006487Y016146D02*
X007216Y016146D01*
X007160Y016305D02*
X006487Y016305D01*
X006487Y016463D02*
X007160Y016463D01*
X007160Y016450D02*
X007690Y016450D01*
X007690Y016980D01*
X007482Y016980D01*
X007160Y016658D01*
X007160Y016450D01*
X007160Y016622D02*
X006487Y016622D01*
X006487Y016780D02*
X007282Y016780D01*
X007441Y016939D02*
X006487Y016939D01*
X006488Y017097D02*
X012430Y017097D01*
X012430Y016939D02*
X008951Y016939D01*
X009110Y016780D02*
X012430Y016780D01*
X012430Y016656D02*
X012407Y016633D01*
X012352Y016501D01*
X012352Y016359D01*
X012407Y016227D01*
X012507Y016126D01*
X012639Y016072D01*
X012781Y016072D01*
X012913Y016126D01*
X013014Y016227D01*
X013068Y016359D01*
X013068Y016501D01*
X013014Y016633D01*
X012990Y016656D01*
X012990Y018486D01*
X012950Y018582D01*
X012950Y019101D01*
X013602Y018449D01*
X013602Y018166D01*
X013696Y018072D01*
X014225Y018072D01*
X014318Y018166D01*
X014318Y018694D01*
X014225Y018788D01*
X013942Y018788D01*
X013200Y019529D01*
X013200Y020228D01*
X013164Y020316D01*
X013096Y020383D01*
X013006Y020473D01*
X013051Y020473D01*
X013219Y020543D01*
X013220Y020544D01*
X013220Y020132D01*
X013257Y020044D01*
X013324Y019977D01*
X013412Y019940D01*
X014861Y019940D01*
X015007Y019794D01*
X015074Y019727D01*
X015162Y019690D01*
X016852Y019690D01*
X016852Y019609D01*
X016907Y019477D01*
X017007Y019376D01*
X017139Y019322D01*
X017281Y019322D01*
X017413Y019376D01*
X017514Y019477D01*
X017568Y019609D01*
X017568Y019751D01*
X017514Y019883D01*
X017457Y019940D01*
X018194Y019940D01*
X018257Y019876D01*
X018389Y019822D01*
X018531Y019822D01*
X018663Y019876D01*
X018764Y019977D01*
X018818Y020109D01*
X018818Y020251D01*
X018764Y020383D01*
X018663Y020484D01*
X018531Y020538D01*
X018389Y020538D01*
X018257Y020484D01*
X018194Y020420D01*
X015560Y020420D01*
X015328Y020652D01*
X015348Y020671D01*
X015417Y020839D01*
X015417Y021021D01*
X015348Y021189D01*
X015219Y021317D01*
X015051Y021387D01*
X014869Y021387D01*
X014701Y021317D01*
X014573Y021189D01*
X014503Y021021D01*
X014503Y020839D01*
X014573Y020671D01*
X014701Y020543D01*
X014798Y020503D01*
X014824Y020477D01*
X014881Y020420D01*
X013700Y020420D01*
X013700Y020544D01*
X013701Y020543D01*
X013869Y020473D01*
X014051Y020473D01*
X014219Y020543D01*
X014348Y020671D01*
X014417Y020839D01*
X014417Y021021D01*
X014348Y021189D01*
X014219Y021317D01*
X014051Y021387D01*
X013869Y021387D01*
X013701Y021317D01*
X013674Y021290D01*
X013664Y021316D01*
X013596Y021383D01*
X013346Y021633D01*
X013337Y021637D01*
X013368Y021680D01*
X013402Y021747D01*
X013425Y021818D01*
X013437Y021892D01*
X013437Y021912D01*
X012979Y021912D01*
X012979Y021948D01*
X013437Y021948D01*
X013437Y021968D01*
X013425Y022042D01*
X013402Y022113D01*
X013368Y022180D01*
X013324Y022241D01*
X013271Y022294D01*
X013210Y022338D01*
X013143Y022372D01*
X013072Y022395D01*
X012998Y022407D01*
X012979Y022407D01*
X012979Y021948D01*
X012942Y021948D01*
X012942Y022407D01*
X012923Y022407D01*
X012849Y022395D01*
X012777Y022372D01*
X012710Y022338D01*
X012650Y022294D01*
X012597Y022241D01*
X012552Y022180D01*
X012518Y022113D01*
X012495Y022042D01*
X012487Y021992D01*
X012388Y022092D01*
X012348Y022189D01*
X012219Y022317D01*
X012051Y022387D01*
X011869Y022387D01*
X011701Y022317D01*
X011573Y022189D01*
X011503Y022021D01*
X011503Y021976D01*
X011388Y022092D01*
X011348Y022189D01*
X011219Y022317D01*
X011051Y022387D01*
X010869Y022387D01*
X010701Y022317D01*
X010573Y022189D01*
X010503Y022021D01*
X010503Y021976D01*
X010388Y022092D01*
X010348Y022189D01*
X010219Y022317D01*
X010051Y022387D01*
X009869Y022387D01*
X009701Y022317D01*
X009573Y022189D01*
X009503Y022021D01*
X009503Y021839D01*
X009573Y021671D01*
X009701Y021543D01*
X009869Y021473D01*
X010051Y021473D01*
X010219Y021543D01*
X010239Y021562D01*
X010507Y021294D01*
X010574Y021227D01*
X010583Y021223D01*
X010552Y021180D01*
X010518Y021113D01*
X010495Y021042D01*
X010483Y020968D01*
X010483Y020948D01*
X010942Y020948D01*
X010942Y020912D01*
X010483Y020912D01*
X010483Y020892D01*
X010495Y020818D01*
X010518Y020747D01*
X010552Y020680D01*
X010597Y020619D01*
X010650Y020566D01*
X010710Y020522D01*
X010777Y020488D01*
X010849Y020465D01*
X010923Y020453D01*
X010942Y020453D01*
X010942Y020912D01*
X010979Y020912D01*
X010979Y020453D01*
X010998Y020453D01*
X011072Y020465D01*
X011143Y020488D01*
X011210Y020522D01*
X011253Y020553D01*
X011257Y020544D01*
X011507Y020294D01*
X011574Y020227D01*
X011583Y020223D01*
X011552Y020180D01*
X011518Y020113D01*
X011495Y020042D01*
X011483Y019968D01*
X011483Y019948D01*
X011942Y019948D01*
X011942Y019912D01*
X011483Y019912D01*
X011483Y019892D01*
X011495Y019818D01*
X011518Y019747D01*
X011552Y019680D01*
X011597Y019619D01*
X011650Y019566D01*
X011710Y019522D01*
X011777Y019488D01*
X011849Y019465D01*
X011923Y019453D01*
X011942Y019453D01*
X011942Y019912D01*
X011979Y019912D01*
X011979Y019453D01*
X011998Y019453D01*
X012072Y019465D01*
X012143Y019488D01*
X012210Y019522D01*
X012271Y019566D01*
X012324Y019619D01*
X012368Y019680D01*
X012402Y019747D01*
X012425Y019818D01*
X012433Y019868D01*
X012470Y019831D01*
X012470Y018582D01*
X012430Y018486D01*
X012430Y016656D01*
X012402Y016622D02*
X009240Y016622D01*
X009240Y016463D02*
X012352Y016463D01*
X012375Y016305D02*
X009240Y016305D01*
X009176Y016146D02*
X012488Y016146D01*
X012933Y016146D02*
X014030Y016146D01*
X013872Y015988D02*
X009017Y015988D01*
X009061Y015829D02*
X013713Y015829D01*
X013555Y015671D02*
X009219Y015671D01*
X009240Y015512D02*
X013396Y015512D01*
X013238Y015354D02*
X009240Y015354D01*
X009225Y015195D02*
X013079Y015195D01*
X013046Y016305D02*
X014189Y016305D01*
X014347Y016463D02*
X013068Y016463D01*
X013019Y016622D02*
X014506Y016622D01*
X014664Y016780D02*
X012990Y016780D01*
X012990Y016939D02*
X014823Y016939D01*
X014981Y017097D02*
X012990Y017097D01*
X012990Y017256D02*
X015104Y017256D01*
X015188Y017414D02*
X012990Y017414D01*
X012990Y017573D02*
X016207Y017573D01*
X016048Y017414D02*
X015733Y017414D01*
X015817Y017256D02*
X015890Y017256D01*
X014318Y018207D02*
X018980Y018207D01*
X018872Y018048D02*
X012990Y018048D01*
X012990Y017890D02*
X018852Y017890D01*
X018905Y017731D02*
X012990Y017731D01*
X012430Y017731D02*
X006488Y017731D01*
X006488Y017573D02*
X012430Y017573D01*
X012430Y017414D02*
X006488Y017414D01*
X006488Y017256D02*
X012430Y017256D01*
X012430Y017890D02*
X006488Y017890D01*
X006488Y018048D02*
X012430Y018048D01*
X012430Y018207D02*
X006488Y018207D01*
X006488Y018365D02*
X012430Y018365D01*
X012446Y018524D02*
X012212Y018524D01*
X012210Y018522D02*
X012271Y018566D01*
X012324Y018619D01*
X012368Y018680D01*
X012402Y018747D01*
X012425Y018818D01*
X012437Y018892D01*
X012437Y018912D01*
X011979Y018912D01*
X011979Y018948D01*
X012437Y018948D01*
X012437Y018968D01*
X012425Y019042D01*
X012402Y019113D01*
X012368Y019180D01*
X012324Y019241D01*
X012271Y019294D01*
X012210Y019338D01*
X012143Y019372D01*
X012072Y019395D01*
X011998Y019407D01*
X011979Y019407D01*
X011979Y018948D01*
X011942Y018948D01*
X011942Y018912D01*
X011483Y018912D01*
X011483Y018892D01*
X011495Y018818D01*
X011518Y018747D01*
X011552Y018680D01*
X011597Y018619D01*
X011650Y018566D01*
X011710Y018522D01*
X011777Y018488D01*
X011849Y018465D01*
X011923Y018453D01*
X011942Y018453D01*
X011942Y018912D01*
X011979Y018912D01*
X011979Y018453D01*
X011998Y018453D01*
X012072Y018465D01*
X012143Y018488D01*
X012210Y018522D01*
X012369Y018682D02*
X012470Y018682D01*
X012470Y018841D02*
X012429Y018841D01*
X012432Y018999D02*
X012470Y018999D01*
X012470Y019158D02*
X012379Y019158D01*
X012470Y019316D02*
X012240Y019316D01*
X012102Y019475D02*
X012470Y019475D01*
X012470Y019633D02*
X012334Y019633D01*
X012417Y019792D02*
X012470Y019792D01*
X012710Y019930D02*
X012710Y018430D01*
X012975Y018524D02*
X013527Y018524D01*
X013602Y018365D02*
X012990Y018365D01*
X012990Y018207D02*
X013602Y018207D01*
X013960Y018430D02*
X012960Y019430D01*
X012960Y020180D01*
X012460Y020680D01*
X012460Y021180D01*
X012210Y021430D01*
X011710Y021430D01*
X011210Y021930D01*
X010960Y021930D01*
X010565Y022169D02*
X010356Y022169D01*
X010469Y022011D02*
X010503Y022011D01*
X010210Y021930D02*
X010710Y021430D01*
X011210Y021430D01*
X011460Y021180D01*
X011460Y020680D01*
X011710Y020430D01*
X012210Y020430D01*
X012710Y019930D01*
X013200Y019950D02*
X013388Y019950D01*
X013230Y020109D02*
X013200Y020109D01*
X013184Y020267D02*
X013220Y020267D01*
X013220Y020426D02*
X013054Y020426D01*
X013460Y020180D02*
X014960Y020180D01*
X015210Y019930D01*
X016960Y019930D01*
X017210Y019680D01*
X017552Y019792D02*
X021330Y019792D01*
X021330Y019950D02*
X018737Y019950D01*
X018818Y020109D02*
X021330Y020109D01*
X021330Y020267D02*
X018812Y020267D01*
X018721Y020426D02*
X021330Y020426D01*
X021330Y020584D02*
X021289Y020584D01*
X020979Y020584D02*
X020942Y020584D01*
X020942Y020743D02*
X020979Y020743D01*
X020979Y020901D02*
X020942Y020901D01*
X020942Y020948D02*
X020483Y020948D01*
X020483Y020968D01*
X020495Y021042D01*
X020518Y021113D01*
X020552Y021180D01*
X020597Y021241D01*
X020650Y021294D01*
X020710Y021338D01*
X020777Y021372D01*
X020849Y021395D01*
X020923Y021407D01*
X020942Y021407D01*
X020942Y020948D01*
X020942Y021060D02*
X020979Y021060D01*
X020979Y021218D02*
X020942Y021218D01*
X020942Y021377D02*
X020979Y021377D01*
X021129Y021377D02*
X021330Y021377D01*
X021330Y021535D02*
X021201Y021535D01*
X020791Y021377D02*
X019129Y021377D01*
X019143Y021372D02*
X019072Y021395D01*
X018998Y021407D01*
X018979Y021407D01*
X018979Y020948D01*
X019437Y020948D01*
X019437Y020968D01*
X019425Y021042D01*
X019402Y021113D01*
X019368Y021180D01*
X019324Y021241D01*
X019271Y021294D01*
X019210Y021338D01*
X019143Y021372D01*
X019051Y021473D02*
X019219Y021543D01*
X019348Y021671D01*
X019417Y021839D01*
X019417Y022021D01*
X019348Y022189D01*
X019219Y022317D01*
X019051Y022387D01*
X018869Y022387D01*
X018701Y022317D01*
X018573Y022189D01*
X018503Y022021D01*
X018503Y021839D01*
X018573Y021671D01*
X018701Y021543D01*
X018869Y021473D01*
X019051Y021473D01*
X018979Y021377D02*
X018942Y021377D01*
X018942Y021407D02*
X018923Y021407D01*
X018849Y021395D01*
X018777Y021372D01*
X018710Y021338D01*
X018650Y021294D01*
X018597Y021241D01*
X018552Y021180D01*
X018518Y021113D01*
X018495Y021042D01*
X018483Y020968D01*
X018483Y020948D01*
X018942Y020948D01*
X018942Y020912D01*
X018483Y020912D01*
X018483Y020892D01*
X018495Y020818D01*
X018518Y020747D01*
X018552Y020680D01*
X018597Y020619D01*
X018650Y020566D01*
X018710Y020522D01*
X018777Y020488D01*
X018849Y020465D01*
X018923Y020453D01*
X018942Y020453D01*
X018942Y020912D01*
X018979Y020912D01*
X018979Y020948D01*
X018942Y020948D01*
X018942Y021407D01*
X018791Y021377D02*
X018076Y021377D01*
X018051Y021387D02*
X017869Y021387D01*
X017701Y021317D01*
X017573Y021189D01*
X017503Y021021D01*
X017503Y020839D01*
X017573Y020671D01*
X017701Y020543D01*
X017869Y020473D01*
X018051Y020473D01*
X018219Y020543D01*
X018348Y020671D01*
X018417Y020839D01*
X018417Y021021D01*
X018348Y021189D01*
X018219Y021317D01*
X018051Y021387D01*
X018051Y021473D02*
X018219Y021543D01*
X018348Y021671D01*
X018417Y021839D01*
X018417Y022021D01*
X018348Y022189D01*
X018219Y022317D01*
X018051Y022387D01*
X017869Y022387D01*
X017701Y022317D01*
X017573Y022189D01*
X017503Y022021D01*
X017503Y021839D01*
X017573Y021671D01*
X017701Y021543D01*
X017869Y021473D01*
X018051Y021473D01*
X018201Y021535D02*
X018720Y021535D01*
X018710Y021430D02*
X018960Y021180D01*
X018960Y020930D01*
X018979Y020912D02*
X018979Y020453D01*
X018998Y020453D01*
X019072Y020465D01*
X019143Y020488D01*
X019210Y020522D01*
X019271Y020566D01*
X019324Y020619D01*
X019368Y020680D01*
X019402Y020747D01*
X019425Y020818D01*
X019437Y020892D01*
X019437Y020912D01*
X018979Y020912D01*
X018979Y020901D02*
X018942Y020901D01*
X018942Y020743D02*
X018979Y020743D01*
X018979Y020584D02*
X018942Y020584D01*
X018632Y020584D02*
X018260Y020584D01*
X018199Y020426D02*
X015554Y020426D01*
X015701Y020543D02*
X015869Y020473D01*
X016051Y020473D01*
X016219Y020543D01*
X016348Y020671D01*
X016417Y020839D01*
X016417Y021021D01*
X016348Y021189D01*
X016219Y021317D01*
X016051Y021387D01*
X015869Y021387D01*
X015701Y021317D01*
X015573Y021189D01*
X015503Y021021D01*
X015503Y020839D01*
X015573Y020671D01*
X015701Y020543D01*
X015660Y020584D02*
X015396Y020584D01*
X015377Y020743D02*
X015543Y020743D01*
X015503Y020901D02*
X015417Y020901D01*
X015401Y021060D02*
X015519Y021060D01*
X015602Y021218D02*
X015318Y021218D01*
X015076Y021377D02*
X015844Y021377D01*
X015849Y021465D02*
X015923Y021453D01*
X015942Y021453D01*
X015942Y021912D01*
X015483Y021912D01*
X015483Y021892D01*
X015495Y021818D01*
X015518Y021747D01*
X015552Y021680D01*
X015597Y021619D01*
X015650Y021566D01*
X015710Y021522D01*
X015777Y021488D01*
X015849Y021465D01*
X015942Y021535D02*
X015979Y021535D01*
X015979Y021453D02*
X015998Y021453D01*
X016072Y021465D01*
X016143Y021488D01*
X016210Y021522D01*
X016271Y021566D01*
X016324Y021619D01*
X016368Y021680D01*
X016402Y021747D01*
X016425Y021818D01*
X016437Y021892D01*
X016437Y021912D01*
X015979Y021912D01*
X015979Y021948D01*
X016437Y021948D01*
X016437Y021968D01*
X016425Y022042D01*
X016402Y022113D01*
X016368Y022180D01*
X016324Y022241D01*
X016271Y022294D01*
X016210Y022338D01*
X016143Y022372D01*
X016072Y022395D01*
X015998Y022407D01*
X015979Y022407D01*
X015979Y021948D01*
X015942Y021948D01*
X015942Y021912D01*
X015979Y021912D01*
X015979Y021453D01*
X015960Y021430D02*
X015960Y021930D01*
X015960Y022180D01*
X015710Y022430D01*
X013460Y022430D01*
X012960Y021930D01*
X012942Y022011D02*
X012979Y022011D01*
X012979Y022169D02*
X012942Y022169D01*
X012942Y022328D02*
X012979Y022328D01*
X013224Y022328D02*
X013726Y022328D01*
X013701Y022317D02*
X013573Y022189D01*
X013503Y022021D01*
X013503Y021839D01*
X013573Y021671D01*
X013701Y021543D01*
X013869Y021473D01*
X014051Y021473D01*
X014219Y021543D01*
X014348Y021671D01*
X014417Y021839D01*
X014417Y022021D01*
X014348Y022189D01*
X014219Y022317D01*
X014051Y022387D01*
X013869Y022387D01*
X013701Y022317D01*
X013565Y022169D02*
X013374Y022169D01*
X013430Y022011D02*
X013503Y022011D01*
X013503Y021852D02*
X013431Y021852D01*
X013375Y021694D02*
X013564Y021694D01*
X013445Y021535D02*
X013720Y021535D01*
X013603Y021377D02*
X013844Y021377D01*
X014076Y021377D02*
X014844Y021377D01*
X014869Y021473D02*
X015051Y021473D01*
X015219Y021543D01*
X015348Y021671D01*
X015417Y021839D01*
X015417Y022021D01*
X015348Y022189D01*
X015219Y022317D01*
X015051Y022387D01*
X014869Y022387D01*
X014701Y022317D01*
X014573Y022189D01*
X014503Y022021D01*
X014503Y021839D01*
X014573Y021671D01*
X014701Y021543D01*
X014869Y021473D01*
X014720Y021535D02*
X014201Y021535D01*
X014357Y021694D02*
X014564Y021694D01*
X014503Y021852D02*
X014417Y021852D01*
X014417Y022011D02*
X014503Y022011D01*
X014565Y022169D02*
X014356Y022169D01*
X014194Y022328D02*
X014726Y022328D01*
X015194Y022328D02*
X015696Y022328D01*
X015710Y022338D02*
X015650Y022294D01*
X015597Y022241D01*
X015552Y022180D01*
X015518Y022113D01*
X015495Y022042D01*
X015483Y021968D01*
X015483Y021948D01*
X015942Y021948D01*
X015942Y022407D01*
X015923Y022407D01*
X015849Y022395D01*
X015777Y022372D01*
X015710Y022338D01*
X015942Y022328D02*
X015979Y022328D01*
X015979Y022169D02*
X015942Y022169D01*
X015942Y022011D02*
X015979Y022011D01*
X015979Y021852D02*
X015942Y021852D01*
X015942Y021694D02*
X015979Y021694D01*
X015960Y021430D02*
X018710Y021430D01*
X018580Y021218D02*
X018318Y021218D01*
X018401Y021060D02*
X018501Y021060D01*
X018483Y020901D02*
X018417Y020901D01*
X018377Y020743D02*
X018521Y020743D01*
X018942Y021060D02*
X018979Y021060D01*
X018979Y021218D02*
X018942Y021218D01*
X019340Y021218D02*
X020580Y021218D01*
X020501Y021060D02*
X019420Y021060D01*
X019437Y020901D02*
X020483Y020901D01*
X020521Y020743D02*
X019400Y020743D01*
X019289Y020584D02*
X020632Y020584D01*
X020720Y021535D02*
X019201Y021535D01*
X019357Y021694D02*
X020564Y021694D01*
X020503Y021852D02*
X019417Y021852D01*
X019417Y022011D02*
X020503Y022011D01*
X020565Y022169D02*
X019356Y022169D01*
X019194Y022328D02*
X020726Y022328D01*
X021194Y022328D02*
X021330Y022328D01*
X021330Y022486D02*
X006490Y022486D01*
X006490Y022328D02*
X006665Y022328D01*
X006529Y022169D02*
X006490Y022169D01*
X006960Y021930D02*
X007960Y021930D01*
X008210Y021930D01*
X008460Y021680D01*
X008460Y020180D01*
X008710Y019930D01*
X008960Y019930D01*
X008779Y019475D02*
X008755Y019475D01*
X009141Y019475D02*
X009866Y019475D01*
X009869Y019473D02*
X010051Y019473D01*
X010219Y019543D01*
X010348Y019671D01*
X010417Y019839D01*
X010417Y020021D01*
X010348Y020189D01*
X010219Y020317D01*
X010051Y020387D01*
X009869Y020387D01*
X009701Y020317D01*
X009573Y020189D01*
X009503Y020021D01*
X009503Y019839D01*
X009573Y019671D01*
X009701Y019543D01*
X009869Y019473D01*
X009869Y019387D02*
X009701Y019317D01*
X009573Y019189D01*
X009503Y019021D01*
X009503Y018839D01*
X009573Y018671D01*
X009701Y018543D01*
X009869Y018473D01*
X010051Y018473D01*
X010219Y018543D01*
X010348Y018671D01*
X010417Y018839D01*
X010417Y019021D01*
X010348Y019189D01*
X010219Y019317D01*
X010051Y019387D01*
X009869Y019387D01*
X009700Y019316D02*
X009220Y019316D01*
X009360Y019158D02*
X009560Y019158D01*
X009503Y018999D02*
X009417Y018999D01*
X009417Y018841D02*
X009503Y018841D01*
X009568Y018682D02*
X009352Y018682D01*
X009173Y018524D02*
X009748Y018524D01*
X010173Y018524D02*
X010748Y018524D01*
X010701Y018543D02*
X010869Y018473D01*
X011051Y018473D01*
X011219Y018543D01*
X011348Y018671D01*
X011417Y018839D01*
X011417Y019021D01*
X011348Y019189D01*
X011219Y019317D01*
X011051Y019387D01*
X010869Y019387D01*
X010701Y019317D01*
X010573Y019189D01*
X010503Y019021D01*
X010503Y018839D01*
X010573Y018671D01*
X010701Y018543D01*
X010568Y018682D02*
X010352Y018682D01*
X010417Y018841D02*
X010503Y018841D01*
X010503Y018999D02*
X010417Y018999D01*
X010360Y019158D02*
X010560Y019158D01*
X010700Y019316D02*
X010220Y019316D01*
X010054Y019475D02*
X010866Y019475D01*
X010869Y019473D02*
X011051Y019473D01*
X011219Y019543D01*
X011348Y019671D01*
X011417Y019839D01*
X011417Y020021D01*
X011348Y020189D01*
X011219Y020317D01*
X011051Y020387D01*
X010869Y020387D01*
X010701Y020317D01*
X010573Y020189D01*
X010503Y020021D01*
X010503Y019839D01*
X010573Y019671D01*
X010701Y019543D01*
X010869Y019473D01*
X011054Y019475D02*
X011819Y019475D01*
X011849Y019395D02*
X011777Y019372D01*
X011710Y019338D01*
X011650Y019294D01*
X011597Y019241D01*
X011552Y019180D01*
X011518Y019113D01*
X011495Y019042D01*
X011483Y018968D01*
X011483Y018948D01*
X011942Y018948D01*
X011942Y019407D01*
X011923Y019407D01*
X011849Y019395D01*
X011942Y019316D02*
X011979Y019316D01*
X011979Y019158D02*
X011942Y019158D01*
X011942Y018999D02*
X011979Y018999D01*
X011960Y018930D02*
X011960Y019930D01*
X011710Y019930D01*
X010960Y020680D01*
X010960Y020930D01*
X010710Y020930D01*
X010210Y021430D01*
X009460Y021430D01*
X008960Y021930D01*
X008979Y021912D02*
X008979Y021420D01*
X009000Y021420D01*
X009080Y021433D01*
X009156Y021457D01*
X009228Y021494D01*
X009292Y021541D01*
X009349Y021598D01*
X009396Y021663D01*
X009433Y021734D01*
X009458Y021811D01*
X009470Y021890D01*
X009470Y021912D01*
X008979Y021912D01*
X008979Y021852D02*
X008942Y021852D01*
X008942Y021694D02*
X008979Y021694D01*
X008979Y021535D02*
X008942Y021535D01*
X008844Y021377D02*
X008700Y021377D01*
X009076Y021377D02*
X009844Y021377D01*
X009869Y021387D02*
X009701Y021317D01*
X009573Y021189D01*
X009503Y021021D01*
X009503Y020839D01*
X009573Y020671D01*
X009701Y020543D01*
X009869Y020473D01*
X010051Y020473D01*
X010219Y020543D01*
X010348Y020671D01*
X010417Y020839D01*
X010417Y021021D01*
X010348Y021189D01*
X010219Y021317D01*
X010051Y021387D01*
X009869Y021387D01*
X010076Y021377D02*
X010424Y021377D01*
X010318Y021218D02*
X010580Y021218D01*
X010501Y021060D02*
X010401Y021060D01*
X010417Y020901D02*
X010483Y020901D01*
X010521Y020743D02*
X010377Y020743D01*
X010260Y020584D02*
X010632Y020584D01*
X010942Y020584D02*
X010979Y020584D01*
X010979Y020743D02*
X010942Y020743D01*
X010942Y020901D02*
X010979Y020901D01*
X011375Y020426D02*
X008700Y020426D01*
X008220Y020426D02*
X007804Y020426D01*
X007660Y020584D02*
X007646Y020584D01*
X007543Y020743D02*
X007487Y020743D01*
X007503Y020901D02*
X007417Y020901D01*
X007417Y021060D02*
X007519Y021060D01*
X007602Y021218D02*
X007417Y021218D01*
X007334Y021377D02*
X007844Y021377D01*
X007720Y021535D02*
X007258Y021535D01*
X008076Y021377D02*
X008220Y021377D01*
X008220Y021535D02*
X008201Y021535D01*
X008356Y022169D02*
X008510Y022169D01*
X008640Y022328D02*
X008194Y022328D01*
X007726Y022328D02*
X007256Y022328D01*
X006528Y021694D02*
X006490Y021694D01*
X006490Y021535D02*
X006662Y021535D01*
X006587Y021377D02*
X006489Y021377D01*
X006489Y021218D02*
X006503Y021218D01*
X006489Y021060D02*
X006503Y021060D01*
X006489Y020901D02*
X006503Y020901D01*
X006489Y020743D02*
X006503Y020743D01*
X006489Y020584D02*
X006503Y020584D01*
X006489Y020426D02*
X007125Y020426D01*
X007284Y020267D02*
X006489Y020267D01*
X006489Y020109D02*
X007442Y020109D01*
X007601Y019950D02*
X006489Y019950D01*
X006489Y019792D02*
X007759Y019792D01*
X007918Y019633D02*
X006489Y019633D01*
X006489Y019475D02*
X008076Y019475D01*
X008235Y019316D02*
X006489Y019316D01*
X006488Y019158D02*
X008393Y019158D01*
X008503Y018999D02*
X006488Y018999D01*
X006488Y018841D02*
X008503Y018841D01*
X008568Y018682D02*
X006488Y018682D01*
X006488Y018524D02*
X008748Y018524D01*
X008960Y018930D02*
X006960Y020930D01*
X007963Y020267D02*
X008220Y020267D01*
X008230Y020109D02*
X008121Y020109D01*
X008280Y019950D02*
X008351Y019950D01*
X008438Y019792D02*
X008487Y019792D01*
X009356Y019633D02*
X009611Y019633D01*
X009523Y019792D02*
X009433Y019792D01*
X009450Y019950D02*
X009503Y019950D01*
X009540Y020109D02*
X009417Y020109D01*
X009316Y020267D02*
X009651Y020267D01*
X009660Y020584D02*
X009260Y020584D01*
X009377Y020743D02*
X009543Y020743D01*
X009503Y020901D02*
X009417Y020901D01*
X009401Y021060D02*
X009519Y021060D01*
X009602Y021218D02*
X009318Y021218D01*
X009284Y021535D02*
X009720Y021535D01*
X009564Y021694D02*
X009412Y021694D01*
X009464Y021852D02*
X009503Y021852D01*
X009503Y022011D02*
X009464Y022011D01*
X009411Y022169D02*
X009565Y022169D01*
X009726Y022328D02*
X009281Y022328D01*
X008979Y022328D02*
X008942Y022328D01*
X008942Y022169D02*
X008979Y022169D01*
X008979Y022011D02*
X008942Y022011D01*
X009960Y021930D02*
X010210Y021930D01*
X010201Y021535D02*
X010266Y021535D01*
X011356Y022169D02*
X011565Y022169D01*
X011503Y022011D02*
X011469Y022011D01*
X011726Y022328D02*
X011194Y022328D01*
X010726Y022328D02*
X010194Y022328D01*
X011960Y021930D02*
X012210Y021930D01*
X012710Y021430D01*
X013210Y021430D01*
X013460Y021180D01*
X013460Y020180D01*
X013700Y020426D02*
X014875Y020426D01*
X014660Y020584D02*
X014260Y020584D01*
X014377Y020743D02*
X014543Y020743D01*
X014503Y020901D02*
X014417Y020901D01*
X014401Y021060D02*
X014519Y021060D01*
X014602Y021218D02*
X014318Y021218D01*
X014960Y020930D02*
X014960Y020680D01*
X015460Y020180D01*
X018460Y020180D01*
X017660Y020584D02*
X017260Y020584D01*
X017219Y020543D02*
X017348Y020671D01*
X017417Y020839D01*
X017417Y021021D01*
X017348Y021189D01*
X017219Y021317D01*
X017051Y021387D01*
X016869Y021387D01*
X016701Y021317D01*
X016573Y021189D01*
X016503Y021021D01*
X016503Y020839D01*
X016573Y020671D01*
X016701Y020543D01*
X016869Y020473D01*
X017051Y020473D01*
X017219Y020543D01*
X017377Y020743D02*
X017543Y020743D01*
X017503Y020901D02*
X017417Y020901D01*
X017401Y021060D02*
X017519Y021060D01*
X017602Y021218D02*
X017318Y021218D01*
X017076Y021377D02*
X017844Y021377D01*
X017720Y021535D02*
X017201Y021535D01*
X017219Y021543D02*
X017348Y021671D01*
X017417Y021839D01*
X017417Y022021D01*
X017348Y022189D01*
X017219Y022317D01*
X017051Y022387D01*
X016869Y022387D01*
X016701Y022317D01*
X016573Y022189D01*
X016503Y022021D01*
X016503Y021839D01*
X016573Y021671D01*
X016701Y021543D01*
X016869Y021473D01*
X017051Y021473D01*
X017219Y021543D01*
X017357Y021694D02*
X017564Y021694D01*
X017503Y021852D02*
X017417Y021852D01*
X017417Y022011D02*
X017503Y022011D01*
X017565Y022169D02*
X017356Y022169D01*
X017194Y022328D02*
X017726Y022328D01*
X018194Y022328D02*
X018726Y022328D01*
X018565Y022169D02*
X018356Y022169D01*
X018417Y022011D02*
X018503Y022011D01*
X018503Y021852D02*
X018417Y021852D01*
X018357Y021694D02*
X018564Y021694D01*
X016844Y021377D02*
X016076Y021377D01*
X016228Y021535D02*
X016720Y021535D01*
X016564Y021694D02*
X016375Y021694D01*
X016431Y021852D02*
X016503Y021852D01*
X016503Y022011D02*
X016430Y022011D01*
X016374Y022169D02*
X016565Y022169D01*
X016726Y022328D02*
X016224Y022328D01*
X015547Y022169D02*
X015356Y022169D01*
X015417Y022011D02*
X015490Y022011D01*
X015490Y021852D02*
X015417Y021852D01*
X015357Y021694D02*
X015546Y021694D01*
X015693Y021535D02*
X015201Y021535D01*
X016318Y021218D02*
X016602Y021218D01*
X016519Y021060D02*
X016401Y021060D01*
X016417Y020901D02*
X016503Y020901D01*
X016543Y020743D02*
X016377Y020743D01*
X016260Y020584D02*
X016660Y020584D01*
X016852Y019633D02*
X013200Y019633D01*
X013200Y019792D02*
X015009Y019792D01*
X013731Y018999D02*
X021330Y018999D01*
X021330Y018841D02*
X013889Y018841D01*
X013572Y019158D02*
X021330Y019158D01*
X021330Y019316D02*
X013414Y019316D01*
X013255Y019475D02*
X016909Y019475D01*
X017511Y019475D02*
X021330Y019475D01*
X021330Y019633D02*
X017568Y019633D01*
X014318Y018682D02*
X021330Y018682D01*
X021330Y018524D02*
X014318Y018524D01*
X014318Y018365D02*
X021330Y018365D01*
X024828Y016150D02*
X025073Y016150D01*
X025052Y016109D01*
X025031Y016043D01*
X025020Y015975D01*
X025020Y015680D01*
X025020Y015385D01*
X025031Y015317D01*
X025052Y015251D01*
X025073Y015210D01*
X024828Y015210D01*
X024880Y015336D01*
X024880Y016024D01*
X024828Y016150D01*
X024830Y016146D02*
X025071Y016146D01*
X025022Y015988D02*
X024880Y015988D01*
X024880Y015829D02*
X025020Y015829D01*
X025020Y015680D02*
X025460Y015680D01*
X025020Y015680D01*
X025020Y015671D02*
X024880Y015671D01*
X024880Y015512D02*
X025020Y015512D01*
X025025Y015354D02*
X024880Y015354D01*
X025460Y015680D02*
X025460Y015680D01*
X025900Y015680D01*
X025900Y015975D01*
X025889Y016043D01*
X025868Y016109D01*
X025847Y016150D01*
X026093Y016150D01*
X026040Y016024D01*
X026040Y015336D01*
X026093Y015210D01*
X025847Y015210D01*
X025868Y015251D01*
X025889Y015317D01*
X025900Y015385D01*
X025900Y015680D01*
X025460Y015680D01*
X025460Y015680D01*
X025900Y015671D02*
X026040Y015671D01*
X026040Y015829D02*
X025900Y015829D01*
X025898Y015988D02*
X026040Y015988D01*
X026091Y016146D02*
X025849Y016146D01*
X025900Y015512D02*
X026040Y015512D01*
X026040Y015354D02*
X025895Y015354D01*
X024426Y013610D02*
X030884Y013610D01*
X030219Y013293D02*
X029701Y013293D01*
X029834Y013135D02*
X030086Y013135D01*
X030040Y012976D02*
X029880Y012976D01*
X029880Y012818D02*
X030040Y012818D01*
X030040Y012659D02*
X029880Y012659D01*
X029880Y012501D02*
X030040Y012501D01*
X030040Y012342D02*
X029880Y012342D01*
X029817Y012184D02*
X030104Y012184D01*
X030180Y012025D02*
X029761Y012025D01*
X029920Y011867D02*
X030183Y011867D01*
X030286Y011708D02*
X030078Y011708D01*
X030237Y011550D02*
X030445Y011550D01*
X030395Y011391D02*
X030603Y011391D01*
X030680Y011233D02*
X030490Y011233D01*
X030490Y011074D02*
X030680Y011074D01*
X030680Y010916D02*
X030490Y010916D01*
X030490Y010757D02*
X030680Y010757D01*
X030680Y010599D02*
X030490Y010599D01*
X030490Y010440D02*
X030680Y010440D01*
X030680Y010282D02*
X030490Y010282D01*
X030490Y010123D02*
X030680Y010123D01*
X030680Y009965D02*
X030490Y009965D01*
X030490Y009806D02*
X030680Y009806D01*
X030680Y009648D02*
X030490Y009648D01*
X030490Y009489D02*
X030680Y009489D01*
X030680Y009331D02*
X030490Y009331D01*
X030490Y009172D02*
X030680Y009172D01*
X030680Y009014D02*
X030490Y009014D01*
X030490Y008855D02*
X030680Y008855D01*
X030680Y008697D02*
X030490Y008697D01*
X029930Y008697D02*
X025740Y008697D01*
X025740Y008538D02*
X029930Y008538D01*
X029930Y008380D02*
X025740Y008380D01*
X025740Y008221D02*
X029930Y008221D01*
X029930Y008063D02*
X025740Y008063D01*
X025740Y007904D02*
X029930Y007904D01*
X029930Y007746D02*
X025740Y007746D01*
X025740Y007587D02*
X029930Y007587D01*
X029930Y007429D02*
X025740Y007429D01*
X025766Y007270D02*
X029930Y007270D01*
X029930Y007112D02*
X025925Y007112D01*
X025990Y006953D02*
X029930Y006953D01*
X029930Y006795D02*
X025990Y006795D01*
X025990Y006636D02*
X029930Y006636D01*
X029930Y006478D02*
X025990Y006478D01*
X025990Y006319D02*
X029930Y006319D01*
X029930Y006161D02*
X025990Y006161D01*
X025990Y006002D02*
X029930Y006002D01*
X029930Y005844D02*
X025990Y005844D01*
X025430Y006478D02*
X016657Y006478D01*
X016662Y006479D02*
X016662Y006479D01*
X017095Y006729D01*
X017095Y006729D01*
X017436Y007096D01*
X017436Y007096D01*
X017653Y007547D01*
X017653Y007547D01*
X017728Y008043D01*
X017653Y008538D01*
X025180Y008538D01*
X025180Y008380D02*
X017677Y008380D01*
X017653Y008538D02*
X017653Y008538D01*
X017436Y008989D01*
X017095Y009356D01*
X016662Y009606D01*
X016662Y009606D01*
X016173Y009718D01*
X015674Y009680D01*
X015208Y009497D01*
X014816Y009185D01*
X014534Y008771D01*
X014387Y008293D01*
X014387Y007792D01*
X014534Y007314D01*
X014816Y006900D01*
X014816Y006900D01*
X015208Y006588D01*
X015208Y006588D01*
X015674Y006405D01*
X016173Y006367D01*
X016173Y006367D01*
X016662Y006479D01*
X016934Y006636D02*
X025430Y006636D01*
X025430Y006795D02*
X023818Y006795D01*
X023818Y006791D02*
X023818Y007319D01*
X023725Y007413D01*
X023196Y007413D01*
X023102Y007319D01*
X023102Y007295D01*
X022193Y007295D01*
X022193Y007319D01*
X022100Y007413D01*
X021571Y007413D01*
X021477Y007319D01*
X021477Y006791D01*
X021571Y006697D01*
X022100Y006697D01*
X022193Y006791D01*
X022193Y006815D01*
X023102Y006815D01*
X023102Y006791D01*
X023196Y006697D01*
X023725Y006697D01*
X023818Y006791D01*
X023818Y006953D02*
X025291Y006953D01*
X025186Y007112D02*
X023818Y007112D01*
X023818Y007270D02*
X025180Y007270D01*
X025180Y007429D02*
X017596Y007429D01*
X017659Y007587D02*
X025180Y007587D01*
X025180Y007746D02*
X017683Y007746D01*
X017707Y007904D02*
X025180Y007904D01*
X025180Y008063D02*
X017725Y008063D01*
X017701Y008221D02*
X025180Y008221D01*
X025048Y008697D02*
X017577Y008697D01*
X017500Y008855D02*
X024889Y008855D01*
X024731Y009014D02*
X017413Y009014D01*
X017436Y008989D02*
X017436Y008989D01*
X017266Y009172D02*
X024572Y009172D01*
X024414Y009331D02*
X017119Y009331D01*
X017095Y009356D02*
X017095Y009356D01*
X016865Y009489D02*
X024255Y009489D01*
X024097Y009648D02*
X016481Y009648D01*
X016173Y009718D02*
X016173Y009718D01*
X015674Y009680D02*
X015674Y009680D01*
X015590Y009648D02*
X014240Y009648D01*
X014318Y009489D02*
X015197Y009489D01*
X015208Y009497D02*
X015208Y009497D01*
X014998Y009331D02*
X014318Y009331D01*
X014318Y009172D02*
X014807Y009172D01*
X014816Y009185D02*
X014816Y009185D01*
X014699Y009014D02*
X014291Y009014D01*
X014591Y008855D02*
X013818Y008855D01*
X013818Y008697D02*
X014511Y008697D01*
X014534Y008771D02*
X014534Y008771D01*
X014462Y008538D02*
X014318Y008538D01*
X014318Y008380D02*
X014413Y008380D01*
X014387Y008221D02*
X014318Y008221D01*
X014318Y008063D02*
X014387Y008063D01*
X014387Y007904D02*
X013818Y007904D01*
X013818Y007746D02*
X014401Y007746D01*
X014450Y007587D02*
X013818Y007587D01*
X013818Y007429D02*
X014499Y007429D01*
X014564Y007270D02*
X013818Y007270D01*
X013818Y007112D02*
X014672Y007112D01*
X014780Y006953D02*
X013731Y006953D01*
X014948Y006795D02*
X009490Y006795D01*
X009490Y006636D02*
X015147Y006636D01*
X015488Y006478D02*
X009490Y006478D01*
X009490Y005685D02*
X017844Y005685D01*
X017661Y005527D02*
X009490Y005527D01*
X009490Y005368D02*
X017502Y005368D01*
X017344Y005210D02*
X009490Y005210D01*
X009490Y005051D02*
X017185Y005051D01*
X017027Y004893D02*
X009490Y004893D01*
X009490Y004734D02*
X016868Y004734D01*
X016710Y004576D02*
X009490Y004576D01*
X009490Y004417D02*
X016551Y004417D01*
X016239Y004259D02*
X012460Y004259D01*
X012438Y004280D02*
X012230Y004280D01*
X012230Y003750D01*
X012760Y003750D01*
X012760Y003958D01*
X012438Y004280D01*
X012230Y004259D02*
X012190Y004259D01*
X012190Y004100D02*
X012230Y004100D01*
X012230Y003942D02*
X012190Y003942D01*
X012190Y003783D02*
X012230Y003783D01*
X012230Y003625D02*
X012190Y003625D01*
X012190Y003466D02*
X012230Y003466D01*
X012230Y003308D02*
X012190Y003308D01*
X012190Y003180D02*
X011982Y003180D01*
X011696Y003466D01*
X011696Y003466D01*
X011430Y003200D01*
X010991Y003200D01*
X010710Y003480D01*
X010430Y003200D01*
X009991Y003200D01*
X009710Y003480D01*
X009450Y003220D01*
X009450Y003140D01*
X009710Y002880D01*
X009991Y003160D01*
X010430Y003160D01*
X010710Y002880D01*
X010991Y003160D01*
X011430Y003160D01*
X011696Y002894D01*
X011982Y003180D01*
X012190Y003180D01*
X012190Y003149D02*
X012230Y003149D01*
X012230Y003180D02*
X012230Y002650D01*
X012760Y002650D01*
X012760Y002858D01*
X012438Y003180D01*
X012230Y003180D01*
X012230Y002991D02*
X012190Y002991D01*
X012190Y002832D02*
X012230Y002832D01*
X012230Y002674D02*
X012190Y002674D01*
X012190Y002515D02*
X012230Y002515D01*
X012230Y002357D02*
X012190Y002357D01*
X012190Y002198D02*
X012230Y002198D01*
X012556Y002198D02*
X016143Y002198D01*
X015984Y002357D02*
X012715Y002357D01*
X012760Y002515D02*
X015930Y002515D01*
X015930Y002674D02*
X012760Y002674D01*
X012760Y002832D02*
X015930Y002832D01*
X016071Y002991D02*
X012628Y002991D01*
X012469Y003149D02*
X016180Y003149D01*
X016133Y003308D02*
X012566Y003308D01*
X012724Y003466D02*
X015975Y003466D01*
X015930Y003625D02*
X012760Y003625D01*
X012760Y003783D02*
X015930Y003783D01*
X015930Y003942D02*
X012760Y003942D01*
X012618Y004100D02*
X016081Y004100D01*
X017460Y003730D02*
X017460Y002630D01*
X017849Y002991D02*
X018071Y002991D01*
X018230Y003149D02*
X017700Y003149D01*
X017787Y003308D02*
X018133Y003308D01*
X017975Y003466D02*
X017946Y003466D01*
X018691Y003149D02*
X019230Y003149D01*
X019133Y003308D02*
X018787Y003308D01*
X018946Y003466D02*
X018975Y003466D01*
X019071Y002991D02*
X018849Y002991D01*
X018936Y002357D02*
X018984Y002357D01*
X019143Y002198D02*
X018778Y002198D01*
X018143Y002198D02*
X017778Y002198D01*
X017936Y002357D02*
X017984Y002357D01*
X017143Y002198D02*
X016778Y002198D01*
X016936Y002357D02*
X016984Y002357D01*
X019778Y002198D02*
X020114Y002198D01*
X019956Y002357D02*
X019936Y002357D01*
X020440Y002357D02*
X020480Y002357D01*
X020480Y002515D02*
X020440Y002515D01*
X020440Y002674D02*
X020480Y002674D01*
X020480Y002832D02*
X020440Y002832D01*
X020440Y002991D02*
X020480Y002991D01*
X020480Y003149D02*
X020440Y003149D01*
X020440Y003308D02*
X020480Y003308D01*
X020480Y003466D02*
X020440Y003466D01*
X020440Y003625D02*
X020480Y003625D01*
X020480Y003783D02*
X020440Y003783D01*
X020440Y003942D02*
X020480Y003942D01*
X020480Y004100D02*
X020440Y004100D01*
X020440Y004259D02*
X020480Y004259D01*
X020710Y004259D02*
X024430Y004259D01*
X024430Y004417D02*
X019740Y004417D01*
X019740Y004259D02*
X020211Y004259D01*
X020052Y004100D02*
X019840Y004100D01*
X019752Y004576D02*
X024430Y004576D01*
X024331Y004100D02*
X020868Y004100D01*
X020105Y003308D02*
X019787Y003308D01*
X019691Y003149D02*
X020201Y003149D01*
X020043Y002991D02*
X019849Y002991D01*
X020440Y002198D02*
X020480Y002198D01*
X025090Y004100D02*
X025331Y004100D01*
X027941Y003149D02*
X028451Y003149D01*
X028355Y003308D02*
X028037Y003308D01*
X028099Y002991D02*
X028293Y002991D01*
X028690Y002198D02*
X028730Y002198D01*
X030640Y001881D02*
X006481Y001881D01*
X006481Y001723D02*
X030640Y001723D01*
X030640Y001564D02*
X006481Y001564D01*
X008210Y002630D02*
X008210Y003730D01*
X009210Y003730D02*
X009210Y002630D01*
X009599Y002991D02*
X009821Y002991D01*
X009980Y003149D02*
X009450Y003149D01*
X009537Y003308D02*
X009883Y003308D01*
X009725Y003466D02*
X009696Y003466D01*
X010441Y003149D02*
X010980Y003149D01*
X010883Y003308D02*
X010537Y003308D01*
X010696Y003466D02*
X010725Y003466D01*
X011441Y003149D02*
X011951Y003149D01*
X011855Y003308D02*
X011537Y003308D01*
X011599Y002991D02*
X011793Y002991D01*
X011706Y002357D02*
X011686Y002357D01*
X011528Y002198D02*
X011864Y002198D01*
X010893Y002198D02*
X010528Y002198D01*
X010686Y002357D02*
X010734Y002357D01*
X010821Y002991D02*
X010599Y002991D01*
X009734Y002357D02*
X009686Y002357D01*
X009528Y002198D02*
X009893Y002198D01*
X008893Y002198D02*
X008528Y002198D01*
X008686Y002357D02*
X008734Y002357D01*
X009590Y004100D02*
X009831Y004100D01*
X009989Y004259D02*
X009490Y004259D01*
X010431Y004259D02*
X010989Y004259D01*
X010831Y004100D02*
X010590Y004100D01*
X011431Y004259D02*
X011961Y004259D01*
X011802Y004100D02*
X011590Y004100D01*
X015674Y006405D02*
X015674Y006405D01*
X017156Y006795D02*
X021477Y006795D01*
X021477Y006953D02*
X017303Y006953D01*
X017443Y007112D02*
X021477Y007112D01*
X021477Y007270D02*
X017520Y007270D01*
X021835Y007055D02*
X023460Y007055D01*
X023102Y006795D02*
X022193Y006795D01*
X025681Y008855D02*
X029930Y008855D01*
X029930Y009014D02*
X025523Y009014D01*
X025364Y009172D02*
X029930Y009172D01*
X029930Y009331D02*
X025206Y009331D01*
X025047Y009489D02*
X029930Y009489D01*
X029930Y009648D02*
X024889Y009648D01*
X024730Y009806D02*
X029930Y009806D01*
X029930Y009965D02*
X024572Y009965D01*
X024413Y010123D02*
X029930Y010123D01*
X029930Y010282D02*
X024255Y010282D01*
X024096Y010440D02*
X029930Y010440D01*
X029930Y010599D02*
X023938Y010599D01*
X023779Y010757D02*
X029930Y010757D01*
X029930Y010916D02*
X023621Y010916D01*
X023462Y011074D02*
X029920Y011074D01*
X029762Y011233D02*
X023304Y011233D01*
X023145Y011391D02*
X029603Y011391D01*
X029445Y011550D02*
X022987Y011550D01*
X022828Y011708D02*
X029286Y011708D01*
X029183Y011867D02*
X022740Y011867D01*
X022740Y012025D02*
X023316Y012025D01*
X023104Y012184D02*
X022817Y012184D01*
X022880Y012342D02*
X023040Y012342D01*
X023040Y012501D02*
X022880Y012501D01*
X022880Y012659D02*
X023040Y012659D01*
X023040Y012818D02*
X022880Y012818D01*
X022880Y012976D02*
X023040Y012976D01*
X023086Y013135D02*
X022834Y013135D01*
X022086Y013135D02*
X021834Y013135D01*
X021880Y012976D02*
X022040Y012976D01*
X022040Y012818D02*
X021880Y012818D01*
X021880Y012659D02*
X022040Y012659D01*
X022040Y012501D02*
X021880Y012501D01*
X021880Y012342D02*
X022040Y012342D01*
X022104Y012184D02*
X021817Y012184D01*
X021604Y012025D02*
X022180Y012025D01*
X021316Y012025D02*
X020604Y012025D01*
X020817Y012184D02*
X021104Y012184D01*
X021040Y012342D02*
X020880Y012342D01*
X020880Y012501D02*
X021040Y012501D01*
X021040Y012659D02*
X020880Y012659D01*
X020880Y012818D02*
X021040Y012818D01*
X021040Y012976D02*
X020880Y012976D01*
X020834Y013135D02*
X021086Y013135D01*
X020086Y013135D02*
X019834Y013135D01*
X019880Y012976D02*
X020040Y012976D01*
X020040Y012818D02*
X019880Y012818D01*
X019880Y012659D02*
X020040Y012659D01*
X020040Y012501D02*
X019880Y012501D01*
X019880Y012342D02*
X020040Y012342D01*
X020104Y012184D02*
X019817Y012184D01*
X019604Y012025D02*
X020316Y012025D01*
X023604Y012025D02*
X024316Y012025D01*
X024104Y012184D02*
X023817Y012184D01*
X023880Y012342D02*
X024040Y012342D01*
X024040Y012501D02*
X023880Y012501D01*
X023880Y012659D02*
X024040Y012659D01*
X024040Y012818D02*
X023880Y012818D01*
X023880Y012976D02*
X024040Y012976D01*
X024086Y013135D02*
X023834Y013135D01*
X024448Y013589D02*
X024448Y013589D01*
X024880Y012818D02*
X025040Y012818D01*
X025040Y012659D02*
X024880Y012659D01*
X024880Y012501D02*
X025040Y012501D01*
X025040Y012342D02*
X024880Y012342D01*
X024817Y012184D02*
X025104Y012184D01*
X025316Y012025D02*
X024604Y012025D01*
X025604Y012025D02*
X026266Y012025D01*
X026291Y012012D02*
X026230Y012044D01*
X026174Y012084D01*
X026125Y012133D01*
X026084Y012189D01*
X026052Y012251D01*
X026031Y012317D01*
X026020Y012385D01*
X026020Y012680D01*
X026460Y012680D01*
X026460Y012680D01*
X026020Y012680D01*
X026020Y012975D01*
X026031Y013043D01*
X026052Y013109D01*
X026084Y013171D01*
X026125Y013227D01*
X026174Y013276D01*
X026230Y013316D01*
X026291Y013348D01*
X026357Y013369D01*
X026426Y013380D01*
X026460Y013380D01*
X026460Y012680D01*
X026460Y012680D01*
X026460Y011980D01*
X026426Y011980D01*
X026357Y011991D01*
X026291Y012012D01*
X026460Y012025D02*
X026460Y012025D01*
X026460Y011980D02*
X026495Y011980D01*
X026563Y011991D01*
X026629Y012012D01*
X026691Y012044D01*
X026747Y012084D01*
X026796Y012133D01*
X026837Y012189D01*
X026868Y012251D01*
X026889Y012317D01*
X026900Y012385D01*
X026900Y012680D01*
X026900Y012975D01*
X026889Y013043D01*
X026868Y013109D01*
X026837Y013171D01*
X026796Y013227D01*
X026747Y013276D01*
X026691Y013316D01*
X026629Y013348D01*
X026563Y013369D01*
X026495Y013380D01*
X026460Y013380D01*
X026460Y012680D01*
X026460Y012680D01*
X026460Y011980D01*
X026654Y012025D02*
X027316Y012025D01*
X027377Y012000D02*
X027544Y012000D01*
X027698Y012064D01*
X027816Y012182D01*
X027880Y012336D01*
X027880Y013024D01*
X027816Y013178D01*
X027698Y013296D01*
X027544Y013360D01*
X027377Y013360D01*
X027222Y013296D01*
X027104Y013178D01*
X027040Y013024D01*
X027040Y012336D01*
X027104Y012182D01*
X027222Y012064D01*
X027377Y012000D01*
X027604Y012025D02*
X028316Y012025D01*
X028377Y012000D02*
X028222Y012064D01*
X028104Y012182D01*
X028040Y012336D01*
X028040Y013024D01*
X028104Y013178D01*
X028222Y013296D01*
X028377Y013360D01*
X028544Y013360D01*
X028698Y013296D01*
X028816Y013178D01*
X028880Y013024D01*
X028880Y012336D01*
X028816Y012182D01*
X028698Y012064D01*
X028544Y012000D01*
X028377Y012000D01*
X028604Y012025D02*
X029180Y012025D01*
X029104Y012184D02*
X028817Y012184D01*
X028880Y012342D02*
X029040Y012342D01*
X029040Y012501D02*
X028880Y012501D01*
X028880Y012659D02*
X029040Y012659D01*
X029040Y012818D02*
X028880Y012818D01*
X028880Y012976D02*
X029040Y012976D01*
X029086Y013135D02*
X028834Y013135D01*
X028701Y013293D02*
X029219Y013293D01*
X028219Y013293D02*
X027701Y013293D01*
X027834Y013135D02*
X028086Y013135D01*
X028040Y012976D02*
X027880Y012976D01*
X027880Y012818D02*
X028040Y012818D01*
X028040Y012659D02*
X027880Y012659D01*
X027880Y012501D02*
X028040Y012501D01*
X028040Y012342D02*
X027880Y012342D01*
X027817Y012184D02*
X028104Y012184D01*
X027104Y012184D02*
X026832Y012184D01*
X026893Y012342D02*
X027040Y012342D01*
X027040Y012501D02*
X026900Y012501D01*
X026900Y012659D02*
X027040Y012659D01*
X026900Y012680D02*
X026460Y012680D01*
X026900Y012680D01*
X026900Y012818D02*
X027040Y012818D01*
X027040Y012976D02*
X026900Y012976D01*
X026855Y013135D02*
X027086Y013135D01*
X027219Y013293D02*
X026723Y013293D01*
X026460Y013293D02*
X026460Y013293D01*
X026460Y013135D02*
X026460Y013135D01*
X026460Y012976D02*
X026460Y012976D01*
X026460Y012818D02*
X026460Y012818D01*
X026460Y012680D02*
X026460Y012680D01*
X026460Y012659D02*
X026460Y012659D01*
X026460Y012501D02*
X026460Y012501D01*
X026460Y012342D02*
X026460Y012342D01*
X026460Y012184D02*
X026460Y012184D01*
X026088Y012184D02*
X025817Y012184D01*
X025880Y012342D02*
X026027Y012342D01*
X026020Y012501D02*
X025880Y012501D01*
X025880Y012659D02*
X026020Y012659D01*
X026020Y012818D02*
X025880Y012818D01*
X025880Y012976D02*
X026020Y012976D01*
X026066Y013135D02*
X025834Y013135D01*
X025701Y013293D02*
X026198Y013293D01*
X023463Y010282D02*
X012708Y010282D01*
X013765Y010123D02*
X023621Y010123D01*
X023780Y009965D02*
X013818Y009965D01*
X013818Y009806D02*
X023938Y009806D01*
X029118Y004100D02*
X030640Y004100D01*
X030640Y003942D02*
X029260Y003942D01*
X029260Y003783D02*
X030640Y003783D01*
X030640Y003625D02*
X029260Y003625D01*
X012086Y013452D02*
X006486Y013452D01*
X006486Y013610D02*
X012047Y013610D01*
X011927Y013293D02*
X006486Y013293D01*
X006486Y013135D02*
X011769Y013135D01*
X011610Y012976D02*
X006486Y012976D01*
X006486Y012818D02*
X011452Y012818D01*
X011293Y012659D02*
X006486Y012659D01*
X006485Y012501D02*
X011135Y012501D01*
X010976Y012342D02*
X006485Y012342D01*
X006485Y012184D02*
X010818Y012184D01*
X010659Y012025D02*
X006485Y012025D01*
X006485Y011867D02*
X010501Y011867D01*
X010342Y011708D02*
X006485Y011708D01*
X006485Y011550D02*
X010184Y011550D01*
X010025Y011391D02*
X006485Y011391D01*
X006485Y011233D02*
X009867Y011233D01*
X009708Y011074D02*
X006485Y011074D01*
X006485Y010916D02*
X009550Y010916D01*
X009391Y010757D02*
X009008Y010757D01*
X009166Y010599D02*
X009233Y010599D01*
X008413Y010757D02*
X008036Y010757D01*
X008195Y010599D02*
X008254Y010599D01*
X008464Y013927D02*
X007985Y013927D01*
X008144Y014086D02*
X008305Y014086D01*
X007730Y014086D02*
X007690Y014086D01*
X007690Y014244D02*
X007730Y014244D01*
X007730Y014403D02*
X007690Y014403D01*
X007690Y014450D02*
X007690Y014980D01*
X007690Y015410D01*
X007730Y015410D01*
X007730Y014450D01*
X007690Y014450D01*
X007690Y014561D02*
X007730Y014561D01*
X007730Y014720D02*
X007690Y014720D01*
X007690Y014878D02*
X007730Y014878D01*
X007730Y015037D02*
X007690Y015037D01*
X007690Y015195D02*
X007730Y015195D01*
X007730Y015354D02*
X007690Y015354D01*
X007690Y015450D02*
X007690Y015980D01*
X007690Y016410D01*
X007730Y016410D01*
X007730Y015450D01*
X007690Y015450D01*
X007690Y015512D02*
X007730Y015512D01*
X007730Y015671D02*
X007690Y015671D01*
X007690Y015829D02*
X007730Y015829D01*
X007730Y015988D02*
X007690Y015988D01*
X007690Y016146D02*
X007730Y016146D01*
X007730Y016305D02*
X007690Y016305D01*
X007690Y016463D02*
X007730Y016463D01*
X007730Y016622D02*
X007690Y016622D01*
X007690Y016780D02*
X007730Y016780D01*
X007730Y016939D02*
X007690Y016939D01*
X007980Y016939D02*
X008469Y016939D01*
X008311Y016780D02*
X008138Y016780D01*
X011173Y018524D02*
X011708Y018524D01*
X011551Y018682D02*
X011352Y018682D01*
X011417Y018841D02*
X011492Y018841D01*
X011488Y018999D02*
X011417Y018999D01*
X011360Y019158D02*
X011541Y019158D01*
X011680Y019316D02*
X011220Y019316D01*
X011309Y019633D02*
X011587Y019633D01*
X011504Y019792D02*
X011397Y019792D01*
X011417Y019950D02*
X011483Y019950D01*
X011517Y020109D02*
X011381Y020109D01*
X011269Y020267D02*
X011534Y020267D01*
X011942Y019792D02*
X011979Y019792D01*
X011979Y019633D02*
X011942Y019633D01*
X011942Y019475D02*
X011979Y019475D01*
X012950Y018999D02*
X013052Y018999D01*
X012950Y018841D02*
X013210Y018841D01*
X013369Y018682D02*
X012950Y018682D01*
X011979Y018682D02*
X011942Y018682D01*
X011942Y018524D02*
X011979Y018524D01*
X011979Y018841D02*
X011942Y018841D01*
X010611Y019633D02*
X010309Y019633D01*
X010397Y019792D02*
X010523Y019792D01*
X010503Y019950D02*
X010417Y019950D01*
X010381Y020109D02*
X010540Y020109D01*
X010651Y020267D02*
X010269Y020267D01*
X012469Y022011D02*
X012490Y022011D01*
X012547Y022169D02*
X012356Y022169D01*
X012194Y022328D02*
X012696Y022328D01*
X007730Y013927D02*
X007690Y013927D01*
D17*
X013460Y009805D03*
X013460Y009305D03*
X012960Y009305D03*
X013460Y008805D03*
X013460Y008305D03*
X012960Y008305D03*
X013460Y007805D03*
X013460Y007305D03*
X013960Y008305D03*
X013960Y009305D03*
X018710Y004930D03*
X021960Y005430D03*
X022960Y005930D03*
X023460Y007055D03*
X021835Y007055D03*
X024710Y004930D03*
X026460Y005430D03*
X026210Y007430D03*
X013960Y018430D03*
X035710Y019680D03*
D18*
X035710Y018430D01*
X035210Y017930D01*
X019210Y017930D01*
X016710Y016930D02*
X008960Y009180D01*
X008710Y009305D01*
X008710Y010305D02*
X009210Y010180D01*
X016460Y017430D01*
X030960Y017430D01*
X032460Y015930D01*
X032460Y015680D01*
X031460Y015680D02*
X031460Y016180D01*
X030710Y016930D01*
X016710Y016930D01*
X016960Y016430D02*
X008835Y008305D01*
X008710Y008305D01*
X009460Y008180D02*
X015210Y013930D01*
X030960Y013930D01*
X031460Y013430D01*
X031460Y012680D01*
X030460Y012680D02*
X030460Y011930D01*
X030960Y011430D01*
X030960Y004930D01*
X030460Y004430D01*
X027960Y004430D01*
X026960Y005430D01*
X026460Y005430D01*
X024710Y004930D02*
X024710Y003730D01*
X024710Y002630D01*
X025710Y002630D02*
X025710Y003730D01*
X025710Y006930D01*
X025460Y007180D01*
X025460Y008680D01*
X022460Y011680D01*
X022460Y012680D01*
X023960Y011680D02*
X026210Y011680D01*
X026460Y011930D01*
X026460Y012680D01*
X026210Y011680D02*
X026210Y007430D01*
X022960Y005930D02*
X022960Y005430D01*
X022460Y004930D01*
X019710Y004930D01*
X019460Y004680D01*
X019460Y003730D01*
X018710Y004930D02*
X018210Y004930D01*
X017460Y004180D01*
X017460Y003730D01*
X016710Y003980D02*
X016460Y003730D01*
X016460Y002630D01*
X016710Y003980D02*
X016710Y004180D01*
X017960Y005430D01*
X021960Y005430D01*
X030210Y005180D02*
X030210Y011180D01*
X029460Y011930D01*
X029460Y012680D01*
X029210Y014430D02*
X016960Y014430D01*
X016460Y014930D02*
X028210Y014930D01*
X028460Y015180D01*
X028460Y015680D01*
X029460Y015680D02*
X029460Y014680D01*
X029210Y014430D01*
X030460Y015680D02*
X030460Y016180D01*
X030210Y016430D01*
X016960Y016430D01*
X015460Y017180D02*
X012210Y013930D01*
X015460Y013430D02*
X024210Y013430D01*
X024460Y013180D01*
X024460Y012680D01*
X015460Y013430D02*
X009960Y007930D01*
X009960Y007680D01*
X009210Y006930D01*
X009210Y003730D01*
X008210Y003730D02*
X008210Y006680D01*
X009460Y007930D01*
X009460Y008180D01*
X012710Y016430D02*
X012710Y018430D01*
D19*
X011960Y018430D02*
X011960Y018930D01*
X011960Y018430D02*
X011710Y018180D01*
X007960Y018180D01*
X007710Y017930D01*
X007710Y016430D01*
X007710Y015430D01*
X007710Y014430D01*
X007710Y010305D01*
X007710Y009305D01*
X007710Y008305D01*
X007710Y004430D01*
X007210Y003930D01*
X007210Y001930D01*
X007460Y001680D01*
X011960Y001680D01*
X012210Y001930D01*
X012460Y001680D01*
X020210Y001680D01*
X020460Y001930D01*
X020710Y001680D01*
X028460Y001680D01*
X028710Y001930D01*
X028710Y002630D01*
X028710Y003730D01*
X020460Y003730D02*
X020460Y002630D01*
X020460Y001930D01*
X012210Y001930D02*
X012210Y002630D01*
X012210Y003730D01*
X018960Y020930D02*
X020960Y020930D01*
D20*
X018460Y020180D03*
X017210Y019680D03*
X019210Y017930D03*
X015460Y017180D03*
X012710Y016430D03*
X016460Y014930D03*
X012210Y013930D03*
X023960Y011680D03*
X030210Y005180D03*
D21*
X016960Y014430D03*
M02*
