%
M48
M72
T01C0.0236
T02C0.0320
T03C0.0394
T04C0.0400
T05C0.1142
T06C0.1260
%
T01
X13960Y18430
X15460Y17180
X12710Y16430
X16460Y14930
X16960Y14430
X12210Y13930
X13460Y9805
X13460Y9305
X12960Y9305
X13460Y8805
X13460Y8305
X12960Y8305
X13460Y7805
X13460Y7305
X13960Y8305
X13960Y9305
X18710Y4930
X21960Y5430
X22960Y5930
X23460Y7055
X21835Y7055
X24710Y4930
X26460Y5430
X26210Y7430
X30210Y5180
X23960Y11680
X19210Y17930
X17210Y19680
X18460Y20180
X35710Y19680
T02
X19460Y15680
X20460Y15680
X21460Y15680
X22460Y15680
X23460Y15680
X24460Y15680
X25460Y15680
X26460Y15680
X27460Y15680
X28460Y15680
X29460Y15680
X30460Y15680
X31460Y15680
X32460Y15680
X32460Y12680
X31460Y12680
X30460Y12680
X29460Y12680
X28460Y12680
X27460Y12680
X26460Y12680
X25460Y12680
X24460Y12680
X23460Y12680
X22460Y12680
X21460Y12680
X20460Y12680
X19460Y12680
T03
X11960Y18930
X10960Y18930
X9960Y18930
X8960Y18930
X8960Y19930
X9960Y19930
X10960Y19930
X11960Y19930
X11960Y20930
X12960Y20930
X13960Y20930
X14960Y20930
X15960Y20930
X16960Y20930
X17960Y20930
X18960Y20930
X18960Y21930
X17960Y21930
X16960Y21930
X15960Y21930
X14960Y21930
X13960Y21930
X12960Y21930
X11960Y21930
X10960Y21930
X9960Y21930
X8960Y21930
X7960Y21930
X6960Y21930
X6960Y20930
X7960Y20930
X8960Y20930
X9960Y20930
X10960Y20930
X20960Y20930
X20960Y21930
T04
X7710Y16430
X8710Y16430
X8710Y15430
X7710Y15430
X7710Y14430
X8710Y14430
X8710Y10305
X7710Y10305
X7710Y9305
X8710Y9305
X8710Y8305
X7710Y8305
X8210Y3730
X9210Y3730
X10210Y3730
X11210Y3730
X12210Y3730
X12210Y2630
X11210Y2630
X10210Y2630
X9210Y2630
X8210Y2630
X16460Y2630
X17460Y2630
X18460Y2630
X19460Y2630
X20460Y2630
X20460Y3730
X19460Y3730
X18460Y3730
X17460Y3730
X16460Y3730
X24710Y3730
X25710Y3730
X26710Y3730
X27710Y3730
X28710Y3730
X28710Y2630
X27710Y2630
X26710Y2630
X25710Y2630
X24710Y2630
X31210Y20180
X30210Y20180
X29210Y20180
X29210Y21180
X30210Y21180
X31210Y21180
T05
X16055Y8048
X37500Y18091
T06
X16048Y8043
X37503Y18085
M30
