G75*
G70*
%OFA0B0*%
%FSLAX24Y24*%
%IPPOS*%
%LPD*%
%AMOC8*
5,1,8,0,0,1.08239X$1,22.5*
%
%ADD10C,0.0000*%
%ADD11R,0.2100X0.0760*%
%ADD12R,0.0630X0.0710*%
%ADD13R,0.0710X0.0630*%
%ADD14R,0.1260X0.0472*%
%ADD15R,0.0591X0.0591*%
D10*
X006000Y000950D02*
X006010Y023030D01*
X021810Y023030D01*
X021810Y018030D01*
X026060Y018030D01*
X026060Y022980D01*
X039500Y022990D01*
X039500Y015810D01*
X035560Y015810D01*
X035560Y010170D01*
X039460Y010170D01*
X039460Y008040D01*
X031120Y008040D01*
X031120Y000950D01*
X031120Y000948D02*
X006001Y000950D01*
X015418Y008043D02*
X015420Y008093D01*
X015426Y008143D01*
X015436Y008192D01*
X015450Y008240D01*
X015467Y008287D01*
X015488Y008332D01*
X015513Y008376D01*
X015541Y008417D01*
X015573Y008456D01*
X015607Y008493D01*
X015644Y008527D01*
X015684Y008557D01*
X015726Y008584D01*
X015770Y008608D01*
X015816Y008629D01*
X015863Y008645D01*
X015911Y008658D01*
X015961Y008667D01*
X016010Y008672D01*
X016061Y008673D01*
X016111Y008670D01*
X016160Y008663D01*
X016209Y008652D01*
X016257Y008637D01*
X016303Y008619D01*
X016348Y008597D01*
X016391Y008571D01*
X016432Y008542D01*
X016471Y008510D01*
X016507Y008475D01*
X016539Y008437D01*
X016569Y008397D01*
X016596Y008354D01*
X016619Y008310D01*
X016638Y008264D01*
X016654Y008216D01*
X016666Y008167D01*
X016674Y008118D01*
X016678Y008068D01*
X016678Y008018D01*
X016674Y007968D01*
X016666Y007919D01*
X016654Y007870D01*
X016638Y007822D01*
X016619Y007776D01*
X016596Y007732D01*
X016569Y007689D01*
X016539Y007649D01*
X016507Y007611D01*
X016471Y007576D01*
X016432Y007544D01*
X016391Y007515D01*
X016348Y007489D01*
X016303Y007467D01*
X016257Y007449D01*
X016209Y007434D01*
X016160Y007423D01*
X016111Y007416D01*
X016061Y007413D01*
X016010Y007414D01*
X015961Y007419D01*
X015911Y007428D01*
X015863Y007441D01*
X015816Y007457D01*
X015770Y007478D01*
X015726Y007502D01*
X015684Y007529D01*
X015644Y007559D01*
X015607Y007593D01*
X015573Y007630D01*
X015541Y007669D01*
X015513Y007710D01*
X015488Y007754D01*
X015467Y007799D01*
X015450Y007846D01*
X015436Y007894D01*
X015426Y007943D01*
X015420Y007993D01*
X015418Y008043D01*
X015484Y008048D02*
X015486Y008095D01*
X015492Y008142D01*
X015501Y008188D01*
X015515Y008233D01*
X015532Y008277D01*
X015553Y008320D01*
X015577Y008360D01*
X015604Y008399D01*
X015635Y008435D01*
X015668Y008468D01*
X015704Y008499D01*
X015743Y008526D01*
X015783Y008550D01*
X015826Y008571D01*
X015870Y008588D01*
X015915Y008602D01*
X015961Y008611D01*
X016008Y008617D01*
X016055Y008619D01*
X016102Y008617D01*
X016149Y008611D01*
X016195Y008602D01*
X016240Y008588D01*
X016284Y008571D01*
X016327Y008550D01*
X016367Y008526D01*
X016406Y008499D01*
X016442Y008468D01*
X016475Y008435D01*
X016506Y008399D01*
X016533Y008360D01*
X016557Y008320D01*
X016578Y008277D01*
X016595Y008233D01*
X016609Y008188D01*
X016618Y008142D01*
X016624Y008095D01*
X016626Y008048D01*
X016624Y008001D01*
X016618Y007954D01*
X016609Y007908D01*
X016595Y007863D01*
X016578Y007819D01*
X016557Y007776D01*
X016533Y007736D01*
X016506Y007697D01*
X016475Y007661D01*
X016442Y007628D01*
X016406Y007597D01*
X016367Y007570D01*
X016327Y007546D01*
X016284Y007525D01*
X016240Y007508D01*
X016195Y007494D01*
X016149Y007485D01*
X016102Y007479D01*
X016055Y007477D01*
X016008Y007479D01*
X015961Y007485D01*
X015915Y007494D01*
X015870Y007508D01*
X015826Y007525D01*
X015783Y007546D01*
X015743Y007570D01*
X015704Y007597D01*
X015668Y007628D01*
X015635Y007661D01*
X015604Y007697D01*
X015577Y007736D01*
X015553Y007776D01*
X015532Y007819D01*
X015515Y007863D01*
X015501Y007908D01*
X015492Y007954D01*
X015486Y008001D01*
X015484Y008048D01*
X036929Y018091D02*
X036931Y018138D01*
X036937Y018185D01*
X036946Y018231D01*
X036960Y018276D01*
X036977Y018320D01*
X036998Y018363D01*
X037022Y018403D01*
X037049Y018442D01*
X037080Y018478D01*
X037113Y018511D01*
X037149Y018542D01*
X037188Y018569D01*
X037228Y018593D01*
X037271Y018614D01*
X037315Y018631D01*
X037360Y018645D01*
X037406Y018654D01*
X037453Y018660D01*
X037500Y018662D01*
X037547Y018660D01*
X037594Y018654D01*
X037640Y018645D01*
X037685Y018631D01*
X037729Y018614D01*
X037772Y018593D01*
X037812Y018569D01*
X037851Y018542D01*
X037887Y018511D01*
X037920Y018478D01*
X037951Y018442D01*
X037978Y018403D01*
X038002Y018363D01*
X038023Y018320D01*
X038040Y018276D01*
X038054Y018231D01*
X038063Y018185D01*
X038069Y018138D01*
X038071Y018091D01*
X038069Y018044D01*
X038063Y017997D01*
X038054Y017951D01*
X038040Y017906D01*
X038023Y017862D01*
X038002Y017819D01*
X037978Y017779D01*
X037951Y017740D01*
X037920Y017704D01*
X037887Y017671D01*
X037851Y017640D01*
X037812Y017613D01*
X037772Y017589D01*
X037729Y017568D01*
X037685Y017551D01*
X037640Y017537D01*
X037594Y017528D01*
X037547Y017522D01*
X037500Y017520D01*
X037453Y017522D01*
X037406Y017528D01*
X037360Y017537D01*
X037315Y017551D01*
X037271Y017568D01*
X037228Y017589D01*
X037188Y017613D01*
X037149Y017640D01*
X037113Y017671D01*
X037080Y017704D01*
X037049Y017740D01*
X037022Y017779D01*
X036998Y017819D01*
X036977Y017862D01*
X036960Y017906D01*
X036946Y017951D01*
X036937Y017997D01*
X036931Y018044D01*
X036929Y018091D01*
X036873Y018085D02*
X036875Y018135D01*
X036881Y018185D01*
X036891Y018234D01*
X036905Y018282D01*
X036922Y018329D01*
X036943Y018374D01*
X036968Y018418D01*
X036996Y018459D01*
X037028Y018498D01*
X037062Y018535D01*
X037099Y018569D01*
X037139Y018599D01*
X037181Y018626D01*
X037225Y018650D01*
X037271Y018671D01*
X037318Y018687D01*
X037366Y018700D01*
X037416Y018709D01*
X037465Y018714D01*
X037516Y018715D01*
X037566Y018712D01*
X037615Y018705D01*
X037664Y018694D01*
X037712Y018679D01*
X037758Y018661D01*
X037803Y018639D01*
X037846Y018613D01*
X037887Y018584D01*
X037926Y018552D01*
X037962Y018517D01*
X037994Y018479D01*
X038024Y018439D01*
X038051Y018396D01*
X038074Y018352D01*
X038093Y018306D01*
X038109Y018258D01*
X038121Y018209D01*
X038129Y018160D01*
X038133Y018110D01*
X038133Y018060D01*
X038129Y018010D01*
X038121Y017961D01*
X038109Y017912D01*
X038093Y017864D01*
X038074Y017818D01*
X038051Y017774D01*
X038024Y017731D01*
X037994Y017691D01*
X037962Y017653D01*
X037926Y017618D01*
X037887Y017586D01*
X037846Y017557D01*
X037803Y017531D01*
X037758Y017509D01*
X037712Y017491D01*
X037664Y017476D01*
X037615Y017465D01*
X037566Y017458D01*
X037516Y017455D01*
X037465Y017456D01*
X037416Y017461D01*
X037366Y017470D01*
X037318Y017483D01*
X037271Y017499D01*
X037225Y017520D01*
X037181Y017544D01*
X037139Y017571D01*
X037099Y017601D01*
X037062Y017635D01*
X037028Y017672D01*
X036996Y017711D01*
X036968Y017752D01*
X036943Y017796D01*
X036922Y017841D01*
X036905Y017888D01*
X036891Y017936D01*
X036881Y017985D01*
X036875Y018035D01*
X036873Y018085D01*
D11*
X029610Y010180D03*
X025810Y010180D03*
D12*
X025400Y008180D03*
X026520Y008180D03*
X028900Y008180D03*
X030020Y008180D03*
X024270Y008180D03*
X023150Y008180D03*
X021645Y008180D03*
X020525Y008180D03*
D13*
X018460Y017870D03*
X017210Y017870D03*
X015960Y017870D03*
X014710Y017870D03*
X014710Y018990D03*
X015960Y018990D03*
X017210Y018990D03*
X018460Y018990D03*
D14*
X035622Y020643D03*
X035622Y022217D03*
X038299Y022217D03*
X038299Y020643D03*
D15*
X021774Y010180D03*
X020396Y010180D03*
M02*
