G75*
G70*
%OFA0B0*%
%FSLAX24Y24*%
%IPPOS*%
%LPD*%
%AMOC8*
5,1,8,0,0,1.08239X$1,22.5*
%
%ADD10C,0.0160*%
%ADD11C,0.0070*%
%ADD12C,0.0100*%
%ADD13C,0.0210*%
%ADD14C,0.0110*%
%ADD15C,0.0140*%
%ADD16C,0.0000*%
D10*
X006210Y001055D02*
X030960Y001055D01*
X030960Y004930D01*
X030710Y004930D01*
X030585Y004930D01*
X030710Y004805D01*
X030710Y001555D01*
X030585Y001430D01*
X022835Y001430D01*
X022710Y001555D01*
X022710Y004805D01*
X022835Y004930D01*
X014210Y004930D01*
X014085Y004930D01*
X014210Y004805D01*
X014210Y001555D01*
X014085Y001430D01*
X006335Y001430D01*
X006210Y001555D01*
X006210Y004805D01*
X006335Y004930D01*
X006335Y012180D01*
X006460Y012180D01*
X006585Y012305D01*
X006460Y012305D02*
X006335Y012430D01*
X006460Y012430D01*
X006335Y012430D02*
X006335Y012180D01*
X006460Y012305D02*
X007210Y012305D01*
X007335Y012180D02*
X006585Y012180D01*
X006460Y012055D01*
X006460Y006555D01*
X006585Y006430D01*
X009835Y006430D01*
X009960Y006555D01*
X009960Y012055D01*
X009835Y012180D01*
X007335Y012180D01*
X007335Y012430D01*
X006585Y012430D01*
X006460Y012555D01*
X006460Y018305D01*
X006585Y018430D01*
X009835Y018430D01*
X009960Y018305D01*
X009960Y012555D01*
X009835Y012430D01*
X007335Y012430D01*
X006335Y012430D02*
X006335Y018305D01*
X006460Y018305D01*
X006335Y018305D02*
X006335Y018430D01*
X006460Y018555D01*
X006335Y018555D01*
X006335Y018680D01*
X006835Y018680D01*
X006835Y018805D02*
X006460Y018805D01*
X006335Y018930D02*
X006835Y018930D01*
X006835Y019055D02*
X006460Y019055D01*
X006460Y019180D02*
X006335Y019180D01*
X006335Y018930D01*
X006335Y018680D01*
X006335Y018555D02*
X006335Y018430D01*
X006460Y018430D02*
X006585Y018555D01*
X006460Y018555D01*
X006585Y018555D02*
X007085Y018555D01*
X007085Y020430D01*
X019210Y020430D01*
X019460Y020680D01*
X019460Y021430D01*
X021335Y021430D01*
X021335Y021305D02*
X019585Y021305D01*
X019585Y021180D02*
X021335Y021180D01*
X021335Y021055D02*
X019585Y021055D01*
X019585Y020930D02*
X021335Y020930D01*
X021335Y020805D02*
X019585Y020805D01*
X019585Y020680D02*
X020710Y020680D01*
X021335Y020055D01*
X021335Y020305D01*
X021210Y020305D01*
X021460Y020055D01*
X021460Y019930D01*
X021335Y020055D01*
X021460Y020055D02*
X021460Y020430D01*
X019460Y020430D01*
X019460Y020555D01*
X021335Y020555D01*
X021335Y020680D02*
X020710Y020680D01*
X021460Y020430D02*
X021460Y022180D01*
X019585Y022180D01*
X019585Y022055D02*
X019210Y022430D01*
X006710Y022430D01*
X006460Y022180D01*
X006460Y020680D01*
X006710Y020430D01*
X007085Y020430D01*
X006960Y020305D02*
X006835Y020305D01*
X006835Y019180D01*
X006960Y019180D01*
X006960Y020305D01*
X006835Y020305D02*
X006335Y020305D01*
X006335Y019180D01*
X006460Y019180D02*
X006460Y020180D01*
X006585Y020180D02*
X006585Y019180D01*
X006710Y019180D01*
X006710Y020180D01*
X006710Y020430D02*
X006460Y020430D01*
X006460Y020680D01*
X006335Y020305D02*
X006335Y022555D01*
X006335Y022680D01*
X021335Y022680D01*
X021460Y022680D01*
X021585Y022555D01*
X021585Y017805D01*
X021460Y017805D01*
X021460Y017680D01*
X026460Y017680D01*
X026460Y017805D01*
X026460Y020180D01*
X026710Y020430D01*
X026835Y020430D01*
X026835Y022430D01*
X026710Y022430D02*
X027210Y022430D01*
X027085Y022305D01*
X027085Y020430D01*
X026960Y020430D01*
X027210Y020180D01*
X027210Y022305D01*
X027335Y022430D01*
X033085Y022430D01*
X033210Y022305D01*
X033210Y020305D01*
X033460Y020555D01*
X033835Y020930D01*
X033835Y022555D01*
X033960Y022680D01*
X034210Y022680D01*
X033960Y022430D01*
X033960Y020930D01*
X033960Y020805D01*
X033210Y020055D01*
X033210Y019055D01*
X033085Y018930D01*
X027335Y018930D01*
X027210Y019055D01*
X027210Y020180D01*
X026960Y020430D02*
X026835Y020430D01*
X026710Y020430D02*
X026460Y020430D01*
X026585Y020555D01*
X026585Y020680D02*
X026710Y020555D01*
X026710Y022305D01*
X026585Y022555D02*
X026585Y020680D01*
X026460Y020680D01*
X026460Y022555D01*
X026335Y022555D01*
X026335Y017805D01*
X026460Y017805D01*
X026335Y017805D02*
X021585Y017805D01*
X021460Y017805D02*
X021460Y019930D01*
X019460Y020430D02*
X019210Y020430D01*
X019460Y020555D02*
X019460Y020680D01*
X019460Y021430D02*
X019460Y021805D01*
X021335Y021805D01*
X021335Y021930D02*
X019460Y021930D01*
X019460Y022430D01*
X021460Y022430D01*
X021460Y022555D01*
X021335Y022680D01*
X021460Y022430D02*
X021460Y022305D01*
X019585Y022305D01*
X019460Y022430D02*
X019210Y022430D01*
X019585Y022055D02*
X021335Y022055D01*
X021460Y022180D02*
X021460Y022305D01*
X021585Y022555D02*
X006335Y022555D01*
X006335Y022680D02*
X006335Y022805D01*
X021585Y022805D01*
X021585Y022555D01*
X021710Y022930D02*
X006210Y022930D01*
X006210Y001055D01*
X006335Y001180D02*
X030710Y001180D01*
X030835Y001305D01*
X030835Y001430D01*
X030710Y001430D01*
X030710Y001305D02*
X030835Y001180D01*
X030710Y001180D01*
X030710Y001305D02*
X022585Y001305D01*
X022585Y001555D01*
X022710Y001430D01*
X022585Y001555D02*
X022460Y001430D01*
X022335Y001430D02*
X014585Y001430D01*
X014460Y001555D01*
X014460Y004805D01*
X014585Y004930D01*
X022335Y004930D01*
X022460Y004805D01*
X022460Y001555D01*
X022335Y001430D01*
X022585Y001305D02*
X014335Y001305D01*
X014335Y004805D01*
X014210Y004930D01*
X014085Y004930D02*
X006710Y004930D01*
X006710Y006305D01*
X006585Y006305D02*
X006585Y005055D01*
X006460Y004930D02*
X006460Y006430D01*
X006460Y004930D02*
X006335Y004930D01*
X006460Y004930D02*
X006710Y004930D01*
X011960Y004305D02*
X012460Y004305D01*
X014210Y001430D02*
X014460Y001430D01*
X014335Y001305D02*
X014085Y001305D01*
X014210Y001430D01*
X014085Y001305D02*
X006335Y001305D01*
X014455Y008055D02*
X014457Y008136D01*
X014463Y008216D01*
X014473Y008296D01*
X014487Y008375D01*
X014505Y008454D01*
X014526Y008532D01*
X014552Y008608D01*
X014581Y008683D01*
X014614Y008757D01*
X014650Y008829D01*
X014690Y008899D01*
X014734Y008967D01*
X014781Y009033D01*
X014831Y009096D01*
X014884Y009157D01*
X014940Y009215D01*
X014998Y009270D01*
X015060Y009322D01*
X015124Y009371D01*
X015190Y009417D01*
X015258Y009460D01*
X015329Y009499D01*
X015401Y009535D01*
X015475Y009567D01*
X015551Y009595D01*
X015628Y009619D01*
X015705Y009640D01*
X015784Y009657D01*
X015864Y009670D01*
X015944Y009679D01*
X016025Y009684D01*
X016105Y009685D01*
X016186Y009682D01*
X016266Y009675D01*
X016346Y009664D01*
X016425Y009649D01*
X016504Y009630D01*
X016581Y009608D01*
X016657Y009581D01*
X016732Y009551D01*
X016805Y009517D01*
X016877Y009480D01*
X016946Y009439D01*
X017013Y009395D01*
X017079Y009347D01*
X017141Y009296D01*
X017201Y009243D01*
X017259Y009186D01*
X017313Y009127D01*
X017365Y009065D01*
X017413Y009000D01*
X017458Y008933D01*
X017500Y008864D01*
X017538Y008793D01*
X017573Y008720D01*
X017604Y008646D01*
X017631Y008570D01*
X017655Y008493D01*
X017675Y008415D01*
X017691Y008336D01*
X017703Y008256D01*
X017711Y008176D01*
X017715Y008095D01*
X017715Y008015D01*
X017711Y007934D01*
X017703Y007854D01*
X017691Y007774D01*
X017675Y007695D01*
X017655Y007617D01*
X017631Y007540D01*
X017604Y007464D01*
X017573Y007390D01*
X017538Y007317D01*
X017500Y007246D01*
X017458Y007177D01*
X017413Y007110D01*
X017365Y007045D01*
X017313Y006983D01*
X017259Y006924D01*
X017201Y006867D01*
X017141Y006814D01*
X017079Y006763D01*
X017013Y006715D01*
X016946Y006671D01*
X016877Y006630D01*
X016805Y006593D01*
X016732Y006559D01*
X016657Y006529D01*
X016581Y006502D01*
X016504Y006480D01*
X016425Y006461D01*
X016346Y006446D01*
X016266Y006435D01*
X016186Y006428D01*
X016105Y006425D01*
X016025Y006426D01*
X015944Y006431D01*
X015864Y006440D01*
X015784Y006453D01*
X015705Y006470D01*
X015628Y006491D01*
X015551Y006515D01*
X015475Y006543D01*
X015401Y006575D01*
X015329Y006611D01*
X015258Y006650D01*
X015190Y006693D01*
X015124Y006739D01*
X015060Y006788D01*
X014998Y006840D01*
X014940Y006895D01*
X014884Y006953D01*
X014831Y007014D01*
X014781Y007077D01*
X014734Y007143D01*
X014690Y007211D01*
X014650Y007281D01*
X014614Y007353D01*
X014581Y007427D01*
X014552Y007502D01*
X014526Y007578D01*
X014505Y007656D01*
X014487Y007735D01*
X014473Y007814D01*
X014463Y007894D01*
X014457Y007974D01*
X014455Y008055D01*
X014835Y010305D02*
X017710Y010305D01*
X017710Y011555D02*
X014835Y011555D01*
X012960Y013430D02*
X011960Y013430D01*
X007710Y017055D02*
X007710Y017555D01*
X007835Y017680D01*
X008085Y017680D01*
X006960Y018680D02*
X006960Y019180D01*
X006835Y019180D02*
X006710Y019180D01*
X006585Y019180D02*
X006460Y019180D01*
X006460Y022180D02*
X006460Y022430D01*
X006710Y022430D01*
X014210Y019430D02*
X015210Y019430D01*
X015210Y017430D01*
X014210Y017430D01*
X014210Y019430D01*
X015460Y019430D02*
X015460Y017430D01*
X016460Y017430D01*
X016460Y019430D01*
X015460Y019430D01*
X016710Y019430D02*
X016710Y017430D01*
X017710Y017430D01*
X017710Y019430D01*
X016710Y019430D01*
X017960Y019430D02*
X017960Y017430D01*
X018960Y017430D01*
X018960Y019430D01*
X017960Y019430D01*
X021710Y017930D02*
X021710Y022930D01*
X021335Y021680D02*
X019585Y021680D01*
X019585Y021555D02*
X021335Y021555D01*
X019460Y021805D02*
X019460Y021930D01*
X021710Y017930D02*
X026210Y017930D01*
X026210Y022930D01*
X039335Y022930D01*
X039335Y022805D01*
X039210Y022805D01*
X039210Y021055D01*
X038335Y021055D01*
X038335Y021555D01*
X039085Y021555D01*
X039085Y022555D01*
X038335Y022555D01*
X038335Y022680D01*
X035710Y022680D01*
X035710Y022555D01*
X035585Y022555D02*
X033960Y022555D01*
X033710Y022305D01*
X033710Y022555D01*
X033585Y022430D01*
X033585Y022555D01*
X033835Y022805D01*
X026335Y022805D01*
X026335Y022680D01*
X033460Y022680D01*
X033460Y020680D01*
X033335Y020680D02*
X033460Y020555D01*
X033335Y020555D02*
X033335Y022305D01*
X033210Y022430D01*
X033335Y022430D02*
X033335Y020680D01*
X033335Y020430D02*
X033960Y020930D01*
X033710Y020930D02*
X033710Y021555D01*
X033710Y022305D02*
X033585Y020805D01*
X033585Y022430D01*
X033710Y022555D02*
X026960Y022555D01*
X026960Y020555D01*
X026460Y020430D02*
X026460Y020680D01*
X026460Y020430D02*
X026460Y020180D01*
X026460Y022555D02*
X026585Y022555D01*
X026960Y022555D01*
X033210Y020305D02*
X033210Y020055D01*
X033335Y020305D02*
X033460Y020430D01*
X033585Y020680D02*
X033585Y020805D01*
X035710Y021055D02*
X035710Y021805D01*
X035585Y022555D02*
X035585Y022680D01*
X034210Y022680D01*
X033960Y022680D02*
X033460Y022680D01*
X033710Y022555D02*
X033835Y022555D01*
X033960Y022555D01*
X033835Y022805D02*
X039085Y022805D01*
X039085Y022680D01*
X038460Y022680D01*
X039085Y022680D02*
X039085Y022555D01*
X039085Y022805D02*
X039210Y022805D01*
X039335Y022805D02*
X039335Y015930D01*
X039210Y015930D01*
X039210Y021055D01*
X039085Y021055D02*
X038460Y021055D01*
X038460Y021180D02*
X038960Y021180D01*
X038960Y021305D02*
X038460Y021305D01*
X038460Y021430D02*
X039085Y021430D01*
X039085Y021555D01*
X039085Y021430D02*
X039085Y021055D01*
X039085Y019180D01*
X038710Y019180D01*
X038585Y019305D02*
X038960Y019305D01*
X038960Y019430D02*
X038460Y019430D01*
X038335Y019555D02*
X038710Y019555D01*
X038835Y019430D01*
X038835Y019555D02*
X038710Y019680D01*
X038960Y019680D01*
X038960Y019555D02*
X038210Y019555D01*
X038710Y019680D02*
X036460Y019680D01*
X036335Y019555D02*
X036835Y019555D01*
X036585Y019430D02*
X036210Y019430D01*
X036085Y019305D02*
X036335Y019305D01*
X036210Y019180D02*
X035835Y019180D01*
X036585Y019930D01*
X038585Y019930D01*
X038960Y019930D01*
X038960Y019805D02*
X036585Y019805D01*
X036585Y019930D02*
X036835Y020180D01*
X035710Y020180D01*
X035710Y020305D01*
X036835Y020180D02*
X038335Y020180D01*
X038335Y020305D01*
X038835Y020305D01*
X038960Y020180D01*
X038835Y020180D02*
X038460Y020180D01*
X038585Y019930D02*
X038710Y019805D01*
X038960Y020055D02*
X036835Y020055D01*
X035835Y019180D02*
X035335Y018680D01*
X034960Y018680D01*
X035835Y018055D02*
X035835Y016930D01*
X035210Y016305D01*
X038085Y016305D01*
X037960Y016430D01*
X038210Y016430D01*
X038335Y016430D01*
X038460Y016555D01*
X038585Y016680D01*
X039085Y016680D01*
X038960Y016805D01*
X038710Y016805D01*
X038835Y016930D01*
X038960Y016930D01*
X038960Y017055D01*
X038960Y017305D01*
X038960Y017055D02*
X038835Y017055D01*
X038960Y017055D02*
X039085Y016930D01*
X038960Y016930D01*
X039085Y016930D02*
X039085Y016680D01*
X039085Y016430D01*
X038960Y016555D01*
X038460Y016555D01*
X038335Y016555D01*
X038210Y016430D01*
X038335Y016430D02*
X039085Y016430D01*
X039085Y015930D01*
X039210Y015930D01*
X039085Y015930D02*
X035460Y015930D01*
X035460Y010055D01*
X039335Y010055D01*
X039335Y008180D01*
X030960Y008180D01*
X030960Y008305D01*
X039210Y008305D01*
X039210Y009930D01*
X035335Y009930D01*
X035335Y009805D01*
X035210Y009805D01*
X035210Y016180D01*
X035210Y016305D01*
X035210Y016180D02*
X038960Y016180D01*
X038960Y016305D02*
X038085Y016305D01*
X038585Y016805D02*
X038710Y016805D01*
X039085Y016930D02*
X039085Y017555D01*
X039085Y018555D02*
X039085Y018805D01*
X038960Y018805D01*
X038960Y018930D02*
X039085Y018930D01*
X039085Y019055D01*
X038835Y019055D01*
X039085Y019055D02*
X039085Y019180D01*
X039085Y018930D02*
X039085Y018805D01*
X035830Y018055D02*
X035832Y018136D01*
X035838Y018216D01*
X035848Y018296D01*
X035862Y018375D01*
X035880Y018454D01*
X035901Y018532D01*
X035927Y018608D01*
X035956Y018683D01*
X035989Y018757D01*
X036025Y018829D01*
X036065Y018899D01*
X036109Y018967D01*
X036156Y019033D01*
X036206Y019096D01*
X036259Y019157D01*
X036315Y019215D01*
X036373Y019270D01*
X036435Y019322D01*
X036499Y019371D01*
X036565Y019417D01*
X036633Y019460D01*
X036704Y019499D01*
X036776Y019535D01*
X036850Y019567D01*
X036926Y019595D01*
X037003Y019619D01*
X037080Y019640D01*
X037159Y019657D01*
X037239Y019670D01*
X037319Y019679D01*
X037400Y019684D01*
X037480Y019685D01*
X037561Y019682D01*
X037641Y019675D01*
X037721Y019664D01*
X037800Y019649D01*
X037879Y019630D01*
X037956Y019608D01*
X038032Y019581D01*
X038107Y019551D01*
X038180Y019517D01*
X038252Y019480D01*
X038321Y019439D01*
X038388Y019395D01*
X038454Y019347D01*
X038516Y019296D01*
X038576Y019243D01*
X038634Y019186D01*
X038688Y019127D01*
X038740Y019065D01*
X038788Y019000D01*
X038833Y018933D01*
X038875Y018864D01*
X038913Y018793D01*
X038948Y018720D01*
X038979Y018646D01*
X039006Y018570D01*
X039030Y018493D01*
X039050Y018415D01*
X039066Y018336D01*
X039078Y018256D01*
X039086Y018176D01*
X039090Y018095D01*
X039090Y018015D01*
X039086Y017934D01*
X039078Y017854D01*
X039066Y017774D01*
X039050Y017695D01*
X039030Y017617D01*
X039006Y017540D01*
X038979Y017464D01*
X038948Y017390D01*
X038913Y017317D01*
X038875Y017246D01*
X038833Y017177D01*
X038788Y017110D01*
X038740Y017045D01*
X038688Y016983D01*
X038634Y016924D01*
X038576Y016867D01*
X038516Y016814D01*
X038454Y016763D01*
X038388Y016715D01*
X038321Y016671D01*
X038252Y016630D01*
X038180Y016593D01*
X038107Y016559D01*
X038032Y016529D01*
X037956Y016502D01*
X037879Y016480D01*
X037800Y016461D01*
X037721Y016446D01*
X037641Y016435D01*
X037561Y016428D01*
X037480Y016425D01*
X037400Y016426D01*
X037319Y016431D01*
X037239Y016440D01*
X037159Y016453D01*
X037080Y016470D01*
X037003Y016491D01*
X036926Y016515D01*
X036850Y016543D01*
X036776Y016575D01*
X036704Y016611D01*
X036633Y016650D01*
X036565Y016693D01*
X036499Y016739D01*
X036435Y016788D01*
X036373Y016840D01*
X036315Y016895D01*
X036259Y016953D01*
X036206Y017014D01*
X036156Y017077D01*
X036109Y017143D01*
X036065Y017211D01*
X036025Y017281D01*
X035989Y017353D01*
X035956Y017427D01*
X035927Y017502D01*
X035901Y017578D01*
X035880Y017656D01*
X035862Y017735D01*
X035848Y017814D01*
X035838Y017894D01*
X035832Y017974D01*
X035830Y018055D01*
X035960Y017305D02*
X035960Y017055D01*
X036335Y016680D01*
X036335Y016555D01*
X036335Y016430D02*
X036210Y016555D01*
X036210Y016680D01*
X036335Y016680D02*
X036460Y016555D01*
X036460Y016680D02*
X036585Y016555D01*
X036585Y016430D02*
X036710Y016555D01*
X036585Y016430D02*
X036960Y016430D01*
X036585Y016430D02*
X036335Y016430D01*
X036085Y016430D01*
X036085Y016805D01*
X035835Y016805D02*
X035585Y016555D01*
X035835Y016555D01*
X035835Y016680D01*
X035960Y016555D02*
X035960Y017180D01*
X036335Y016680D02*
X036460Y016680D01*
X036085Y016430D02*
X035585Y016430D01*
X035585Y016555D01*
X035585Y016430D02*
X035460Y016430D01*
X035335Y016180D02*
X035335Y009930D01*
X035335Y009805D02*
X038835Y009805D01*
X039085Y009555D01*
X039085Y008680D01*
X038835Y008430D01*
X030960Y008430D01*
X030960Y008305D01*
X030960Y008180D02*
X030960Y004930D01*
X030835Y004805D02*
X030710Y004930D01*
X030585Y004930D02*
X022835Y004930D01*
X022585Y004805D02*
X022585Y001555D01*
X020710Y004305D02*
X020210Y004305D01*
X020085Y007680D02*
X020085Y008680D01*
X022085Y008680D01*
X022085Y007680D01*
X020085Y007680D01*
X022710Y007680D02*
X022710Y008680D01*
X024710Y008680D01*
X024710Y007680D01*
X022710Y007680D01*
X024960Y007680D02*
X024960Y008680D01*
X026960Y008680D01*
X026960Y007680D01*
X024960Y007680D01*
X025960Y009430D02*
X029460Y009430D01*
X029710Y009680D01*
X029710Y010680D02*
X029460Y010930D01*
X025960Y010930D01*
X025710Y010680D01*
X025710Y009680D02*
X025960Y009430D01*
X028460Y008680D02*
X028460Y007680D01*
X030460Y007680D01*
X030460Y008680D01*
X028460Y008680D01*
X022960Y010305D02*
X022460Y010305D01*
X022710Y010555D02*
X022710Y010055D01*
X022210Y009680D02*
X019960Y009680D01*
X019960Y010680D01*
X022210Y010680D01*
X022210Y009680D01*
X019085Y013180D02*
X018960Y013305D01*
X018960Y013680D01*
X019004Y013682D01*
X019047Y013688D01*
X019089Y013697D01*
X019131Y013710D01*
X019171Y013727D01*
X019210Y013747D01*
X019247Y013770D01*
X019281Y013797D01*
X019314Y013826D01*
X019343Y013859D01*
X019370Y013893D01*
X019393Y013930D01*
X019413Y013969D01*
X019430Y014009D01*
X019443Y014051D01*
X019452Y014093D01*
X019458Y014136D01*
X019460Y014180D01*
X019458Y014224D01*
X019452Y014267D01*
X019443Y014309D01*
X019430Y014351D01*
X019413Y014391D01*
X019393Y014430D01*
X019370Y014467D01*
X019343Y014501D01*
X019314Y014534D01*
X019281Y014563D01*
X019247Y014590D01*
X019210Y014613D01*
X019171Y014633D01*
X019131Y014650D01*
X019089Y014663D01*
X019047Y014672D01*
X019004Y014678D01*
X018960Y014680D01*
X018960Y015180D01*
X032835Y015180D01*
X032960Y015055D01*
X032960Y013305D01*
X032835Y013180D01*
X019085Y013180D01*
X030835Y004805D02*
X030835Y001430D01*
X028960Y004305D02*
X028585Y004305D01*
X038835Y008430D02*
X039085Y008430D01*
X039085Y008680D01*
X039085Y009555D02*
X039085Y009805D01*
X038835Y009805D01*
X034460Y012430D02*
X034460Y013555D01*
X035460Y016055D02*
X038960Y016055D01*
X038960Y020305D02*
X038835Y020305D01*
X038335Y021555D02*
X038335Y021805D01*
X038960Y021805D01*
X038960Y021930D02*
X038335Y021930D01*
X038335Y021805D01*
X038460Y021680D02*
X038960Y021680D01*
D11*
X034800Y021706D02*
X034657Y021850D01*
X034370Y021850D01*
X034370Y022023D02*
X034370Y022238D01*
X034442Y022310D01*
X034585Y022310D01*
X034657Y022238D01*
X034657Y022023D01*
X034800Y022023D02*
X034370Y022023D01*
X034657Y022167D02*
X034800Y022310D01*
X034800Y021706D02*
X034657Y021563D01*
X034370Y021563D01*
X034513Y021389D02*
X034800Y021389D01*
X034585Y021389D02*
X034585Y021102D01*
X034513Y021102D02*
X034800Y021102D01*
X034513Y021102D02*
X034370Y021246D01*
X034513Y021389D01*
X034370Y020468D02*
X034370Y020182D01*
X034370Y020325D02*
X034800Y020325D01*
X034800Y020008D02*
X034800Y019721D01*
X034370Y019721D01*
X034370Y020008D01*
X034585Y019865D02*
X034585Y019721D01*
X034657Y019548D02*
X034729Y019548D01*
X034800Y019476D01*
X034800Y019333D01*
X034729Y019261D01*
X034585Y019333D02*
X034585Y019476D01*
X034657Y019548D01*
X034442Y019548D02*
X034370Y019476D01*
X034370Y019333D01*
X034442Y019261D01*
X034513Y019261D01*
X034585Y019333D01*
X034370Y019087D02*
X034370Y018800D01*
X034800Y018800D01*
X034800Y019087D01*
X034585Y018944D02*
X034585Y018800D01*
X034585Y018627D02*
X034442Y018627D01*
X034370Y018555D01*
X034370Y018340D01*
X034800Y018340D01*
X034657Y018340D02*
X034657Y018555D01*
X034585Y018627D01*
X034657Y018483D02*
X034800Y018627D01*
X031868Y019215D02*
X031581Y019215D01*
X031724Y019215D02*
X031724Y019645D01*
X031581Y019502D01*
X031407Y019502D02*
X031407Y019215D01*
X031407Y019430D02*
X031120Y019430D01*
X031120Y019502D02*
X031120Y019215D01*
X031120Y019502D02*
X031264Y019645D01*
X031407Y019502D01*
X030618Y019502D02*
X030546Y019430D01*
X030618Y019358D01*
X030618Y019287D01*
X030546Y019215D01*
X030402Y019215D01*
X030331Y019287D01*
X030157Y019215D02*
X030157Y019502D01*
X030014Y019645D01*
X029870Y019502D01*
X029870Y019215D01*
X029870Y019430D02*
X030157Y019430D01*
X030331Y019574D02*
X030402Y019645D01*
X030546Y019645D01*
X030618Y019574D01*
X030618Y019502D01*
X030546Y019430D02*
X030474Y019430D01*
X029578Y019215D02*
X029291Y019215D01*
X029291Y019645D01*
X029118Y019574D02*
X029046Y019645D01*
X028902Y019645D01*
X028831Y019574D01*
X028831Y019287D01*
X028902Y019215D01*
X029046Y019215D01*
X029118Y019287D01*
X028657Y019287D02*
X028585Y019215D01*
X028442Y019215D01*
X028370Y019287D01*
X028442Y019430D02*
X028585Y019430D01*
X028657Y019358D01*
X028657Y019287D01*
X028442Y019430D02*
X028370Y019502D01*
X028370Y019574D01*
X028442Y019645D01*
X028585Y019645D01*
X028657Y019574D01*
X028585Y021715D02*
X028442Y021715D01*
X028370Y021787D01*
X028442Y021930D02*
X028585Y021930D01*
X028657Y021858D01*
X028657Y021787D01*
X028585Y021715D01*
X028831Y021715D02*
X029046Y021715D01*
X029118Y021787D01*
X029118Y022074D01*
X029046Y022145D01*
X028831Y022145D01*
X028831Y021715D01*
X028442Y021930D02*
X028370Y022002D01*
X028370Y022074D01*
X028442Y022145D01*
X028585Y022145D01*
X028657Y022074D01*
X029291Y022002D02*
X029434Y022145D01*
X029578Y022002D01*
X029578Y021715D01*
X029578Y021930D02*
X029291Y021930D01*
X029291Y022002D02*
X029291Y021715D01*
X029870Y021715D02*
X029870Y022002D01*
X030014Y022145D01*
X030157Y022002D01*
X030157Y021715D01*
X030331Y021715D02*
X030618Y022002D01*
X030618Y022074D01*
X030546Y022145D01*
X030402Y022145D01*
X030331Y022074D01*
X030157Y021930D02*
X029870Y021930D01*
X030331Y021715D02*
X030618Y021715D01*
X031120Y021715D02*
X031120Y022002D01*
X031264Y022145D01*
X031407Y022002D01*
X031407Y021715D01*
X031581Y021787D02*
X031868Y022074D01*
X031868Y021787D01*
X031796Y021715D01*
X031652Y021715D01*
X031581Y021787D01*
X031581Y022074D01*
X031652Y022145D01*
X031796Y022145D01*
X031868Y022074D01*
X031407Y021930D02*
X031120Y021930D01*
X019401Y020342D02*
X019401Y020270D01*
X019401Y020127D02*
X019401Y019840D01*
X019329Y019840D02*
X019473Y019840D01*
X019401Y020127D02*
X019329Y020127D01*
X019156Y020055D02*
X019156Y019912D01*
X019084Y019840D01*
X018869Y019840D01*
X018869Y019697D02*
X018869Y020127D01*
X019084Y020127D01*
X019156Y020055D01*
X018235Y020127D02*
X018235Y019768D01*
X018163Y019697D01*
X018092Y019697D01*
X018020Y019840D02*
X018235Y019840D01*
X018020Y019840D02*
X017948Y019912D01*
X017948Y020127D01*
X017780Y020127D02*
X017708Y020127D01*
X017565Y019983D01*
X017565Y019840D02*
X017565Y020127D01*
X017396Y020127D02*
X017324Y020127D01*
X017181Y019983D01*
X017181Y019840D02*
X017181Y020127D01*
X017007Y020055D02*
X017007Y019983D01*
X016720Y019983D01*
X016720Y019912D02*
X016720Y020055D01*
X016792Y020127D01*
X016936Y020127D01*
X017007Y020055D01*
X016936Y019840D02*
X016792Y019840D01*
X016720Y019912D01*
X016547Y019912D02*
X016547Y020055D01*
X016475Y020127D01*
X016260Y020127D01*
X016260Y020270D02*
X016260Y019840D01*
X016475Y019840D01*
X016547Y019912D01*
X016087Y019912D02*
X016087Y020055D01*
X016015Y020127D01*
X015800Y020127D01*
X015800Y019697D01*
X015800Y019840D02*
X016015Y019840D01*
X016087Y019912D01*
X015626Y019912D02*
X015554Y019983D01*
X015411Y019983D01*
X015339Y020055D01*
X015411Y020127D01*
X015626Y020127D01*
X015626Y019912D02*
X015554Y019840D01*
X015339Y019840D01*
X015166Y019840D02*
X014951Y019840D01*
X014879Y019912D01*
X014951Y019983D01*
X015166Y019983D01*
X015166Y020055D02*
X015166Y019840D01*
X015166Y020055D02*
X015094Y020127D01*
X014951Y020127D01*
X014710Y020127D02*
X014639Y020127D01*
X014495Y019983D01*
X014495Y019840D02*
X014495Y020127D01*
X014495Y017298D02*
X014782Y017011D01*
X014710Y017083D02*
X014925Y017298D01*
X014925Y017011D02*
X014495Y017011D01*
X014567Y016837D02*
X014495Y016766D01*
X014495Y016622D01*
X014567Y016550D01*
X014854Y016550D01*
X014567Y016837D01*
X014854Y016837D01*
X014925Y016766D01*
X014925Y016622D01*
X014854Y016550D01*
X014925Y016377D02*
X014925Y016090D01*
X014925Y016233D02*
X014495Y016233D01*
X014638Y016090D01*
X014647Y015645D02*
X014647Y015215D01*
X014360Y015645D01*
X014360Y015215D01*
X014187Y015215D02*
X013900Y015215D01*
X013900Y015645D01*
X014187Y015645D01*
X014043Y015430D02*
X013900Y015430D01*
X013726Y015430D02*
X013440Y015430D01*
X013266Y015215D02*
X012979Y015215D01*
X012979Y015645D01*
X013266Y015645D01*
X013123Y015430D02*
X012979Y015430D01*
X012806Y015215D02*
X012519Y015215D01*
X012519Y015645D01*
X012345Y015574D02*
X012274Y015645D01*
X012058Y015645D01*
X012058Y015215D01*
X012274Y015215D01*
X012345Y015287D01*
X012345Y015574D01*
X011885Y015645D02*
X011885Y015215D01*
X011598Y015645D01*
X011598Y015215D01*
X011434Y015215D02*
X011291Y015215D01*
X011363Y015215D02*
X011363Y015645D01*
X011434Y015645D02*
X011291Y015645D01*
X011118Y015574D02*
X011118Y015430D01*
X011046Y015358D01*
X010831Y015358D01*
X010831Y015215D02*
X010831Y015645D01*
X011046Y015645D01*
X011118Y015574D01*
X010657Y015574D02*
X010585Y015645D01*
X010442Y015645D01*
X010370Y015574D01*
X010370Y015502D01*
X010442Y015430D01*
X010585Y015430D01*
X010657Y015358D01*
X010657Y015287D01*
X010585Y015215D01*
X010442Y015215D01*
X010370Y015287D01*
X010442Y014645D02*
X010370Y014574D01*
X010370Y014502D01*
X010442Y014430D01*
X010585Y014430D01*
X010657Y014358D01*
X010657Y014287D01*
X010585Y014215D01*
X010442Y014215D01*
X010370Y014287D01*
X010831Y014358D02*
X011046Y014358D01*
X011118Y014430D01*
X011118Y014574D01*
X011046Y014645D01*
X010831Y014645D01*
X010831Y014215D01*
X011291Y014215D02*
X011434Y014215D01*
X011363Y014215D02*
X011363Y014645D01*
X011434Y014645D02*
X011291Y014645D01*
X011598Y014645D02*
X011885Y014215D01*
X011885Y014645D01*
X012058Y014645D02*
X012274Y014645D01*
X012345Y014574D01*
X012345Y014287D01*
X012274Y014215D01*
X012058Y014215D01*
X012058Y014645D01*
X011598Y014645D02*
X011598Y014215D01*
X012519Y014215D02*
X012662Y014215D01*
X012590Y014215D02*
X012590Y014645D01*
X012519Y014645D02*
X012662Y014645D01*
X012826Y014645D02*
X013041Y014645D01*
X013113Y014574D01*
X013113Y014430D01*
X013041Y014358D01*
X012826Y014358D01*
X012826Y014215D02*
X012826Y014645D01*
X012969Y014358D02*
X013113Y014215D01*
X010657Y014574D02*
X010585Y014645D01*
X010442Y014645D01*
X010442Y016215D02*
X010370Y016287D01*
X010442Y016215D02*
X010585Y016215D01*
X010657Y016287D01*
X010657Y016430D01*
X010585Y016502D01*
X010514Y016502D01*
X010370Y016430D01*
X010370Y016645D01*
X010657Y016645D01*
X010831Y016645D02*
X010831Y016358D01*
X010974Y016215D01*
X011118Y016358D01*
X011118Y016645D01*
X009578Y017590D02*
X009363Y017590D01*
X009291Y017662D01*
X009291Y017805D01*
X009363Y017877D01*
X009578Y017877D01*
X009578Y018020D02*
X009578Y017590D01*
X009118Y017590D02*
X009118Y017805D01*
X009046Y017877D01*
X008831Y017877D01*
X008831Y017590D01*
X008657Y017590D02*
X008442Y017590D01*
X008370Y017662D01*
X008370Y017805D01*
X008442Y017877D01*
X008657Y017877D01*
X008657Y017518D01*
X008585Y017447D01*
X008514Y017447D01*
X015745Y017298D02*
X016032Y017011D01*
X015960Y017083D02*
X016175Y017298D01*
X016175Y017011D02*
X015745Y017011D01*
X015817Y016837D02*
X015745Y016766D01*
X015745Y016622D01*
X015817Y016550D01*
X016104Y016550D01*
X015817Y016837D01*
X016104Y016837D01*
X016175Y016766D01*
X016175Y016622D01*
X016104Y016550D01*
X016175Y016377D02*
X016175Y016090D01*
X015888Y016377D01*
X015817Y016377D01*
X015745Y016305D01*
X015745Y016162D01*
X015817Y016090D01*
X017120Y016305D02*
X017335Y016090D01*
X017335Y016377D01*
X017550Y016305D02*
X017120Y016305D01*
X017120Y016550D02*
X017550Y016837D01*
X017120Y016837D01*
X017120Y017011D02*
X017120Y017298D01*
X017192Y017298D01*
X017479Y017011D01*
X017550Y017011D01*
X018245Y017006D02*
X018245Y017149D01*
X018317Y017221D01*
X018388Y017221D01*
X018460Y017149D01*
X018460Y017006D01*
X018388Y016934D01*
X018317Y016934D01*
X018245Y017006D01*
X018460Y017006D02*
X018532Y016934D01*
X018604Y016934D01*
X018675Y017006D01*
X018675Y017149D01*
X018604Y017221D01*
X018532Y017221D01*
X018460Y017149D01*
X018388Y016766D02*
X018532Y016550D01*
X018675Y016766D01*
X018675Y016550D02*
X018245Y016550D01*
X018245Y016377D02*
X018317Y016233D01*
X018460Y016090D01*
X018460Y016305D01*
X018532Y016377D01*
X018604Y016377D01*
X018675Y016305D01*
X018675Y016162D01*
X018604Y016090D01*
X018460Y016090D01*
X017550Y016550D02*
X017120Y016550D01*
X020495Y011270D02*
X020495Y010840D01*
X020782Y010840D01*
X020956Y010840D02*
X021243Y010840D01*
X021416Y010840D02*
X021631Y010840D01*
X021703Y010912D01*
X021703Y011199D01*
X021631Y011270D01*
X021416Y011270D01*
X021416Y010840D01*
X021099Y011055D02*
X020956Y011055D01*
X020956Y011270D02*
X020956Y010840D01*
X020956Y011270D02*
X021243Y011270D01*
X021206Y009270D02*
X021206Y008840D01*
X021206Y008983D02*
X021493Y009270D01*
X021277Y009055D02*
X021493Y008840D01*
X021032Y008840D02*
X020745Y008840D01*
X020889Y008840D02*
X020889Y009270D01*
X020745Y009127D01*
X022995Y009199D02*
X022995Y008912D01*
X023282Y009199D01*
X023282Y008912D01*
X023210Y008840D01*
X023067Y008840D01*
X022995Y008912D01*
X022995Y009199D02*
X023067Y009270D01*
X023210Y009270D01*
X023282Y009199D01*
X023456Y008912D02*
X023527Y008912D01*
X023527Y008840D01*
X023456Y008840D01*
X023456Y008912D01*
X023686Y008840D02*
X023973Y008840D01*
X023829Y008840D02*
X023829Y009270D01*
X023686Y009127D01*
X024146Y009127D02*
X024146Y008912D01*
X024218Y008840D01*
X024433Y008840D01*
X024433Y009127D01*
X025495Y009199D02*
X025567Y009270D01*
X025710Y009270D01*
X025782Y009199D01*
X025782Y009127D01*
X025495Y008840D01*
X025782Y008840D01*
X025956Y008840D02*
X026243Y009127D01*
X026243Y009199D01*
X026171Y009270D01*
X026027Y009270D01*
X025956Y009199D01*
X025956Y008840D02*
X026243Y008840D01*
X026416Y008840D02*
X026631Y008840D01*
X026703Y008912D01*
X026703Y009055D01*
X026631Y009127D01*
X026416Y009127D01*
X026416Y008697D01*
X028870Y008840D02*
X029157Y009127D01*
X029157Y009199D01*
X029085Y009270D01*
X028942Y009270D01*
X028870Y009199D01*
X028870Y008840D02*
X029157Y008840D01*
X029331Y008840D02*
X029618Y009127D01*
X029618Y009199D01*
X029546Y009270D01*
X029402Y009270D01*
X029331Y009199D01*
X029331Y008840D02*
X029618Y008840D01*
X029791Y008840D02*
X030006Y008840D01*
X030078Y008912D01*
X030078Y009055D01*
X030006Y009127D01*
X029791Y009127D01*
X029791Y008697D01*
X028854Y006423D02*
X028567Y006423D01*
X028495Y006351D01*
X028495Y006136D01*
X028925Y006136D01*
X028925Y006351D01*
X028854Y006423D01*
X028925Y005962D02*
X028495Y005962D01*
X028495Y005675D02*
X028925Y005962D01*
X028925Y005675D02*
X028495Y005675D01*
X028567Y005502D02*
X028495Y005430D01*
X028495Y005287D01*
X028567Y005215D01*
X028854Y005215D01*
X028925Y005287D01*
X028925Y005430D01*
X028854Y005502D01*
X028710Y005502D01*
X028710Y005358D01*
X027925Y005287D02*
X027854Y005215D01*
X027925Y005287D02*
X027925Y005430D01*
X027854Y005502D01*
X027710Y005502D01*
X027638Y005430D01*
X027638Y005358D01*
X027710Y005215D01*
X027495Y005215D01*
X027495Y005502D01*
X027495Y005675D02*
X027782Y005675D01*
X027925Y005819D01*
X027782Y005962D01*
X027495Y005962D01*
X026925Y005962D02*
X026495Y005962D01*
X026638Y006136D02*
X026495Y006279D01*
X026638Y006423D01*
X026925Y006423D01*
X026710Y006423D02*
X026710Y006136D01*
X026638Y006136D02*
X026925Y006136D01*
X026925Y005962D02*
X026495Y005675D01*
X026925Y005675D01*
X026925Y005502D02*
X026925Y005215D01*
X026495Y005215D01*
X026495Y005502D01*
X026710Y005358D02*
X026710Y005215D01*
X025925Y005287D02*
X025854Y005215D01*
X025925Y005287D02*
X025925Y005430D01*
X025854Y005502D01*
X025782Y005502D01*
X025710Y005430D01*
X025710Y005287D01*
X025638Y005215D01*
X025567Y005215D01*
X025495Y005287D01*
X025495Y005430D01*
X025567Y005502D01*
X025495Y005675D02*
X025495Y005962D01*
X025495Y005819D02*
X025925Y005819D01*
X025925Y006136D02*
X025495Y006136D01*
X025495Y006351D01*
X025567Y006423D01*
X025710Y006423D01*
X025782Y006351D01*
X025782Y006136D01*
X024925Y006269D02*
X024782Y006126D01*
X024782Y006198D02*
X024782Y005982D01*
X024925Y005982D02*
X024495Y005982D01*
X024495Y006198D01*
X024567Y006269D01*
X024710Y006269D01*
X024782Y006198D01*
X024925Y005819D02*
X024925Y005675D01*
X024925Y005747D02*
X024495Y005747D01*
X024495Y005675D02*
X024495Y005819D01*
X024567Y005502D02*
X024495Y005430D01*
X024495Y005215D01*
X024925Y005215D01*
X024925Y005430D01*
X024854Y005502D01*
X024567Y005502D01*
X020675Y005430D02*
X020675Y005287D01*
X020604Y005215D01*
X020317Y005215D01*
X020245Y005287D01*
X020245Y005430D01*
X020317Y005502D01*
X020460Y005502D02*
X020460Y005358D01*
X020460Y005502D02*
X020604Y005502D01*
X020675Y005430D01*
X020675Y005675D02*
X020245Y005675D01*
X020675Y005962D01*
X020245Y005962D01*
X020245Y006136D02*
X020245Y006351D01*
X020317Y006423D01*
X020604Y006423D01*
X020675Y006351D01*
X020675Y006136D01*
X020245Y006136D01*
X019675Y005819D02*
X019532Y005962D01*
X019245Y005962D01*
X019245Y005675D02*
X019532Y005675D01*
X019675Y005819D01*
X019604Y005502D02*
X019675Y005430D01*
X019675Y005287D01*
X019604Y005215D01*
X019460Y005215D02*
X019388Y005358D01*
X019388Y005430D01*
X019460Y005502D01*
X019604Y005502D01*
X019460Y005215D02*
X019245Y005215D01*
X019245Y005502D01*
X018675Y005502D02*
X018675Y005215D01*
X018245Y005215D01*
X018245Y005502D01*
X018245Y005675D02*
X018675Y005962D01*
X018245Y005962D01*
X018388Y006136D02*
X018245Y006279D01*
X018388Y006423D01*
X018675Y006423D01*
X018460Y006423D02*
X018460Y006136D01*
X018388Y006136D02*
X018675Y006136D01*
X018675Y005675D02*
X018245Y005675D01*
X017675Y005819D02*
X017245Y005819D01*
X017245Y005962D02*
X017245Y005675D01*
X017317Y005502D02*
X017245Y005430D01*
X017245Y005287D01*
X017317Y005215D01*
X017388Y005215D01*
X017460Y005287D01*
X017460Y005430D01*
X017532Y005502D01*
X017604Y005502D01*
X017675Y005430D01*
X017675Y005287D01*
X017604Y005215D01*
X018460Y005215D02*
X018460Y005358D01*
X017675Y006136D02*
X017245Y006136D01*
X017245Y006351D01*
X017317Y006423D01*
X017460Y006423D01*
X017532Y006351D01*
X017532Y006136D01*
X016675Y006269D02*
X016532Y006126D01*
X016532Y006198D02*
X016532Y005982D01*
X016675Y005982D02*
X016245Y005982D01*
X016245Y006198D01*
X016317Y006269D01*
X016460Y006269D01*
X016532Y006198D01*
X016675Y005819D02*
X016675Y005675D01*
X016675Y005747D02*
X016245Y005747D01*
X016245Y005675D02*
X016245Y005819D01*
X016317Y005502D02*
X016245Y005430D01*
X016245Y005215D01*
X016675Y005215D01*
X016675Y005430D01*
X016604Y005502D01*
X016317Y005502D01*
X012425Y005430D02*
X012425Y005287D01*
X012354Y005215D01*
X012067Y005215D01*
X011995Y005287D01*
X011995Y005430D01*
X012067Y005502D01*
X012210Y005502D02*
X012210Y005358D01*
X012210Y005502D02*
X012354Y005502D01*
X012425Y005430D01*
X012425Y005675D02*
X011995Y005675D01*
X012425Y005962D01*
X011995Y005962D01*
X011995Y006136D02*
X011995Y006351D01*
X012067Y006423D01*
X012354Y006423D01*
X012425Y006351D01*
X012425Y006136D01*
X011995Y006136D01*
X011425Y005819D02*
X011282Y005962D01*
X010995Y005962D01*
X010995Y005675D02*
X011282Y005675D01*
X011425Y005819D01*
X011354Y005502D02*
X011425Y005430D01*
X011425Y005287D01*
X011354Y005215D01*
X011210Y005215D02*
X011138Y005358D01*
X011138Y005430D01*
X011210Y005502D01*
X011354Y005502D01*
X011210Y005215D02*
X010995Y005215D01*
X010995Y005502D01*
X010425Y005502D02*
X010425Y005215D01*
X009995Y005215D01*
X009995Y005502D01*
X009995Y005675D02*
X010425Y005962D01*
X009995Y005962D01*
X010138Y006136D02*
X009995Y006279D01*
X010138Y006423D01*
X010425Y006423D01*
X010210Y006423D02*
X010210Y006136D01*
X010138Y006136D02*
X010425Y006136D01*
X010425Y005675D02*
X009995Y005675D01*
X009550Y005819D02*
X009120Y005819D01*
X009120Y005962D02*
X009120Y005675D01*
X009192Y005502D02*
X009120Y005430D01*
X009120Y005287D01*
X009192Y005215D01*
X009263Y005215D01*
X009335Y005287D01*
X009335Y005430D01*
X009407Y005502D01*
X009479Y005502D01*
X009550Y005430D01*
X009550Y005287D01*
X009479Y005215D01*
X010210Y005215D02*
X010210Y005358D01*
X009550Y006136D02*
X009120Y006136D01*
X009120Y006351D01*
X009192Y006423D01*
X009335Y006423D01*
X009407Y006351D01*
X009407Y006136D01*
X008550Y006269D02*
X008407Y006126D01*
X008407Y006198D02*
X008407Y005982D01*
X008550Y005982D02*
X008120Y005982D01*
X008120Y006198D01*
X008192Y006269D01*
X008335Y006269D01*
X008407Y006198D01*
X008550Y005819D02*
X008550Y005675D01*
X008550Y005747D02*
X008120Y005747D01*
X008120Y005675D02*
X008120Y005819D01*
X008192Y005502D02*
X008120Y005430D01*
X008120Y005215D01*
X008550Y005215D01*
X008550Y005430D01*
X008479Y005502D01*
X008192Y005502D01*
X010245Y007965D02*
X010532Y007965D01*
X010706Y007965D02*
X010706Y008395D01*
X010993Y008395D01*
X011166Y008395D02*
X011453Y007965D01*
X011453Y008395D01*
X011626Y008395D02*
X011626Y007965D01*
X011842Y007965D01*
X011913Y008037D01*
X011913Y008324D01*
X011842Y008395D01*
X011626Y008395D01*
X011166Y008395D02*
X011166Y007965D01*
X010993Y007965D02*
X010706Y007965D01*
X010706Y008180D02*
X010849Y008180D01*
X010532Y008324D02*
X010245Y008037D01*
X010245Y007965D01*
X010245Y008395D02*
X010532Y008395D01*
X010532Y008324D01*
X010389Y009090D02*
X010389Y009305D01*
X010532Y009449D01*
X010532Y009520D01*
X010706Y009520D02*
X010706Y009090D01*
X010993Y009090D01*
X011166Y009090D02*
X011166Y009520D01*
X011453Y009090D01*
X011453Y009520D01*
X011626Y009520D02*
X011842Y009520D01*
X011913Y009449D01*
X011913Y009162D01*
X011842Y009090D01*
X011626Y009090D01*
X011626Y009520D01*
X010993Y009520D02*
X010706Y009520D01*
X010706Y009305D02*
X010849Y009305D01*
X010389Y009305D02*
X010245Y009449D01*
X010245Y009520D01*
X010245Y010215D02*
X010532Y010645D01*
X010706Y010645D02*
X010706Y010215D01*
X010993Y010215D01*
X011166Y010215D02*
X011166Y010645D01*
X011453Y010215D01*
X011453Y010645D01*
X011626Y010645D02*
X011842Y010645D01*
X011913Y010574D01*
X011913Y010287D01*
X011842Y010215D01*
X011626Y010215D01*
X011626Y010645D01*
X010993Y010645D02*
X010706Y010645D01*
X010706Y010430D02*
X010849Y010430D01*
X010532Y010215D02*
X010245Y010645D01*
X026620Y011090D02*
X026907Y011090D01*
X026764Y011090D02*
X026764Y011520D01*
X026620Y011377D01*
X027081Y011305D02*
X027081Y011162D01*
X027152Y011090D01*
X027296Y011090D01*
X027368Y011162D01*
X027368Y011233D01*
X027296Y011305D01*
X027081Y011305D01*
X027224Y011449D01*
X027368Y011520D01*
X027541Y011520D02*
X027684Y011377D01*
X027828Y011520D01*
X027828Y011090D01*
X028001Y011090D02*
X028001Y011520D01*
X028073Y011377D02*
X028217Y011377D01*
X028288Y011305D01*
X028288Y011090D01*
X028462Y011090D02*
X028749Y011090D01*
X028749Y011377D02*
X028462Y011377D01*
X028749Y011377D02*
X028462Y011090D01*
X028073Y011377D02*
X028001Y011305D01*
X027541Y011090D02*
X027541Y011520D01*
D12*
X027700Y013855D02*
X027700Y014456D01*
X027500Y014255D01*
X027299Y014456D01*
X027299Y013855D01*
X027944Y013855D02*
X028344Y013855D01*
X028588Y013955D02*
X028689Y013855D01*
X028889Y013855D01*
X028989Y013955D01*
X028989Y014155D01*
X028789Y014155D01*
X028989Y014355D02*
X028889Y014456D01*
X028689Y014456D01*
X028588Y014355D01*
X028588Y013955D01*
X028144Y014155D02*
X027944Y014155D01*
X027944Y013855D02*
X027944Y014456D01*
X028344Y014456D01*
X029233Y014255D02*
X029233Y013855D01*
X029233Y014155D02*
X029633Y014155D01*
X029633Y014255D02*
X029633Y013855D01*
X029878Y013955D02*
X029978Y013855D01*
X030178Y013855D01*
X030278Y013955D01*
X030278Y014055D01*
X030178Y014155D01*
X030078Y014155D01*
X030178Y014155D02*
X030278Y014255D01*
X030278Y014355D01*
X030178Y014456D01*
X029978Y014456D01*
X029878Y014355D01*
X029633Y014255D02*
X029433Y014456D01*
X029233Y014255D01*
X030522Y014355D02*
X030622Y014456D01*
X030822Y014456D01*
X030922Y014355D01*
X030922Y014255D01*
X030522Y013855D01*
X030922Y013855D01*
X031167Y013955D02*
X031167Y014055D01*
X031267Y014155D01*
X031467Y014155D01*
X031567Y014055D01*
X031567Y013955D01*
X031467Y013855D01*
X031267Y013855D01*
X031167Y013955D01*
X031267Y014155D02*
X031167Y014255D01*
X031167Y014355D01*
X031267Y014456D01*
X031467Y014456D01*
X031567Y014355D01*
X031567Y014255D01*
X031467Y014155D01*
X031811Y014055D02*
X032111Y014055D01*
X032212Y014155D01*
X032212Y014355D01*
X032111Y014456D01*
X031811Y014456D01*
X031811Y013855D01*
X027055Y014456D02*
X026655Y014456D01*
X026855Y014456D02*
X026855Y013855D01*
X026411Y013855D02*
X026411Y014255D01*
X026210Y014456D01*
X026010Y014255D01*
X026010Y013855D01*
X026010Y014155D02*
X026411Y014155D01*
X019660Y010709D02*
X019460Y010508D01*
X019460Y010608D02*
X019460Y010308D01*
X019660Y010308D02*
X019060Y010308D01*
X019060Y010608D01*
X019160Y010709D01*
X019360Y010709D01*
X019460Y010608D01*
X019660Y010064D02*
X019660Y009664D01*
X019060Y009664D01*
X019060Y010064D01*
X019360Y009864D02*
X019360Y009664D01*
X019660Y009419D02*
X019060Y009419D01*
X019060Y009019D02*
X019660Y009019D01*
X019460Y009219D01*
X019660Y009419D01*
X019560Y008775D02*
X019160Y008775D01*
X019060Y008675D01*
X019060Y008475D01*
X019160Y008375D01*
X019560Y008375D01*
X019660Y008475D01*
X019660Y008675D01*
X019560Y008775D01*
X019360Y008130D02*
X019160Y008130D01*
X019060Y008030D01*
X019060Y007730D01*
X019660Y007730D01*
X019460Y007730D02*
X019460Y008030D01*
X019360Y008130D01*
D13*
X021190Y006576D02*
X021190Y006361D01*
X021621Y005931D01*
X021621Y005285D01*
X021621Y005931D02*
X022051Y006361D01*
X022051Y006576D01*
X029690Y006576D02*
X030551Y005285D01*
X029690Y005285D02*
X030551Y006576D01*
X017461Y012160D02*
X017031Y012160D01*
X017246Y012160D02*
X017246Y013451D01*
X017031Y013451D02*
X017461Y013451D01*
X016510Y013236D02*
X016510Y012806D01*
X016295Y012590D01*
X015649Y012590D01*
X015649Y012160D02*
X015649Y013451D01*
X016295Y013451D01*
X016510Y013236D01*
X014944Y013451D02*
X014944Y012160D01*
X014729Y012160D02*
X015159Y012160D01*
X014208Y012375D02*
X014208Y012806D01*
X013993Y013021D01*
X013347Y013021D01*
X012842Y013021D02*
X012627Y013021D01*
X012196Y012590D01*
X012196Y012160D02*
X012196Y013021D01*
X011676Y013236D02*
X011461Y013451D01*
X011030Y013451D01*
X010815Y013236D01*
X010815Y012375D01*
X011030Y012160D01*
X011461Y012160D01*
X011676Y012375D01*
X011676Y012806D01*
X011246Y012806D01*
X013347Y013451D02*
X013347Y012160D01*
X013993Y012160D01*
X014208Y012375D01*
X014729Y013451D02*
X014944Y013451D01*
X014051Y006576D02*
X013190Y006576D01*
X014051Y006576D02*
X014051Y006361D01*
X013190Y005500D01*
X013190Y005285D01*
X014051Y005285D01*
D14*
X014624Y010610D02*
X014841Y010610D01*
X014949Y010718D01*
X015215Y010718D02*
X015323Y010610D01*
X015540Y010610D01*
X015649Y010718D01*
X015649Y010935D01*
X015540Y011044D01*
X015323Y011044D01*
X015215Y010935D01*
X015215Y010718D01*
X014624Y010610D02*
X014515Y010718D01*
X014515Y011152D01*
X014624Y011261D01*
X014841Y011261D01*
X014949Y011152D01*
X015915Y011044D02*
X015915Y010610D01*
X016349Y010610D02*
X016349Y010935D01*
X016240Y011044D01*
X015915Y011044D01*
X016615Y011044D02*
X016831Y011044D01*
X016723Y011152D02*
X016723Y010718D01*
X016831Y010610D01*
X017081Y010610D02*
X017081Y011044D01*
X017298Y011044D02*
X017406Y011044D01*
X017298Y011044D02*
X017081Y010827D01*
X017664Y010935D02*
X017664Y010718D01*
X017773Y010610D01*
X017990Y010610D01*
X018098Y010718D01*
X018098Y010935D01*
X017990Y011044D01*
X017773Y011044D01*
X017664Y010935D01*
X018364Y010610D02*
X018581Y010610D01*
X018473Y010610D02*
X018473Y011261D01*
X018364Y011261D01*
X027140Y017218D02*
X027249Y017110D01*
X027466Y017110D01*
X027574Y017218D01*
X027840Y017218D02*
X027948Y017110D01*
X028165Y017110D01*
X028274Y017218D01*
X028540Y017435D02*
X028974Y017435D01*
X029240Y017435D02*
X029565Y017435D01*
X029673Y017327D01*
X029673Y017218D01*
X029565Y017110D01*
X029240Y017110D01*
X029240Y017761D01*
X029565Y017761D01*
X029673Y017652D01*
X029673Y017544D01*
X029565Y017435D01*
X029939Y017652D02*
X030156Y017435D01*
X030156Y017110D01*
X030156Y017435D02*
X030373Y017652D01*
X030373Y017761D01*
X030639Y017435D02*
X031073Y017435D01*
X031339Y017110D02*
X031339Y017761D01*
X031773Y017110D01*
X031773Y017761D01*
X032039Y017652D02*
X032039Y017218D01*
X032147Y017110D01*
X032364Y017110D01*
X032473Y017218D01*
X032473Y017652D02*
X032364Y017761D01*
X032147Y017761D01*
X032039Y017652D01*
X033320Y017188D02*
X033320Y016957D01*
X033435Y016842D01*
X033665Y016842D01*
X033780Y016957D01*
X033780Y017188D01*
X033550Y017303D02*
X033550Y016842D01*
X033320Y016574D02*
X033320Y016459D01*
X033550Y016229D01*
X033780Y016229D02*
X033320Y016229D01*
X033435Y015952D02*
X033780Y015952D01*
X033780Y015607D01*
X033665Y015492D01*
X033550Y015607D01*
X033550Y015952D01*
X033435Y015952D02*
X033320Y015837D01*
X033320Y015607D01*
X034090Y015558D02*
X034205Y015673D01*
X034665Y015213D01*
X034780Y015328D01*
X034780Y015558D01*
X034665Y015673D01*
X034205Y015673D01*
X034090Y015558D02*
X034090Y015328D01*
X034205Y015213D01*
X034665Y015213D01*
X034780Y014936D02*
X034780Y014476D01*
X034320Y014936D01*
X034205Y014936D01*
X034090Y014821D01*
X034090Y014591D01*
X034205Y014476D01*
X034090Y014215D02*
X034320Y013985D01*
X034550Y013985D01*
X034780Y014215D01*
X033780Y014134D02*
X033665Y014019D01*
X033435Y014019D01*
X033320Y014134D01*
X033320Y014479D01*
X033090Y014479D02*
X033780Y014479D01*
X033780Y014134D01*
X033320Y013750D02*
X033320Y013635D01*
X033550Y013405D01*
X033780Y013405D02*
X033320Y013405D01*
X033435Y013129D02*
X033780Y013129D01*
X033780Y012783D01*
X033665Y012668D01*
X033550Y012783D01*
X033550Y013129D01*
X033435Y013129D02*
X033320Y013013D01*
X033320Y012783D01*
X033435Y012392D02*
X033780Y012392D01*
X033435Y012392D02*
X033320Y012277D01*
X033320Y012047D01*
X033435Y011932D01*
X033435Y011655D02*
X033780Y011655D01*
X033780Y011932D02*
X033090Y011932D01*
X033435Y011655D02*
X033320Y011540D01*
X033320Y011195D01*
X033780Y011195D01*
X033550Y010919D02*
X033550Y010458D01*
X033435Y010458D02*
X033320Y010573D01*
X033320Y010804D01*
X033435Y010919D01*
X033550Y010919D01*
X033780Y010804D02*
X033780Y010573D01*
X033665Y010458D01*
X033435Y010458D01*
X033435Y010182D02*
X033665Y010182D01*
X033780Y010067D01*
X033780Y009722D01*
X034010Y009722D02*
X033320Y009722D01*
X033320Y010067D01*
X033435Y010182D01*
X032905Y010213D02*
X032215Y010213D01*
X032215Y009837D02*
X032100Y009837D01*
X032445Y009837D02*
X032905Y009837D01*
X032905Y009722D02*
X032905Y009952D01*
X032675Y010213D02*
X032445Y010558D01*
X032445Y010827D02*
X032445Y010942D01*
X032905Y010942D01*
X032905Y010827D02*
X032905Y011057D01*
X032905Y011318D02*
X032790Y011318D01*
X032790Y011433D01*
X032905Y011433D01*
X032905Y011318D01*
X032215Y010942D02*
X032100Y010942D01*
X032905Y010558D02*
X032675Y010213D01*
X032445Y009837D02*
X032445Y009722D01*
X032445Y009445D02*
X032790Y009445D01*
X032905Y009330D01*
X032790Y009215D01*
X032905Y009100D01*
X032790Y008985D01*
X032445Y008985D01*
X033320Y009100D02*
X033435Y008985D01*
X033665Y008985D01*
X033780Y009100D01*
X033780Y009330D01*
X033665Y009445D01*
X033435Y009445D01*
X033320Y009330D01*
X033320Y009100D01*
X034195Y009100D02*
X034310Y008985D01*
X034540Y008985D01*
X034655Y009100D01*
X034655Y009445D01*
X034195Y009445D02*
X034195Y009100D01*
X034310Y009722D02*
X034540Y009722D01*
X034655Y009837D01*
X034655Y010067D01*
X034540Y010182D01*
X034310Y010182D01*
X034195Y010067D01*
X034195Y009837D01*
X034310Y009722D01*
X034540Y010458D02*
X034540Y010573D01*
X034655Y010573D01*
X034655Y010458D01*
X034540Y010458D01*
X034655Y010827D02*
X034655Y011287D01*
X034540Y011563D02*
X034425Y011678D01*
X034425Y012024D01*
X034310Y012024D02*
X034655Y012024D01*
X034655Y011678D01*
X034540Y011563D01*
X034195Y011678D02*
X034195Y011908D01*
X034310Y012024D01*
X034195Y011287D02*
X034655Y010827D01*
X034195Y010827D02*
X034195Y011287D01*
X033665Y014755D02*
X033780Y014870D01*
X033665Y014985D01*
X033780Y015101D01*
X033665Y015216D01*
X033320Y015216D01*
X033320Y014755D02*
X033665Y014755D01*
X034320Y015949D02*
X034090Y016180D01*
X034780Y016180D01*
X034780Y016410D02*
X034780Y015949D01*
X034435Y016686D02*
X034435Y017146D01*
X034780Y017031D02*
X034090Y017031D01*
X034435Y016686D01*
X033550Y017303D02*
X033435Y017303D01*
X033320Y017188D01*
X033665Y017579D02*
X033665Y017694D01*
X033780Y017694D01*
X033780Y017579D01*
X033665Y017579D01*
X034090Y017423D02*
X034320Y017653D01*
X034550Y017653D01*
X034780Y017423D01*
X029939Y017652D02*
X029939Y017761D01*
X028274Y017652D02*
X028165Y017761D01*
X027948Y017761D01*
X027840Y017652D01*
X027840Y017218D01*
X027574Y017652D02*
X027466Y017761D01*
X027249Y017761D01*
X027140Y017652D01*
X027140Y017218D01*
D15*
X014446Y011717D02*
X014302Y011861D01*
X014015Y011861D01*
X013872Y011717D01*
X013872Y011143D01*
X014015Y011000D01*
X014302Y011000D01*
X014446Y011143D01*
X013525Y011000D02*
X013525Y011861D01*
X012951Y011861D02*
X013525Y011000D01*
X012951Y011000D02*
X012951Y011861D01*
X012604Y011717D02*
X012461Y011861D01*
X012174Y011861D01*
X012030Y011717D01*
X012030Y011143D01*
X012174Y011000D01*
X012461Y011000D01*
X012604Y011143D01*
D16*
X006000Y000950D02*
X006010Y023030D01*
X021810Y023030D01*
X021810Y018030D01*
X026060Y018030D01*
X026060Y022980D01*
X039500Y022990D01*
X039500Y015810D01*
X035560Y015810D01*
X035560Y010170D01*
X039460Y010170D01*
X039460Y008040D01*
X031120Y008040D01*
X031120Y000950D01*
X031120Y000948D02*
X006001Y000950D01*
X015418Y008043D02*
X015420Y008093D01*
X015426Y008143D01*
X015436Y008192D01*
X015450Y008240D01*
X015467Y008287D01*
X015488Y008332D01*
X015513Y008376D01*
X015541Y008417D01*
X015573Y008456D01*
X015607Y008493D01*
X015644Y008527D01*
X015684Y008557D01*
X015726Y008584D01*
X015770Y008608D01*
X015816Y008629D01*
X015863Y008645D01*
X015911Y008658D01*
X015961Y008667D01*
X016010Y008672D01*
X016061Y008673D01*
X016111Y008670D01*
X016160Y008663D01*
X016209Y008652D01*
X016257Y008637D01*
X016303Y008619D01*
X016348Y008597D01*
X016391Y008571D01*
X016432Y008542D01*
X016471Y008510D01*
X016507Y008475D01*
X016539Y008437D01*
X016569Y008397D01*
X016596Y008354D01*
X016619Y008310D01*
X016638Y008264D01*
X016654Y008216D01*
X016666Y008167D01*
X016674Y008118D01*
X016678Y008068D01*
X016678Y008018D01*
X016674Y007968D01*
X016666Y007919D01*
X016654Y007870D01*
X016638Y007822D01*
X016619Y007776D01*
X016596Y007732D01*
X016569Y007689D01*
X016539Y007649D01*
X016507Y007611D01*
X016471Y007576D01*
X016432Y007544D01*
X016391Y007515D01*
X016348Y007489D01*
X016303Y007467D01*
X016257Y007449D01*
X016209Y007434D01*
X016160Y007423D01*
X016111Y007416D01*
X016061Y007413D01*
X016010Y007414D01*
X015961Y007419D01*
X015911Y007428D01*
X015863Y007441D01*
X015816Y007457D01*
X015770Y007478D01*
X015726Y007502D01*
X015684Y007529D01*
X015644Y007559D01*
X015607Y007593D01*
X015573Y007630D01*
X015541Y007669D01*
X015513Y007710D01*
X015488Y007754D01*
X015467Y007799D01*
X015450Y007846D01*
X015436Y007894D01*
X015426Y007943D01*
X015420Y007993D01*
X015418Y008043D01*
X015484Y008048D02*
X015486Y008095D01*
X015492Y008142D01*
X015501Y008188D01*
X015515Y008233D01*
X015532Y008277D01*
X015553Y008320D01*
X015577Y008360D01*
X015604Y008399D01*
X015635Y008435D01*
X015668Y008468D01*
X015704Y008499D01*
X015743Y008526D01*
X015783Y008550D01*
X015826Y008571D01*
X015870Y008588D01*
X015915Y008602D01*
X015961Y008611D01*
X016008Y008617D01*
X016055Y008619D01*
X016102Y008617D01*
X016149Y008611D01*
X016195Y008602D01*
X016240Y008588D01*
X016284Y008571D01*
X016327Y008550D01*
X016367Y008526D01*
X016406Y008499D01*
X016442Y008468D01*
X016475Y008435D01*
X016506Y008399D01*
X016533Y008360D01*
X016557Y008320D01*
X016578Y008277D01*
X016595Y008233D01*
X016609Y008188D01*
X016618Y008142D01*
X016624Y008095D01*
X016626Y008048D01*
X016624Y008001D01*
X016618Y007954D01*
X016609Y007908D01*
X016595Y007863D01*
X016578Y007819D01*
X016557Y007776D01*
X016533Y007736D01*
X016506Y007697D01*
X016475Y007661D01*
X016442Y007628D01*
X016406Y007597D01*
X016367Y007570D01*
X016327Y007546D01*
X016284Y007525D01*
X016240Y007508D01*
X016195Y007494D01*
X016149Y007485D01*
X016102Y007479D01*
X016055Y007477D01*
X016008Y007479D01*
X015961Y007485D01*
X015915Y007494D01*
X015870Y007508D01*
X015826Y007525D01*
X015783Y007546D01*
X015743Y007570D01*
X015704Y007597D01*
X015668Y007628D01*
X015635Y007661D01*
X015604Y007697D01*
X015577Y007736D01*
X015553Y007776D01*
X015532Y007819D01*
X015515Y007863D01*
X015501Y007908D01*
X015492Y007954D01*
X015486Y008001D01*
X015484Y008048D01*
X036929Y018091D02*
X036931Y018138D01*
X036937Y018185D01*
X036946Y018231D01*
X036960Y018276D01*
X036977Y018320D01*
X036998Y018363D01*
X037022Y018403D01*
X037049Y018442D01*
X037080Y018478D01*
X037113Y018511D01*
X037149Y018542D01*
X037188Y018569D01*
X037228Y018593D01*
X037271Y018614D01*
X037315Y018631D01*
X037360Y018645D01*
X037406Y018654D01*
X037453Y018660D01*
X037500Y018662D01*
X037547Y018660D01*
X037594Y018654D01*
X037640Y018645D01*
X037685Y018631D01*
X037729Y018614D01*
X037772Y018593D01*
X037812Y018569D01*
X037851Y018542D01*
X037887Y018511D01*
X037920Y018478D01*
X037951Y018442D01*
X037978Y018403D01*
X038002Y018363D01*
X038023Y018320D01*
X038040Y018276D01*
X038054Y018231D01*
X038063Y018185D01*
X038069Y018138D01*
X038071Y018091D01*
X038069Y018044D01*
X038063Y017997D01*
X038054Y017951D01*
X038040Y017906D01*
X038023Y017862D01*
X038002Y017819D01*
X037978Y017779D01*
X037951Y017740D01*
X037920Y017704D01*
X037887Y017671D01*
X037851Y017640D01*
X037812Y017613D01*
X037772Y017589D01*
X037729Y017568D01*
X037685Y017551D01*
X037640Y017537D01*
X037594Y017528D01*
X037547Y017522D01*
X037500Y017520D01*
X037453Y017522D01*
X037406Y017528D01*
X037360Y017537D01*
X037315Y017551D01*
X037271Y017568D01*
X037228Y017589D01*
X037188Y017613D01*
X037149Y017640D01*
X037113Y017671D01*
X037080Y017704D01*
X037049Y017740D01*
X037022Y017779D01*
X036998Y017819D01*
X036977Y017862D01*
X036960Y017906D01*
X036946Y017951D01*
X036937Y017997D01*
X036931Y018044D01*
X036929Y018091D01*
X036873Y018085D02*
X036875Y018135D01*
X036881Y018185D01*
X036891Y018234D01*
X036905Y018282D01*
X036922Y018329D01*
X036943Y018374D01*
X036968Y018418D01*
X036996Y018459D01*
X037028Y018498D01*
X037062Y018535D01*
X037099Y018569D01*
X037139Y018599D01*
X037181Y018626D01*
X037225Y018650D01*
X037271Y018671D01*
X037318Y018687D01*
X037366Y018700D01*
X037416Y018709D01*
X037465Y018714D01*
X037516Y018715D01*
X037566Y018712D01*
X037615Y018705D01*
X037664Y018694D01*
X037712Y018679D01*
X037758Y018661D01*
X037803Y018639D01*
X037846Y018613D01*
X037887Y018584D01*
X037926Y018552D01*
X037962Y018517D01*
X037994Y018479D01*
X038024Y018439D01*
X038051Y018396D01*
X038074Y018352D01*
X038093Y018306D01*
X038109Y018258D01*
X038121Y018209D01*
X038129Y018160D01*
X038133Y018110D01*
X038133Y018060D01*
X038129Y018010D01*
X038121Y017961D01*
X038109Y017912D01*
X038093Y017864D01*
X038074Y017818D01*
X038051Y017774D01*
X038024Y017731D01*
X037994Y017691D01*
X037962Y017653D01*
X037926Y017618D01*
X037887Y017586D01*
X037846Y017557D01*
X037803Y017531D01*
X037758Y017509D01*
X037712Y017491D01*
X037664Y017476D01*
X037615Y017465D01*
X037566Y017458D01*
X037516Y017455D01*
X037465Y017456D01*
X037416Y017461D01*
X037366Y017470D01*
X037318Y017483D01*
X037271Y017499D01*
X037225Y017520D01*
X037181Y017544D01*
X037139Y017571D01*
X037099Y017601D01*
X037062Y017635D01*
X037028Y017672D01*
X036996Y017711D01*
X036968Y017752D01*
X036943Y017796D01*
X036922Y017841D01*
X036905Y017888D01*
X036891Y017936D01*
X036881Y017985D01*
X036875Y018035D01*
X036873Y018085D01*
M02*
