%
M48
M72
T01C0.0236
T02C0.0360
T03C0.0400
T04C0.0470
T05C0.0472
%
T01
X2022Y4079
X2647Y4704
X4022Y4079
X9147Y4829
X11522Y5079
X13147Y3579
X12272Y2079
X4772Y10454
X2147Y9829
X7522Y10829
X12897Y10829
X15022Y10704
X15522Y11829
T02
X7522Y5579
X9022Y5579
X9022Y7079
X9022Y8579
X7522Y8579
X7522Y7079
X7522Y10079
X9022Y10079
X10772Y10079
X10772Y8579
X10772Y7079
X10772Y5579
X12272Y5579
X12272Y7079
X12272Y8579
X12272Y10079
T03
X14397Y2279
X15397Y2279
X16397Y2279
X17397Y2279
X18397Y2279
X14397Y3379
X15397Y3379
X16397Y3379
X17397Y3379
X18397Y3379
T04
X3038Y3079
X5006Y3079
T05
X7138Y2454
X8516Y2454
X9894Y2454
X11272Y2454
M30
