G75*
G70*
%OFA0B0*%
%FSLAX24Y24*%
%IPPOS*%
%LPD*%
%AMOC8*
5,1,8,0,0,1.08239X$1,22.5*
%
%ADD10C,0.0100*%
%ADD11C,0.0060*%
%ADD12C,0.0090*%
%ADD13C,0.0040*%
%ADD14C,0.0150*%
%ADD15C,0.0180*%
%ADD16C,0.0160*%
%ADD17C,0.0050*%
D10*
X002059Y001272D02*
X002059Y004717D01*
X005996Y004717D01*
X005996Y001272D01*
X002059Y001272D01*
X002847Y000829D02*
X019332Y000829D01*
X019382Y000829D01*
X020071Y001075D02*
X020367Y001370D01*
X020367Y004372D01*
X020120Y004619D01*
X015445Y004619D01*
X015445Y004126D01*
X015445Y003930D01*
X017365Y003930D01*
X017365Y004569D01*
X017414Y004126D02*
X019874Y004126D01*
X019924Y004077D01*
X019924Y001567D01*
X019874Y001518D01*
X012935Y001518D01*
X012886Y001567D01*
X012886Y004077D01*
X012935Y004126D01*
X015445Y004126D01*
X015445Y004619D02*
X012591Y004619D01*
X012394Y004422D01*
X012394Y001272D01*
X012591Y001075D01*
X020071Y001075D01*
X019332Y000829D02*
X019409Y000826D01*
X019486Y000827D01*
X019563Y000832D01*
X019640Y000841D01*
X019716Y000854D01*
X019791Y000870D01*
X019866Y000891D01*
X019939Y000915D01*
X020011Y000943D01*
X020082Y000974D01*
X020151Y001009D01*
X020218Y001047D01*
X020283Y001089D01*
X020346Y001133D01*
X020406Y001181D01*
X020464Y001232D01*
X020520Y001286D01*
X020572Y001343D01*
X020622Y001402D01*
X020668Y001463D01*
X020712Y001527D01*
X020752Y001593D01*
X020789Y001661D01*
X020822Y001730D01*
X020852Y001801D01*
X020879Y001874D01*
X020901Y001948D01*
X020920Y002023D01*
X020935Y002098D01*
X020946Y002175D01*
X020953Y002252D01*
X020957Y002329D01*
X020957Y002404D02*
X020957Y018889D01*
X020957Y018939D01*
X020957Y018889D02*
X020960Y018966D01*
X020959Y019043D01*
X020954Y019120D01*
X020945Y019197D01*
X020932Y019273D01*
X020916Y019348D01*
X020895Y019423D01*
X020871Y019496D01*
X020843Y019568D01*
X020812Y019639D01*
X020777Y019708D01*
X020739Y019775D01*
X020697Y019840D01*
X020653Y019903D01*
X020605Y019963D01*
X020554Y020021D01*
X020500Y020077D01*
X020443Y020129D01*
X020384Y020179D01*
X020323Y020225D01*
X020259Y020269D01*
X020193Y020309D01*
X020125Y020346D01*
X020056Y020379D01*
X019985Y020409D01*
X019912Y020436D01*
X019838Y020458D01*
X019763Y020477D01*
X019688Y020492D01*
X019611Y020503D01*
X019534Y020510D01*
X019457Y020514D01*
X019382Y020514D02*
X017463Y020514D01*
X017463Y014018D01*
X017365Y013920D01*
X002847Y013920D01*
X002748Y014018D01*
X002748Y020514D01*
X002673Y020513D01*
X002598Y020509D01*
X002523Y020500D01*
X002449Y020488D01*
X002376Y020472D01*
X002303Y020452D01*
X002232Y020428D01*
X002162Y020401D01*
X002094Y020370D01*
X002027Y020336D01*
X001962Y020298D01*
X001899Y020257D01*
X001838Y020213D01*
X001780Y020165D01*
X001724Y020115D01*
X001671Y020062D01*
X001621Y020006D01*
X001573Y019948D01*
X001529Y019887D01*
X001488Y019824D01*
X001450Y019759D01*
X001416Y019692D01*
X001385Y019624D01*
X001358Y019554D01*
X001334Y019483D01*
X001314Y019410D01*
X001298Y019337D01*
X001286Y019263D01*
X001277Y019188D01*
X001273Y019113D01*
X001272Y019038D01*
X001272Y019014D02*
X001272Y002454D01*
X001272Y002404D01*
X001272Y002454D02*
X001269Y002377D01*
X001270Y002300D01*
X001275Y002223D01*
X001284Y002146D01*
X001297Y002070D01*
X001313Y001995D01*
X001334Y001920D01*
X001358Y001847D01*
X001386Y001775D01*
X001417Y001704D01*
X001452Y001635D01*
X001490Y001568D01*
X001532Y001503D01*
X001576Y001440D01*
X001624Y001380D01*
X001675Y001322D01*
X001729Y001266D01*
X001786Y001214D01*
X001845Y001164D01*
X001906Y001118D01*
X001970Y001074D01*
X002036Y001034D01*
X002104Y000997D01*
X002173Y000964D01*
X002244Y000934D01*
X002317Y000907D01*
X002391Y000885D01*
X002466Y000866D01*
X002541Y000851D01*
X002618Y000840D01*
X002695Y000833D01*
X002772Y000829D01*
X006243Y001124D02*
X006243Y003585D01*
X012197Y003585D01*
X012197Y001124D01*
X006243Y001124D01*
X006218Y005140D02*
X005332Y005140D01*
X005332Y007015D01*
X006218Y007015D01*
X006218Y005140D01*
X005096Y005140D02*
X004195Y005140D01*
X004195Y007015D01*
X005096Y007015D01*
X005096Y005140D01*
X003959Y005155D02*
X003959Y007015D01*
X003088Y007015D01*
X003088Y005155D01*
X003132Y005155D02*
X003959Y005155D01*
X002837Y005155D02*
X002822Y005140D01*
X001951Y005140D01*
X001951Y007015D01*
X002837Y007015D01*
X002837Y005184D01*
X002055Y008388D02*
X002055Y009540D01*
X002069Y009555D02*
X004033Y009555D01*
X004033Y008388D01*
X002055Y008388D01*
X002522Y009579D02*
X002647Y009579D01*
X006880Y010081D02*
X006882Y010131D01*
X006888Y010181D01*
X006898Y010231D01*
X006911Y010279D01*
X006929Y010327D01*
X006950Y010372D01*
X006975Y010416D01*
X007003Y010458D01*
X007034Y010498D01*
X007068Y010535D01*
X007105Y010569D01*
X007145Y010600D01*
X007187Y010628D01*
X007231Y010653D01*
X007276Y010674D01*
X007324Y010692D01*
X007372Y010705D01*
X007422Y010715D01*
X007472Y010721D01*
X007522Y010723D01*
X007572Y010721D01*
X007622Y010715D01*
X007672Y010705D01*
X007720Y010692D01*
X007768Y010674D01*
X007813Y010653D01*
X007857Y010628D01*
X007899Y010600D01*
X007939Y010569D01*
X007976Y010535D01*
X008010Y010498D01*
X008041Y010458D01*
X008069Y010416D01*
X008094Y010372D01*
X008115Y010327D01*
X008133Y010279D01*
X008146Y010231D01*
X008156Y010181D01*
X008162Y010131D01*
X008164Y010081D01*
X008162Y010031D01*
X008156Y009981D01*
X008146Y009931D01*
X008133Y009883D01*
X008115Y009835D01*
X008094Y009790D01*
X008069Y009746D01*
X008041Y009704D01*
X008010Y009664D01*
X007976Y009627D01*
X007939Y009593D01*
X007899Y009562D01*
X007857Y009534D01*
X007813Y009509D01*
X007768Y009488D01*
X007720Y009470D01*
X007672Y009457D01*
X007622Y009447D01*
X007572Y009441D01*
X007522Y009439D01*
X007472Y009441D01*
X007422Y009447D01*
X007372Y009457D01*
X007324Y009470D01*
X007276Y009488D01*
X007231Y009509D01*
X007187Y009534D01*
X007145Y009562D01*
X007105Y009593D01*
X007068Y009627D01*
X007034Y009664D01*
X007003Y009704D01*
X006975Y009746D01*
X006950Y009790D01*
X006929Y009835D01*
X006911Y009883D01*
X006898Y009931D01*
X006888Y009981D01*
X006882Y010031D01*
X006880Y010081D01*
X008147Y010079D02*
X008647Y010079D01*
X008647Y008579D02*
X008147Y008579D01*
X006880Y008575D02*
X006882Y008625D01*
X006888Y008675D01*
X006898Y008725D01*
X006911Y008773D01*
X006929Y008821D01*
X006950Y008866D01*
X006975Y008910D01*
X007003Y008952D01*
X007034Y008992D01*
X007068Y009029D01*
X007105Y009063D01*
X007145Y009094D01*
X007187Y009122D01*
X007231Y009147D01*
X007276Y009168D01*
X007324Y009186D01*
X007372Y009199D01*
X007422Y009209D01*
X007472Y009215D01*
X007522Y009217D01*
X007572Y009215D01*
X007622Y009209D01*
X007672Y009199D01*
X007720Y009186D01*
X007768Y009168D01*
X007813Y009147D01*
X007857Y009122D01*
X007899Y009094D01*
X007939Y009063D01*
X007976Y009029D01*
X008010Y008992D01*
X008041Y008952D01*
X008069Y008910D01*
X008094Y008866D01*
X008115Y008821D01*
X008133Y008773D01*
X008146Y008725D01*
X008156Y008675D01*
X008162Y008625D01*
X008164Y008575D01*
X008162Y008525D01*
X008156Y008475D01*
X008146Y008425D01*
X008133Y008377D01*
X008115Y008329D01*
X008094Y008284D01*
X008069Y008240D01*
X008041Y008198D01*
X008010Y008158D01*
X007976Y008121D01*
X007939Y008087D01*
X007899Y008056D01*
X007857Y008028D01*
X007813Y008003D01*
X007768Y007982D01*
X007720Y007964D01*
X007672Y007951D01*
X007622Y007941D01*
X007572Y007935D01*
X007522Y007933D01*
X007472Y007935D01*
X007422Y007941D01*
X007372Y007951D01*
X007324Y007964D01*
X007276Y007982D01*
X007231Y008003D01*
X007187Y008028D01*
X007145Y008056D01*
X007105Y008087D01*
X007068Y008121D01*
X007034Y008158D01*
X007003Y008198D01*
X006975Y008240D01*
X006950Y008284D01*
X006929Y008329D01*
X006911Y008377D01*
X006898Y008425D01*
X006888Y008475D01*
X006882Y008525D01*
X006880Y008575D01*
X006880Y007099D02*
X006882Y007149D01*
X006888Y007199D01*
X006898Y007249D01*
X006911Y007297D01*
X006929Y007345D01*
X006950Y007390D01*
X006975Y007434D01*
X007003Y007476D01*
X007034Y007516D01*
X007068Y007553D01*
X007105Y007587D01*
X007145Y007618D01*
X007187Y007646D01*
X007231Y007671D01*
X007276Y007692D01*
X007324Y007710D01*
X007372Y007723D01*
X007422Y007733D01*
X007472Y007739D01*
X007522Y007741D01*
X007572Y007739D01*
X007622Y007733D01*
X007672Y007723D01*
X007720Y007710D01*
X007768Y007692D01*
X007813Y007671D01*
X007857Y007646D01*
X007899Y007618D01*
X007939Y007587D01*
X007976Y007553D01*
X008010Y007516D01*
X008041Y007476D01*
X008069Y007434D01*
X008094Y007390D01*
X008115Y007345D01*
X008133Y007297D01*
X008146Y007249D01*
X008156Y007199D01*
X008162Y007149D01*
X008164Y007099D01*
X008162Y007049D01*
X008156Y006999D01*
X008146Y006949D01*
X008133Y006901D01*
X008115Y006853D01*
X008094Y006808D01*
X008069Y006764D01*
X008041Y006722D01*
X008010Y006682D01*
X007976Y006645D01*
X007939Y006611D01*
X007899Y006580D01*
X007857Y006552D01*
X007813Y006527D01*
X007768Y006506D01*
X007720Y006488D01*
X007672Y006475D01*
X007622Y006465D01*
X007572Y006459D01*
X007522Y006457D01*
X007472Y006459D01*
X007422Y006465D01*
X007372Y006475D01*
X007324Y006488D01*
X007276Y006506D01*
X007231Y006527D01*
X007187Y006552D01*
X007145Y006580D01*
X007105Y006611D01*
X007068Y006645D01*
X007034Y006682D01*
X007003Y006722D01*
X006975Y006764D01*
X006950Y006808D01*
X006929Y006853D01*
X006911Y006901D01*
X006898Y006949D01*
X006888Y006999D01*
X006882Y007049D01*
X006880Y007099D01*
X008147Y007079D02*
X008647Y007079D01*
X008647Y005579D02*
X008147Y005579D01*
X006895Y005563D02*
X006897Y005613D01*
X006903Y005663D01*
X006913Y005713D01*
X006926Y005761D01*
X006944Y005809D01*
X006965Y005854D01*
X006990Y005898D01*
X007018Y005940D01*
X007049Y005980D01*
X007083Y006017D01*
X007120Y006051D01*
X007160Y006082D01*
X007202Y006110D01*
X007246Y006135D01*
X007291Y006156D01*
X007339Y006174D01*
X007387Y006187D01*
X007437Y006197D01*
X007487Y006203D01*
X007537Y006205D01*
X007587Y006203D01*
X007637Y006197D01*
X007687Y006187D01*
X007735Y006174D01*
X007783Y006156D01*
X007828Y006135D01*
X007872Y006110D01*
X007914Y006082D01*
X007954Y006051D01*
X007991Y006017D01*
X008025Y005980D01*
X008056Y005940D01*
X008084Y005898D01*
X008109Y005854D01*
X008130Y005809D01*
X008148Y005761D01*
X008161Y005713D01*
X008171Y005663D01*
X008177Y005613D01*
X008179Y005563D01*
X008177Y005513D01*
X008171Y005463D01*
X008161Y005413D01*
X008148Y005365D01*
X008130Y005317D01*
X008109Y005272D01*
X008084Y005228D01*
X008056Y005186D01*
X008025Y005146D01*
X007991Y005109D01*
X007954Y005075D01*
X007914Y005044D01*
X007872Y005016D01*
X007828Y004991D01*
X007783Y004970D01*
X007735Y004952D01*
X007687Y004939D01*
X007637Y004929D01*
X007587Y004923D01*
X007537Y004921D01*
X007487Y004923D01*
X007437Y004929D01*
X007387Y004939D01*
X007339Y004952D01*
X007291Y004970D01*
X007246Y004991D01*
X007202Y005016D01*
X007160Y005044D01*
X007120Y005075D01*
X007083Y005109D01*
X007049Y005146D01*
X007018Y005186D01*
X006990Y005228D01*
X006965Y005272D01*
X006944Y005317D01*
X006926Y005365D01*
X006913Y005413D01*
X006903Y005463D01*
X006897Y005513D01*
X006895Y005563D01*
X011147Y005579D02*
X011647Y005579D01*
X011619Y005578D02*
X011621Y005628D01*
X011627Y005678D01*
X011637Y005728D01*
X011650Y005776D01*
X011668Y005824D01*
X011689Y005869D01*
X011714Y005913D01*
X011742Y005955D01*
X011773Y005995D01*
X011807Y006032D01*
X011844Y006066D01*
X011884Y006097D01*
X011926Y006125D01*
X011970Y006150D01*
X012015Y006171D01*
X012063Y006189D01*
X012111Y006202D01*
X012161Y006212D01*
X012211Y006218D01*
X012261Y006220D01*
X012311Y006218D01*
X012361Y006212D01*
X012411Y006202D01*
X012459Y006189D01*
X012507Y006171D01*
X012552Y006150D01*
X012596Y006125D01*
X012638Y006097D01*
X012678Y006066D01*
X012715Y006032D01*
X012749Y005995D01*
X012780Y005955D01*
X012808Y005913D01*
X012833Y005869D01*
X012854Y005824D01*
X012872Y005776D01*
X012885Y005728D01*
X012895Y005678D01*
X012901Y005628D01*
X012903Y005578D01*
X012901Y005528D01*
X012895Y005478D01*
X012885Y005428D01*
X012872Y005380D01*
X012854Y005332D01*
X012833Y005287D01*
X012808Y005243D01*
X012780Y005201D01*
X012749Y005161D01*
X012715Y005124D01*
X012678Y005090D01*
X012638Y005059D01*
X012596Y005031D01*
X012552Y005006D01*
X012507Y004985D01*
X012459Y004967D01*
X012411Y004954D01*
X012361Y004944D01*
X012311Y004938D01*
X012261Y004936D01*
X012211Y004938D01*
X012161Y004944D01*
X012111Y004954D01*
X012063Y004967D01*
X012015Y004985D01*
X011970Y005006D01*
X011926Y005031D01*
X011884Y005059D01*
X011844Y005090D01*
X011807Y005124D01*
X011773Y005161D01*
X011742Y005201D01*
X011714Y005243D01*
X011689Y005287D01*
X011668Y005332D01*
X011650Y005380D01*
X011637Y005428D01*
X011627Y005478D01*
X011621Y005528D01*
X011619Y005578D01*
X011647Y007079D02*
X011147Y007079D01*
X011619Y007084D02*
X011621Y007134D01*
X011627Y007184D01*
X011637Y007234D01*
X011650Y007282D01*
X011668Y007330D01*
X011689Y007375D01*
X011714Y007419D01*
X011742Y007461D01*
X011773Y007501D01*
X011807Y007538D01*
X011844Y007572D01*
X011884Y007603D01*
X011926Y007631D01*
X011970Y007656D01*
X012015Y007677D01*
X012063Y007695D01*
X012111Y007708D01*
X012161Y007718D01*
X012211Y007724D01*
X012261Y007726D01*
X012311Y007724D01*
X012361Y007718D01*
X012411Y007708D01*
X012459Y007695D01*
X012507Y007677D01*
X012552Y007656D01*
X012596Y007631D01*
X012638Y007603D01*
X012678Y007572D01*
X012715Y007538D01*
X012749Y007501D01*
X012780Y007461D01*
X012808Y007419D01*
X012833Y007375D01*
X012854Y007330D01*
X012872Y007282D01*
X012885Y007234D01*
X012895Y007184D01*
X012901Y007134D01*
X012903Y007084D01*
X012901Y007034D01*
X012895Y006984D01*
X012885Y006934D01*
X012872Y006886D01*
X012854Y006838D01*
X012833Y006793D01*
X012808Y006749D01*
X012780Y006707D01*
X012749Y006667D01*
X012715Y006630D01*
X012678Y006596D01*
X012638Y006565D01*
X012596Y006537D01*
X012552Y006512D01*
X012507Y006491D01*
X012459Y006473D01*
X012411Y006460D01*
X012361Y006450D01*
X012311Y006444D01*
X012261Y006442D01*
X012211Y006444D01*
X012161Y006450D01*
X012111Y006460D01*
X012063Y006473D01*
X012015Y006491D01*
X011970Y006512D01*
X011926Y006537D01*
X011884Y006565D01*
X011844Y006596D01*
X011807Y006630D01*
X011773Y006667D01*
X011742Y006707D01*
X011714Y006749D01*
X011689Y006793D01*
X011668Y006838D01*
X011650Y006886D01*
X011637Y006934D01*
X011627Y006984D01*
X011621Y007034D01*
X011619Y007084D01*
X011647Y008579D02*
X011147Y008579D01*
X011649Y008560D02*
X011651Y008610D01*
X011657Y008660D01*
X011667Y008710D01*
X011680Y008758D01*
X011698Y008806D01*
X011719Y008851D01*
X011744Y008895D01*
X011772Y008937D01*
X011803Y008977D01*
X011837Y009014D01*
X011874Y009048D01*
X011914Y009079D01*
X011956Y009107D01*
X012000Y009132D01*
X012045Y009153D01*
X012093Y009171D01*
X012141Y009184D01*
X012191Y009194D01*
X012241Y009200D01*
X012291Y009202D01*
X012341Y009200D01*
X012391Y009194D01*
X012441Y009184D01*
X012489Y009171D01*
X012537Y009153D01*
X012582Y009132D01*
X012626Y009107D01*
X012668Y009079D01*
X012708Y009048D01*
X012745Y009014D01*
X012779Y008977D01*
X012810Y008937D01*
X012838Y008895D01*
X012863Y008851D01*
X012884Y008806D01*
X012902Y008758D01*
X012915Y008710D01*
X012925Y008660D01*
X012931Y008610D01*
X012933Y008560D01*
X012931Y008510D01*
X012925Y008460D01*
X012915Y008410D01*
X012902Y008362D01*
X012884Y008314D01*
X012863Y008269D01*
X012838Y008225D01*
X012810Y008183D01*
X012779Y008143D01*
X012745Y008106D01*
X012708Y008072D01*
X012668Y008041D01*
X012626Y008013D01*
X012582Y007988D01*
X012537Y007967D01*
X012489Y007949D01*
X012441Y007936D01*
X012391Y007926D01*
X012341Y007920D01*
X012291Y007918D01*
X012241Y007920D01*
X012191Y007926D01*
X012141Y007936D01*
X012093Y007949D01*
X012045Y007967D01*
X012000Y007988D01*
X011956Y008013D01*
X011914Y008041D01*
X011874Y008072D01*
X011837Y008106D01*
X011803Y008143D01*
X011772Y008183D01*
X011744Y008225D01*
X011719Y008269D01*
X011698Y008314D01*
X011680Y008362D01*
X011667Y008410D01*
X011657Y008460D01*
X011651Y008510D01*
X011649Y008560D01*
X011647Y010079D02*
X011147Y010079D01*
X011619Y010066D02*
X011621Y010116D01*
X011627Y010166D01*
X011637Y010216D01*
X011650Y010264D01*
X011668Y010312D01*
X011689Y010357D01*
X011714Y010401D01*
X011742Y010443D01*
X011773Y010483D01*
X011807Y010520D01*
X011844Y010554D01*
X011884Y010585D01*
X011926Y010613D01*
X011970Y010638D01*
X012015Y010659D01*
X012063Y010677D01*
X012111Y010690D01*
X012161Y010700D01*
X012211Y010706D01*
X012261Y010708D01*
X012311Y010706D01*
X012361Y010700D01*
X012411Y010690D01*
X012459Y010677D01*
X012507Y010659D01*
X012552Y010638D01*
X012596Y010613D01*
X012638Y010585D01*
X012678Y010554D01*
X012715Y010520D01*
X012749Y010483D01*
X012780Y010443D01*
X012808Y010401D01*
X012833Y010357D01*
X012854Y010312D01*
X012872Y010264D01*
X012885Y010216D01*
X012895Y010166D01*
X012901Y010116D01*
X012903Y010066D01*
X012901Y010016D01*
X012895Y009966D01*
X012885Y009916D01*
X012872Y009868D01*
X012854Y009820D01*
X012833Y009775D01*
X012808Y009731D01*
X012780Y009689D01*
X012749Y009649D01*
X012715Y009612D01*
X012678Y009578D01*
X012638Y009547D01*
X012596Y009519D01*
X012552Y009494D01*
X012507Y009473D01*
X012459Y009455D01*
X012411Y009442D01*
X012361Y009432D01*
X012311Y009426D01*
X012261Y009424D01*
X012211Y009426D01*
X012161Y009432D01*
X012111Y009442D01*
X012063Y009455D01*
X012015Y009473D01*
X011970Y009494D01*
X011926Y009519D01*
X011884Y009547D01*
X011844Y009578D01*
X011807Y009612D01*
X011773Y009649D01*
X011742Y009689D01*
X011714Y009731D01*
X011689Y009775D01*
X011668Y009820D01*
X011650Y009868D01*
X011637Y009916D01*
X011627Y009966D01*
X011621Y010016D01*
X011619Y010066D01*
D11*
X006186Y007283D02*
X006012Y007283D01*
X006142Y007414D01*
X006142Y007153D01*
X005891Y007197D02*
X005891Y007370D01*
X005718Y007197D01*
X005761Y007153D01*
X005848Y007153D01*
X005891Y007197D01*
X005891Y007370D02*
X005848Y007414D01*
X005761Y007414D01*
X005718Y007370D01*
X005718Y007197D01*
X005596Y007153D02*
X005423Y007153D01*
X005510Y007153D02*
X005510Y007414D01*
X005423Y007327D01*
X005238Y007293D02*
X005195Y007250D01*
X005065Y007250D01*
X005065Y007163D02*
X005065Y007423D01*
X005195Y007423D01*
X005238Y007380D01*
X005238Y007293D01*
X004944Y007207D02*
X004900Y007163D01*
X004814Y007163D01*
X004770Y007207D01*
X004944Y007380D01*
X004944Y007207D01*
X004944Y007380D02*
X004900Y007423D01*
X004814Y007423D01*
X004770Y007380D01*
X004770Y007207D01*
X004649Y007207D02*
X004606Y007163D01*
X004519Y007163D01*
X004476Y007207D01*
X004354Y007207D02*
X004311Y007163D01*
X004224Y007163D01*
X004181Y007207D01*
X004268Y007293D02*
X004311Y007293D01*
X004354Y007250D01*
X004354Y007207D01*
X004311Y007293D02*
X004354Y007337D01*
X004354Y007380D01*
X004311Y007423D01*
X004224Y007423D01*
X004181Y007380D01*
X004476Y007380D02*
X004519Y007423D01*
X004606Y007423D01*
X004649Y007380D01*
X004649Y007337D01*
X004606Y007293D01*
X004649Y007250D01*
X004649Y007207D01*
X004606Y007293D02*
X004562Y007293D01*
X003927Y007298D02*
X003753Y007298D01*
X003884Y007428D01*
X003884Y007168D01*
X003632Y007211D02*
X003632Y007385D01*
X003459Y007211D01*
X003502Y007168D01*
X003589Y007168D01*
X003632Y007211D01*
X003459Y007211D02*
X003459Y007385D01*
X003502Y007428D01*
X003589Y007428D01*
X003632Y007385D01*
X003338Y007168D02*
X003164Y007168D01*
X003251Y007168D02*
X003251Y007428D01*
X003164Y007342D01*
X002805Y007313D02*
X002631Y007313D01*
X002762Y007443D01*
X002762Y007183D01*
X002510Y007226D02*
X002510Y007400D01*
X002337Y007226D01*
X002380Y007183D01*
X002467Y007183D01*
X002510Y007226D01*
X002337Y007226D02*
X002337Y007400D01*
X002380Y007443D01*
X002467Y007443D01*
X002510Y007400D01*
X002216Y007183D02*
X002042Y007183D01*
X002129Y007183D02*
X002129Y007443D01*
X002042Y007356D01*
X004141Y008712D02*
X004401Y008712D01*
X004401Y008798D02*
X004401Y008625D01*
X004228Y008625D02*
X004141Y008712D01*
X004185Y008920D02*
X004141Y008963D01*
X004141Y009050D01*
X004185Y009093D01*
X004358Y008920D01*
X004401Y008963D01*
X004401Y009050D01*
X004358Y009093D01*
X004185Y009093D01*
X004141Y009214D02*
X004401Y009214D01*
X004315Y009214D02*
X004141Y009388D01*
X004271Y009258D02*
X004401Y009388D01*
X004358Y008920D02*
X004185Y008920D01*
D12*
X001891Y004633D02*
X001618Y004770D01*
X001618Y004497D02*
X001891Y004633D01*
X001686Y004310D02*
X001686Y004036D01*
X001481Y004241D01*
X001891Y004241D01*
X001891Y003849D02*
X001891Y003576D01*
X001618Y003849D01*
X001549Y003849D01*
X001481Y003781D01*
X001481Y003644D01*
X001549Y003576D01*
X006292Y003866D02*
X006361Y003797D01*
X006498Y003797D01*
X006566Y003866D01*
X006566Y003934D01*
X006498Y004003D01*
X006361Y004003D01*
X006292Y004071D01*
X006292Y004139D01*
X006361Y004208D01*
X006498Y004208D01*
X006566Y004139D01*
X006753Y004208D02*
X007026Y004208D01*
X006890Y004208D02*
X006890Y003797D01*
X007213Y003797D02*
X007487Y003797D01*
X007674Y003797D02*
X007674Y004208D01*
X007879Y004208D01*
X007947Y004139D01*
X007947Y004003D01*
X007879Y003934D01*
X007674Y003934D01*
X007350Y004003D02*
X007213Y004003D01*
X007213Y004208D02*
X007213Y003797D01*
X007213Y004208D02*
X007487Y004208D01*
X008134Y004208D02*
X008134Y003797D01*
X008134Y003934D02*
X008339Y003934D01*
X008408Y004003D01*
X008408Y004139D01*
X008339Y004208D01*
X008134Y004208D01*
X008594Y004208D02*
X008594Y003797D01*
X008868Y003797D01*
X009055Y003797D02*
X009055Y004208D01*
X009260Y004208D01*
X009328Y004139D01*
X009328Y004003D01*
X009260Y003934D01*
X009055Y003934D01*
X009192Y003934D02*
X009328Y003797D01*
X008868Y004208D02*
X008594Y004208D01*
X008594Y004003D02*
X008731Y004003D01*
X009976Y003797D02*
X009976Y004208D01*
X010112Y004071D01*
X010249Y004208D01*
X010249Y003797D01*
X010436Y003866D02*
X010436Y004139D01*
X010504Y004208D01*
X010641Y004208D01*
X010710Y004139D01*
X010710Y003866D01*
X010641Y003797D01*
X010504Y003797D01*
X010436Y003866D01*
X010896Y004208D02*
X011170Y004208D01*
X011033Y004208D02*
X011033Y003797D01*
X011357Y003866D02*
X011357Y004139D01*
X011425Y004208D01*
X011562Y004208D01*
X011630Y004139D01*
X011630Y003866D01*
X011562Y003797D01*
X011425Y003797D01*
X011357Y003866D01*
X011817Y003934D02*
X012022Y003934D01*
X012091Y004003D01*
X012091Y004139D01*
X012022Y004208D01*
X011817Y004208D01*
X011817Y003797D01*
X011954Y003934D02*
X012091Y003797D01*
X014203Y006353D02*
X014340Y006353D01*
X014408Y006422D01*
X014408Y006559D01*
X014271Y006559D01*
X014135Y006695D02*
X014135Y006422D01*
X014203Y006353D01*
X014135Y006695D02*
X014203Y006764D01*
X014340Y006764D01*
X014408Y006695D01*
X014595Y006627D02*
X014595Y006353D01*
X014595Y006490D02*
X014732Y006627D01*
X014800Y006627D01*
X014979Y006627D02*
X015184Y006627D01*
X015252Y006559D01*
X015252Y006422D01*
X015184Y006353D01*
X014979Y006353D01*
X014979Y006764D01*
X015439Y006764D02*
X015507Y006764D01*
X015507Y006353D01*
X015439Y006353D02*
X015576Y006353D01*
X015746Y006353D02*
X015746Y006764D01*
X015951Y006764D01*
X016020Y006695D01*
X016020Y006559D01*
X015951Y006490D01*
X015746Y006490D01*
X016206Y006353D02*
X016343Y006353D01*
X016275Y006353D02*
X016275Y006764D01*
X016343Y006764D02*
X016206Y006764D01*
X016974Y006695D02*
X016974Y006422D01*
X017042Y006353D01*
X017179Y006353D01*
X017247Y006422D01*
X017434Y006422D02*
X017502Y006353D01*
X017708Y006353D01*
X017708Y006559D01*
X017639Y006627D01*
X017502Y006627D01*
X017502Y006490D02*
X017708Y006490D01*
X017502Y006490D02*
X017434Y006422D01*
X017247Y006695D02*
X017179Y006764D01*
X017042Y006764D01*
X016974Y006695D01*
X017894Y006627D02*
X018100Y006627D01*
X018168Y006559D01*
X018168Y006422D01*
X018100Y006353D01*
X017894Y006353D01*
X017894Y006764D01*
X018355Y006764D02*
X018423Y006764D01*
X018423Y006353D01*
X018355Y006353D02*
X018492Y006353D01*
X018662Y006422D02*
X018662Y006559D01*
X018730Y006627D01*
X018867Y006627D01*
X018935Y006559D01*
X018935Y006490D01*
X018662Y006490D01*
X018662Y006422D02*
X018730Y006353D01*
X018867Y006353D01*
D13*
X018478Y005337D02*
X018344Y005337D01*
X018311Y005304D01*
X018311Y005204D01*
X018511Y005204D01*
X018511Y005304D01*
X018478Y005337D01*
X018511Y005116D02*
X018311Y005116D01*
X018311Y004983D02*
X018511Y005116D01*
X018511Y004983D02*
X018311Y004983D01*
X018344Y004895D02*
X018311Y004862D01*
X018311Y004795D01*
X018344Y004762D01*
X018478Y004762D01*
X018511Y004795D01*
X018511Y004862D01*
X018478Y004895D01*
X018411Y004895D01*
X018411Y004828D01*
X017522Y004843D02*
X017455Y004910D01*
X017322Y004910D01*
X017355Y004997D02*
X017488Y004997D01*
X017522Y005031D01*
X017522Y005097D01*
X017488Y005131D01*
X017488Y005218D02*
X017522Y005252D01*
X017522Y005318D01*
X017488Y005352D01*
X017355Y005352D02*
X017322Y005318D01*
X017322Y005252D01*
X017355Y005218D01*
X017488Y005218D01*
X017355Y005131D02*
X017322Y005097D01*
X017322Y005031D01*
X017355Y004997D01*
X017322Y004776D02*
X017455Y004776D01*
X017522Y004843D01*
X016444Y004895D02*
X016444Y004762D01*
X016244Y004762D01*
X016244Y004895D01*
X016244Y004983D02*
X016444Y005116D01*
X016244Y005116D01*
X016311Y005204D02*
X016244Y005270D01*
X016311Y005337D01*
X016444Y005337D01*
X016444Y005424D02*
X016444Y005525D01*
X016411Y005558D01*
X016377Y005558D01*
X016344Y005525D01*
X016344Y005424D01*
X016344Y005337D02*
X016344Y005204D01*
X016311Y005204D02*
X016444Y005204D01*
X016444Y005424D02*
X016244Y005424D01*
X016244Y005525D01*
X016277Y005558D01*
X016311Y005558D01*
X016344Y005525D01*
X016444Y005645D02*
X016444Y005779D01*
X016444Y005866D02*
X016444Y006000D01*
X016344Y005933D02*
X016344Y005866D01*
X016244Y005866D02*
X016444Y005866D01*
X016244Y005866D02*
X016244Y006000D01*
X016244Y005645D02*
X016444Y005645D01*
X016444Y004983D02*
X016244Y004983D01*
X016344Y004828D02*
X016344Y004762D01*
X015455Y004810D02*
X015421Y004776D01*
X015455Y004810D02*
X015455Y004876D01*
X015421Y004910D01*
X015388Y004910D01*
X015355Y004876D01*
X015355Y004810D01*
X015321Y004776D01*
X015288Y004776D01*
X015255Y004810D01*
X015255Y004876D01*
X015288Y004910D01*
X015255Y004997D02*
X015255Y005131D01*
X015255Y005064D02*
X015455Y005064D01*
X015455Y005218D02*
X015255Y005218D01*
X015255Y005352D01*
X015255Y005439D02*
X015255Y005539D01*
X015288Y005573D01*
X015355Y005573D01*
X015388Y005539D01*
X015388Y005439D01*
X015455Y005439D02*
X015255Y005439D01*
X015355Y005285D02*
X015355Y005218D01*
X015455Y005218D02*
X015455Y005352D01*
X014480Y005278D02*
X014414Y005211D01*
X014414Y005245D02*
X014414Y005145D01*
X014480Y005145D02*
X014280Y005145D01*
X014280Y005245D01*
X014314Y005278D01*
X014380Y005278D01*
X014414Y005245D01*
X014480Y005064D02*
X014480Y004997D01*
X014480Y005031D02*
X014280Y005031D01*
X014280Y005064D02*
X014280Y004997D01*
X014314Y004910D02*
X014280Y004876D01*
X014280Y004776D01*
X014480Y004776D01*
X014480Y004876D01*
X014447Y004910D01*
X014314Y004910D01*
D14*
X001687Y002397D02*
X001687Y001923D01*
X001450Y002160D02*
X001924Y002160D01*
D15*
X004283Y010896D02*
X004283Y011716D01*
X004693Y011716D01*
X004830Y011579D01*
X004830Y011306D01*
X004693Y011169D01*
X004283Y011169D01*
X003909Y011306D02*
X003772Y011169D01*
X003499Y011169D01*
X003362Y011306D01*
X003362Y011853D01*
X003499Y011990D01*
X003772Y011990D01*
X003909Y011853D01*
X003909Y011306D01*
X005204Y011306D02*
X005204Y011579D01*
X005340Y011716D01*
X005614Y011716D01*
X005751Y011579D01*
X005751Y011443D01*
X005204Y011443D01*
X005204Y011306D02*
X005340Y011169D01*
X005614Y011169D01*
X006124Y011169D02*
X006124Y011716D01*
X006535Y011716D01*
X006672Y011579D01*
X006672Y011169D01*
X007045Y011169D02*
X007045Y011990D01*
X007045Y011579D02*
X007592Y011579D01*
X007592Y011169D02*
X007592Y011990D01*
X008103Y011716D02*
X008376Y011716D01*
X008513Y011579D01*
X008513Y011169D01*
X008103Y011169D01*
X007966Y011306D01*
X008103Y011443D01*
X008513Y011443D01*
X008887Y011443D02*
X009160Y011716D01*
X009297Y011716D01*
X009654Y011579D02*
X009791Y011716D01*
X010201Y011716D01*
X010201Y011990D02*
X010201Y011169D01*
X009791Y011169D01*
X009654Y011306D01*
X009654Y011579D01*
X008887Y011716D02*
X008887Y011169D01*
X010575Y011306D02*
X010712Y011169D01*
X010848Y011306D01*
X010985Y011169D01*
X011122Y011306D01*
X011122Y011716D01*
X011632Y011716D02*
X011906Y011716D01*
X012043Y011579D01*
X012043Y011169D01*
X011632Y011169D01*
X011496Y011306D01*
X011632Y011443D01*
X012043Y011443D01*
X012416Y011443D02*
X012690Y011716D01*
X012827Y011716D01*
X013184Y011579D02*
X013321Y011716D01*
X013594Y011716D01*
X013731Y011579D01*
X013731Y011443D01*
X013184Y011443D01*
X013184Y011579D02*
X013184Y011306D01*
X013321Y011169D01*
X013594Y011169D01*
X014105Y011169D02*
X014241Y011169D01*
X014241Y011306D01*
X014105Y011306D01*
X014105Y011169D01*
X014565Y011306D02*
X014565Y011579D01*
X014702Y011716D01*
X015112Y011716D01*
X015486Y011579D02*
X015486Y011306D01*
X015623Y011169D01*
X015896Y011169D01*
X016033Y011306D01*
X016033Y011579D01*
X015896Y011716D01*
X015623Y011716D01*
X015486Y011579D01*
X015112Y011169D02*
X014702Y011169D01*
X014565Y011306D01*
X014511Y010490D02*
X014511Y009669D01*
X014534Y009603D02*
X014397Y009740D01*
X014124Y009740D01*
X013987Y009603D01*
X013987Y009466D01*
X014124Y009329D01*
X014397Y009329D01*
X014534Y009193D01*
X014534Y009056D01*
X014397Y008919D01*
X014124Y008919D01*
X013987Y009056D01*
X014612Y008865D02*
X015022Y008865D01*
X015159Y008728D01*
X015159Y008181D01*
X015022Y008044D01*
X014612Y008044D01*
X014612Y008865D01*
X015045Y009056D02*
X015181Y008919D01*
X015045Y009056D02*
X015045Y009603D01*
X015158Y009669D02*
X015568Y009669D01*
X015705Y009806D01*
X015705Y009943D01*
X015568Y010079D01*
X015158Y010079D01*
X015158Y009669D02*
X015158Y010490D01*
X015568Y010490D01*
X015705Y010353D01*
X015705Y010216D01*
X015568Y010079D01*
X016079Y010079D02*
X016079Y009806D01*
X016215Y009669D01*
X016489Y009669D01*
X016626Y009806D01*
X016626Y009943D01*
X016489Y010079D01*
X016079Y010079D01*
X016352Y010353D01*
X016626Y010490D01*
X016999Y010490D02*
X016999Y010079D01*
X017273Y010216D01*
X017410Y010216D01*
X017547Y010079D01*
X017547Y009806D01*
X017410Y009669D01*
X017136Y009669D01*
X016999Y009806D01*
X016853Y009466D02*
X016990Y009329D01*
X016990Y009056D01*
X016853Y008919D01*
X016442Y008919D01*
X016437Y008865D02*
X016437Y009002D01*
X016442Y008646D02*
X016442Y009466D01*
X016853Y009466D01*
X017363Y009466D02*
X017774Y009466D01*
X017910Y009329D01*
X017910Y009056D01*
X017774Y008919D01*
X017363Y008919D01*
X017363Y008646D02*
X017363Y009466D01*
X017920Y009806D02*
X017920Y010079D01*
X018331Y010079D01*
X018467Y009943D01*
X018467Y009806D01*
X018331Y009669D01*
X018057Y009669D01*
X017920Y009806D01*
X017920Y010079D02*
X018194Y010353D01*
X018467Y010490D01*
X018841Y010353D02*
X018978Y010490D01*
X019251Y010490D01*
X019388Y010353D01*
X018841Y009806D01*
X018978Y009669D01*
X019251Y009669D01*
X019388Y009806D01*
X019388Y010353D01*
X018841Y010353D02*
X018841Y009806D01*
X018694Y009466D02*
X018421Y009466D01*
X018284Y009329D01*
X018284Y009056D01*
X018421Y008919D01*
X018694Y008919D01*
X018831Y009193D02*
X018284Y009193D01*
X018694Y009466D02*
X018831Y009329D01*
X018831Y009193D01*
X019205Y009193D02*
X019478Y009466D01*
X019615Y009466D01*
X019205Y009466D02*
X019205Y008919D01*
X019166Y008591D02*
X019029Y008591D01*
X018756Y008318D01*
X018756Y008591D02*
X018756Y008044D01*
X018382Y008318D02*
X018382Y008454D01*
X018245Y008591D01*
X017972Y008591D01*
X017835Y008454D01*
X017835Y008181D01*
X017972Y008044D01*
X018245Y008044D01*
X018382Y008318D02*
X017835Y008318D01*
X017461Y008591D02*
X017188Y008044D01*
X016914Y008591D01*
X016437Y008591D02*
X016437Y008044D01*
X016300Y008044D02*
X016574Y008044D01*
X016437Y008591D02*
X016300Y008591D01*
X015943Y008591D02*
X015806Y008591D01*
X015533Y008318D01*
X015533Y008591D02*
X015533Y008044D01*
X015658Y008919D02*
X015522Y009056D01*
X015522Y009329D01*
X015658Y009466D01*
X015932Y009466D01*
X016069Y009329D01*
X016069Y009193D01*
X015522Y009193D01*
X015658Y008919D02*
X015932Y008919D01*
X015181Y009466D02*
X014908Y009466D01*
X014784Y010490D02*
X014237Y010490D01*
X012416Y011169D02*
X012416Y011716D01*
X010575Y011716D02*
X010575Y011306D01*
X016407Y011306D02*
X016407Y011169D01*
X016543Y011169D01*
X016543Y011306D01*
X016407Y011306D01*
X016867Y011169D02*
X017414Y011169D01*
X017788Y011306D02*
X017924Y011443D01*
X018335Y011443D01*
X018335Y011579D02*
X018335Y011169D01*
X017924Y011169D01*
X017788Y011306D01*
X017924Y011716D02*
X018198Y011716D01*
X018335Y011579D01*
X017414Y011716D02*
X016867Y011169D01*
X016867Y011716D02*
X017414Y011716D01*
X017547Y010490D02*
X016999Y010490D01*
D16*
X006772Y004704D02*
X006272Y004704D01*
X005272Y001704D02*
X004647Y001704D01*
X003397Y001704D02*
X002772Y001704D01*
X003022Y001454D02*
X003022Y001954D01*
D17*
X002772Y014454D02*
X017272Y014454D01*
X017272Y016704D01*
X015772Y016704D01*
X015742Y016706D01*
X015712Y016711D01*
X015683Y016720D01*
X015656Y016733D01*
X015630Y016748D01*
X015606Y016767D01*
X015585Y016788D01*
X015566Y016812D01*
X015551Y016838D01*
X015538Y016865D01*
X015529Y016894D01*
X015524Y016924D01*
X015522Y016954D01*
X015522Y017704D01*
X015524Y017734D01*
X015529Y017764D01*
X015538Y017793D01*
X015551Y017820D01*
X015566Y017846D01*
X015585Y017870D01*
X015606Y017891D01*
X015630Y017910D01*
X015656Y017925D01*
X015683Y017938D01*
X015712Y017947D01*
X015742Y017952D01*
X015772Y017954D01*
X017272Y017954D01*
X017272Y020204D01*
X017272Y017954D02*
X017272Y016704D01*
X004522Y016954D02*
X004522Y017704D01*
X004520Y017734D01*
X004515Y017764D01*
X004506Y017793D01*
X004493Y017820D01*
X004478Y017846D01*
X004459Y017870D01*
X004438Y017891D01*
X004414Y017910D01*
X004388Y017925D01*
X004361Y017938D01*
X004332Y017947D01*
X004302Y017952D01*
X004272Y017954D01*
X002772Y017954D01*
X002772Y016704D01*
X004272Y016704D01*
X004302Y016706D01*
X004332Y016711D01*
X004361Y016720D01*
X004388Y016733D01*
X004414Y016748D01*
X004438Y016767D01*
X004459Y016788D01*
X004478Y016812D01*
X004493Y016838D01*
X004506Y016865D01*
X004515Y016894D01*
X004520Y016924D01*
X004522Y016954D01*
X002772Y016704D02*
X002772Y014454D01*
M02*
