%
M48
M72
T01C0.0236
T02C0.0320
T03C0.0400
T04C0.0440
T05C0.0472
T06C0.1102
T07C0.1260
%
T01
X7353Y13190
X12603Y12940
X13353Y9440
X14103Y8940
X41099Y11690
X31903Y8622
X32032Y11074
X31103Y12940
X29978Y11940
X32849Y13690
X34224Y13690
X28728Y7940
X25224Y6440
X24524Y10190
X24524Y13190
X22060Y15709
X18824Y12565
X18824Y11540
X18824Y10640
X18824Y9740
X19024Y7190
X24074Y18940
X27599Y20690
X31474Y24315
X32974Y24065
X32974Y24815
X31474Y26065
X29724Y26065
X32974Y23315
X32974Y22565
X33974Y20740
X41099Y20315
X41099Y18690
X8853Y33690
X10353Y32690
X7353Y29440
X8103Y28940
X8103Y25690
X9603Y22440
X11103Y19690
X8353Y18940
X6353Y22190
X18874Y26690
X22074Y28040
X24174Y24840
X20274Y20390
X20274Y19490
X19324Y21110
X25228Y30690
X25728Y30690
X26228Y30690
X26728Y30690
X27228Y30690
X27728Y30690
X28228Y30690
X28728Y30690
X29228Y30690
X29728Y30690
X18603Y34190
T02
X28724Y10502
X28724Y11502
X28724Y12502
X28724Y13502
X28724Y14502
X28724Y15502
X28724Y16502
X28724Y17502
X28724Y18502
X28724Y19502
X28724Y20502
X28724Y21502
X28724Y22502
X28724Y23502
X25724Y23502
X25724Y22502
X25724Y21502
X25724Y20502
X25724Y19502
X25724Y18502
X25724Y17502
X25724Y16502
X25724Y15502
X25724Y14502
X25724Y13502
X25724Y12502
X25724Y11502
X25724Y10502
X7497Y38911
X8497Y38911
X9497Y38911
X10497Y38911
X11497Y38911
X12497Y38911
X13497Y38911
X14497Y38911
X15497Y38911
X16497Y38911
X17497Y38911
X18497Y38911
X19497Y38911
X20497Y38911
X20497Y35911
X19497Y35911
X18497Y35911
X17497Y35911
X16497Y35911
X15497Y35911
X14497Y35911
X13497Y35911
X12497Y35911
X11497Y35911
X10497Y35911
X9497Y35911
X8497Y35911
X7497Y35911
T03
X40399Y7252
X40399Y8252
X40399Y9252
X40399Y10252
X39299Y10252
X39299Y9252
X39299Y8252
X39299Y7252
X39299Y11252
X40399Y11252
X40399Y15690
X39299Y15690
X39299Y16690
X39299Y17690
X39299Y18690
X39299Y19690
X40399Y19690
X40399Y18690
X40399Y17690
X40399Y16690
X40399Y24065
X40399Y25065
X39299Y25065
X39299Y24065
X39299Y26065
X39299Y27065
X39299Y28065
X40399Y28065
X40399Y27065
X40399Y26065
X6868Y42556
X7868Y42556
X8868Y42556
X9868Y42556
X10868Y42556
X11868Y42556
X12868Y42556
X13868Y42556
X14868Y42556
X15868Y42556
X16868Y42556
X17868Y42556
X18868Y42556
X19868Y42556
X20868Y42556
X21868Y42556
X25387Y41445
X26387Y41445
X26387Y40445
X25387Y40445
X27387Y40445
X27387Y41445
X30579Y41905
X32579Y40905
X30579Y39905
X33099Y28815
X33099Y27815
X32099Y27815
X31099Y27815
X31099Y28815
X32099Y28815
X26599Y28815
X26599Y27815
X25599Y27815
X24599Y27815
X24599Y28815
X25599Y28815
X20893Y25207
X19893Y25207
X17804Y25110
X17804Y24110
X17804Y23110
X17804Y22110
X17804Y21110
X16804Y21110
X16804Y22110
X16804Y23110
X16804Y24110
X16804Y25110
X16804Y26110
X17804Y26110
X17804Y27110
X16804Y27110
X16804Y20110
X16804Y19110
X16804Y18110
X16804Y17110
X17804Y17110
X17804Y18110
X17804Y19110
X17804Y20110
X17804Y16110
X17804Y15110
X17804Y14110
X17804Y13110
X16804Y13110
X16804Y14110
X16804Y15110
X16804Y16110
X16804Y12110
X16804Y11110
X16804Y10110
X16804Y9110
X16804Y8110
X17804Y8110
X17804Y9110
X17804Y10110
X17804Y11110
X17804Y12110
X25244Y6429
X26244Y6429
X27244Y6429
X27244Y7429
X26244Y7429
X25244Y7429
T04
X30853Y6440
X30845Y7421
T05
X21524Y6390
X20146Y6390
T06
X36596Y6193
X17304Y6193
X17304Y29028
X36596Y29028
T07
X4703Y42556
X4703Y30351
X34230Y42556
M30
