999
dxflib 3.3.4.0
  0
SECTION
  2
HEADER
  9
$ACADVER
  1
AC1015
  9
$HANDSEED
  5
FFFF
  9
$DIMADEC
 70
0
  9
$DIMASZ
 40
0.18
  9
$DIMAUNIT
 70
0
  9
$DIMAZIN
 70
0
  9
$DIMDEC
 70
4
  9
$DIMEXE
 40
0.18
  9
$DIMEXO
 40
0.0625
  9
$DIMGAP
 40
0.09
  9
$DIMLUNIT
 70
2
  9
$DIMTSZ
 40
0.0
  9
$DIMTXT
 40
0.18
  9
$DIMZIN
 70
0
  9
$DWGCODEPAGE
  3
ANSI_1252
  9
$INSUNITS
 70
0
  9
$LTSCALE
 40
1.0
  0
ENDSEC
  0
SECTION
  2
TABLES
  0
TABLE
  2
VPORT
  5
8
100
AcDbSymbolTable
 70
1
  0
VPORT
  5
30
100
AcDbSymbolTableRecord
100
AcDbViewportTableRecord
  2
*Active
 70
0
 10
0.0
 20
0.0
 11
1.0
 21
1.0
 12
286.30555555555549
 22
148.5
 13
0.0
 23
0.0
 14
10.0
 24
10.0
 15
10.0
 25
10.0
 16
0.0
 26
0.0
 36
1.0
 17
0.0
 27
0.0
 37
0.0
 40
297.0
 41
1.92798353909465
 42
50.0
 43
0.0
 44
0.0
 50
0.0
 51
0.0
 71
0
 72
100
 73
1
 74
3
 75
1
 76
1
 77
0
 78
0
281
0
 65
1
110
0.0
120
0.0
130
0.0
111
1.0
121
0.0
131
0.0
112
0.0
122
1.0
132
0.0
 79
0
146
0.0
  0
ENDTAB
  0
TABLE
  2
LTYPE
  5
5
100
AcDbSymbolTable
 70
21
  0
LTYPE
  5
16
100
AcDbSymbolTableRecord
100
AcDbLinetypeTableRecord
  2
CONTINUOUS
 70
0
  3
Solid line
 72
65
 73
0
 40
0.0
  0
LTYPE
  5
31
100
AcDbSymbolTableRecord
100
AcDbLinetypeTableRecord
  2
CENTER2
 70
0
  3
Center (.5x) ___ _ ___ _ ___ _ ___ _ ___ _ ___
 72
65
 73
4
 40
28.574999999999999
 49
19.050000000000001
 74
0
 49
-3.1749999999999998
 74
0
 49
3.1749999999999998
 74
0
 49
-3.1749999999999998
 74
0
  0
LTYPE
  5
32
100
AcDbSymbolTableRecord
100
AcDbLinetypeTableRecord
  2
DIVIDEX2
 70
0
  3
Divide (2x) ________  .  .  ________  .  .  _
 72
65
 73
6
 40
63.5
 49
25.399999999999999
 74
0
 49
-12.699999999999999
 74
0
 49
0.0
 74
0
 49
-12.699999999999999
 74
0
 49
0.0
 74
0
 49
-12.699999999999999
 74
0
  0
LTYPE
  5
33
100
AcDbSymbolTableRecord
100
AcDbLinetypeTableRecord
  2
DOT2
 70
0
  3
Dot (.5x) .....................................
 72
65
 73
2
 40
3.1749999999999998
 49
0.0
 74
0
 49
-3.1749999999999998
 74
0
  0
LTYPE
  5
34
100
AcDbSymbolTableRecord
100
AcDbLinetypeTableRecord
  2
DASHDOT2
 70
0
  3
Dash dot (.5x) _._._._._._._._._._._._._._._.
 72
65
 73
4
 40
12.699999999999999
 49
6.3499999999999996
 74
0
 49
-3.1749999999999998
 74
0
 49
0.0
 74
0
 49
-3.1749999999999998
 74
0
  0
LTYPE
  5
35
100
AcDbSymbolTableRecord
100
AcDbLinetypeTableRecord
  2
DIVIDE
 70
0
  3
Divide ____ . . ____ . . ____ . . ____ . . ____
 72
65
 73
6
 40
31.75
 49
12.699999999999999
 74
0
 49
-6.3499999999999996
 74
0
 49
0.0
 74
0
 49
-6.3499999999999996
 74
0
 49
0.0
 74
0
 49
-6.3499999999999996
 74
0
  0
LTYPE
  5
36
100
AcDbSymbolTableRecord
100
AcDbLinetypeTableRecord
  2
DASHDOT
 70
0
  3
Dash dot __ . __ . __ . __ . __ . __ . __ . __
 72
65
 73
4
 40
25.399999999999999
 49
12.699999999999999
 74
0
 49
-6.3499999999999996
 74
0
 49
0.0
 74
0
 49
-6.3499999999999996
 74
0
  0
LTYPE
  5
37
100
AcDbSymbolTableRecord
100
AcDbLinetypeTableRecord
  2
BORDER
 70
0
  3
Border __ __ . __ __ . __ __ . __ __ . __ __ .
 72
65
 73
6
 40
44.450000000000003
 49
12.699999999999999
 74
0
 49
-6.3499999999999996
 74
0
 49
12.699999999999999
 74
0
 49
-6.3499999999999996
 74
0
 49
0.0
 74
0
 49
-6.3499999999999996
 74
0
  0
LTYPE
  5
38
100
AcDbSymbolTableRecord
100
AcDbLinetypeTableRecord
  2
DASHDOTX2
 70
0
  3
Dash dot (2x) ____  .  ____  .  ____  .  ___
 72
65
 73
4
 40
50.799999999999997
 49
25.399999999999999
 74
0
 49
-12.699999999999999
 74
0
 49
0.0
 74
0
 49
-12.699999999999999
 74
0
  0
LTYPE
  5
39
100
AcDbSymbolTableRecord
100
AcDbLinetypeTableRecord
  2
CENTERX2
 70
0
  3
Center (2x) ________  __  ________  __  _____
 72
65
 73
4
 40
101.59999999999999
 49
63.5
 74
0
 49
-12.699999999999999
 74
0
 49
12.699999999999999
 74
0
 49
-12.699999999999999
 74
0
  0
LTYPE
  5
3A
100
AcDbSymbolTableRecord
100
AcDbLinetypeTableRecord
  2
BORDER2
 70
0
  3
Border (.5x) __.__.__.__.__.__.__.__.__.__.__.
 72
65
 73
6
 40
22.225000000000001
 49
6.3499999999999996
 74
0
 49
-3.1749999999999998
 74
0
 49
6.3499999999999996
 74
0
 49
-3.1749999999999998
 74
0
 49
0.0
 74
0
 49
-3.1749999999999998
 74
0
  0
LTYPE
  5
3B
100
AcDbSymbolTableRecord
100
AcDbLinetypeTableRecord
  2
BORDERX2
 70
0
  3
Border (2x) ____  ____  .  ____  ____  .  ___
 72
65
 73
6
 40
88.900000000000006
 49
25.399999999999999
 74
0
 49
-12.699999999999999
 74
0
 49
25.399999999999999
 74
0
 49
-12.699999999999999
 74
0
 49
0.0
 74
0
 49
-12.699999999999999
 74
0
  0
LTYPE
  5
14
100
AcDbSymbolTableRecord
100
AcDbLinetypeTableRecord
  2
BYBLOCK
 70
0
  3

 72
65
 73
0
 40
0.0
  0
LTYPE
  5
15
100
AcDbSymbolTableRecord
100
AcDbLinetypeTableRecord
  2
BYLAYER
 70
0
  3

 72
65
 73
0
 40
0.0
  0
LTYPE
  5
3C
100
AcDbSymbolTableRecord
100
AcDbLinetypeTableRecord
  2
DASHED2
 70
0
  3
Dashed (.5x) _ _ _ _ _ _ _ _ _ _ _ _ _ _ _ _ _
 72
65
 73
2
 40
9.5250000000000004
 49
6.3499999999999996
 74
0
 49
-3.1749999999999998
 74
0
  0
LTYPE
  5
3D
100
AcDbSymbolTableRecord
100
AcDbLinetypeTableRecord
  2
CENTER
 70
0
  3
Center ____ _ ____ _ ____ _ ____ _ ____ _ ____
 72
65
 73
4
 40
50.799999999999997
 49
31.75
 74
0
 49
-6.3499999999999996
 74
0
 49
6.3499999999999996
 74
0
 49
-6.3499999999999996
 74
0
  0
LTYPE
  5
3E
100
AcDbSymbolTableRecord
100
AcDbLinetypeTableRecord
  2
DIVIDE2
 70
0
  3
Divide (.5x) __..__..__..__..__..__..__..__.._
 72
65
 73
6
 40
15.875
 49
6.3499999999999996
 74
0
 49
-3.1749999999999998
 74
0
 49
0.0
 74
0
 49
-3.1749999999999998
 74
0
 49
0.0
 74
0
 49
-3.1749999999999998
 74
0
  0
LTYPE
  5
3F
100
AcDbSymbolTableRecord
100
AcDbLinetypeTableRecord
  2
DASHED
 70
0
  3
Dashed __ __ __ __ __ __ __ __ __ __ __ __ __ _
 72
65
 73
2
 40
19.050000000000001
 49
12.699999999999999
 74
0
 49
-6.3499999999999996
 74
0
  0
LTYPE
  5
40
100
AcDbSymbolTableRecord
100
AcDbLinetypeTableRecord
  2
DOTX2
 70
0
  3
Dot (2x) .  .  .  .  .  .  .  .  .  .  .  .  .
 72
65
 73
2
 40
12.699999999999999
 49
0.0
 74
0
 49
-12.699999999999999
 74
0
  0
LTYPE
  5
41
100
AcDbSymbolTableRecord
100
AcDbLinetypeTableRecord
  2
DASHEDX2
 70
0
  3
Dashed (2x) ____  ____  ____  ____  ____  ___
 72
65
 73
2
 40
38.100000000000001
 49
25.399999999999999
 74
0
 49
-12.699999999999999
 74
0
  0
LTYPE
  5
42
100
AcDbSymbolTableRecord
100
AcDbLinetypeTableRecord
  2
DOT
 70
0
  3
Dot . . . . . . . . . . . . . . . . . . . . . .
 72
65
 73
2
 40
6.3499999999999996
 49
0.0
 74
0
 49
-6.3499999999999996
 74
0
  0
ENDTAB
  0
TABLE
  2
LAYER
  5
2
100
AcDbSymbolTable
 70
2
  0
LAYER
  5
43
100
AcDbSymbolTableRecord
100
AcDbLayerTableRecord
  2
Layer0
 70
0
 62
7
  6
BYLAYER
370
5
390
F
  0
LAYER
  5
10
100
AcDbSymbolTableRecord
100
AcDbLayerTableRecord
  2
0
 70
0
 62
7
420
16777215
  6
CONTINUOUS
370
25
390
F
  0
ENDTAB
  0
TABLE
  2
STYLE
  5
3
100
AcDbSymbolTable
 70
8
  0
STYLE
  5
44
100
AcDbSymbolTableRecord
100
AcDbTextStyleTableRecord
  2
Standard
 70
0
 40
0.0
 41
1.0
 50
0.0
 71
0
 42
2.5
  3

  4

1001
ACAD
1000
txt
1071
0
  0
STYLE
  5
45
100
AcDbSymbolTableRecord
100
AcDbTextStyleTableRecord
  2
textstyle0
 70
0
 40
0.0
 41
1.0
 50
0.0
 71
0
 42
20.0
  3

  4

1001
ACAD
1000
Standard
1071
0
  0
STYLE
  5
46
100
AcDbSymbolTableRecord
100
AcDbTextStyleTableRecord
  2
textstyle1
 70
0
 40
0.0
 41
1.0
 50
0.0
 71
0
 42
20.0
  3

  4

1001
ACAD
1000
Standard
1071
0
  0
STYLE
  5
47
100
AcDbSymbolTableRecord
100
AcDbTextStyleTableRecord
  2
textstyle2
 70
0
 40
0.0
 41
1.0
 50
0.0
 71
0
 42
20.0
  3

  4

1001
ACAD
1000
Standard
1071
0
  0
STYLE
  5
48
100
AcDbSymbolTableRecord
100
AcDbTextStyleTableRecord
  2
textstyle3
 70
0
 40
0.0
 41
1.0
 50
0.0
 71
0
 42
20.0
  3

  4

1001
ACAD
1000
Standard
1071
0
  0
STYLE
  5
49
100
AcDbSymbolTableRecord
100
AcDbTextStyleTableRecord
  2
textstyle4
 70
0
 40
0.0
 41
1.0
 50
0.0
 71
0
 42
20.0
  3

  4

1001
ACAD
1000
Standard
1071
0
  0
STYLE
  5
4A
100
AcDbSymbolTableRecord
100
AcDbTextStyleTableRecord
  2
textstyle5
 70
0
 40
0.0
 41
1.0
 50
0.0
 71
0
 42
20.0
  3

  4

1001
ACAD
1000
Standard
1071
0
  0
STYLE
  5
4B
100
AcDbSymbolTableRecord
100
AcDbTextStyleTableRecord
  2
textstyle6
 70
0
 40
0.0
 41
1.0
 50
0.0
 71
0
 42
20.0
  3

  4

1001
ACAD
1000
Standard
1071
0
  0
ENDTAB
  0
TABLE
  2
VIEW
  5
6
100
AcDbSymbolTable
 70
0
  0
ENDTAB
  0
TABLE
  2
UCS
  5
7
100
AcDbSymbolTable
 70
0
  0
ENDTAB
  0
TABLE
  2
APPID
  5
9
100
AcDbSymbolTable
 70
1
  0
APPID
  5
12
100
AcDbSymbolTableRecord
100
AcDbRegAppTableRecord
  2
ACAD
 70
0
  0
APPID
  5
4C
100
AcDbSymbolTableRecord
100
AcDbRegAppTableRecord
  2
QCAD
 70
0
  0
ENDTAB
  0
TABLE
  2
DIMSTYLE
  5
A
100
AcDbSymbolTable
 70
1
100
AcDbDimStyleTable
 71
0
  0
DIMSTYLE
105
27
100
AcDbSymbolTableRecord
100
AcDbDimStyleTableRecord
  2
Standard
 41
0.18
 42
0.0625
 43
3.75
 44
0.18
 70
0
 73
0
 74
0
 77
1
 78
8
140
0.18
141
2.5
143
0.03937007874016
147
0.09
171
3
172
1
271
2
272
2
274
3
278
44
283
0
284
8
340
44
  0
ENDTAB
  0
TABLE
  2
BLOCK_RECORD
  5
1
100
AcDbSymbolTable
 70
1
  0
BLOCK_RECORD
  5
1F
100
AcDbSymbolTableRecord
100
AcDbBlockTableRecord
  2
*Model_Space
340
22
  0
BLOCK_RECORD
  5
1B
100
AcDbSymbolTableRecord
100
AcDbBlockTableRecord
  2
*Paper_Space
340
1E
  0
BLOCK_RECORD
  5
23
100
AcDbSymbolTableRecord
100
AcDbBlockTableRecord
  2
*Paper_Space0
340
26
  0
ENDTAB
  0
ENDSEC
  0
SECTION
  2
BLOCKS
  0
BLOCK
  5
20
100
AcDbEntity
  8
0
100
AcDbBlockBegin
  2
*Model_Space
 70
0
 10
0.0
 20
0.0
 30
0.0
  3
*Model_Space
  1

  0
ENDBLK
  5
21
100
AcDbEntity
  8
0
100
AcDbBlockEnd
  0
BLOCK
  5
1C
100
AcDbEntity
 67
1
  8
0
100
AcDbBlockBegin
  2
*Paper_Space
 70
0
 10
0.0
 20
0.0
 30
0.0
  3
*Paper_Space
  1

  0
ENDBLK
  5
1D
100
AcDbEntity
 67
1
  8
0
100
AcDbBlockEnd
  0
BLOCK
  5
24
100
AcDbEntity
  8
0
100
AcDbBlockBegin
  2
*Paper_Space0
 70
0
 10
0.0
 20
0.0
 30
0.0
  3
*Paper_Space0
  1

  0
ENDBLK
  5
25
100
AcDbEntity
  8
0
100
AcDbBlockEnd
  0
ENDSEC
  0
SECTION
  2
ENTITIES
  0
LINE
  5
4D
100
AcDbEntity
100
AcDbLine
  8
Layer0
 62
256
370
-1
  6
BYLAYER
 10
94.063492852851795
 20
74.833922921484202
 30
0.0
 11
92.063492852851795
 21
74.833922921484202
 31
0.0
  0
LINE
  5
4E
100
AcDbEntity
100
AcDbLine
  8
Layer0
 62
256
370
-1
  6
BYLAYER
 10
282.06349285285199
 20
74.833922921484202
 30
0.0
 11
282.06349285285199
 21
114.833914078737
 31
0.0
  0
LINE
  5
4F
100
AcDbEntity
100
AcDbLine
  8
Layer0
 62
256
370
-1
  6
BYLAYER
 10
94.063492852851795
 20
114.833914078737
 30
0.0
 11
92.063492852851795
 21
114.833914078737
 31
0.0
  0
LINE
  5
50
100
AcDbEntity
100
AcDbLine
  8
Layer0
 62
256
370
-1
  6
BYLAYER
 10
303.26348961857701
 20
75.833922921484302
 30
0.0
 11
303.26348961857701
 21
114.833914078737
 31
0.0
  0
LINE
  5
51
100
AcDbEntity
100
AcDbLine
  8
Layer0
 62
256
370
-1
  6
BYLAYER
 10
111.263489618577
 20
114.833914078737
 30
0.0
 11
113.263489618577
 21
114.833914078737
 31
0.0
  0
LINE
  5
52
100
AcDbEntity
100
AcDbLine
  8
Layer0
 62
256
370
-1
  6
BYLAYER
 10
282.06349285285199
 20
114.833914078737
 30
0.0
 11
282.06349285285199
 21
116.833914078737
 31
0.0
  0
LINE
  5
53
100
AcDbEntity
100
AcDbLine
  8
Layer0
 62
256
370
-1
  6
BYLAYER
 10
113.263489618577
 20
74.833922921484202
 30
0.0
 11
113.263489618577
 21
75.833922921484202
 31
0.0
  0
LINE
  5
54
100
AcDbEntity
100
AcDbLine
  8
Layer0
 62
256
370
-1
  6
BYLAYER
 10
303.363492852852
 20
116.833914078737
 30
0.0
 11
303.26348961857701
 21
114.833914078737
 31
0.0
  0
LINE
  5
55
100
AcDbEntity
100
AcDbLine
  8
Layer0
 62
256
370
-1
  6
BYLAYER
 10
92.063492852851795
 20
74.833922921484202
 30
0.0
 11
92.063492852851795
 21
114.833914078737
 31
0.0
  0
LINE
  5
56
100
AcDbEntity
100
AcDbLine
  8
Layer0
 62
256
370
-1
  6
BYLAYER
 10
282.06349285285199
 20
116.833914078737
 30
0.0
 11
303.363492852852
 21
116.833914078737
 31
0.0
  0
LINE
  5
57
100
AcDbEntity
100
AcDbLine
  8
Layer0
 62
256
370
-1
  6
BYLAYER
 10
282.06349285285199
 20
72.833922921484202
 30
0.0
 11
282.06349285285199
 21
74.833922921484202
 31
0.0
  0
LINE
  5
58
100
AcDbEntity
100
AcDbLine
  8
Layer0
 62
256
370
-1
  6
BYLAYER
 10
111.263489618577
 20
74.833922921484202
 30
0.0
 11
113.263489618577
 21
74.833922921484202
 31
0.0
  0
LINE
  5
59
100
AcDbEntity
100
AcDbLine
  8
Layer0
 62
256
370
-1
  6
BYLAYER
 10
113.263489618577
 20
75.833922921484202
 30
0.0
 11
113.263489618577
 21
114.833914078737
 31
0.0
  0
LINE
  5
5A
100
AcDbEntity
100
AcDbLine
  8
Layer0
 62
256
370
-1
  6
BYLAYER
 10
303.26348961857701
 20
74.833922921484202
 30
0.0
 11
303.26348961857701
 21
72.833922921484202
 31
0.0
  0
LINE
  5
5B
100
AcDbEntity
100
AcDbLine
  8
Layer0
 62
256
370
-1
  6
BYLAYER
 10
303.26348961857701
 20
72.833922921484202
 30
0.0
 11
282.06349285285199
 21
72.833922921484202
 31
0.0
  0
LINE
  5
5C
100
AcDbEntity
100
AcDbLine
  8
Layer0
 62
256
370
-1
  6
BYLAYER
 10
239.66350362756299
 20
32.1580453952974
 30
0.0
 11
345.66347884386602
 21
32.1580453952974
 31
0.0
  0
LINE
  5
5D
100
AcDbEntity
100
AcDbLine
  8
Layer0
 62
256
370
-1
  6
BYLAYER
 10
137.663483614726
 20
117.13390922074601
 30
0.0
 11
137.663483614726
 21
142.13390922074601
 31
0.0
  0
LINE
  5
5E
100
AcDbEntity
100
AcDbLine
  8
Layer0
 62
256
370
-1
  6
BYLAYER
 10
202.69877754989699
 20
39.675679644038503
 30
0.0
 11
202.49897670488801
 21
40.158041553833399
 31
0.0
  0
LINE
  5
5F
100
AcDbEntity
100
AcDbLine
  8
Layer0
 62
256
370
-1
  6
BYLAYER
 10
67.663498856702901
 20
117.13390922074601
 30
0.0
 11
67.663498856702901
 21
142.33390922074599
 31
0.0
  0
LINE
  5
60
100
AcDbEntity
100
AcDbLine
  8
Layer0
 62
256
370
-1
  6
BYLAYER
 10
57.663499437575503
 20
117.13390922074601
 30
0.0
 11
67.663498856702901
 21
117.13390922074601
 31
0.0
  0
LINE
  5
61
100
AcDbEntity
100
AcDbLine
  8
Layer0
 62
256
370
-1
  6
BYLAYER
 10
179.87034805090099
 20
39.158041553833399
 30
0.0
 11
179.802199703479
 21
39.675679644038503
 31
0.0
  0
LINE
  5
62
100
AcDbEntity
100
AcDbLine
  8
Layer0
 62
256
370
-1
  6
BYLAYER
 10
409.38848607310598
 20
38.640403463628402
 30
0.0
 11
409.45663442052802
 21
39.158041553833399
 31
0.0
  0
LINE
  5
63
100
AcDbEntity
100
AcDbLine
  8
Layer0
 62
256
370
-1
  6
BYLAYER
 10
147.663483033853
 20
86.333921380245599
 30
0.0
 11
147.663483033853
 21
61.333921380245599
 31
0.0
  0
LINE
  5
64
100
AcDbEntity
100
AcDbLine
  8
Layer0
 62
256
370
-1
  6
BYLAYER
 10
137.663483614726
 20
117.13390922074601
 30
0.0
 11
147.663483033853
 21
117.13390922074601
 31
0.0
  0
LINE
  5
65
100
AcDbEntity
100
AcDbLine
  8
Layer0
 62
256
370
-1
  6
BYLAYER
 10
347.66347872769097
 20
46.158041553833399
 30
0.0
 11
348.66347872769097
 21
46.158041553833399
 31
0.0
  0
LINE
  5
66
100
AcDbEntity
100
AcDbLine
  8
Layer0
 62
256
370
-1
  6
BYLAYER
 10
147.663483033853
 20
86.333921380245599
 30
0.0
 11
137.663483614726
 21
86.333921380245599
 31
0.0
  0
LINE
  5
67
100
AcDbEntity
100
AcDbLine
  8
Layer0
 62
256
370
-1
  6
BYLAYER
 10
237.663503743738
 20
152.83390721480899
 30
0.0
 11
236.663503743738
 21
152.83390721480899
 31
0.0
  0
LINE
  5
68
100
AcDbEntity
100
AcDbLine
  8
Layer0
 62
256
370
-1
  6
BYLAYER
 10
239.66350362756299
 20
44.1580453952974
 30
0.0
 11
239.66350362756299
 21
32.1580453952974
 31
0.0
  0
LINE
  5
69
100
AcDbEntity
100
AcDbLine
  8
Layer0
 62
256
370
-1
  6
BYLAYER
 10
237.663503743738
 20
46.158041553833399
 30
0.0
 11
236.663503743738
 21
46.158041553833399
 31
0.0
  0
LINE
  5
6A
100
AcDbEntity
100
AcDbLine
  8
Layer0
 62
256
370
-1
  6
BYLAYER
 10
57.663499437575503
 20
86.333921380245599
 30
0.0
 11
57.663499437575503
 21
61.333921380245599
 31
0.0
  0
LINE
  5
6B
100
AcDbEntity
100
AcDbLine
  8
Layer0
 62
256
370
-1
  6
BYLAYER
 10
67.663498856702901
 20
86.333921380245599
 30
0.0
 11
57.663499437575503
 21
86.333921380245599
 31
0.0
  0
LINE
  5
6C
100
AcDbEntity
100
AcDbLine
  8
Layer0
 62
256
370
-1
  6
BYLAYER
 10
347.66347872769097
 20
152.83390721480899
 30
0.0
 11
348.66347872769097
 21
152.83390721480899
 31
0.0
  0
LINE
  5
6D
100
AcDbEntity
100
AcDbLine
  8
Layer0
 62
256
370
-1
  6
BYLAYER
 10
345.66347884386602
 20
44.1580453952974
 30
0.0
 11
345.66347884386602
 21
32.1580453952974
 31
0.0
  0
LINE
  5
6E
100
AcDbEntity
100
AcDbLine
  8
Layer0
 62
256
370
-1
  6
BYLAYER
 10
163.663503743738
 20
36.158041553833399
 30
0.0
 11
165.663503743738
 21
34.158041553833399
 31
0.0
  0
LINE
  5
6F
100
AcDbEntity
100
AcDbLine
  8
Layer0
 62
256
370
-1
  6
BYLAYER
 10
419.66347872769097
 20
34.158041553833399
 30
0.0
 11
361.66347872769097
 21
34.158041553833399
 31
0.0
  0
LINE
  5
70
100
AcDbEntity
100
AcDbLine
  8
Layer0
 62
256
370
-1
  6
BYLAYER
 10
421.66347872769097
 20
36.158041553833399
 30
0.0
 11
419.66347872769097
 21
34.158041553833399
 31
0.0
  0
LINE
  5
71
100
AcDbEntity
100
AcDbLine
  8
Layer0
 62
256
370
-1
  6
BYLAYER
 10
348.66347872769097
 20
46.158041553833399
 30
0.0
 11
361.66347872769097
 21
46.158041553833399
 31
0.0
  0
LINE
  5
72
100
AcDbEntity
100
AcDbLine
  8
Layer0
 62
256
370
-1
  6
BYLAYER
 10
236.663503743738
 20
46.158041553833399
 30
0.0
 11
223.663503743738
 21
46.158041553833399
 31
0.0
  0
LINE
  5
73
100
AcDbEntity
100
AcDbLine
  8
Layer0
 62
256
370
-1
  6
BYLAYER
 10
290.78164120027401
 20
37.675683485502503
 30
0.0
 11
290.71349285285203
 21
37.1580453952974
 31
0.0
  0
LINE
  5
74
100
AcDbEntity
100
AcDbLine
  8
Layer0
 62
256
370
-1
  6
BYLAYER
 10
327.66348361472598
 20
117.13390922074601
 30
0.0
 11
337.66348303385303
 21
117.13390922074601
 31
0.0
  0
LINE
  5
75
100
AcDbEntity
100
AcDbLine
  8
Layer0
 62
256
370
-1
  6
BYLAYER
 10
337.66348303385303
 20
86.333921380245599
 30
0.0
 11
337.66348303385303
 21
61.333921380245599
 31
0.0
  0
LINE
  5
76
100
AcDbEntity
100
AcDbLine
  8
Layer0
 62
256
370
-1
  6
BYLAYER
 10
348.66347872769097
 20
152.83390721480899
 30
0.0
 11
361.66347872769097
 21
152.83390721480899
 31
0.0
  0
LINE
  5
77
100
AcDbEntity
100
AcDbLine
  8
Layer0
 62
256
370
-1
  6
BYLAYER
 10
236.663503743738
 20
152.83390721480899
 30
0.0
 11
223.663503743738
 21
152.83390721480899
 31
0.0
  0
LINE
  5
78
100
AcDbEntity
100
AcDbLine
  8
Layer0
 62
256
370
-1
  6
BYLAYER
 10
109.263489618577
 20
99.833914078737095
 30
0.0
 11
96.063492852851795
 21
99.833914078737095
 31
0.0
  0
LINE
  5
79
100
AcDbEntity
100
AcDbLine
  8
Layer0
 62
256
370
-1
  6
BYLAYER
 10
421.66347872769097
 20
45.158041553833399
 30
0.0
 11
421.66347872769097
 21
58.158041553833399
 31
0.0
  0
LINE
  5
7A
100
AcDbEntity
100
AcDbLine
  8
Layer0
 62
256
370
-1
  6
BYLAYER
 10
163.663503743738
 20
45.158041553833399
 30
0.0
 11
163.663503743738
 21
58.158041553833399
 31
0.0
  0
LINE
  5
7B
100
AcDbEntity
100
AcDbLine
  8
Layer0
 62
256
370
-1
  6
BYLAYER
 10
421.66347872769097
 20
58.158041553833399
 30
0.0
 11
361.66347872769097
 21
152.83390721480899
 31
0.0
  0
LINE
  5
7C
100
AcDbEntity
100
AcDbLine
  8
Layer0
 62
256
370
-1
  6
BYLAYER
 10
223.663503743738
 20
152.83390721480899
 30
0.0
 11
163.663503743738
 21
58.158041553833399
 31
0.0
  0
LINE
  5
7D
100
AcDbEntity
100
AcDbLine
  8
Layer0
 62
256
370
-1
  6
BYLAYER
 10
163.663503743738
 20
45.158041553833399
 30
0.0
 11
163.663503743738
 21
36.158041553833399
 31
0.0
  0
LINE
  5
7E
100
AcDbEntity
100
AcDbLine
  8
Layer0
 62
256
370
-1
  6
BYLAYER
 10
361.66347872769097
 20
46.158041553833399
 30
0.0
 11
361.66347872769097
 21
45.158041553833399
 31
0.0
  0
LINE
  5
7F
100
AcDbEntity
100
AcDbLine
  8
Layer0
 62
256
370
-1
  6
BYLAYER
 10
361.66347872769097
 20
45.158041553833399
 30
0.0
 11
361.66347872769097
 21
34.158041553833399
 31
0.0
  0
LINE
  5
80
100
AcDbEntity
100
AcDbLine
  8
Layer0
 62
256
370
-1
  6
BYLAYER
 10
223.663503743738
 20
46.158041553833399
 30
0.0
 11
223.663503743738
 21
45.158041553833399
 31
0.0
  0
LINE
  5
81
100
AcDbEntity
100
AcDbLine
  8
Layer0
 62
256
370
-1
  6
BYLAYER
 10
421.66347872769097
 20
45.158041553833399
 30
0.0
 11
421.66347872769097
 21
36.158041553833399
 31
0.0
  0
LINE
  5
82
100
AcDbEntity
100
AcDbLine
  8
Layer0
 62
256
370
-1
  6
BYLAYER
 10
177.87034805090099
 20
58.158041553833399
 30
0.0
 11
223.663503743738
 21
58.158041553833399
 31
0.0
  0
LINE
  5
83
100
AcDbEntity
100
AcDbLine
  8
Layer0
 62
256
370
-1
  6
BYLAYER
 10
223.663503743738
 20
45.158041553833399
 30
0.0
 11
223.663503743738
 21
34.158041553833399
 31
0.0
  0
LINE
  5
84
100
AcDbEntity
100
AcDbLine
  8
Layer0
 62
256
370
-1
  6
BYLAYER
 10
253.18113723734399
 20
35.226193742719303
 30
0.0
 11
253.66349914713899
 21
35.425994587728603
 31
0.0
  0
LINE
  5
85
100
AcDbEntity
100
AcDbLine
  8
Layer0
 62
256
370
-1
  6
BYLAYER
 10
94.063492852851795
 20
101.833914078737
 30
0.0
 11
96.063492852851795
 21
99.833914078737095
 31
0.0
  0
LINE
  5
86
100
AcDbEntity
100
AcDbLine
  8
Layer0
 62
256
370
-1
  6
BYLAYER
 10
247.66349943757601
 20
117.13390922074601
 30
0.0
 11
257.66349885670297
 21
117.13390922074601
 31
0.0
  0
LINE
  5
87
100
AcDbEntity
100
AcDbLine
  8
Layer0
 62
256
370
-1
  6
BYLAYER
 10
111.263489618577
 20
101.833914078737
 30
0.0
 11
111.263489618577
 21
114.833914078737
 31
0.0
  0
LINE
  5
88
100
AcDbEntity
100
AcDbLine
  8
Layer0
 62
256
370
-1
  6
BYLAYER
 10
109.263489618577
 20
99.833914078737095
 30
0.0
 11
111.263489618577
 21
101.833914078737
 31
0.0
  0
LINE
  5
89
100
AcDbEntity
100
AcDbLine
  8
Layer0
 62
256
370
-1
  6
BYLAYER
 10
94.063492852851795
 20
87.833922921484202
 30
0.0
 11
94.063492852851795
 21
74.833922921484202
 31
0.0
  0
LINE
  5
8A
100
AcDbEntity
100
AcDbLine
  8
Layer0
 62
256
370
-1
  6
BYLAYER
 10
291.29927929047898
 20
38.572258957670499
 30
0.0
 11
290.98144204528302
 21
38.1580453952974
 31
0.0
  0
LINE
  5
8B
100
AcDbEntity
100
AcDbLine
  8
Layer0
 62
256
370
-1
  6
BYLAYER
 10
109.263489618577
 20
89.833922921484202
 30
0.0
 11
111.263489618577
 21
87.833922921484202
 31
0.0
  0
LINE
  5
8C
100
AcDbEntity
100
AcDbLine
  8
Layer0
 62
256
370
-1
  6
BYLAYER
 10
257.66349885670297
 20
117.13390922074601
 30
0.0
 11
257.66349885670297
 21
142.33390922074599
 31
0.0
  0
LINE
  5
8D
100
AcDbEntity
100
AcDbLine
  8
Layer0
 62
256
370
-1
  6
BYLAYER
 10
98.316825017413706
 20
115.998599781698
 30
0.0
 11
98.7663769186845
 21
117.083914078737
 31
0.0
  0
LINE
  5
8E
100
AcDbEntity
100
AcDbLine
  8
Layer0
 62
256
370
-1
  6
BYLAYER
 10
96.063492852851795
 20
89.833922921484202
 30
0.0
 11
109.263489618577
 21
89.833922921484202
 31
0.0
  0
LINE
  5
8F
100
AcDbEntity
100
AcDbLine
  8
Layer0
 62
256
370
-1
  6
BYLAYER
 10
94.063492852851795
 20
87.833922921484202
 30
0.0
 11
96.063492852851795
 21
89.833922921484202
 31
0.0
  0
LINE
  5
90
100
AcDbEntity
100
AcDbLine
  8
Layer0
 62
256
370
-1
  6
BYLAYER
 10
290.98144204528302
 20
36.1580453952974
 30
0.0
 11
291.29927929047898
 21
35.7438318329244
 31
0.0
  0
LINE
  5
91
100
AcDbEntity
100
AcDbLine
  8
Layer0
 62
256
370
-1
  6
BYLAYER
 10
290.78164120027401
 20
36.640407305092403
 30
0.0
 11
290.98144204528302
 21
36.1580453952974
 31
0.0
  0
LINE
  5
92
100
AcDbEntity
100
AcDbLine
  8
Layer0
 62
256
370
-1
  6
BYLAYER
 10
98.163491235714503
 20
114.833914078737
 30
0.0
 11
98.316825017413706
 21
115.998599781698
 31
0.0
  0
LINE
  5
93
100
AcDbEntity
100
AcDbLine
  8
Layer0
 62
256
370
-1
  6
BYLAYER
 10
98.7663769186845
 20
117.083914078737
 30
0.0
 11
99.481510720374999
 21
118.015894594077
 31
0.0
  0
LINE
  5
94
100
AcDbEntity
100
AcDbLine
  8
Layer0
 62
256
370
-1
  6
BYLAYER
 10
98.316825017413706
 20
73.669237218522895
 30
0.0
 11
98.7663769186845
 21
72.583922921484202
 31
0.0
  0
LINE
  5
95
100
AcDbEntity
100
AcDbLine
  8
Layer0
 62
256
370
-1
  6
BYLAYER
 10
290.98144204528302
 20
38.1580453952974
 30
0.0
 11
290.78164120027401
 21
37.675683485502503
 31
0.0
  0
LINE
  5
96
100
AcDbEntity
100
AcDbLine
  8
Layer0
 62
256
370
-1
  6
BYLAYER
 10
290.71349285285203
 20
37.1580453952974
 30
0.0
 11
290.78164120027401
 21
36.640407305092403
 31
0.0
  0
LINE
  5
97
100
AcDbEntity
100
AcDbLine
  8
Layer0
 62
256
370
-1
  6
BYLAYER
 10
98.163491235714503
 20
74.833922921484202
 30
0.0
 11
98.316825017413706
 21
73.669237218522895
 31
0.0
  0
LINE
  5
98
100
AcDbEntity
100
AcDbLine
  8
Layer0
 62
256
370
-1
  6
BYLAYER
 10
361.66347872769097
 20
58.158041553833399
 30
0.0
 11
361.66347872769097
 21
130.41648582995299
 31
0.0
  0
LINE
  5
99
100
AcDbEntity
100
AcDbLine
  8
Layer0
 62
256
370
-1
  6
BYLAYER
 10
361.66347872769097
 20
130.41648582995299
 30
0.0
 11
407.45663442052802
 21
58.158041553833399
 31
0.0
  0
LINE
  5
9A
100
AcDbEntity
100
AcDbLine
  8
Layer0
 62
256
370
-1
  6
BYLAYER
 10
407.45663442052802
 20
58.158041553833399
 30
0.0
 11
361.66347872769097
 21
58.158041553833399
 31
0.0
  0
LINE
  5
9B
100
AcDbEntity
100
AcDbLine
  8
Layer0
 62
256
370
-1
  6
BYLAYER
 10
223.663503743738
 20
58.158041553833399
 30
0.0
 11
223.663503743738
 21
130.41648582995299
 31
0.0
  0
LINE
  5
9C
100
AcDbEntity
100
AcDbLine
  8
Layer0
 62
256
370
-1
  6
BYLAYER
 10
223.663503743738
 20
130.41648582995299
 30
0.0
 11
177.87034805090099
 21
58.158041553833399
 31
0.0
  0
LINE
  5
9D
100
AcDbEntity
100
AcDbLine
  8
Layer0
 62
256
370
-1
  6
BYLAYER
 10
292.71349285285203
 20
39.1580453952974
 30
0.0
 11
292.195854762647
 21
39.089897047875603
 31
0.0
  0
LINE
  5
9E
100
AcDbEntity
100
AcDbLine
  8
Layer0
 62
256
370
-1
  6
BYLAYER
 10
99.481510720374999
 20
118.015894594077
 30
0.0
 11
100.41349123571401
 21
118.731028395767
 31
0.0
  0
LINE
  5
9F
100
AcDbEntity
100
AcDbLine
  8
Layer0
 62
256
370
-1
  6
BYLAYER
 10
291.71349285285203
 20
38.890096202866303
 30
0.0
 11
291.29927929047898
 21
38.572258957670499
 31
0.0
  0
LINE
  5
A0
100
AcDbEntity
100
AcDbLine
  8
Layer0
 62
256
370
-1
  6
BYLAYER
 10
100.41349123571401
 20
118.731028395767
 30
0.0
 11
101.498805532753
 21
119.18058029703801
 31
0.0
  0
LINE
  5
A1
100
AcDbEntity
100
AcDbLine
  8
Layer0
 62
256
370
-1
  6
BYLAYER
 10
101.498805532753
 20
119.18058029703801
 30
0.0
 11
102.66349123571401
 21
119.333914078737
 31
0.0
  0
LINE
  5
A2
100
AcDbEntity
100
AcDbLine
  8
Layer0
 62
256
370
-1
  6
BYLAYER
 10
292.195854762647
 20
39.089897047875603
 30
0.0
 11
291.71349285285203
 21
38.890096202866303
 31
0.0
  0
LINE
  5
A3
100
AcDbEntity
100
AcDbLine
  8
Layer0
 62
256
370
-1
  6
BYLAYER
 10
102.66349123571401
 20
119.333914078737
 30
0.0
 11
103.82817693867599
 21
119.18058029703801
 31
0.0
  0
LINE
  5
A4
100
AcDbEntity
100
AcDbLine
  8
Layer0
 62
256
370
-1
  6
BYLAYER
 10
103.82817693867599
 20
119.18058029703801
 30
0.0
 11
104.91349123571401
 21
118.731028395767
 31
0.0
  0
LINE
  5
A5
100
AcDbEntity
100
AcDbLine
  8
Layer0
 62
256
370
-1
  6
BYLAYER
 10
104.91349123571401
 20
118.731028395767
 30
0.0
 11
105.84547175105401
 21
118.015894594077
 31
0.0
  0
LINE
  5
A6
100
AcDbEntity
100
AcDbLine
  8
Layer0
 62
256
370
-1
  6
BYLAYER
 10
105.84547175105401
 20
118.015894594077
 30
0.0
 11
106.56060555274399
 21
117.083914078737
 31
0.0
  0
LINE
  5
A7
100
AcDbEntity
100
AcDbLine
  8
Layer0
 62
256
370
-1
  6
BYLAYER
 10
106.56060555274399
 20
117.083914078737
 30
0.0
 11
107.010157454015
 21
115.998599781698
 31
0.0
  0
LINE
  5
A8
100
AcDbEntity
100
AcDbLine
  8
Layer0
 62
256
370
-1
  6
BYLAYER
 10
107.010157454015
 20
115.998599781698
 30
0.0
 11
107.16349123571401
 21
114.833914078737
 31
0.0
  0
LINE
  5
A9
100
AcDbEntity
100
AcDbLine
  8
Layer0
 62
256
370
-1
  6
BYLAYER
 10
294.44554366042098
 20
38.1580453952974
 30
0.0
 11
294.12770641522502
 21
38.572258957670499
 31
0.0
  0
LINE
  5
AA
100
AcDbEntity
100
AcDbLine
  8
Layer0
 62
256
370
-1
  6
BYLAYER
 10
98.163491235714503
 20
105.833914078737
 30
0.0
 11
98.422271157715002
 21
104.770084515683
 31
0.0
  0
LINE
  5
AB
100
AcDbEntity
100
AcDbLine
  8
Layer0
 62
256
370
-1
  6
BYLAYER
 10
98.422271157715002
 20
104.770084515683
 30
0.0
 11
98.928659498338604
 21
103.799377950474
 31
0.0
  0
LINE
  5
AC
100
AcDbEntity
100
AcDbLine
  8
Layer0
 62
256
370
-1
  6
BYLAYER
 10
334.66348332428998
 20
37.1580453952974
 30
0.0
 11
334.595334976868
 21
37.675683485502503
 31
0.0
  0
LINE
  5
AD
100
AcDbEntity
100
AcDbLine
  8
Layer0
 62
256
370
-1
  6
BYLAYER
 10
98.7663769186845
 20
72.583922921484202
 30
0.0
 11
99.481510720374999
 21
71.651942406144798
 31
0.0
  0
LINE
  5
AE
100
AcDbEntity
100
AcDbLine
  8
Layer0
 62
256
370
-1
  6
BYLAYER
 10
293.231130943057
 20
39.089897047875603
 30
0.0
 11
292.71349285285203
 21
39.1580453952974
 31
0.0
  0
LINE
  5
AF
100
AcDbEntity
100
AcDbLine
  8
Layer0
 62
256
370
-1
  6
BYLAYER
 10
99.481510720374999
 20
71.651942406144798
 30
0.0
 11
100.41349123571401
 21
70.936808604454299
 31
0.0
  0
LINE
  5
B0
100
AcDbEntity
100
AcDbLine
  8
Layer0
 62
256
370
-1
  6
BYLAYER
 10
100.41349123571401
 20
70.936808604454299
 30
0.0
 11
101.498805532753
 21
70.487256703183405
 31
0.0
  0
LINE
  5
B1
100
AcDbEntity
100
AcDbLine
  8
Layer0
 62
256
370
-1
  6
BYLAYER
 10
293.71349285285203
 20
38.890096202866303
 30
0.0
 11
293.231130943057
 21
39.089897047875603
 31
0.0
  0
LINE
  5
B2
100
AcDbEntity
100
AcDbLine
  8
Layer0
 62
256
370
-1
  6
BYLAYER
 10
101.498805532753
 20
70.487256703183405
 30
0.0
 11
102.66349123571401
 21
70.333922921484202
 31
0.0
  0
LINE
  5
B3
100
AcDbEntity
100
AcDbLine
  8
Layer0
 62
256
370
-1
  6
BYLAYER
 10
102.66349123571401
 20
70.333922921484202
 30
0.0
 11
103.82817693867599
 21
70.487256703183405
 31
0.0
  0
LINE
  5
B4
100
AcDbEntity
100
AcDbLine
  8
Layer0
 62
256
370
-1
  6
BYLAYER
 10
253.66349914713899
 20
35.425994587728603
 30
0.0
 11
254.07771270951201
 21
35.7438318329244
 31
0.0
  0
LINE
  5
B5
100
AcDbEntity
100
AcDbLine
  8
Layer0
 62
256
370
-1
  6
BYLAYER
 10
103.82817693867599
 20
70.487256703183405
 30
0.0
 11
104.91349123571401
 21
70.936808604454299
 31
0.0
  0
LINE
  5
B6
100
AcDbEntity
100
AcDbLine
  8
Layer0
 62
256
370
-1
  6
BYLAYER
 10
104.91349123571401
 20
70.936808604454299
 30
0.0
 11
105.84547175105401
 21
71.651942406144798
 31
0.0
  0
LINE
  5
B7
100
AcDbEntity
100
AcDbLine
  8
Layer0
 62
256
370
-1
  6
BYLAYER
 10
105.84547175105401
 20
71.651942406144798
 30
0.0
 11
106.56060555274399
 21
72.583922921484202
 31
0.0
  0
LINE
  5
B8
100
AcDbEntity
100
AcDbLine
  8
Layer0
 62
256
370
-1
  6
BYLAYER
 10
294.12770641522502
 20
38.572258957670499
 30
0.0
 11
293.71349285285203
 21
38.890096202866303
 31
0.0
  0
LINE
  5
B9
100
AcDbEntity
100
AcDbLine
  8
Layer0
 62
256
370
-1
  6
BYLAYER
 10
106.56060555274399
 20
72.583922921484202
 30
0.0
 11
107.010157454015
 21
73.669237218522895
 31
0.0
  0
LINE
  5
BA
100
AcDbEntity
100
AcDbLine
  8
Layer0
 62
256
370
-1
  6
BYLAYER
 10
107.010157454015
 20
73.669237218522895
 30
0.0
 11
107.16349123571401
 21
74.833922921484202
 31
0.0
  0
LINE
  5
BB
100
AcDbEntity
100
AcDbLine
  8
Layer0
 62
256
370
-1
  6
BYLAYER
 10
294.64534450542999
 20
37.675683485502503
 30
0.0
 11
294.44554366042098
 21
38.1580453952974
 31
0.0
  0
LINE
  5
BC
100
AcDbEntity
100
AcDbLine
  8
Layer0
 62
256
370
-1
  6
BYLAYER
 10
98.163491235714503
 20
83.833922921484202
 30
0.0
 11
98.422271157715002
 21
84.897752484538799
 31
0.0
  0
LINE
  5
BD
100
AcDbEntity
100
AcDbLine
  8
Layer0
 62
256
370
-1
  6
BYLAYER
 10
98.422271157715002
 20
84.897752484538799
 30
0.0
 11
98.928659498338604
 21
85.868459049747798
 31
0.0
  0
LINE
  5
BE
100
AcDbEntity
100
AcDbLine
  8
Layer0
 62
256
370
-1
  6
BYLAYER
 10
252.66349914713899
 20
35.1580453952974
 30
0.0
 11
253.18113723734399
 21
35.226193742719303
 31
0.0
  0
LINE
  5
BF
100
AcDbEntity
100
AcDbLine
  8
Layer0
 62
256
370
-1
  6
BYLAYER
 10
98.928659498338604
 20
103.799377950474
 30
0.0
 11
99.653092591016403
 21
102.97846560345199
 31
0.0
  0
LINE
  5
C0
100
AcDbEntity
100
AcDbLine
  8
Layer0
 62
256
370
-1
  6
BYLAYER
 10
99.653092591016403
 20
102.97846560345199
 30
0.0
 11
100.55327700858
 21
102.355273496926
 31
0.0
  0
LINE
  5
C1
100
AcDbEntity
100
AcDbLine
  8
Layer0
 62
256
370
-1
  6
BYLAYER
 10
254.59535079971701
 20
36.640407305092403
 30
0.0
 11
254.66349914713899
 21
37.1580453952974
 31
0.0
  0
LINE
  5
C2
100
AcDbEntity
100
AcDbLine
  8
Layer0
 62
256
370
-1
  6
BYLAYER
 10
100.55327700858
 20
102.355273496926
 30
0.0
 11
101.576658713274
 21
101.96618446629699
 31
0.0
  0
LINE
  5
C3
100
AcDbEntity
100
AcDbLine
  8
Layer0
 62
256
370
-1
  6
BYLAYER
 10
101.576658713274
 20
101.96618446629699
 30
0.0
 11
102.66349123571401
 21
101.833914078737
 31
0.0
  0
LINE
  5
C4
100
AcDbEntity
100
AcDbLine
  8
Layer0
 62
256
370
-1
  6
BYLAYER
 10
254.395549954708
 20
36.1580453952974
 30
0.0
 11
254.59535079971701
 21
36.640407305092403
 31
0.0
  0
LINE
  5
C5
100
AcDbEntity
100
AcDbLine
  8
Layer0
 62
256
370
-1
  6
BYLAYER
 10
102.66349123571401
 20
101.833914078737
 30
0.0
 11
103.75032375815501
 21
101.96618446629699
 31
0.0
  0
LINE
  5
C6
100
AcDbEntity
100
AcDbLine
  8
Layer0
 62
256
370
-1
  6
BYLAYER
 10
103.75032375815501
 20
101.96618446629699
 30
0.0
 11
104.77370546284899
 21
102.355273496926
 31
0.0
  0
LINE
  5
C7
100
AcDbEntity
100
AcDbLine
  8
Layer0
 62
256
370
-1
  6
BYLAYER
 10
254.07771270951201
 20
35.7438318329244
 30
0.0
 11
254.395549954708
 21
36.1580453952974
 31
0.0
  0
LINE
  5
C8
100
AcDbEntity
100
AcDbLine
  8
Layer0
 62
256
370
-1
  6
BYLAYER
 10
104.77370546284899
 20
102.355273496926
 30
0.0
 11
105.673889880413
 21
102.97846560345199
 31
0.0
  0
LINE
  5
C9
100
AcDbEntity
100
AcDbLine
  8
Layer0
 62
256
370
-1
  6
BYLAYER
 10
105.673889880413
 20
102.97846560345199
 30
0.0
 11
106.39832297309
 21
103.799377950474
 31
0.0
  0
LINE
  5
CA
100
AcDbEntity
100
AcDbLine
  8
Layer0
 62
256
370
-1
  6
BYLAYER
 10
250.93144833957001
 20
36.1580453952974
 30
0.0
 11
251.249285584766
 21
35.7438318329244
 31
0.0
  0
LINE
  5
CB
100
AcDbEntity
100
AcDbLine
  8
Layer0
 62
256
370
-1
  6
BYLAYER
 10
106.39832297309
 20
103.799377950474
 30
0.0
 11
106.904711313714
 21
104.770084515683
 31
0.0
  0
LINE
  5
CC
100
AcDbEntity
100
AcDbLine
  8
Layer0
 62
256
370
-1
  6
BYLAYER
 10
254.66349914713899
 20
37.1580453952974
 30
0.0
 11
254.59535079971701
 21
37.675683485502503
 31
0.0
  0
LINE
  5
CD
100
AcDbEntity
100
AcDbLine
  8
Layer0
 62
256
370
-1
  6
BYLAYER
 10
106.904711313714
 20
104.770084515683
 30
0.0
 11
107.16349123571401
 21
105.833914078737
 31
0.0
  0
LINE
  5
CE
100
AcDbEntity
100
AcDbLine
  8
Layer0
 62
256
370
-1
  6
BYLAYER
 10
98.163491235714503
 20
105.833914078737
 30
0.0
 11
98.163491235714503
 21
114.13391407873701
 31
0.0
  0
LINE
  5
CF
100
AcDbEntity
100
AcDbLine
  8
Layer0
 62
256
370
-1
  6
BYLAYER
 10
98.163491235714503
 20
83.833922921484202
 30
0.0
 11
98.163491235714503
 21
74.833922921484202
 31
0.0
  0
LINE
  5
D0
100
AcDbEntity
100
AcDbLine
  8
Layer0
 62
256
370
-1
  6
BYLAYER
 10
98.928659498338604
 20
85.868459049747798
 30
0.0
 11
99.653092591016403
 21
86.689371396769602
 31
0.0
  0
LINE
  5
D1
100
AcDbEntity
100
AcDbLine
  8
Layer0
 62
256
370
-1
  6
BYLAYER
 10
99.653092591016403
 20
86.689371396769602
 30
0.0
 11
100.55327700858
 21
87.312563503295294
 31
0.0
  0
LINE
  5
D2
100
AcDbEntity
100
AcDbLine
  8
Layer0
 62
256
370
-1
  6
BYLAYER
 10
252.145861056934
 20
35.226193742719303
 30
0.0
 11
252.66349914713899
 21
35.1580453952974
 31
0.0
  0
LINE
  5
D3
100
AcDbEntity
100
AcDbLine
  8
Layer0
 62
256
370
-1
  6
BYLAYER
 10
100.55327700858
 20
87.312563503295294
 30
0.0
 11
101.576658713274
 21
87.701652533924602
 31
0.0
  0
LINE
  5
D4
100
AcDbEntity
100
AcDbLine
  8
Layer0
 62
256
370
-1
  6
BYLAYER
 10
101.576658713274
 20
87.701652533924602
 30
0.0
 11
102.66349123571401
 21
87.833922921484202
 31
0.0
  0
LINE
  5
D5
100
AcDbEntity
100
AcDbLine
  8
Layer0
 62
256
370
-1
  6
BYLAYER
 10
251.66349914713899
 20
35.425994587728603
 30
0.0
 11
252.145861056934
 21
35.226193742719303
 31
0.0
  0
LINE
  5
D6
100
AcDbEntity
100
AcDbLine
  8
Layer0
 62
256
370
-1
  6
BYLAYER
 10
102.66349123571401
 20
87.833922921484202
 30
0.0
 11
103.75032375815501
 21
87.701652533924602
 31
0.0
  0
LINE
  5
D7
100
AcDbEntity
100
AcDbLine
  8
Layer0
 62
256
370
-1
  6
BYLAYER
 10
103.75032375815501
 20
87.701652533924602
 30
0.0
 11
104.77370546284899
 21
87.312563503295294
 31
0.0
  0
LINE
  5
D8
100
AcDbEntity
100
AcDbLine
  8
Layer0
 62
256
370
-1
  6
BYLAYER
 10
251.249285584766
 20
35.7438318329244
 30
0.0
 11
251.66349914713899
 21
35.425994587728603
 31
0.0
  0
LINE
  5
D9
100
AcDbEntity
100
AcDbLine
  8
Layer0
 62
256
370
-1
  6
BYLAYER
 10
104.77370546284899
 20
87.312563503295294
 30
0.0
 11
105.673889880413
 21
86.689371396769602
 31
0.0
  0
LINE
  5
DA
100
AcDbEntity
100
AcDbLine
  8
Layer0
 62
256
370
-1
  6
BYLAYER
 10
105.673889880413
 20
86.689371396769602
 30
0.0
 11
106.39832297309
 21
85.868459049747798
 31
0.0
  0
LINE
  5
DB
100
AcDbEntity
100
AcDbLine
  8
Layer0
 62
256
370
-1
  6
BYLAYER
 10
254.59535079971701
 20
37.675683485502503
 30
0.0
 11
254.395549954708
 21
38.1580453952974
 31
0.0
  0
LINE
  5
DC
100
AcDbEntity
100
AcDbLine
  8
Layer0
 62
256
370
-1
  6
BYLAYER
 10
106.39832297309
 20
85.868459049747798
 30
0.0
 11
106.904711313714
 21
84.897752484538799
 31
0.0
  0
LINE
  5
DD
100
AcDbEntity
100
AcDbLine
  8
Layer0
 62
256
370
-1
  6
BYLAYER
 10
250.731647494561
 20
36.640407305092403
 30
0.0
 11
250.93144833957001
 21
36.1580453952974
 31
0.0
  0
LINE
  5
DE
100
AcDbEntity
100
AcDbLine
  8
Layer0
 62
256
370
-1
  6
BYLAYER
 10
106.904711313714
 20
84.897752484538799
 30
0.0
 11
107.16349123571401
 21
83.833922921484202
 31
0.0
  0
LINE
  5
DF
100
AcDbEntity
100
AcDbLine
  8
Layer0
 62
256
370
-1
  6
BYLAYER
 10
334.595334976868
 20
37.675683485502503
 30
0.0
 11
334.39553413185899
 21
38.1580453952974
 31
0.0
  0
LINE
  5
E0
100
AcDbEntity
100
AcDbLine
  8
Layer0
 62
256
370
-1
  6
BYLAYER
 10
294.71349285285203
 20
37.1580453952974
 30
0.0
 11
294.64534450542999
 21
37.675683485502503
 31
0.0
  0
LINE
  5
E1
100
AcDbEntity
100
AcDbLine
  8
Layer0
 62
256
370
-1
  6
BYLAYER
 10
107.16349123571401
 20
74.833922921484202
 30
0.0
 11
107.16349123571401
 21
83.833922921484202
 31
0.0
  0
LINE
  5
E2
100
AcDbEntity
100
AcDbLine
  8
Layer0
 62
256
370
-1
  6
BYLAYER
 10
254.395549954708
 20
38.1580453952974
 30
0.0
 11
254.07771270951201
 21
38.572258957670499
 31
0.0
  0
LINE
  5
E3
100
AcDbEntity
100
AcDbLine
  8
Layer0
 62
256
370
-1
  6
BYLAYER
 10
254.07771270951201
 20
38.572258957670499
 30
0.0
 11
253.66349914713899
 21
38.890096202866303
 31
0.0
  0
LINE
  5
E4
100
AcDbEntity
100
AcDbLine
  8
Layer0
 62
256
370
-1
  6
BYLAYER
 10
253.66349914713899
 20
38.890096202866303
 30
0.0
 11
253.18113723734399
 21
39.089897047875603
 31
0.0
  0
LINE
  5
E5
100
AcDbEntity
100
AcDbLine
  8
Layer0
 62
256
370
-1
  6
BYLAYER
 10
253.18113723734399
 20
39.089897047875603
 30
0.0
 11
252.66349914713899
 21
39.1580453952974
 31
0.0
  0
LINE
  5
E6
100
AcDbEntity
100
AcDbLine
  8
Layer0
 62
256
370
-1
  6
BYLAYER
 10
252.66349914713899
 20
39.1580453952974
 30
0.0
 11
252.145861056934
 21
39.089897047875603
 31
0.0
  0
LINE
  5
E7
100
AcDbEntity
100
AcDbLine
  8
Layer0
 62
256
370
-1
  6
BYLAYER
 10
250.66349914713899
 20
37.1580453952974
 30
0.0
 11
250.731647494561
 21
36.640407305092403
 31
0.0
  0
LINE
  5
E8
100
AcDbEntity
100
AcDbLine
  8
Layer0
 62
256
370
-1
  6
BYLAYER
 10
250.731647494561
 20
37.675683485502503
 30
0.0
 11
250.66349914713899
 21
37.1580453952974
 31
0.0
  0
LINE
  5
E9
100
AcDbEntity
100
AcDbLine
  8
Layer0
 62
256
370
-1
  6
BYLAYER
 10
250.93144833957001
 20
38.1580453952974
 30
0.0
 11
250.731647494561
 21
37.675683485502503
 31
0.0
  0
LINE
  5
EA
100
AcDbEntity
100
AcDbLine
  8
Layer0
 62
256
370
-1
  6
BYLAYER
 10
251.249285584766
 20
38.572258957670499
 30
0.0
 11
250.93144833957001
 21
38.1580453952974
 31
0.0
  0
LINE
  5
EB
100
AcDbEntity
100
AcDbLine
  8
Layer0
 62
256
370
-1
  6
BYLAYER
 10
251.66349914713899
 20
38.890096202866303
 30
0.0
 11
251.249285584766
 21
38.572258957670499
 31
0.0
  0
LINE
  5
EC
100
AcDbEntity
100
AcDbLine
  8
Layer0
 62
256
370
-1
  6
BYLAYER
 10
252.145861056934
 20
39.089897047875603
 30
0.0
 11
251.66349914713899
 21
38.890096202866303
 31
0.0
  0
LINE
  5
ED
100
AcDbEntity
100
AcDbLine
  8
Layer0
 62
256
370
-1
  6
BYLAYER
 10
98.163491235714503
 20
114.13391407873701
 30
0.0
 11
98.163491235714503
 21
114.833914078737
 31
0.0
  0
LINE
  5
EE
100
AcDbEntity
100
AcDbLine
  8
Layer0
 62
256
370
-1
  6
BYLAYER
 10
107.16349123571401
 20
114.833914078737
 30
0.0
 11
107.16349123571401
 21
105.833914078737
 31
0.0
  0
LINE
  5
EF
100
AcDbEntity
100
AcDbLine
  8
Layer0
 62
2
420
16776960
370
-1
  6
BYLAYER
 10
348.66347872769097
 20
46.158041553833399
 30
0.0
 11
348.66347872769097
 21
152.83390721480899
 31
0.0
  0
LINE
  5
F0
100
AcDbEntity
100
AcDbLine
  8
Layer0
 62
256
370
-1
  6
BYLAYER
 10
303.26348961857701
 20
74.833922921484202
 30
0.0
 11
303.26348961857701
 21
75.833922921484302
 31
0.0
  0
LINE
  5
F1
100
AcDbEntity
100
AcDbLine
  8
Layer0
 62
256
370
-1
  6
BYLAYER
 10
337.66348303385303
 20
86.333921380245599
 30
0.0
 11
327.66348361472598
 21
86.333921380245599
 31
0.0
  0
LINE
  5
F2
100
AcDbEntity
100
AcDbLine
  8
Layer0
 62
256
370
-1
  6
BYLAYER
 10
247.66349943757601
 20
86.333921380245599
 30
0.0
 11
247.66349943757601
 21
61.333921380245599
 31
0.0
  0
LINE
  5
F3
100
AcDbEntity
100
AcDbLine
  8
Layer0
 62
256
370
-1
  6
BYLAYER
 10
179.802199703479
 20
39.675679644038503
 30
0.0
 11
179.60239885847
 21
40.158041553833399
 31
0.0
  0
LINE
  5
F4
100
AcDbEntity
100
AcDbLine
  8
Layer0
 62
2
420
16776960
370
-1
  6
BYLAYER
 10
361.66347872769097
 20
45.158041553833399
 30
0.0
 11
379.518519737058
 21
45.158041553833399
 31
0.0
  0
LINE
  5
F5
100
AcDbEntity
100
AcDbLine
  8
Layer0
 62
2
420
16776960
370
-1
  6
BYLAYER
 10
238.663505606386
 20
45.158041553833399
 30
0.0
 11
346.66347686504298
 21
45.158041553833399
 31
0.0
  0
LINE
  5
F6
100
AcDbEntity
100
AcDbLine
  8
Layer0
 62
256
370
-1
  6
BYLAYER
 10
238.663505606386
 20
45.158041553833399
 30
0.0
 11
239.66350362756299
 21
44.1580453952974
 31
0.0
  0
LINE
  5
F7
100
AcDbEntity
100
AcDbLine
  8
Layer0
 62
256
370
-1
  6
BYLAYER
 10
346.66347686504298
 20
45.158041553833399
 30
0.0
 11
347.66347872769097
 21
46.158041553833399
 31
0.0
  0
LINE
  5
F8
100
AcDbEntity
100
AcDbLine
  8
Layer0
 62
256
370
-1
  6
BYLAYER
 10
327.66348361472598
 20
61.333921380245599
 30
0.0
 11
327.66348361472598
 21
86.333921380245599
 31
0.0
  0
LINE
  5
F9
100
AcDbEntity
100
AcDbLine
  8
Layer0
 62
256
370
-1
  6
BYLAYER
 10
337.66348303385303
 20
142.13390922074601
 30
0.0
 11
337.66348303385303
 21
117.13390922074601
 31
0.0
  0
LINE
  5
FA
100
AcDbEntity
100
AcDbLine
  8
Layer0
 62
2
420
16776960
370
-1
  6
BYLAYER
 10
379.518519737058
 20
45.158041553833399
 30
0.0
 11
421.66347872769097
 21
45.158041553833399
 31
0.0
  0
LINE
  5
FB
100
AcDbEntity
100
AcDbLine
  8
Layer0
 62
256
370
-1
  6
BYLAYER
 10
246.31979754631101
 20
149.545658858519
 30
0.0
 11
246.04507144541299
 21
150.20890633724599
 31
0.0
  0
LINE
  5
FC
100
AcDbEntity
100
AcDbLine
  8
Layer0
 62
256
370
-1
  6
BYLAYER
 10
246.04507144541299
 20
150.20890633724599
 30
0.0
 11
245.60804533028801
 21
150.77844985907001
 31
0.0
  0
LINE
  5
FD
100
AcDbEntity
100
AcDbLine
  8
Layer0
 62
256
370
-1
  6
BYLAYER
 10
245.03850180846399
 20
151.21547597419399
 30
0.0
 11
244.375254329737
 21
151.49020207509301
 31
0.0
  0
LINE
  5
FE
100
AcDbEntity
100
AcDbLine
  8
Layer0
 62
256
370
-1
  6
BYLAYER
 10
239.66350362756299
 20
154.833907098635
 30
0.0
 11
237.663503743738
 21
152.83390721480899
 31
0.0
  0
LINE
  5
FF
100
AcDbEntity
100
AcDbLine
  8
Layer0
 62
256
370
-1
  6
BYLAYER
 10
239.66350362756299
 20
154.833907098635
 30
0.0
 11
280.663493795406
 21
154.833907098635
 31
0.0
  0
LINE
  5
100
100
AcDbEntity
100
AcDbLine
  8
Layer0
 62
256
370
-1
  6
BYLAYER
 10
282.66349367923198
 20
152.83390721480899
 30
0.0
 11
280.663493795406
 21
154.833907098635
 31
0.0
  0
LINE
  5
101
100
AcDbEntity
100
AcDbLine
  8
Layer0
 62
256
370
-1
  6
BYLAYER
 10
282.66349367923198
 20
152.83390721480899
 30
0.0
 11
282.66349367923198
 21
128.83391047154799
 31
0.0
  0
LINE
  5
102
100
AcDbEntity
100
AcDbLine
  8
Layer0
 62
256
370
-1
  6
BYLAYER
 10
284.66349263173498
 20
126.833912450368
 30
0.0
 11
282.66349367923198
 21
128.83391047154799
 31
0.0
  0
LINE
  5
103
100
AcDbEntity
100
AcDbLine
  8
Layer0
 62
256
370
-1
  6
BYLAYER
 10
284.66349263173498
 20
126.833912450368
 30
0.0
 11
300.66348983969402
 21
126.833912450368
 31
0.0
  0
LINE
  5
104
100
AcDbEntity
100
AcDbLine
  8
Layer0
 62
256
370
-1
  6
BYLAYER
 10
302.66348879219697
 20
128.83391047154799
 30
0.0
 11
300.66348983969402
 21
126.833912450368
 31
0.0
  0
LINE
  5
105
100
AcDbEntity
100
AcDbLine
  8
Layer0
 62
256
370
-1
  6
BYLAYER
 10
302.66348879219697
 20
128.83391047154799
 30
0.0
 11
302.66348879219697
 21
152.83390721480899
 31
0.0
  0
LINE
  5
106
100
AcDbEntity
100
AcDbLine
  8
Layer0
 62
256
370
-1
  6
BYLAYER
 10
304.66348867602301
 20
154.833907098635
 30
0.0
 11
302.66348879219697
 21
152.83390721480899
 31
0.0
  0
LINE
  5
107
100
AcDbEntity
100
AcDbLine
  8
Layer0
 62
256
370
-1
  6
BYLAYER
 10
304.66348867602301
 20
154.833907098635
 30
0.0
 11
345.66347884386602
 21
154.833907098635
 31
0.0
  0
LINE
  5
108
100
AcDbEntity
100
AcDbLine
  8
Layer0
 62
256
370
-1
  6
BYLAYER
 10
347.66347872769097
 20
152.83390721480899
 30
0.0
 11
345.66347884386602
 21
154.833907098635
 31
0.0
  0
LINE
  5
109
100
AcDbEntity
100
AcDbLine
  8
Layer0
 62
256
370
-1
  6
BYLAYER
 10
345.66347884386602
 20
44.1580453952974
 30
0.0
 11
346.66347686504298
 21
45.158041553833399
 31
0.0
  0
LINE
  5
10A
100
AcDbEntity
100
AcDbLine
  8
Layer0
 62
256
370
-1
  6
BYLAYER
 10
237.663503743738
 20
46.158041553833399
 30
0.0
 11
238.663505606386
 21
45.158041553833399
 31
0.0
  0
LINE
  5
10B
100
AcDbEntity
100
AcDbLine
  8
Layer0
 62
256
370
-1
  6
BYLAYER
 10
408.45663442052802
 20
37.425990746264603
 30
0.0
 11
408.87084798290101
 21
37.7438279914603
 31
0.0
  0
LINE
  5
10C
100
AcDbEntity
100
AcDbLine
  8
Layer0
 62
256
370
-1
  6
BYLAYER
 10
409.18868522809697
 20
38.158041553833399
 30
0.0
 11
409.38848607310598
 21
38.640403463628402
 31
0.0
  0
LINE
  5
10D
100
AcDbEntity
100
AcDbLine
  8
Layer0
 62
256
370
-1
  6
BYLAYER
 10
408.87084798290101
 20
37.7438279914603
 30
0.0
 11
409.18868522809697
 21
38.158041553833399
 31
0.0
  0
LINE
  5
10E
100
AcDbEntity
100
AcDbLine
  8
Layer0
 62
256
370
-1
  6
BYLAYER
 10
407.97427251073299
 20
37.226189901255303
 30
0.0
 11
408.45663442052802
 21
37.425990746264603
 31
0.0
  0
LINE
  5
10F
100
AcDbEntity
100
AcDbLine
  8
Layer0
 62
256
370
-1
  6
BYLAYER
 10
407.45663442052802
 20
37.158041553833399
 30
0.0
 11
407.97427251073299
 21
37.226189901255303
 31
0.0
  0
LINE
  5
110
100
AcDbEntity
100
AcDbLine
  8
Layer0
 62
256
370
-1
  6
BYLAYER
 10
406.93899633032299
 20
37.226189901255303
 30
0.0
 11
407.45663442052802
 21
37.158041553833399
 31
0.0
  0
LINE
  5
111
100
AcDbEntity
100
AcDbLine
  8
Layer0
 62
256
370
-1
  6
BYLAYER
 10
406.45663442052802
 20
37.425990746264603
 30
0.0
 11
406.93899633032299
 21
37.226189901255303
 31
0.0
  0
LINE
  5
112
100
AcDbEntity
100
AcDbLine
  8
Layer0
 62
256
370
-1
  6
BYLAYER
 10
406.04242085815503
 20
37.7438279914603
 30
0.0
 11
406.45663442052802
 21
37.425990746264603
 31
0.0
  0
LINE
  5
113
100
AcDbEntity
100
AcDbLine
  8
Layer0
 62
256
370
-1
  6
BYLAYER
 10
405.72458361295901
 20
38.158041553833399
 30
0.0
 11
406.04242085815503
 21
37.7438279914603
 31
0.0
  0
LINE
  5
114
100
AcDbEntity
100
AcDbLine
  8
Layer0
 62
256
370
-1
  6
BYLAYER
 10
405.52478276795
 20
38.640403463628402
 30
0.0
 11
405.72458361295901
 21
38.158041553833399
 31
0.0
  0
LINE
  5
115
100
AcDbEntity
100
AcDbLine
  8
Layer0
 62
256
370
-1
  6
BYLAYER
 10
405.45663442052802
 20
39.158041553833399
 30
0.0
 11
405.52478276795
 21
38.640403463628402
 31
0.0
  0
LINE
  5
116
100
AcDbEntity
100
AcDbLine
  8
Layer0
 62
256
370
-1
  6
BYLAYER
 10
405.52478276795
 20
39.675679644038503
 30
0.0
 11
405.45663442052802
 21
39.158041553833399
 31
0.0
  0
LINE
  5
117
100
AcDbEntity
100
AcDbLine
  8
Layer0
 62
256
370
-1
  6
BYLAYER
 10
405.72458361295901
 20
40.158041553833399
 30
0.0
 11
405.52478276795
 21
39.675679644038503
 31
0.0
  0
LINE
  5
118
100
AcDbEntity
100
AcDbLine
  8
Layer0
 62
256
370
-1
  6
BYLAYER
 10
406.04242085815503
 20
40.572255116206499
 30
0.0
 11
405.72458361295901
 21
40.158041553833399
 31
0.0
  0
LINE
  5
119
100
AcDbEntity
100
AcDbLine
  8
Layer0
 62
256
370
-1
  6
BYLAYER
 10
406.45663442052802
 20
40.890092361402303
 30
0.0
 11
406.04242085815503
 21
40.572255116206499
 31
0.0
  0
LINE
  5
11A
100
AcDbEntity
100
AcDbLine
  8
Layer0
 62
256
370
-1
  6
BYLAYER
 10
406.93899633032299
 20
41.089893206411602
 30
0.0
 11
406.45663442052802
 21
40.890092361402303
 31
0.0
  0
LINE
  5
11B
100
AcDbEntity
100
AcDbLine
  8
Layer0
 62
256
370
-1
  6
BYLAYER
 10
407.45663442052802
 20
41.158041553833399
 30
0.0
 11
406.93899633032299
 21
41.089893206411602
 31
0.0
  0
LINE
  5
11C
100
AcDbEntity
100
AcDbLine
  8
Layer0
 62
256
370
-1
  6
BYLAYER
 10
407.97427251073299
 20
41.089893206411602
 30
0.0
 11
407.45663442052802
 21
41.158041553833399
 31
0.0
  0
LINE
  5
11D
100
AcDbEntity
100
AcDbLine
  8
Layer0
 62
256
370
-1
  6
BYLAYER
 10
408.45663442052802
 20
40.890092361402303
 30
0.0
 11
407.97427251073299
 21
41.089893206411602
 31
0.0
  0
LINE
  5
11E
100
AcDbEntity
100
AcDbLine
  8
Layer0
 62
256
370
-1
  6
BYLAYER
 10
408.87084798290101
 20
40.572255116206499
 30
0.0
 11
408.45663442052802
 21
40.890092361402303
 31
0.0
  0
LINE
  5
11F
100
AcDbEntity
100
AcDbLine
  8
Layer0
 62
256
370
-1
  6
BYLAYER
 10
409.18868522809697
 20
40.158041553833399
 30
0.0
 11
408.87084798290101
 21
40.572255116206499
 31
0.0
  0
LINE
  5
120
100
AcDbEntity
100
AcDbLine
  8
Layer0
 62
256
370
-1
  6
BYLAYER
 10
165.663503743738
 20
34.158041553833399
 30
0.0
 11
223.663503743738
 21
34.158041553833399
 31
0.0
  0
LINE
  5
121
100
AcDbEntity
100
AcDbLine
  8
Layer0
 62
256
370
-1
  6
BYLAYER
 10
386.491908226688
 20
38.640403463628402
 30
0.0
 11
386.56005657410998
 21
39.158041553833399
 31
0.0
  0
LINE
  5
122
100
AcDbEntity
100
AcDbLine
  8
Layer0
 62
256
370
-1
  6
BYLAYER
 10
386.29210738167899
 20
38.158041553833399
 30
0.0
 11
386.491908226688
 21
38.640403463628402
 31
0.0
  0
LINE
  5
123
100
AcDbEntity
100
AcDbLine
  8
Layer0
 62
256
370
-1
  6
BYLAYER
 10
385.97427013648303
 20
37.7438279914603
 30
0.0
 11
386.29210738167899
 21
38.158041553833399
 31
0.0
  0
LINE
  5
124
100
AcDbEntity
100
AcDbLine
  8
Layer0
 62
256
370
-1
  6
BYLAYER
 10
385.56005657410998
 20
37.425990746264603
 30
0.0
 11
385.97427013648303
 21
37.7438279914603
 31
0.0
  0
LINE
  5
125
100
AcDbEntity
100
AcDbLine
  8
Layer0
 62
256
370
-1
  6
BYLAYER
 10
385.077694664315
 20
37.226189901255303
 30
0.0
 11
385.56005657410998
 21
37.425990746264603
 31
0.0
  0
LINE
  5
126
100
AcDbEntity
100
AcDbLine
  8
Layer0
 62
256
370
-1
  6
BYLAYER
 10
384.56005657410998
 20
37.158041553833399
 30
0.0
 11
385.077694664315
 21
37.226189901255303
 31
0.0
  0
LINE
  5
127
100
AcDbEntity
100
AcDbLine
  8
Layer0
 62
256
370
-1
  6
BYLAYER
 10
384.04241848390501
 20
37.226189901255303
 30
0.0
 11
384.56005657410998
 21
37.158041553833399
 31
0.0
  0
LINE
  5
128
100
AcDbEntity
100
AcDbLine
  8
Layer0
 62
256
370
-1
  6
BYLAYER
 10
383.56005657410998
 20
37.425990746264603
 30
0.0
 11
384.04241848390501
 21
37.226189901255303
 31
0.0
  0
LINE
  5
129
100
AcDbEntity
100
AcDbLine
  8
Layer0
 62
256
370
-1
  6
BYLAYER
 10
383.14584301173699
 20
37.7438279914603
 30
0.0
 11
383.56005657410998
 21
37.425990746264603
 31
0.0
  0
LINE
  5
12A
100
AcDbEntity
100
AcDbLine
  8
Layer0
 62
256
370
-1
  6
BYLAYER
 10
382.82800576654103
 20
38.158041553833399
 30
0.0
 11
383.14584301173699
 21
37.7438279914603
 31
0.0
  0
LINE
  5
12B
100
AcDbEntity
100
AcDbLine
  8
Layer0
 62
256
370
-1
  6
BYLAYER
 10
382.62820492153202
 20
38.640403463628402
 30
0.0
 11
382.82800576654103
 21
38.158041553833399
 31
0.0
  0
LINE
  5
12C
100
AcDbEntity
100
AcDbLine
  8
Layer0
 62
256
370
-1
  6
BYLAYER
 10
382.56005657410998
 20
39.158041553833399
 30
0.0
 11
382.62820492153202
 21
38.640403463628402
 31
0.0
  0
LINE
  5
12D
100
AcDbEntity
100
AcDbLine
  8
Layer0
 62
256
370
-1
  6
BYLAYER
 10
382.62820492153202
 20
39.675679644038503
 30
0.0
 11
382.56005657410998
 21
39.158041553833399
 31
0.0
  0
LINE
  5
12E
100
AcDbEntity
100
AcDbLine
  8
Layer0
 62
256
370
-1
  6
BYLAYER
 10
382.82800576654103
 20
40.158041553833399
 30
0.0
 11
382.62820492153202
 21
39.675679644038503
 31
0.0
  0
LINE
  5
12F
100
AcDbEntity
100
AcDbLine
  8
Layer0
 62
256
370
-1
  6
BYLAYER
 10
383.14584301173699
 20
40.572255116206499
 30
0.0
 11
382.82800576654103
 21
40.158041553833399
 31
0.0
  0
LINE
  5
130
100
AcDbEntity
100
AcDbLine
  8
Layer0
 62
256
370
-1
  6
BYLAYER
 10
383.56005657410998
 20
40.890092361402303
 30
0.0
 11
383.14584301173699
 21
40.572255116206499
 31
0.0
  0
LINE
  5
131
100
AcDbEntity
100
AcDbLine
  8
Layer0
 62
256
370
-1
  6
BYLAYER
 10
384.04241848390501
 20
41.089893206411602
 30
0.0
 11
383.56005657410998
 21
40.890092361402303
 31
0.0
  0
LINE
  5
132
100
AcDbEntity
100
AcDbLine
  8
Layer0
 62
256
370
-1
  6
BYLAYER
 10
384.56005657410998
 20
41.158041553833399
 30
0.0
 11
384.04241848390501
 21
41.089893206411602
 31
0.0
  0
LINE
  5
133
100
AcDbEntity
100
AcDbLine
  8
Layer0
 62
256
370
-1
  6
BYLAYER
 10
385.077694664315
 20
41.089893206411602
 30
0.0
 11
384.56005657410998
 21
41.158041553833399
 31
0.0
  0
LINE
  5
134
100
AcDbEntity
100
AcDbLine
  8
Layer0
 62
256
370
-1
  6
BYLAYER
 10
385.56005657410998
 20
40.890092361402303
 30
0.0
 11
385.077694664315
 21
41.089893206411602
 31
0.0
  0
LINE
  5
135
100
AcDbEntity
100
AcDbLine
  8
Layer0
 62
256
370
-1
  6
BYLAYER
 10
385.97427013648303
 20
40.572255116206499
 30
0.0
 11
385.56005657410998
 21
40.890092361402303
 31
0.0
  0
LINE
  5
136
100
AcDbEntity
100
AcDbLine
  8
Layer0
 62
256
370
-1
  6
BYLAYER
 10
386.29210738167899
 20
40.158041553833399
 30
0.0
 11
385.97427013648303
 21
40.572255116206499
 31
0.0
  0
LINE
  5
137
100
AcDbEntity
100
AcDbLine
  8
Layer0
 62
256
370
-1
  6
BYLAYER
 10
409.45663442052802
 20
39.158041553833399
 30
0.0
 11
409.38848607310598
 21
39.675679644038503
 31
0.0
  0
LINE
  5
138
100
AcDbEntity
100
AcDbLine
  8
Layer0
 62
256
370
-1
  6
BYLAYER
 10
202.69877754989699
 20
38.640403463628402
 30
0.0
 11
202.766925897319
 21
39.158041553833399
 31
0.0
  0
LINE
  5
139
100
AcDbEntity
100
AcDbLine
  8
Layer0
 62
256
370
-1
  6
BYLAYER
 10
202.49897670488801
 20
38.158041553833399
 30
0.0
 11
202.69877754989699
 21
38.640403463628402
 31
0.0
  0
LINE
  5
13A
100
AcDbEntity
100
AcDbLine
  8
Layer0
 62
256
370
-1
  6
BYLAYER
 10
202.18113945969199
 20
37.7438279914603
 30
0.0
 11
202.49897670488801
 21
38.158041553833399
 31
0.0
  0
LINE
  5
13B
100
AcDbEntity
100
AcDbLine
  8
Layer0
 62
256
370
-1
  6
BYLAYER
 10
201.766925897319
 20
37.425990746264603
 30
0.0
 11
202.18113945969199
 21
37.7438279914603
 31
0.0
  0
LINE
  5
13C
100
AcDbEntity
100
AcDbLine
  8
Layer0
 62
256
370
-1
  6
BYLAYER
 10
201.284563987524
 20
37.226189901255303
 30
0.0
 11
201.766925897319
 21
37.425990746264603
 31
0.0
  0
LINE
  5
13D
100
AcDbEntity
100
AcDbLine
  8
Layer0
 62
256
370
-1
  6
BYLAYER
 10
200.766925897319
 20
37.158041553833399
 30
0.0
 11
201.284563987524
 21
37.226189901255303
 31
0.0
  0
LINE
  5
13E
100
AcDbEntity
100
AcDbLine
  8
Layer0
 62
256
370
-1
  6
BYLAYER
 10
200.249287807114
 20
37.226189901255303
 30
0.0
 11
200.766925897319
 21
37.158041553833399
 31
0.0
  0
LINE
  5
13F
100
AcDbEntity
100
AcDbLine
  8
Layer0
 62
256
370
-1
  6
BYLAYER
 10
199.766925897319
 20
37.425990746264603
 30
0.0
 11
200.249287807114
 21
37.226189901255303
 31
0.0
  0
LINE
  5
140
100
AcDbEntity
100
AcDbLine
  8
Layer0
 62
256
370
-1
  6
BYLAYER
 10
199.35271233494601
 20
37.7438279914603
 30
0.0
 11
199.766925897319
 21
37.425990746264603
 31
0.0
  0
LINE
  5
141
100
AcDbEntity
100
AcDbLine
  8
Layer0
 62
256
370
-1
  6
BYLAYER
 10
199.03487508974999
 20
38.158041553833399
 30
0.0
 11
199.35271233494601
 21
37.7438279914603
 31
0.0
  0
LINE
  5
142
100
AcDbEntity
100
AcDbLine
  8
Layer0
 62
256
370
-1
  6
BYLAYER
 10
198.83507424474101
 20
38.640403463628402
 30
0.0
 11
199.03487508974999
 21
38.158041553833399
 31
0.0
  0
LINE
  5
143
100
AcDbEntity
100
AcDbLine
  8
Layer0
 62
256
370
-1
  6
BYLAYER
 10
198.766925897319
 20
39.158041553833399
 30
0.0
 11
198.83507424474101
 21
38.640403463628402
 31
0.0
  0
LINE
  5
144
100
AcDbEntity
100
AcDbLine
  8
Layer0
 62
256
370
-1
  6
BYLAYER
 10
198.83507424474101
 20
39.675679644038503
 30
0.0
 11
198.766925897319
 21
39.158041553833399
 31
0.0
  0
LINE
  5
145
100
AcDbEntity
100
AcDbLine
  8
Layer0
 62
256
370
-1
  6
BYLAYER
 10
199.03487508974999
 20
40.158041553833399
 30
0.0
 11
198.83507424474101
 21
39.675679644038503
 31
0.0
  0
LINE
  5
146
100
AcDbEntity
100
AcDbLine
  8
Layer0
 62
256
370
-1
  6
BYLAYER
 10
199.35271233494601
 20
40.572255116206499
 30
0.0
 11
199.03487508974999
 21
40.158041553833399
 31
0.0
  0
LINE
  5
147
100
AcDbEntity
100
AcDbLine
  8
Layer0
 62
256
370
-1
  6
BYLAYER
 10
199.766925897319
 20
40.890092361402303
 30
0.0
 11
199.35271233494601
 21
40.572255116206499
 31
0.0
  0
LINE
  5
148
100
AcDbEntity
100
AcDbLine
  8
Layer0
 62
256
370
-1
  6
BYLAYER
 10
200.249287807114
 20
41.089893206411602
 30
0.0
 11
199.766925897319
 21
40.890092361402303
 31
0.0
  0
LINE
  5
149
100
AcDbEntity
100
AcDbLine
  8
Layer0
 62
256
370
-1
  6
BYLAYER
 10
200.766925897319
 20
41.158041553833399
 30
0.0
 11
200.249287807114
 21
41.089893206411602
 31
0.0
  0
LINE
  5
14A
100
AcDbEntity
100
AcDbLine
  8
Layer0
 62
256
370
-1
  6
BYLAYER
 10
201.284563987524
 20
41.089893206411602
 30
0.0
 11
200.766925897319
 21
41.158041553833399
 31
0.0
  0
LINE
  5
14B
100
AcDbEntity
100
AcDbLine
  8
Layer0
 62
256
370
-1
  6
BYLAYER
 10
201.766925897319
 20
40.890092361402303
 30
0.0
 11
201.284563987524
 21
41.089893206411602
 31
0.0
  0
LINE
  5
14C
100
AcDbEntity
100
AcDbLine
  8
Layer0
 62
256
370
-1
  6
BYLAYER
 10
202.18113945969199
 20
40.572255116206499
 30
0.0
 11
201.766925897319
 21
40.890092361402303
 31
0.0
  0
LINE
  5
14D
100
AcDbEntity
100
AcDbLine
  8
Layer0
 62
256
370
-1
  6
BYLAYER
 10
202.49897670488801
 20
40.158041553833399
 30
0.0
 11
202.18113945969199
 21
40.572255116206499
 31
0.0
  0
LINE
  5
14E
100
AcDbEntity
100
AcDbLine
  8
Layer0
 62
256
370
-1
  6
BYLAYER
 10
409.38848607310598
 20
39.675679644038503
 30
0.0
 11
409.18868522809697
 21
40.158041553833399
 31
0.0
  0
LINE
  5
14F
100
AcDbEntity
100
AcDbLine
  8
Layer0
 62
256
370
-1
  6
BYLAYER
 10
386.56005657410998
 20
39.158041553833399
 30
0.0
 11
386.491908226688
 21
39.675679644038503
 31
0.0
  0
LINE
  5
150
100
AcDbEntity
100
AcDbLine
  8
Layer0
 62
256
370
-1
  6
BYLAYER
 10
179.802199703479
 20
38.640403463628402
 30
0.0
 11
179.87034805090099
 21
39.158041553833399
 31
0.0
  0
LINE
  5
151
100
AcDbEntity
100
AcDbLine
  8
Layer0
 62
256
370
-1
  6
BYLAYER
 10
179.60239885847
 20
38.158041553833399
 30
0.0
 11
179.802199703479
 21
38.640403463628402
 31
0.0
  0
LINE
  5
152
100
AcDbEntity
100
AcDbLine
  8
Layer0
 62
256
370
-1
  6
BYLAYER
 10
179.28456161327401
 20
37.7438279914603
 30
0.0
 11
179.60239885847
 21
38.158041553833399
 31
0.0
  0
LINE
  5
153
100
AcDbEntity
100
AcDbLine
  8
Layer0
 62
256
370
-1
  6
BYLAYER
 10
178.87034805090099
 20
37.425990746264603
 30
0.0
 11
179.28456161327401
 21
37.7438279914603
 31
0.0
  0
LINE
  5
154
100
AcDbEntity
100
AcDbLine
  8
Layer0
 62
256
370
-1
  6
BYLAYER
 10
178.38798614110601
 20
37.226189901255303
 30
0.0
 11
178.87034805090099
 21
37.425990746264603
 31
0.0
  0
LINE
  5
155
100
AcDbEntity
100
AcDbLine
  8
Layer0
 62
256
370
-1
  6
BYLAYER
 10
177.87034805090099
 20
37.158041553833399
 30
0.0
 11
178.38798614110601
 21
37.226189901255303
 31
0.0
  0
LINE
  5
156
100
AcDbEntity
100
AcDbLine
  8
Layer0
 62
256
370
-1
  6
BYLAYER
 10
177.35270996069599
 20
37.226189901255303
 30
0.0
 11
177.87034805090099
 21
37.158041553833399
 31
0.0
  0
LINE
  5
157
100
AcDbEntity
100
AcDbLine
  8
Layer0
 62
256
370
-1
  6
BYLAYER
 10
176.87034805090099
 20
37.425990746264603
 30
0.0
 11
177.35270996069599
 21
37.226189901255303
 31
0.0
  0
LINE
  5
158
100
AcDbEntity
100
AcDbLine
  8
Layer0
 62
256
370
-1
  6
BYLAYER
 10
176.45613448852799
 20
37.7438279914603
 30
0.0
 11
176.87034805090099
 21
37.425990746264603
 31
0.0
  0
LINE
  5
159
100
AcDbEntity
100
AcDbLine
  8
Layer0
 62
256
370
-1
  6
BYLAYER
 10
176.138297243332
 20
38.158041553833399
 30
0.0
 11
176.45613448852799
 21
37.7438279914603
 31
0.0
  0
LINE
  5
15A
100
AcDbEntity
100
AcDbLine
  8
Layer0
 62
256
370
-1
  6
BYLAYER
 10
175.938496398323
 20
38.640403463628402
 30
0.0
 11
176.138297243332
 21
38.158041553833399
 31
0.0
  0
LINE
  5
15B
100
AcDbEntity
100
AcDbLine
  8
Layer0
 62
256
370
-1
  6
BYLAYER
 10
175.87034805090099
 20
39.158041553833399
 30
0.0
 11
175.938496398323
 21
38.640403463628402
 31
0.0
  0
LINE
  5
15C
100
AcDbEntity
100
AcDbLine
  8
Layer0
 62
256
370
-1
  6
BYLAYER
 10
175.938496398323
 20
39.675679644038503
 30
0.0
 11
175.87034805090099
 21
39.158041553833399
 31
0.0
  0
LINE
  5
15D
100
AcDbEntity
100
AcDbLine
  8
Layer0
 62
256
370
-1
  6
BYLAYER
 10
176.138297243332
 20
40.158041553833399
 30
0.0
 11
175.938496398323
 21
39.675679644038503
 31
0.0
  0
LINE
  5
15E
100
AcDbEntity
100
AcDbLine
  8
Layer0
 62
256
370
-1
  6
BYLAYER
 10
176.45613448852799
 20
40.572255116206499
 30
0.0
 11
176.138297243332
 21
40.158041553833399
 31
0.0
  0
LINE
  5
15F
100
AcDbEntity
100
AcDbLine
  8
Layer0
 62
256
370
-1
  6
BYLAYER
 10
176.87034805090099
 20
40.890092361402303
 30
0.0
 11
176.45613448852799
 21
40.572255116206499
 31
0.0
  0
LINE
  5
160
100
AcDbEntity
100
AcDbLine
  8
Layer0
 62
256
370
-1
  6
BYLAYER
 10
177.35270996069599
 20
41.089893206411602
 30
0.0
 11
176.87034805090099
 21
40.890092361402303
 31
0.0
  0
LINE
  5
161
100
AcDbEntity
100
AcDbLine
  8
Layer0
 62
256
370
-1
  6
BYLAYER
 10
177.87034805090099
 20
41.158041553833399
 30
0.0
 11
177.35270996069599
 21
41.089893206411602
 31
0.0
  0
LINE
  5
162
100
AcDbEntity
100
AcDbLine
  8
Layer0
 62
256
370
-1
  6
BYLAYER
 10
178.38798614110601
 20
41.089893206411602
 30
0.0
 11
177.87034805090099
 21
41.158041553833399
 31
0.0
  0
LINE
  5
163
100
AcDbEntity
100
AcDbLine
  8
Layer0
 62
256
370
-1
  6
BYLAYER
 10
178.87034805090099
 20
40.890092361402303
 30
0.0
 11
178.38798614110601
 21
41.089893206411602
 31
0.0
  0
LINE
  5
164
100
AcDbEntity
100
AcDbLine
  8
Layer0
 62
256
370
-1
  6
BYLAYER
 10
179.28456161327401
 20
40.572255116206499
 30
0.0
 11
178.87034805090099
 21
40.890092361402303
 31
0.0
  0
LINE
  5
165
100
AcDbEntity
100
AcDbLine
  8
Layer0
 62
256
370
-1
  6
BYLAYER
 10
179.60239885847
 20
40.158041553833399
 30
0.0
 11
179.28456161327401
 21
40.572255116206499
 31
0.0
  0
LINE
  5
166
100
AcDbEntity
100
AcDbLine
  8
Layer0
 62
256
370
-1
  6
BYLAYER
 10
386.491908226688
 20
39.675679644038503
 30
0.0
 11
386.29210738167899
 21
40.158041553833399
 31
0.0
  0
LINE
  5
167
100
AcDbEntity
100
AcDbLine
  8
Layer0
 62
256
370
-1
  6
BYLAYER
 10
202.766925897319
 20
39.158041553833399
 30
0.0
 11
202.69877754989699
 21
39.675679644038503
 31
0.0
  0
LINE
  5
168
100
AcDbEntity
100
AcDbLine
  8
Layer0
 62
256
370
-1
  6
BYLAYER
 10
344.31977579031098
 20
149.545658858519
 30
0.0
 11
344.04504968941302
 21
150.20890633724599
 31
0.0
  0
LINE
  5
169
100
AcDbEntity
100
AcDbLine
  8
Layer0
 62
256
370
-1
  6
BYLAYER
 10
327.66348361472598
 20
117.13390922074601
 30
0.0
 11
327.66348361472598
 21
142.13390922074601
 31
0.0
  0
LINE
  5
16A
100
AcDbEntity
100
AcDbLine
  8
Layer0
 62
256
370
-1
  6
BYLAYER
 10
340.28848066296399
 20
151.21547597419499
 30
0.0
 11
339.71893714113997
 21
150.77844985907001
 31
0.0
  0
LINE
  5
16B
100
AcDbEntity
100
AcDbLine
  8
Layer0
 62
256
370
-1
  6
BYLAYER
 10
340.95172814169098
 20
151.49020207509301
 30
0.0
 11
340.28848066296399
 21
151.21547597419499
 31
0.0
  0
LINE
  5
16C
100
AcDbEntity
100
AcDbLine
  8
Layer0
 62
256
370
-1
  6
BYLAYER
 10
245.60804533028801
 20
150.77844985907001
 30
0.0
 11
245.03850180846399
 21
151.21547597419399
 31
0.0
  0
LINE
  5
16D
100
AcDbEntity
100
AcDbLine
  8
Layer0
 62
256
370
-1
  6
BYLAYER
 10
337.66348303385303
 20
61.333921380245599
 30
0.0
 11
327.66348361472598
 21
61.333921380245599
 31
0.0
  0
LINE
  5
16E
100
AcDbEntity
100
AcDbLine
  8
Layer0
 62
256
370
-1
  6
BYLAYER
 10
257.66349885670297
 20
86.333921380245599
 30
0.0
 11
247.66349943757601
 21
86.333921380245599
 31
0.0
  0
LINE
  5
16F
100
AcDbEntity
100
AcDbLine
  8
Layer0
 62
256
370
-1
  6
BYLAYER
 10
341.66348035771398
 20
151.58390603199601
 30
0.0
 11
340.95172814169098
 21
151.49020207509301
 31
0.0
  0
LINE
  5
170
100
AcDbEntity
100
AcDbLine
  8
Layer0
 62
256
370
-1
  6
BYLAYER
 10
339.71893714113997
 20
150.77844985907001
 30
0.0
 11
339.281911026015
 21
150.20890633724599
 31
0.0
  0
LINE
  5
171
100
AcDbEntity
100
AcDbLine
  8
Layer0
 62
256
370
-1
  6
BYLAYER
 10
343.03848005246402
 20
151.21547597419499
 30
0.0
 11
342.37523257373698
 21
151.49020207509301
 31
0.0
  0
LINE
  5
172
100
AcDbEntity
100
AcDbLine
  8
Layer0
 62
256
370
-1
  6
BYLAYER
 10
343.60802357428798
 20
150.77844985907001
 30
0.0
 11
343.03848005246402
 21
151.21547597419499
 31
0.0
  0
LINE
  5
173
100
AcDbEntity
100
AcDbLine
  8
Layer0
 62
256
370
-1
  6
BYLAYER
 10
247.66349943757601
 20
142.33390922074599
 30
0.0
 11
247.66349943757601
 21
117.13390922074601
 31
0.0
  0
LINE
  5
174
100
AcDbEntity
100
AcDbLine
  8
Layer0
 62
256
370
-1
  6
BYLAYER
 10
257.66349885670297
 20
61.333921380245599
 30
0.0
 11
257.66349885670297
 21
86.333921380245599
 31
0.0
  0
LINE
  5
175
100
AcDbEntity
100
AcDbLine
  8
Layer0
 62
256
370
-1
  6
BYLAYER
 10
327.66348361472598
 20
142.13390922074601
 30
0.0
 11
337.66348303385303
 21
142.13390922074601
 31
0.0
  0
LINE
  5
176
100
AcDbEntity
100
AcDbLine
  8
Layer0
 62
256
370
-1
  6
BYLAYER
 10
344.04504968941302
 20
150.20890633724599
 30
0.0
 11
343.60802357428798
 21
150.77844985907001
 31
0.0
  0
LINE
  5
177
100
AcDbEntity
100
AcDbLine
  8
Layer0
 62
256
370
-1
  6
BYLAYER
 10
342.37523257373698
 20
151.49020207509301
 30
0.0
 11
341.66348035771398
 21
151.58390603199601
 31
0.0
  0
LINE
  5
178
100
AcDbEntity
100
AcDbLine
  8
Layer0
 62
256
370
-1
  6
BYLAYER
 10
257.66349885670297
 20
142.33390922074599
 30
0.0
 11
247.66349943757601
 21
142.33390922074599
 31
0.0
  0
LINE
  5
179
100
AcDbEntity
100
AcDbLine
  8
Layer0
 62
256
370
-1
  6
BYLAYER
 10
344.41347974721401
 20
148.833906642496
 30
0.0
 11
344.31977579031098
 21
149.545658858519
 31
0.0
  0
LINE
  5
17A
100
AcDbEntity
100
AcDbLine
  8
Layer0
 62
256
370
-1
  6
BYLAYER
 10
247.66349943757601
 20
61.333921380245599
 30
0.0
 11
257.66349885670297
 21
61.333921380245599
 31
0.0
  0
LINE
  5
17B
100
AcDbEntity
100
AcDbLine
  8
Layer0
 62
256
370
-1
  6
BYLAYER
 10
244.375254329737
 20
151.49020207509301
 30
0.0
 11
243.663502113714
 21
151.58390603199601
 31
0.0
  0
LINE
  5
17C
100
AcDbEntity
100
AcDbLine
  8
Layer0
 62
256
370
-1
  6
BYLAYER
 10
243.663502113714
 20
151.58390603199601
 30
0.0
 11
242.951749897691
 21
151.49020207509301
 31
0.0
  0
LINE
  5
17D
100
AcDbEntity
100
AcDbLine
  8
Layer0
 62
256
370
-1
  6
BYLAYER
 10
242.951749897691
 20
151.49020207509301
 30
0.0
 11
242.28850241896399
 21
151.21547597419399
 31
0.0
  0
LINE
  5
17E
100
AcDbEntity
100
AcDbLine
  8
Layer0
 62
256
370
-1
  6
BYLAYER
 10
242.28850241896399
 20
151.21547597419399
 30
0.0
 11
241.71895889714
 21
150.77844985907001
 31
0.0
  0
LINE
  5
17F
100
AcDbEntity
100
AcDbLine
  8
Layer0
 62
256
370
-1
  6
BYLAYER
 10
241.71895889714
 20
150.77844985907001
 30
0.0
 11
241.28193278201601
 21
150.20890633724599
 31
0.0
  0
LINE
  5
180
100
AcDbEntity
100
AcDbLine
  8
Layer0
 62
256
370
-1
  6
BYLAYER
 10
241.28193278201601
 20
150.20890633724599
 30
0.0
 11
241.007206681117
 21
149.545658858519
 31
0.0
  0
LINE
  5
181
100
AcDbEntity
100
AcDbLine
  8
Layer0
 62
256
370
-1
  6
BYLAYER
 10
241.007206681117
 20
149.545658858519
 30
0.0
 11
240.913502724214
 21
148.833906642496
 31
0.0
  0
LINE
  5
182
100
AcDbEntity
100
AcDbLine
  8
Layer0
 62
256
370
-1
  6
BYLAYER
 10
240.913502724214
 20
148.833906642496
 30
0.0
 11
241.007206681117
 21
148.122154426473
 31
0.0
  0
LINE
  5
183
100
AcDbEntity
100
AcDbLine
  8
Layer0
 62
256
370
-1
  6
BYLAYER
 10
241.007206681117
 20
148.122154426473
 30
0.0
 11
241.28193278201601
 21
147.45890694774599
 31
0.0
  0
LINE
  5
184
100
AcDbEntity
100
AcDbLine
  8
Layer0
 62
256
370
-1
  6
BYLAYER
 10
241.28193278201601
 20
147.45890694774599
 30
0.0
 11
241.71895889714
 21
146.889363425922
 31
0.0
  0
LINE
  5
185
100
AcDbEntity
100
AcDbLine
  8
Layer0
 62
256
370
-1
  6
BYLAYER
 10
241.71895889714
 20
146.889363425922
 30
0.0
 11
242.28850241896399
 21
146.45233731079699
 31
0.0
  0
LINE
  5
186
100
AcDbEntity
100
AcDbLine
  8
Layer0
 62
256
370
-1
  6
BYLAYER
 10
242.28850241896399
 20
146.45233731079699
 30
0.0
 11
242.951749897691
 21
146.177611209899
 31
0.0
  0
LINE
  5
187
100
AcDbEntity
100
AcDbLine
  8
Layer0
 62
256
370
-1
  6
BYLAYER
 10
242.951749897691
 20
146.177611209899
 30
0.0
 11
243.663502113714
 21
146.083907252996
 31
0.0
  0
LINE
  5
188
100
AcDbEntity
100
AcDbLine
  8
Layer0
 62
256
370
-1
  6
BYLAYER
 10
243.663502113714
 20
146.083907252996
 30
0.0
 11
244.375254329737
 21
146.177611209899
 31
0.0
  0
LINE
  5
189
100
AcDbEntity
100
AcDbLine
  8
Layer0
 62
256
370
-1
  6
BYLAYER
 10
244.375254329737
 20
146.177611209899
 30
0.0
 11
245.03850180846399
 21
146.45233731079699
 31
0.0
  0
LINE
  5
18A
100
AcDbEntity
100
AcDbLine
  8
Layer0
 62
256
370
-1
  6
BYLAYER
 10
245.03850180846399
 20
146.45233731079699
 30
0.0
 11
245.60804533028801
 21
146.889363425922
 31
0.0
  0
LINE
  5
18B
100
AcDbEntity
100
AcDbLine
  8
Layer0
 62
256
370
-1
  6
BYLAYER
 10
245.60804533028801
 20
146.889363425922
 30
0.0
 11
246.04507144541299
 21
147.45890694774599
 31
0.0
  0
LINE
  5
18C
100
AcDbEntity
100
AcDbLine
  8
Layer0
 62
256
370
-1
  6
BYLAYER
 10
246.04507144541299
 20
147.45890694774599
 30
0.0
 11
246.31979754631101
 21
148.122154426473
 31
0.0
  0
LINE
  5
18D
100
AcDbEntity
100
AcDbLine
  8
Layer0
 62
256
370
-1
  6
BYLAYER
 10
246.31979754631101
 20
148.122154426473
 30
0.0
 11
246.41350150321401
 21
148.833906642496
 31
0.0
  0
LINE
  5
18E
100
AcDbEntity
100
AcDbLine
  8
Layer0
 62
256
370
-1
  6
BYLAYER
 10
250.41350061521399
 20
52.158043715663901
 30
0.0
 11
250.31979665831199
 21
52.869795931686802
 31
0.0
  0
LINE
  5
18F
100
AcDbEntity
100
AcDbLine
  8
Layer0
 62
256
370
-1
  6
BYLAYER
 10
250.31979665831199
 20
52.869795931686802
 30
0.0
 11
250.045070557413
 21
53.533043410413903
 31
0.0
  0
LINE
  5
190
100
AcDbEntity
100
AcDbLine
  8
Layer0
 62
256
370
-1
  6
BYLAYER
 10
250.045070557413
 20
53.533043410413903
 30
0.0
 11
249.60804444228901
 21
54.102586932238196
 31
0.0
  0
LINE
  5
191
100
AcDbEntity
100
AcDbLine
  8
Layer0
 62
256
370
-1
  6
BYLAYER
 10
249.60804444228901
 20
54.102586932238196
 30
0.0
 11
249.038500920464
 21
54.5396130473626
 31
0.0
  0
LINE
  5
192
100
AcDbEntity
100
AcDbLine
  8
Layer0
 62
256
370
-1
  6
BYLAYER
 10
249.038500920464
 20
54.5396130473626
 30
0.0
 11
248.37525344173699
 21
54.814339148261098
 31
0.0
  0
LINE
  5
193
100
AcDbEntity
100
AcDbLine
  8
Layer0
 62
256
370
-1
  6
BYLAYER
 10
248.37525344173699
 20
54.814339148261098
 30
0.0
 11
247.66350122571399
 21
54.908043105163898
 31
0.0
  0
LINE
  5
194
100
AcDbEntity
100
AcDbLine
  8
Layer0
 62
256
370
-1
  6
BYLAYER
 10
247.66350122571399
 20
54.908043105163898
 30
0.0
 11
246.95174900969201
 21
54.814339148261098
 31
0.0
  0
LINE
  5
195
100
AcDbEntity
100
AcDbLine
  8
Layer0
 62
256
370
-1
  6
BYLAYER
 10
246.95174900969201
 20
54.814339148261098
 30
0.0
 11
246.288501530964
 21
54.5396130473626
 31
0.0
  0
LINE
  5
196
100
AcDbEntity
100
AcDbLine
  8
Layer0
 62
256
370
-1
  6
BYLAYER
 10
246.288501530964
 20
54.5396130473626
 30
0.0
 11
245.71895800914001
 21
54.102586932238196
 31
0.0
  0
LINE
  5
197
100
AcDbEntity
100
AcDbLine
  8
Layer0
 62
256
370
-1
  6
BYLAYER
 10
245.71895800914001
 20
54.102586932238196
 30
0.0
 11
245.281931894016
 21
53.533043410413903
 31
0.0
  0
LINE
  5
198
100
AcDbEntity
100
AcDbLine
  8
Layer0
 62
256
370
-1
  6
BYLAYER
 10
245.281931894016
 20
53.533043410413903
 30
0.0
 11
245.00720579311701
 21
52.869795931686802
 31
0.0
  0
LINE
  5
199
100
AcDbEntity
100
AcDbLine
  8
Layer0
 62
256
370
-1
  6
BYLAYER
 10
245.00720579311701
 20
52.869795931686802
 30
0.0
 11
244.91350183621401
 21
52.158043715663901
 31
0.0
  0
LINE
  5
19A
100
AcDbEntity
100
AcDbLine
  8
Layer0
 62
256
370
-1
  6
BYLAYER
 10
244.91350183621401
 20
52.158043715663901
 30
0.0
 11
245.00720579311701
 21
51.4462914996409
 31
0.0
  0
LINE
  5
19B
100
AcDbEntity
100
AcDbLine
  8
Layer0
 62
256
370
-1
  6
BYLAYER
 10
245.00720579311701
 20
51.4462914996409
 30
0.0
 11
245.281931894016
 21
50.783044020913799
 31
0.0
  0
LINE
  5
19C
100
AcDbEntity
100
AcDbLine
  8
Layer0
 62
256
370
-1
  6
BYLAYER
 10
245.281931894016
 20
50.783044020913799
 30
0.0
 11
245.71895800914001
 21
50.213500499089498
 31
0.0
  0
LINE
  5
19D
100
AcDbEntity
100
AcDbLine
  8
Layer0
 62
256
370
-1
  6
BYLAYER
 10
245.71895800914001
 20
50.213500499089498
 30
0.0
 11
246.288501530964
 21
49.776474383965102
 31
0.0
  0
LINE
  5
19E
100
AcDbEntity
100
AcDbLine
  8
Layer0
 62
256
370
-1
  6
BYLAYER
 10
246.288501530964
 20
49.776474383965102
 30
0.0
 11
246.95174900969201
 21
49.501748283066597
 31
0.0
  0
LINE
  5
19F
100
AcDbEntity
100
AcDbLine
  8
Layer0
 62
256
370
-1
  6
BYLAYER
 10
246.95174900969201
 20
49.501748283066597
 30
0.0
 11
247.66350122571399
 21
49.408044326163797
 31
0.0
  0
LINE
  5
1A0
100
AcDbEntity
100
AcDbLine
  8
Layer0
 62
256
370
-1
  6
BYLAYER
 10
247.66350122571399
 20
49.408044326163797
 30
0.0
 11
248.37525344173699
 21
49.501748283066597
 31
0.0
  0
LINE
  5
1A1
100
AcDbEntity
100
AcDbLine
  8
Layer0
 62
256
370
-1
  6
BYLAYER
 10
248.37525344173699
 20
49.501748283066597
 30
0.0
 11
249.038500920464
 21
49.776474383965102
 31
0.0
  0
LINE
  5
1A2
100
AcDbEntity
100
AcDbLine
  8
Layer0
 62
256
370
-1
  6
BYLAYER
 10
249.038500920464
 20
49.776474383965102
 30
0.0
 11
249.60804444228901
 21
50.213500499089498
 31
0.0
  0
LINE
  5
1A3
100
AcDbEntity
100
AcDbLine
  8
Layer0
 62
256
370
-1
  6
BYLAYER
 10
249.60804444228901
 20
50.213500499089498
 30
0.0
 11
250.045070557413
 21
50.783044020913799
 31
0.0
  0
LINE
  5
1A4
100
AcDbEntity
100
AcDbLine
  8
Layer0
 62
256
370
-1
  6
BYLAYER
 10
250.045070557413
 20
50.783044020913799
 30
0.0
 11
250.31979665831199
 21
51.4462914996409
 31
0.0
  0
LINE
  5
1A5
100
AcDbEntity
100
AcDbLine
  8
Layer0
 62
256
370
-1
  6
BYLAYER
 10
250.31979665831199
 20
51.4462914996409
 30
0.0
 11
250.41350061521399
 21
52.158043715663901
 31
0.0
  0
LINE
  5
1A6
100
AcDbEntity
100
AcDbLine
  8
Layer0
 62
256
370
-1
  6
BYLAYER
 10
295.41349062521402
 20
52.158043715663901
 30
0.0
 11
295.31978666831202
 21
52.869795931686802
 31
0.0
  0
LINE
  5
1A7
100
AcDbEntity
100
AcDbLine
  8
Layer0
 62
256
370
-1
  6
BYLAYER
 10
295.31978666831202
 20
52.869795931686802
 30
0.0
 11
295.04506056741297
 21
53.533043410413903
 31
0.0
  0
LINE
  5
1A8
100
AcDbEntity
100
AcDbLine
  8
Layer0
 62
256
370
-1
  6
BYLAYER
 10
295.04506056741297
 20
53.533043410413903
 30
0.0
 11
294.60803445228902
 21
54.102586932238196
 31
0.0
  0
LINE
  5
1A9
100
AcDbEntity
100
AcDbLine
  8
Layer0
 62
256
370
-1
  6
BYLAYER
 10
294.60803445228902
 20
54.102586932238196
 30
0.0
 11
294.03849093046398
 21
54.5396130473626
 31
0.0
  0
LINE
  5
1AA
100
AcDbEntity
100
AcDbLine
  8
Layer0
 62
256
370
-1
  6
BYLAYER
 10
137.663483614726
 20
61.333921380245599
 30
0.0
 11
137.663483614726
 21
86.333921380245599
 31
0.0
  0
LINE
  5
1AB
100
AcDbEntity
100
AcDbLine
  8
Layer0
 62
256
370
-1
  6
BYLAYER
 10
147.663483033853
 20
61.333921380245599
 30
0.0
 11
137.663483614726
 21
61.333921380245599
 31
0.0
  0
LINE
  5
1AC
100
AcDbEntity
100
AcDbLine
  8
Layer0
 62
256
370
-1
  6
BYLAYER
 10
147.663483033853
 20
142.13390922074601
 30
0.0
 11
147.663483033853
 21
117.13390922074601
 31
0.0
  0
LINE
  5
1AD
100
AcDbEntity
100
AcDbLine
  8
Layer0
 62
256
370
-1
  6
BYLAYER
 10
137.663483614726
 20
142.13390922074601
 30
0.0
 11
147.663483033853
 21
142.13390922074601
 31
0.0
  0
LINE
  5
1AE
100
AcDbEntity
100
AcDbLine
  8
Layer0
 62
256
370
-1
  6
BYLAYER
 10
57.663499437575503
 20
61.333921380245599
 30
0.0
 11
67.663498856702901
 21
61.333921380245599
 31
0.0
  0
LINE
  5
1AF
100
AcDbEntity
100
AcDbLine
  8
Layer0
 62
256
370
-1
  6
BYLAYER
 10
67.663498856702901
 20
61.333921380245599
 30
0.0
 11
67.663498856702901
 21
86.333921380245599
 31
0.0
  0
LINE
  5
1B0
100
AcDbEntity
100
AcDbLine
  8
Layer0
 62
256
370
-1
  6
BYLAYER
 10
67.663498856702901
 20
142.33390922074599
 30
0.0
 11
57.663499437575503
 21
142.33390922074599
 31
0.0
  0
LINE
  5
1B1
100
AcDbEntity
100
AcDbLine
  8
Layer0
 62
256
370
-1
  6
BYLAYER
 10
57.663499437575503
 20
142.33390922074599
 30
0.0
 11
57.663499437575503
 21
117.13390922074601
 31
0.0
  0
LINE
  5
1B2
100
AcDbEntity
100
AcDbLine
  8
Layer0
 62
256
370
-1
  6
BYLAYER
 10
293.37524345173699
 20
54.814339148261098
 30
0.0
 11
292.66349123571399
 21
54.908043105163898
 31
0.0
  0
LINE
  5
1B3
100
AcDbEntity
100
AcDbLine
  8
Layer0
 62
256
370
-1
  6
BYLAYER
 10
94.063492852851795
 20
114.833914078737
 30
0.0
 11
94.063492852851795
 21
101.833914078737
 31
0.0
  0
LINE
  5
1B4
100
AcDbEntity
100
AcDbLine
  8
Layer0
 62
256
370
-1
  6
BYLAYER
 10
294.03849093046398
 20
54.5396130473626
 30
0.0
 11
293.37524345173699
 21
54.814339148261098
 31
0.0
  0
LINE
  5
1B5
100
AcDbEntity
100
AcDbLine
  8
Layer0
 62
256
370
-1
  6
BYLAYER
 10
111.263489618577
 20
74.833922921484202
 30
0.0
 11
111.263489618577
 21
87.833922921484202
 31
0.0
  0
LINE
  5
1B6
100
AcDbEntity
100
AcDbLine
  8
Layer0
 62
256
370
-1
  6
BYLAYER
 10
154.41347974721401
 20
148.833906642496
 30
0.0
 11
154.31977579031101
 21
149.545658858519
 31
0.0
  0
LINE
  5
1B7
100
AcDbEntity
100
AcDbLine
  8
Layer0
 62
256
370
-1
  6
BYLAYER
 10
154.31977579031101
 20
149.545658858519
 30
0.0
 11
154.04504968941299
 21
150.20890633724599
 31
0.0
  0
LINE
  5
1B8
100
AcDbEntity
100
AcDbLine
  8
Layer0
 62
256
370
-1
  6
BYLAYER
 10
154.04504968941299
 20
150.20890633724599
 30
0.0
 11
153.60802357428801
 21
150.77844985907001
 31
0.0
  0
LINE
  5
1B9
100
AcDbEntity
100
AcDbLine
  8
Layer0
 62
256
370
-1
  6
BYLAYER
 10
153.60802357428801
 20
150.77844985907001
 30
0.0
 11
153.038480052464
 21
151.21547597419499
 31
0.0
  0
LINE
  5
1BA
100
AcDbEntity
100
AcDbLine
  8
Layer0
 62
256
370
-1
  6
BYLAYER
 10
153.038480052464
 20
151.21547597419499
 30
0.0
 11
152.37523257373701
 21
151.49020207509301
 31
0.0
  0
LINE
  5
1BB
100
AcDbEntity
100
AcDbLine
  8
Layer0
 62
256
370
-1
  6
BYLAYER
 10
152.37523257373701
 20
151.49020207509301
 30
0.0
 11
151.66348035771401
 21
151.58390603199601
 31
0.0
  0
LINE
  5
1BC
100
AcDbEntity
100
AcDbLine
  8
Layer0
 62
256
370
-1
  6
BYLAYER
 10
151.66348035771401
 20
151.58390603199601
 30
0.0
 11
150.95172814169101
 21
151.49020207509301
 31
0.0
  0
LINE
  5
1BD
100
AcDbEntity
100
AcDbLine
  8
Layer0
 62
256
370
-1
  6
BYLAYER
 10
150.95172814169101
 20
151.49020207509301
 30
0.0
 11
150.28848066296399
 21
151.21547597419499
 31
0.0
  0
LINE
  5
1BE
100
AcDbEntity
100
AcDbLine
  8
Layer0
 62
256
370
-1
  6
BYLAYER
 10
150.28848066296399
 20
151.21547597419499
 30
0.0
 11
149.71893714114
 21
150.77844985907001
 31
0.0
  0
LINE
  5
1BF
100
AcDbEntity
100
AcDbLine
  8
Layer0
 62
256
370
-1
  6
BYLAYER
 10
149.71893714114
 20
150.77844985907001
 30
0.0
 11
149.281911026015
 21
150.20890633724599
 31
0.0
  0
LINE
  5
1C0
100
AcDbEntity
100
AcDbLine
  8
Layer0
 62
256
370
-1
  6
BYLAYER
 10
149.281911026015
 20
150.20890633724599
 30
0.0
 11
149.007184925117
 21
149.545658858519
 31
0.0
  0
LINE
  5
1C1
100
AcDbEntity
100
AcDbLine
  8
Layer0
 62
256
370
-1
  6
BYLAYER
 10
149.007184925117
 20
149.545658858519
 30
0.0
 11
148.913480968214
 21
148.833906642496
 31
0.0
  0
LINE
  5
1C2
100
AcDbEntity
100
AcDbLine
  8
Layer0
 62
256
370
-1
  6
BYLAYER
 10
148.913480968214
 20
148.833906642496
 30
0.0
 11
149.007184925117
 21
148.122154426473
 31
0.0
  0
LINE
  5
1C3
100
AcDbEntity
100
AcDbLine
  8
Layer0
 62
256
370
-1
  6
BYLAYER
 10
149.007184925117
 20
148.122154426473
 30
0.0
 11
149.281911026015
 21
147.45890694774599
 31
0.0
  0
LINE
  5
1C4
100
AcDbEntity
100
AcDbLine
  8
Layer0
 62
256
370
-1
  6
BYLAYER
 10
149.281911026015
 20
147.45890694774599
 30
0.0
 11
149.71893714114
 21
146.889363425921
 31
0.0
  0
LINE
  5
1C5
100
AcDbEntity
100
AcDbLine
  8
Layer0
 62
256
370
-1
  6
BYLAYER
 10
149.71893714114
 20
146.889363425921
 30
0.0
 11
150.28848066296399
 21
146.45233731079699
 31
0.0
  0
LINE
  5
1C6
100
AcDbEntity
100
AcDbLine
  8
Layer0
 62
256
370
-1
  6
BYLAYER
 10
150.28848066296399
 20
146.45233731079699
 30
0.0
 11
150.95172814169101
 21
146.177611209899
 31
0.0
  0
LINE
  5
1C7
100
AcDbEntity
100
AcDbLine
  8
Layer0
 62
256
370
-1
  6
BYLAYER
 10
150.95172814169101
 20
146.177611209899
 30
0.0
 11
151.66348035771401
 21
146.083907252996
 31
0.0
  0
LINE
  5
1C8
100
AcDbEntity
100
AcDbLine
  8
Layer0
 62
256
370
-1
  6
BYLAYER
 10
151.66348035771401
 20
146.083907252996
 30
0.0
 11
152.37523257373701
 21
146.177611209899
 31
0.0
  0
LINE
  5
1C9
100
AcDbEntity
100
AcDbLine
  8
Layer0
 62
256
370
-1
  6
BYLAYER
 10
152.37523257373701
 20
146.177611209899
 30
0.0
 11
153.038480052464
 21
146.45233731079699
 31
0.0
  0
LINE
  5
1CA
100
AcDbEntity
100
AcDbLine
  8
Layer0
 62
256
370
-1
  6
BYLAYER
 10
153.038480052464
 20
146.45233731079699
 30
0.0
 11
153.60802357428801
 21
146.889363425921
 31
0.0
  0
LINE
  5
1CB
100
AcDbEntity
100
AcDbLine
  8
Layer0
 62
256
370
-1
  6
BYLAYER
 10
153.60802357428801
 20
146.889363425921
 30
0.0
 11
154.04504968941299
 21
147.45890694774599
 31
0.0
  0
LINE
  5
1CC
100
AcDbEntity
100
AcDbLine
  8
Layer0
 62
256
370
-1
  6
BYLAYER
 10
154.04504968941299
 20
147.45890694774599
 30
0.0
 11
154.31977579031101
 21
148.122154426473
 31
0.0
  0
LINE
  5
1CD
100
AcDbEntity
100
AcDbLine
  8
Layer0
 62
256
370
-1
  6
BYLAYER
 10
154.31977579031101
 20
148.122154426473
 30
0.0
 11
154.41347974721401
 21
148.833906642496
 31
0.0
  0
LINE
  5
1CE
100
AcDbEntity
100
AcDbLine
  8
Layer0
 62
256
370
-1
  6
BYLAYER
 10
130.413485075214
 20
74.8339230704958
 30
0.0
 11
130.319781118311
 21
75.545675286518701
 31
0.0
  0
LINE
  5
1CF
100
AcDbEntity
100
AcDbLine
  8
Layer0
 62
256
370
-1
  6
BYLAYER
 10
130.319781118311
 20
75.545675286518701
 30
0.0
 11
130.04505501741301
 21
76.208922765245802
 31
0.0
  0
LINE
  5
1D0
100
AcDbEntity
100
AcDbLine
  8
Layer0
 62
256
370
-1
  6
BYLAYER
 10
130.04505501741301
 20
76.208922765245802
 30
0.0
 11
129.608028902288
 21
76.778466287070103
 31
0.0
  0
LINE
  5
1D1
100
AcDbEntity
100
AcDbLine
  8
Layer0
 62
256
370
-1
  6
BYLAYER
 10
129.608028902288
 20
76.778466287070103
 30
0.0
 11
129.03848538046401
 21
77.215492402194499
 31
0.0
  0
LINE
  5
1D2
100
AcDbEntity
100
AcDbLine
  8
Layer0
 62
256
370
-1
  6
BYLAYER
 10
129.03848538046401
 20
77.215492402194499
 30
0.0
 11
128.37523790173699
 21
77.490218503093004
 31
0.0
  0
LINE
  5
1D3
100
AcDbEntity
100
AcDbLine
  8
Layer0
 62
256
370
-1
  6
BYLAYER
 10
128.37523790173699
 20
77.490218503093004
 30
0.0
 11
127.66348568571399
 21
77.583922459995804
 31
0.0
  0
LINE
  5
1D4
100
AcDbEntity
100
AcDbLine
  8
Layer0
 62
256
370
-1
  6
BYLAYER
 10
127.66348568571399
 20
77.583922459995804
 30
0.0
 11
126.95173346969101
 21
77.490218503093004
 31
0.0
  0
LINE
  5
1D5
100
AcDbEntity
100
AcDbLine
  8
Layer0
 62
256
370
-1
  6
BYLAYER
 10
126.95173346969101
 20
77.490218503093004
 30
0.0
 11
126.28848599096401
 21
77.215492402194499
 31
0.0
  0
LINE
  5
1D6
100
AcDbEntity
100
AcDbLine
  8
Layer0
 62
256
370
-1
  6
BYLAYER
 10
126.28848599096401
 20
77.215492402194499
 30
0.0
 11
125.71894246914
 21
76.778466287070103
 31
0.0
  0
LINE
  5
1D7
100
AcDbEntity
100
AcDbLine
  8
Layer0
 62
256
370
-1
  6
BYLAYER
 10
125.71894246914
 20
76.778466287070103
 30
0.0
 11
125.281916354015
 21
76.208922765245802
 31
0.0
  0
LINE
  5
1D8
100
AcDbEntity
100
AcDbLine
  8
Layer0
 62
256
370
-1
  6
BYLAYER
 10
125.281916354015
 20
76.208922765245802
 30
0.0
 11
125.007190253117
 21
75.545675286518701
 31
0.0
  0
LINE
  5
1D9
100
AcDbEntity
100
AcDbLine
  8
Layer0
 62
256
370
-1
  6
BYLAYER
 10
125.007190253117
 20
75.545675286518701
 30
0.0
 11
124.913486296214
 21
74.8339230704958
 31
0.0
  0
LINE
  5
1DA
100
AcDbEntity
100
AcDbLine
  8
Layer0
 62
256
370
-1
  6
BYLAYER
 10
124.913486296214
 20
74.8339230704958
 30
0.0
 11
125.007190253117
 21
74.122170854472898
 31
0.0
  0
LINE
  5
1DB
100
AcDbEntity
100
AcDbLine
  8
Layer0
 62
256
370
-1
  6
BYLAYER
 10
125.007190253117
 20
74.122170854472898
 30
0.0
 11
125.281916354015
 21
73.458923375745798
 31
0.0
  0
LINE
  5
1DC
100
AcDbEntity
100
AcDbLine
  8
Layer0
 62
256
370
-1
  6
BYLAYER
 10
125.281916354015
 20
73.458923375745798
 30
0.0
 11
125.71894246914
 21
72.889379853921497
 31
0.0
  0
LINE
  5
1DD
100
AcDbEntity
100
AcDbLine
  8
Layer0
 62
256
370
-1
  6
BYLAYER
 10
125.71894246914
 20
72.889379853921497
 30
0.0
 11
126.28848599096401
 21
72.4523537387971
 31
0.0
  0
LINE
  5
1DE
100
AcDbEntity
100
AcDbLine
  8
Layer0
 62
256
370
-1
  6
BYLAYER
 10
126.28848599096401
 20
72.4523537387971
 30
0.0
 11
126.95173346969101
 21
72.177627637898595
 31
0.0
  0
LINE
  5
1DF
100
AcDbEntity
100
AcDbLine
  8
Layer0
 62
256
370
-1
  6
BYLAYER
 10
126.95173346969101
 20
72.177627637898595
 30
0.0
 11
127.66348568571399
 21
72.083923680995795
 31
0.0
  0
LINE
  5
1E0
100
AcDbEntity
100
AcDbLine
  8
Layer0
 62
256
370
-1
  6
BYLAYER
 10
127.66348568571399
 20
72.083923680995795
 30
0.0
 11
128.37523790173699
 21
72.177627637898595
 31
0.0
  0
LINE
  5
1E1
100
AcDbEntity
100
AcDbLine
  8
Layer0
 62
256
370
-1
  6
BYLAYER
 10
128.37523790173699
 20
72.177627637898595
 30
0.0
 11
129.03848538046401
 21
72.4523537387971
 31
0.0
  0
LINE
  5
1E2
100
AcDbEntity
100
AcDbLine
  8
Layer0
 62
256
370
-1
  6
BYLAYER
 10
129.03848538046401
 20
72.4523537387971
 30
0.0
 11
129.608028902288
 21
72.889379853921497
 31
0.0
  0
LINE
  5
1E3
100
AcDbEntity
100
AcDbLine
  8
Layer0
 62
256
370
-1
  6
BYLAYER
 10
129.608028902288
 20
72.889379853921497
 30
0.0
 11
130.04505501741301
 21
73.458923375745798
 31
0.0
  0
LINE
  5
1E4
100
AcDbEntity
100
AcDbLine
  8
Layer0
 62
256
370
-1
  6
BYLAYER
 10
130.04505501741301
 20
73.458923375745798
 30
0.0
 11
130.319781118311
 21
74.122170854472898
 31
0.0
  0
LINE
  5
1E5
100
AcDbEntity
100
AcDbLine
  8
Layer0
 62
256
370
-1
  6
BYLAYER
 10
130.319781118311
 20
74.122170854472898
 30
0.0
 11
130.413485075214
 21
74.8339230704958
 31
0.0
  0
LINE
  5
1E6
100
AcDbEntity
100
AcDbLine
  8
Layer0
 62
256
370
-1
  6
BYLAYER
 10
80.413496175213993
 20
74.8339230704958
 30
0.0
 11
80.319792218311207
 21
75.545675286518701
 31
0.0
  0
LINE
  5
1E7
100
AcDbEntity
100
AcDbLine
  8
Layer0
 62
256
370
-1
  6
BYLAYER
 10
80.319792218311207
 20
75.545675286518701
 30
0.0
 11
80.045066117412702
 21
76.208922765245802
 31
0.0
  0
LINE
  5
1E8
100
AcDbEntity
100
AcDbLine
  8
Layer0
 62
256
370
-1
  6
BYLAYER
 10
80.045066117412702
 20
76.208922765245802
 30
0.0
 11
79.608040002288305
 21
76.778466287070103
 31
0.0
  0
LINE
  5
1E9
100
AcDbEntity
100
AcDbLine
  8
Layer0
 62
256
370
-1
  6
BYLAYER
 10
79.608040002288305
 20
76.778466287070103
 30
0.0
 11
79.038496480464104
 21
77.2154924021944
 31
0.0
  0
LINE
  5
1EA
100
AcDbEntity
100
AcDbLine
  8
Layer0
 62
256
370
-1
  6
BYLAYER
 10
79.038496480464104
 20
77.2154924021944
 30
0.0
 11
78.375249001737004
 21
77.490218503092905
 31
0.0
  0
LINE
  5
1EB
100
AcDbEntity
100
AcDbLine
  8
Layer0
 62
256
370
-1
  6
BYLAYER
 10
78.375249001737004
 20
77.490218503092905
 30
0.0
 11
77.663496785714102
 21
77.583922459995705
 31
0.0
  0
LINE
  5
1EC
100
AcDbEntity
100
AcDbLine
  8
Layer0
 62
256
370
-1
  6
BYLAYER
 10
77.663496785714102
 20
77.583922459995705
 30
0.0
 11
76.9517445696913
 21
77.490218503092905
 31
0.0
  0
LINE
  5
1ED
100
AcDbEntity
100
AcDbLine
  8
Layer0
 62
256
370
-1
  6
BYLAYER
 10
76.9517445696913
 20
77.490218503092905
 30
0.0
 11
76.288497090964199
 21
77.2154924021944
 31
0.0
  0
LINE
  5
1EE
100
AcDbEntity
100
AcDbLine
  8
Layer0
 62
256
370
-1
  6
BYLAYER
 10
76.288497090964199
 20
77.2154924021944
 30
0.0
 11
75.718953569139998
 21
76.778466287070103
 31
0.0
  0
LINE
  5
1EF
100
AcDbEntity
100
AcDbLine
  8
Layer0
 62
256
370
-1
  6
BYLAYER
 10
75.718953569139998
 20
76.778466287070103
 30
0.0
 11
75.281927454015502
 21
76.208922765245802
 31
0.0
  0
LINE
  5
1F0
100
AcDbEntity
100
AcDbLine
  8
Layer0
 62
256
370
-1
  6
BYLAYER
 10
75.281927454015502
 20
76.208922765245802
 30
0.0
 11
75.007201353116997
 21
75.545675286518701
 31
0.0
  0
LINE
  5
1F1
100
AcDbEntity
100
AcDbLine
  8
Layer0
 62
256
370
-1
  6
BYLAYER
 10
75.007201353116997
 20
75.545675286518701
 30
0.0
 11
74.913497396214197
 21
74.8339230704958
 31
0.0
  0
LINE
  5
1F2
100
AcDbEntity
100
AcDbLine
  8
Layer0
 62
256
370
-1
  6
BYLAYER
 10
74.913497396214197
 20
74.8339230704958
 30
0.0
 11
75.007201353116997
 21
74.122170854472898
 31
0.0
  0
LINE
  5
1F3
100
AcDbEntity
100
AcDbLine
  8
Layer0
 62
256
370
-1
  6
BYLAYER
 10
75.007201353116997
 20
74.122170854472898
 30
0.0
 11
75.281927454015502
 21
73.458923375745897
 31
0.0
  0
LINE
  5
1F4
100
AcDbEntity
100
AcDbLine
  8
Layer0
 62
256
370
-1
  6
BYLAYER
 10
75.281927454015502
 20
73.458923375745897
 30
0.0
 11
75.718953569139998
 21
72.889379853921596
 31
0.0
  0
LINE
  5
1F5
100
AcDbEntity
100
AcDbLine
  8
Layer0
 62
256
370
-1
  6
BYLAYER
 10
75.718953569139998
 20
72.889379853921596
 30
0.0
 11
76.2884970909641
 21
72.4523537387972
 31
0.0
  0
LINE
  5
1F6
100
AcDbEntity
100
AcDbLine
  8
Layer0
 62
256
370
-1
  6
BYLAYER
 10
76.2884970909641
 20
72.4523537387972
 30
0.0
 11
76.9517445696913
 21
72.177627637898695
 31
0.0
  0
LINE
  5
1F7
100
AcDbEntity
100
AcDbLine
  8
Layer0
 62
256
370
-1
  6
BYLAYER
 10
76.9517445696913
 20
72.177627637898695
 30
0.0
 11
77.663496785714102
 21
72.083923680995895
 31
0.0
  0
LINE
  5
1F8
100
AcDbEntity
100
AcDbLine
  8
Layer0
 62
256
370
-1
  6
BYLAYER
 10
77.663496785714102
 20
72.083923680995895
 30
0.0
 11
78.375249001737004
 21
72.177627637898695
 31
0.0
  0
LINE
  5
1F9
100
AcDbEntity
100
AcDbLine
  8
Layer0
 62
256
370
-1
  6
BYLAYER
 10
78.375249001737004
 20
72.177627637898695
 30
0.0
 11
79.038496480464005
 21
72.4523537387972
 31
0.0
  0
LINE
  5
1FA
100
AcDbEntity
100
AcDbLine
  8
Layer0
 62
256
370
-1
  6
BYLAYER
 10
79.038496480464005
 20
72.4523537387972
 30
0.0
 11
79.608040002288305
 21
72.889379853921596
 31
0.0
  0
LINE
  5
1FB
100
AcDbEntity
100
AcDbLine
  8
Layer0
 62
256
370
-1
  6
BYLAYER
 10
79.608040002288305
 20
72.889379853921596
 30
0.0
 11
80.045066117412702
 21
73.458923375745897
 31
0.0
  0
LINE
  5
1FC
100
AcDbEntity
100
AcDbLine
  8
Layer0
 62
256
370
-1
  6
BYLAYER
 10
80.045066117412702
 20
73.458923375745897
 30
0.0
 11
80.319792218311207
 21
74.122170854472898
 31
0.0
  0
LINE
  5
1FD
100
AcDbEntity
100
AcDbLine
  8
Layer0
 62
256
370
-1
  6
BYLAYER
 10
80.319792218311207
 20
74.122170854472898
 30
0.0
 11
80.413496175213993
 21
74.8339230704958
 31
0.0
  0
LINE
  5
1FE
100
AcDbEntity
100
AcDbLine
  8
Layer0
 62
256
370
-1
  6
BYLAYER
 10
56.413501503214
 20
148.833906642496
 30
0.0
 11
56.3197975463112
 21
149.545658858519
 31
0.0
  0
LINE
  5
1FF
100
AcDbEntity
100
AcDbLine
  8
Layer0
 62
256
370
-1
  6
BYLAYER
 10
56.3197975463112
 20
149.545658858519
 30
0.0
 11
56.045071445412702
 21
150.20890633724599
 31
0.0
  0
LINE
  5
200
100
AcDbEntity
100
AcDbLine
  8
Layer0
 62
256
370
-1
  6
BYLAYER
 10
56.045071445412702
 20
150.20890633724599
 30
0.0
 11
55.608045330288398
 21
150.77844985907001
 31
0.0
  0
LINE
  5
201
100
AcDbEntity
100
AcDbLine
  8
Layer0
 62
256
370
-1
  6
BYLAYER
 10
55.608045330288398
 20
150.77844985907001
 30
0.0
 11
55.038501808464098
 21
151.21547597419399
 31
0.0
  0
LINE
  5
202
100
AcDbEntity
100
AcDbLine
  8
Layer0
 62
256
370
-1
  6
BYLAYER
 10
55.038501808464098
 20
151.21547597419399
 30
0.0
 11
54.375254329736997
 21
151.49020207509301
 31
0.0
  0
LINE
  5
203
100
AcDbEntity
100
AcDbLine
  8
Layer0
 62
256
370
-1
  6
BYLAYER
 10
54.375254329736997
 20
151.49020207509301
 30
0.0
 11
53.663502113714202
 21
151.58390603199601
 31
0.0
  0
LINE
  5
204
100
AcDbEntity
100
AcDbLine
  8
Layer0
 62
256
370
-1
  6
BYLAYER
 10
53.663502113714202
 20
151.58390603199601
 30
0.0
 11
52.951749897691201
 21
151.49020207509301
 31
0.0
  0
LINE
  5
205
100
AcDbEntity
100
AcDbLine
  8
Layer0
 62
256
370
-1
  6
BYLAYER
 10
52.951749897691201
 20
151.49020207509301
 30
0.0
 11
52.2885024189642
 21
151.21547597419399
 31
0.0
  0
LINE
  5
206
100
AcDbEntity
100
AcDbLine
  8
Layer0
 62
256
370
-1
  6
BYLAYER
 10
52.2885024189642
 20
151.21547597419399
 30
0.0
 11
51.7189588971398
 21
150.77844985907001
 31
0.0
  0
LINE
  5
207
100
AcDbEntity
100
AcDbLine
  8
Layer0
 62
256
370
-1
  6
BYLAYER
 10
51.7189588971398
 20
150.77844985907001
 30
0.0
 11
51.281932782015502
 21
150.20890633724599
 31
0.0
  0
LINE
  5
208
100
AcDbEntity
100
AcDbLine
  8
Layer0
 62
256
370
-1
  6
BYLAYER
 10
51.281932782015502
 20
150.20890633724599
 30
0.0
 11
51.007206681116998
 21
149.545658858519
 31
0.0
  0
LINE
  5
209
100
AcDbEntity
100
AcDbLine
  8
Layer0
 62
256
370
-1
  6
BYLAYER
 10
51.007206681116998
 20
149.545658858519
 30
0.0
 11
50.913502724214197
 21
148.833906642496
 31
0.0
  0
LINE
  5
20A
100
AcDbEntity
100
AcDbLine
  8
Layer0
 62
256
370
-1
  6
BYLAYER
 10
50.913502724214197
 20
148.833906642496
 30
0.0
 11
51.007206681116998
 21
148.122154426473
 31
0.0
  0
LINE
  5
20B
100
AcDbEntity
100
AcDbLine
  8
Layer0
 62
256
370
-1
  6
BYLAYER
 10
51.007206681116998
 20
148.122154426473
 30
0.0
 11
51.281932782015502
 21
147.45890694774599
 31
0.0
  0
LINE
  5
20C
100
AcDbEntity
100
AcDbLine
  8
Layer0
 62
256
370
-1
  6
BYLAYER
 10
51.281932782015502
 20
147.45890694774599
 30
0.0
 11
51.7189588971398
 21
146.889363425922
 31
0.0
  0
LINE
  5
20D
100
AcDbEntity
100
AcDbLine
  8
Layer0
 62
256
370
-1
  6
BYLAYER
 10
51.7189588971398
 20
146.889363425922
 30
0.0
 11
52.2885024189642
 21
146.45233731079699
 31
0.0
  0
LINE
  5
20E
100
AcDbEntity
100
AcDbLine
  8
Layer0
 62
256
370
-1
  6
BYLAYER
 10
52.2885024189642
 20
146.45233731079699
 30
0.0
 11
52.951749897691201
 21
146.177611209899
 31
0.0
  0
LINE
  5
20F
100
AcDbEntity
100
AcDbLine
  8
Layer0
 62
256
370
-1
  6
BYLAYER
 10
52.951749897691201
 20
146.177611209899
 30
0.0
 11
53.663502113714202
 21
146.083907252996
 31
0.0
  0
LINE
  5
210
100
AcDbEntity
100
AcDbLine
  8
Layer0
 62
256
370
-1
  6
BYLAYER
 10
53.663502113714202
 20
146.083907252996
 30
0.0
 11
54.375254329736997
 21
146.177611209899
 31
0.0
  0
LINE
  5
211
100
AcDbEntity
100
AcDbLine
  8
Layer0
 62
256
370
-1
  6
BYLAYER
 10
54.375254329736997
 20
146.177611209899
 30
0.0
 11
55.038501808464098
 21
146.45233731079699
 31
0.0
  0
LINE
  5
212
100
AcDbEntity
100
AcDbLine
  8
Layer0
 62
256
370
-1
  6
BYLAYER
 10
55.038501808464098
 20
146.45233731079699
 30
0.0
 11
55.608045330288398
 21
146.889363425922
 31
0.0
  0
LINE
  5
213
100
AcDbEntity
100
AcDbLine
  8
Layer0
 62
256
370
-1
  6
BYLAYER
 10
55.608045330288398
 20
146.889363425922
 30
0.0
 11
56.045071445412702
 21
147.45890694774599
 31
0.0
  0
LINE
  5
214
100
AcDbEntity
100
AcDbLine
  8
Layer0
 62
256
370
-1
  6
BYLAYER
 10
56.045071445412702
 20
147.45890694774599
 30
0.0
 11
56.3197975463112
 21
148.122154426473
 31
0.0
  0
LINE
  5
215
100
AcDbEntity
100
AcDbLine
  8
Layer0
 62
256
370
-1
  6
BYLAYER
 10
56.3197975463112
 20
148.122154426473
 30
0.0
 11
56.413501503214
 21
148.833906642496
 31
0.0
  0
LINE
  5
216
100
AcDbEntity
100
AcDbLine
  8
Layer0
 62
256
370
-1
  6
BYLAYER
 10
47.6635037437375
 20
46.158041553833399
 30
0.0
 11
47.6635037437375
 21
152.83390721480899
 31
0.0
  0
LINE
  5
217
100
AcDbEntity
100
AcDbLine
  8
Layer0
 62
256
370
-1
  6
BYLAYER
 10
49.663503627563102
 20
154.833907098635
 30
0.0
 11
47.6635037437375
 21
152.83390721480899
 31
0.0
  0
LINE
  5
218
100
AcDbEntity
100
AcDbLine
  8
Layer0
 62
256
370
-1
  6
BYLAYER
 10
49.663503627563102
 20
154.833907098635
 30
0.0
 11
90.663493795406296
 21
154.833907098635
 31
0.0
  0
LINE
  5
219
100
AcDbEntity
100
AcDbLine
  8
Layer0
 62
256
370
-1
  6
BYLAYER
 10
92.663493679231806
 20
152.83390721480899
 30
0.0
 11
90.663493795406296
 21
154.833907098635
 31
0.0
  0
LINE
  5
21A
100
AcDbEntity
100
AcDbLine
  8
Layer0
 62
256
370
-1
  6
BYLAYER
 10
92.663493679231806
 20
152.83390721480899
 30
0.0
 11
92.663493679231806
 21
128.83391047154799
 31
0.0
  0
LINE
  5
21B
100
AcDbEntity
100
AcDbLine
  8
Layer0
 62
256
370
-1
  6
BYLAYER
 10
94.663492631734897
 20
126.833912450368
 30
0.0
 11
92.663493679231806
 21
128.83391047154799
 31
0.0
  0
LINE
  5
21C
100
AcDbEntity
100
AcDbLine
  8
Layer0
 62
256
370
-1
  6
BYLAYER
 10
94.663492631734897
 20
126.833912450368
 30
0.0
 11
110.66348983969399
 21
126.833912450368
 31
0.0
  0
LINE
  5
21D
100
AcDbEntity
100
AcDbLine
  8
Layer0
 62
256
370
-1
  6
BYLAYER
 10
112.663488792197
 20
128.83391047154799
 30
0.0
 11
110.66348983969399
 21
126.833912450368
 31
0.0
  0
LINE
  5
21E
100
AcDbEntity
100
AcDbLine
  8
Layer0
 62
256
370
-1
  6
BYLAYER
 10
112.663488792197
 20
128.83391047154799
 30
0.0
 11
112.663488792197
 21
152.83390721480899
 31
0.0
  0
LINE
  5
21F
100
AcDbEntity
100
AcDbLine
  8
Layer0
 62
256
370
-1
  6
BYLAYER
 10
114.66348867602299
 20
154.833907098635
 30
0.0
 11
112.663488792197
 21
152.83390721480899
 31
0.0
  0
LINE
  5
220
100
AcDbEntity
100
AcDbLine
  8
Layer0
 62
256
370
-1
  6
BYLAYER
 10
114.66348867602299
 20
154.833907098635
 30
0.0
 11
155.66347884386599
 21
154.833907098635
 31
0.0
  0
LINE
  5
221
100
AcDbEntity
100
AcDbLine
  8
Layer0
 62
256
370
-1
  6
BYLAYER
 10
157.663478727691
 20
152.83390721480899
 30
0.0
 11
155.66347884386599
 21
154.833907098635
 31
0.0
  0
LINE
  5
222
100
AcDbEntity
100
AcDbLine
  8
Layer0
 62
256
370
-1
  6
BYLAYER
 10
157.663478727691
 20
152.83390721480899
 30
0.0
 11
157.663478727691
 21
46.158041553833399
 31
0.0
  0
LINE
  5
223
100
AcDbEntity
100
AcDbLine
  8
Layer0
 62
256
370
-1
  6
BYLAYER
 10
155.66347884386599
 20
44.158045395297499
 30
0.0
 11
157.663478727691
 21
46.158041553833399
 31
0.0
  0
LINE
  5
224
100
AcDbEntity
100
AcDbLine
  8
Layer0
 62
256
370
-1
  6
BYLAYER
 10
155.66347884386599
 20
44.158045395297499
 30
0.0
 11
49.663503627563102
 21
44.158045395297499
 31
0.0
  0
LINE
  5
225
100
AcDbEntity
100
AcDbLine
  8
Layer0
 62
256
370
-1
  6
BYLAYER
 10
60.413500615214502
 20
52.158043715663901
 30
0.0
 11
60.319796658311702
 21
52.869795931686802
 31
0.0
  0
LINE
  5
226
100
AcDbEntity
100
AcDbLine
  8
Layer0
 62
256
370
-1
  6
BYLAYER
 10
60.319796658311702
 20
52.869795931686802
 30
0.0
 11
60.045070557413098
 21
53.533043410413903
 31
0.0
  0
LINE
  5
227
100
AcDbEntity
100
AcDbLine
  8
Layer0
 62
256
370
-1
  6
BYLAYER
 10
60.045070557413098
 20
53.533043410413903
 30
0.0
 11
59.608044442288801
 21
54.102586932238196
 31
0.0
  0
LINE
  5
228
100
AcDbEntity
100
AcDbLine
  8
Layer0
 62
256
370
-1
  6
BYLAYER
 10
59.608044442288801
 20
54.102586932238196
 30
0.0
 11
59.0385009204645
 21
54.5396130473626
 31
0.0
  0
LINE
  5
229
100
AcDbEntity
100
AcDbLine
  8
Layer0
 62
256
370
-1
  6
BYLAYER
 10
59.0385009204645
 20
54.5396130473626
 30
0.0
 11
58.375253441737399
 21
54.814339148261098
 31
0.0
  0
LINE
  5
22A
100
AcDbEntity
100
AcDbLine
  8
Layer0
 62
256
370
-1
  6
BYLAYER
 10
58.375253441737399
 20
54.814339148261098
 30
0.0
 11
57.663501225714498
 21
54.908043105163898
 31
0.0
  0
LINE
  5
22B
100
AcDbEntity
100
AcDbLine
  8
Layer0
 62
256
370
-1
  6
BYLAYER
 10
57.663501225714498
 20
54.908043105163898
 30
0.0
 11
56.951749009691497
 21
54.814339148261098
 31
0.0
  0
LINE
  5
22C
100
AcDbEntity
100
AcDbLine
  8
Layer0
 62
256
370
-1
  6
BYLAYER
 10
56.951749009691497
 20
54.814339148261098
 30
0.0
 11
56.288501530964503
 21
54.5396130473626
 31
0.0
  0
LINE
  5
22D
100
AcDbEntity
100
AcDbLine
  8
Layer0
 62
256
370
-1
  6
BYLAYER
 10
56.288501530964503
 20
54.5396130473626
 30
0.0
 11
55.718958009140103
 21
54.102586932238196
 31
0.0
  0
LINE
  5
22E
100
AcDbEntity
100
AcDbLine
  8
Layer0
 62
256
370
-1
  6
BYLAYER
 10
55.718958009140103
 20
54.102586932238196
 30
0.0
 11
55.281931894015798
 21
53.533043410413903
 31
0.0
  0
LINE
  5
22F
100
AcDbEntity
100
AcDbLine
  8
Layer0
 62
256
370
-1
  6
BYLAYER
 10
55.281931894015798
 20
53.533043410413903
 30
0.0
 11
55.007205793117201
 21
52.869795931686802
 31
0.0
  0
LINE
  5
230
100
AcDbEntity
100
AcDbLine
  8
Layer0
 62
256
370
-1
  6
BYLAYER
 10
55.007205793117201
 20
52.869795931686802
 30
0.0
 11
54.9135018362145
 21
52.158043715663901
 31
0.0
  0
LINE
  5
231
100
AcDbEntity
100
AcDbLine
  8
Layer0
 62
256
370
-1
  6
BYLAYER
 10
54.9135018362145
 20
52.158043715663901
 30
0.0
 11
55.007205793117201
 21
51.4462914996409
 31
0.0
  0
LINE
  5
232
100
AcDbEntity
100
AcDbLine
  8
Layer0
 62
256
370
-1
  6
BYLAYER
 10
55.007205793117201
 20
51.4462914996409
 30
0.0
 11
55.281931894015798
 21
50.783044020913799
 31
0.0
  0
LINE
  5
233
100
AcDbEntity
100
AcDbLine
  8
Layer0
 62
256
370
-1
  6
BYLAYER
 10
55.281931894015798
 20
50.783044020913799
 30
0.0
 11
55.718958009140103
 21
50.213500499089498
 31
0.0
  0
LINE
  5
234
100
AcDbEntity
100
AcDbLine
  8
Layer0
 62
256
370
-1
  6
BYLAYER
 10
55.718958009140103
 20
50.213500499089498
 30
0.0
 11
56.288501530964503
 21
49.776474383965102
 31
0.0
  0
LINE
  5
235
100
AcDbEntity
100
AcDbLine
  8
Layer0
 62
256
370
-1
  6
BYLAYER
 10
56.288501530964503
 20
49.776474383965102
 30
0.0
 11
56.951749009691497
 21
49.501748283066597
 31
0.0
  0
LINE
  5
236
100
AcDbEntity
100
AcDbLine
  8
Layer0
 62
256
370
-1
  6
BYLAYER
 10
56.951749009691497
 20
49.501748283066597
 30
0.0
 11
57.663501225714498
 21
49.408044326163797
 31
0.0
  0
LINE
  5
237
100
AcDbEntity
100
AcDbLine
  8
Layer0
 62
256
370
-1
  6
BYLAYER
 10
57.663501225714498
 20
49.408044326163797
 30
0.0
 11
58.3752534417373
 21
49.501748283066597
 31
0.0
  0
LINE
  5
238
100
AcDbEntity
100
AcDbLine
  8
Layer0
 62
256
370
-1
  6
BYLAYER
 10
58.3752534417373
 20
49.501748283066597
 30
0.0
 11
59.0385009204645
 21
49.776474383965102
 31
0.0
  0
LINE
  5
239
100
AcDbEntity
100
AcDbLine
  8
Layer0
 62
256
370
-1
  6
BYLAYER
 10
59.0385009204645
 20
49.776474383965102
 30
0.0
 11
59.608044442288801
 21
50.213500499089498
 31
0.0
  0
LINE
  5
23A
100
AcDbEntity
100
AcDbLine
  8
Layer0
 62
256
370
-1
  6
BYLAYER
 10
59.608044442288801
 20
50.213500499089498
 30
0.0
 11
60.045070557413098
 21
50.783044020913799
 31
0.0
  0
LINE
  5
23B
100
AcDbEntity
100
AcDbLine
  8
Layer0
 62
256
370
-1
  6
BYLAYER
 10
60.045070557413098
 20
50.783044020913799
 30
0.0
 11
60.319796658311702
 21
51.4462914996409
 31
0.0
  0
LINE
  5
23C
100
AcDbEntity
100
AcDbLine
  8
Layer0
 62
256
370
-1
  6
BYLAYER
 10
60.319796658311702
 20
51.4462914996409
 30
0.0
 11
60.413500615214502
 21
52.158043715663901
 31
0.0
  0
LINE
  5
23D
100
AcDbEntity
100
AcDbLine
  8
Layer0
 62
256
370
-1
  6
BYLAYER
 10
105.413490625214
 20
52.158043715663901
 30
0.0
 11
105.31978666831201
 21
52.869795931686802
 31
0.0
  0
LINE
  5
23E
100
AcDbEntity
100
AcDbLine
  8
Layer0
 62
256
370
-1
  6
BYLAYER
 10
105.31978666831201
 20
52.869795931686802
 30
0.0
 11
105.045060567413
 21
53.533043410413903
 31
0.0
  0
LINE
  5
23F
100
AcDbEntity
100
AcDbLine
  8
Layer0
 62
256
370
-1
  6
BYLAYER
 10
105.045060567413
 20
53.533043410413903
 30
0.0
 11
104.608034452289
 21
54.102586932238196
 31
0.0
  0
LINE
  5
240
100
AcDbEntity
100
AcDbLine
  8
Layer0
 62
256
370
-1
  6
BYLAYER
 10
104.608034452289
 20
54.102586932238196
 30
0.0
 11
104.03849093046399
 21
54.5396130473626
 31
0.0
  0
LINE
  5
241
100
AcDbEntity
100
AcDbLine
  8
Layer0
 62
256
370
-1
  6
BYLAYER
 10
104.03849093046399
 20
54.5396130473626
 30
0.0
 11
103.37524345173701
 21
54.814339148261098
 31
0.0
  0
LINE
  5
242
100
AcDbEntity
100
AcDbLine
  8
Layer0
 62
256
370
-1
  6
BYLAYER
 10
103.37524345173701
 20
54.814339148261098
 30
0.0
 11
102.66349123571401
 21
54.908043105163898
 31
0.0
  0
LINE
  5
243
100
AcDbEntity
100
AcDbLine
  8
Layer0
 62
256
370
-1
  6
BYLAYER
 10
102.66349123571401
 20
54.908043105163898
 30
0.0
 11
101.951739019692
 21
54.814339148261098
 31
0.0
  0
LINE
  5
244
100
AcDbEntity
100
AcDbLine
  8
Layer0
 62
256
370
-1
  6
BYLAYER
 10
101.951739019692
 20
54.814339148261098
 30
0.0
 11
101.288491540964
 21
54.5396130473626
 31
0.0
  0
LINE
  5
245
100
AcDbEntity
100
AcDbLine
  8
Layer0
 62
256
370
-1
  6
BYLAYER
 10
101.288491540964
 20
54.5396130473626
 30
0.0
 11
100.71894801914
 21
54.102586932238196
 31
0.0
  0
LINE
  5
246
100
AcDbEntity
100
AcDbLine
  8
Layer0
 62
256
370
-1
  6
BYLAYER
 10
100.71894801914
 20
54.102586932238196
 30
0.0
 11
100.281921904016
 21
53.533043410413903
 31
0.0
  0
LINE
  5
247
100
AcDbEntity
100
AcDbLine
  8
Layer0
 62
256
370
-1
  6
BYLAYER
 10
100.281921904016
 20
53.533043410413903
 30
0.0
 11
100.007195803117
 21
52.869795931686802
 31
0.0
  0
LINE
  5
248
100
AcDbEntity
100
AcDbLine
  8
Layer0
 62
256
370
-1
  6
BYLAYER
 10
100.007195803117
 20
52.869795931686802
 30
0.0
 11
99.913491846214399
 21
52.158043715663901
 31
0.0
  0
LINE
  5
249
100
AcDbEntity
100
AcDbLine
  8
Layer0
 62
256
370
-1
  6
BYLAYER
 10
99.913491846214399
 20
52.158043715663901
 30
0.0
 11
100.007195803117
 21
51.4462914996409
 31
0.0
  0
LINE
  5
24A
100
AcDbEntity
100
AcDbLine
  8
Layer0
 62
256
370
-1
  6
BYLAYER
 10
100.007195803117
 20
51.4462914996409
 30
0.0
 11
100.281921904016
 21
50.783044020913799
 31
0.0
  0
LINE
  5
24B
100
AcDbEntity
100
AcDbLine
  8
Layer0
 62
256
370
-1
  6
BYLAYER
 10
100.281921904016
 20
50.783044020913799
 30
0.0
 11
100.71894801914
 21
50.213500499089498
 31
0.0
  0
LINE
  5
24C
100
AcDbEntity
100
AcDbLine
  8
Layer0
 62
256
370
-1
  6
BYLAYER
 10
100.71894801914
 20
50.213500499089498
 30
0.0
 11
101.288491540964
 21
49.776474383965102
 31
0.0
  0
LINE
  5
24D
100
AcDbEntity
100
AcDbLine
  8
Layer0
 62
256
370
-1
  6
BYLAYER
 10
101.288491540964
 20
49.776474383965102
 30
0.0
 11
101.951739019692
 21
49.501748283066597
 31
0.0
  0
LINE
  5
24E
100
AcDbEntity
100
AcDbLine
  8
Layer0
 62
256
370
-1
  6
BYLAYER
 10
101.951739019692
 20
49.501748283066597
 30
0.0
 11
102.66349123571401
 21
49.408044326163797
 31
0.0
  0
LINE
  5
24F
100
AcDbEntity
100
AcDbLine
  8
Layer0
 62
256
370
-1
  6
BYLAYER
 10
102.66349123571401
 20
49.408044326163797
 30
0.0
 11
103.37524345173701
 21
49.501748283066597
 31
0.0
  0
LINE
  5
250
100
AcDbEntity
100
AcDbLine
  8
Layer0
 62
256
370
-1
  6
BYLAYER
 10
103.37524345173701
 20
49.501748283066597
 30
0.0
 11
104.03849093046399
 21
49.776474383965102
 31
0.0
  0
LINE
  5
251
100
AcDbEntity
100
AcDbLine
  8
Layer0
 62
256
370
-1
  6
BYLAYER
 10
104.03849093046399
 20
49.776474383965102
 30
0.0
 11
104.608034452289
 21
50.213500499089498
 31
0.0
  0
LINE
  5
252
100
AcDbEntity
100
AcDbLine
  8
Layer0
 62
256
370
-1
  6
BYLAYER
 10
104.608034452289
 20
50.213500499089498
 30
0.0
 11
105.045060567413
 21
50.783044020913799
 31
0.0
  0
LINE
  5
253
100
AcDbEntity
100
AcDbLine
  8
Layer0
 62
256
370
-1
  6
BYLAYER
 10
105.045060567413
 20
50.783044020913799
 30
0.0
 11
105.31978666831201
 21
51.4462914996409
 31
0.0
  0
LINE
  5
254
100
AcDbEntity
100
AcDbLine
  8
Layer0
 62
256
370
-1
  6
BYLAYER
 10
105.31978666831201
 20
51.4462914996409
 30
0.0
 11
105.413490625214
 21
52.158043715663901
 31
0.0
  0
LINE
  5
255
100
AcDbEntity
100
AcDbLine
  8
Layer0
 62
256
370
-1
  6
BYLAYER
 10
150.413480635215
 20
52.158043715663901
 30
0.0
 11
150.319776678312
 21
52.869795931686802
 31
0.0
  0
LINE
  5
256
100
AcDbEntity
100
AcDbLine
  8
Layer0
 62
256
370
-1
  6
BYLAYER
 10
150.319776678312
 20
52.869795931686802
 30
0.0
 11
150.04505057741301
 21
53.533043410413903
 31
0.0
  0
LINE
  5
257
100
AcDbEntity
100
AcDbLine
  8
Layer0
 62
256
370
-1
  6
BYLAYER
 10
150.04505057741301
 20
53.533043410413903
 30
0.0
 11
149.60802446228899
 21
54.102586932238196
 31
0.0
  0
LINE
  5
258
100
AcDbEntity
100
AcDbLine
  8
Layer0
 62
256
370
-1
  6
BYLAYER
 10
149.60802446228899
 20
54.102586932238196
 30
0.0
 11
149.03848094046501
 21
54.5396130473626
 31
0.0
  0
LINE
  5
259
100
AcDbEntity
100
AcDbLine
  8
Layer0
 62
256
370
-1
  6
BYLAYER
 10
149.03848094046501
 20
54.5396130473626
 30
0.0
 11
148.375233461737
 21
54.814339148261098
 31
0.0
  0
LINE
  5
25A
100
AcDbEntity
100
AcDbLine
  8
Layer0
 62
256
370
-1
  6
BYLAYER
 10
148.375233461737
 20
54.814339148261098
 30
0.0
 11
147.66348124571499
 21
54.908043105163898
 31
0.0
  0
LINE
  5
25B
100
AcDbEntity
100
AcDbLine
  8
Layer0
 62
256
370
-1
  6
BYLAYER
 10
147.66348124571499
 20
54.908043105163898
 30
0.0
 11
146.95172902969199
 21
54.814339148261098
 31
0.0
  0
LINE
  5
25C
100
AcDbEntity
100
AcDbLine
  8
Layer0
 62
256
370
-1
  6
BYLAYER
 10
146.95172902969199
 20
54.814339148261098
 30
0.0
 11
146.288481550965
 21
54.5396130473626
 31
0.0
  0
LINE
  5
25D
100
AcDbEntity
100
AcDbLine
  8
Layer0
 62
256
370
-1
  6
BYLAYER
 10
146.288481550965
 20
54.5396130473626
 30
0.0
 11
145.71893802913999
 21
54.102586932238196
 31
0.0
  0
LINE
  5
25E
100
AcDbEntity
100
AcDbLine
  8
Layer0
 62
256
370
-1
  6
BYLAYER
 10
145.71893802913999
 20
54.102586932238196
 30
0.0
 11
145.28191191401601
 21
53.533043410413903
 31
0.0
  0
LINE
  5
25F
100
AcDbEntity
100
AcDbLine
  8
Layer0
 62
256
370
-1
  6
BYLAYER
 10
145.28191191401601
 20
53.533043410413903
 30
0.0
 11
145.00718581311699
 21
52.869795931686802
 31
0.0
  0
LINE
  5
260
100
AcDbEntity
100
AcDbLine
  8
Layer0
 62
256
370
-1
  6
BYLAYER
 10
145.00718581311699
 20
52.869795931686802
 30
0.0
 11
144.91348185621499
 21
52.158043715663901
 31
0.0
  0
LINE
  5
261
100
AcDbEntity
100
AcDbLine
  8
Layer0
 62
256
370
-1
  6
BYLAYER
 10
144.91348185621499
 20
52.158043715663901
 30
0.0
 11
145.00718581311699
 21
51.4462914996409
 31
0.0
  0
LINE
  5
262
100
AcDbEntity
100
AcDbLine
  8
Layer0
 62
256
370
-1
  6
BYLAYER
 10
145.00718581311699
 20
51.4462914996409
 30
0.0
 11
145.28191191401601
 21
50.783044020913799
 31
0.0
  0
LINE
  5
263
100
AcDbEntity
100
AcDbLine
  8
Layer0
 62
256
370
-1
  6
BYLAYER
 10
145.28191191401601
 20
50.783044020913799
 30
0.0
 11
145.71893802913999
 21
50.213500499089498
 31
0.0
  0
LINE
  5
264
100
AcDbEntity
100
AcDbLine
  8
Layer0
 62
256
370
-1
  6
BYLAYER
 10
145.71893802913999
 20
50.213500499089498
 30
0.0
 11
146.288481550965
 21
49.776474383965102
 31
0.0
  0
LINE
  5
265
100
AcDbEntity
100
AcDbLine
  8
Layer0
 62
256
370
-1
  6
BYLAYER
 10
146.288481550965
 20
49.776474383965102
 30
0.0
 11
146.95172902969199
 21
49.501748283066597
 31
0.0
  0
LINE
  5
266
100
AcDbEntity
100
AcDbLine
  8
Layer0
 62
256
370
-1
  6
BYLAYER
 10
146.95172902969199
 20
49.501748283066597
 30
0.0
 11
147.66348124571499
 21
49.408044326163797
 31
0.0
  0
LINE
  5
267
100
AcDbEntity
100
AcDbLine
  8
Layer0
 62
256
370
-1
  6
BYLAYER
 10
147.66348124571499
 20
49.408044326163797
 30
0.0
 11
148.375233461737
 21
49.501748283066597
 31
0.0
  0
LINE
  5
268
100
AcDbEntity
100
AcDbLine
  8
Layer0
 62
256
370
-1
  6
BYLAYER
 10
148.375233461737
 20
49.501748283066597
 30
0.0
 11
149.03848094046501
 21
49.776474383965102
 31
0.0
  0
LINE
  5
269
100
AcDbEntity
100
AcDbLine
  8
Layer0
 62
256
370
-1
  6
BYLAYER
 10
149.03848094046501
 20
49.776474383965102
 30
0.0
 11
149.60802446228899
 21
50.213500499089498
 31
0.0
  0
LINE
  5
26A
100
AcDbEntity
100
AcDbLine
  8
Layer0
 62
256
370
-1
  6
BYLAYER
 10
149.60802446228899
 20
50.213500499089498
 30
0.0
 11
150.04505057741301
 21
50.783044020913799
 31
0.0
  0
LINE
  5
26B
100
AcDbEntity
100
AcDbLine
  8
Layer0
 62
256
370
-1
  6
BYLAYER
 10
150.04505057741301
 20
50.783044020913799
 30
0.0
 11
150.319776678312
 21
51.4462914996409
 31
0.0
  0
LINE
  5
26C
100
AcDbEntity
100
AcDbLine
  8
Layer0
 62
256
370
-1
  6
BYLAYER
 10
150.319776678312
 20
51.4462914996409
 30
0.0
 11
150.413480635215
 21
52.158043715663901
 31
0.0
  0
LINE
  5
26D
100
AcDbEntity
100
AcDbLine
  8
Layer0
 62
256
370
-1
  6
BYLAYER
 10
47.6635037437375
 20
46.158041553833399
 30
0.0
 11
49.663503627563102
 21
44.158045395297499
 31
0.0
  0
LINE
  5
26E
100
AcDbEntity
100
AcDbLine
  8
Layer0
 62
256
370
-1
  6
BYLAYER
 10
292.66349123571399
 20
54.908043105163898
 30
0.0
 11
291.95173901969201
 21
54.814339148261098
 31
0.0
  0
LINE
  5
26F
100
AcDbEntity
100
AcDbLine
  8
Layer0
 62
256
370
-1
  6
BYLAYER
 10
291.95173901969201
 20
54.814339148261098
 30
0.0
 11
291.288491540964
 21
54.5396130473626
 31
0.0
  0
LINE
  5
270
100
AcDbEntity
100
AcDbLine
  8
Layer0
 62
256
370
-1
  6
BYLAYER
 10
291.288491540964
 20
54.5396130473626
 30
0.0
 11
290.71894801913999
 21
54.102586932238196
 31
0.0
  0
LINE
  5
271
100
AcDbEntity
100
AcDbLine
  8
Layer0
 62
256
370
-1
  6
BYLAYER
 10
290.71894801913999
 20
54.102586932238196
 30
0.0
 11
290.28192190401597
 21
53.533043410413903
 31
0.0
  0
LINE
  5
272
100
AcDbEntity
100
AcDbLine
  8
Layer0
 62
256
370
-1
  6
BYLAYER
 10
290.28192190401597
 20
53.533043410413903
 30
0.0
 11
290.00719580311699
 21
52.869795931686802
 31
0.0
  0
LINE
  5
273
100
AcDbEntity
100
AcDbLine
  8
Layer0
 62
256
370
-1
  6
BYLAYER
 10
290.00719580311699
 20
52.869795931686802
 30
0.0
 11
289.91349184621401
 21
52.158043715663901
 31
0.0
  0
LINE
  5
274
100
AcDbEntity
100
AcDbLine
  8
Layer0
 62
256
370
-1
  6
BYLAYER
 10
289.91349184621401
 20
52.158043715663901
 30
0.0
 11
290.00719580311699
 21
51.4462914996409
 31
0.0
  0
LINE
  5
275
100
AcDbEntity
100
AcDbLine
  8
Layer0
 62
256
370
-1
  6
BYLAYER
 10
290.00719580311699
 20
51.4462914996409
 30
0.0
 11
290.28192190401597
 21
50.783044020913799
 31
0.0
  0
LINE
  5
276
100
AcDbEntity
100
AcDbLine
  8
Layer0
 62
256
370
-1
  6
BYLAYER
 10
290.28192190401597
 20
50.783044020913799
 30
0.0
 11
290.71894801913999
 21
50.213500499089498
 31
0.0
  0
LINE
  5
277
100
AcDbEntity
100
AcDbLine
  8
Layer0
 62
256
370
-1
  6
BYLAYER
 10
290.71894801913999
 20
50.213500499089498
 30
0.0
 11
291.288491540964
 21
49.776474383965102
 31
0.0
  0
LINE
  5
278
100
AcDbEntity
100
AcDbLine
  8
Layer0
 62
256
370
-1
  6
BYLAYER
 10
291.288491540964
 20
49.776474383965102
 30
0.0
 11
291.95173901969201
 21
49.501748283066597
 31
0.0
  0
LINE
  5
279
100
AcDbEntity
100
AcDbLine
  8
Layer0
 62
256
370
-1
  6
BYLAYER
 10
291.95173901969201
 20
49.501748283066597
 30
0.0
 11
292.66349123571399
 21
49.408044326163797
 31
0.0
  0
LINE
  5
27A
100
AcDbEntity
100
AcDbLine
  8
Layer0
 62
256
370
-1
  6
BYLAYER
 10
292.66349123571399
 20
49.408044326163797
 30
0.0
 11
293.37524345173699
 21
49.501748283066597
 31
0.0
  0
LINE
  5
27B
100
AcDbEntity
100
AcDbLine
  8
Layer0
 62
256
370
-1
  6
BYLAYER
 10
293.37524345173699
 20
49.501748283066597
 30
0.0
 11
294.03849093046398
 21
49.776474383965102
 31
0.0
  0
LINE
  5
27C
100
AcDbEntity
100
AcDbLine
  8
Layer0
 62
256
370
-1
  6
BYLAYER
 10
294.03849093046398
 20
49.776474383965102
 30
0.0
 11
294.60803445228902
 21
50.213500499089498
 31
0.0
  0
LINE
  5
27D
100
AcDbEntity
100
AcDbLine
  8
Layer0
 62
256
370
-1
  6
BYLAYER
 10
294.60803445228902
 20
50.213500499089498
 30
0.0
 11
295.04506056741297
 21
50.783044020913799
 31
0.0
  0
LINE
  5
27E
100
AcDbEntity
100
AcDbLine
  8
Layer0
 62
256
370
-1
  6
BYLAYER
 10
295.04506056741297
 20
50.783044020913799
 30
0.0
 11
295.31978666831202
 21
51.4462914996409
 31
0.0
  0
LINE
  5
27F
100
AcDbEntity
100
AcDbLine
  8
Layer0
 62
256
370
-1
  6
BYLAYER
 10
295.31978666831202
 20
51.4462914996409
 30
0.0
 11
295.41349062521402
 21
52.158043715663901
 31
0.0
  0
LINE
  5
280
100
AcDbEntity
100
AcDbLine
  8
Layer0
 62
256
370
-1
  6
BYLAYER
 10
340.41348063521502
 20
52.158043715663901
 30
0.0
 11
340.319776678312
 21
52.869795931686802
 31
0.0
  0
LINE
  5
281
100
AcDbEntity
100
AcDbLine
  8
Layer0
 62
256
370
-1
  6
BYLAYER
 10
340.319776678312
 20
52.869795931686802
 30
0.0
 11
340.04505057741301
 21
53.533043410413903
 31
0.0
  0
LINE
  5
282
100
AcDbEntity
100
AcDbLine
  8
Layer0
 62
256
370
-1
  6
BYLAYER
 10
340.04505057741301
 20
53.533043410413903
 30
0.0
 11
339.60802446228899
 21
54.102586932238196
 31
0.0
  0
LINE
  5
283
100
AcDbEntity
100
AcDbLine
  8
Layer0
 62
256
370
-1
  6
BYLAYER
 10
339.60802446228899
 20
54.102586932238196
 30
0.0
 11
339.03848094046498
 21
54.5396130473626
 31
0.0
  0
LINE
  5
284
100
AcDbEntity
100
AcDbLine
  8
Layer0
 62
256
370
-1
  6
BYLAYER
 10
339.03848094046498
 20
54.5396130473626
 30
0.0
 11
338.37523346173703
 21
54.814339148261098
 31
0.0
  0
LINE
  5
285
100
AcDbEntity
100
AcDbLine
  8
Layer0
 62
256
370
-1
  6
BYLAYER
 10
338.37523346173703
 20
54.814339148261098
 30
0.0
 11
337.66348124571499
 21
54.908043105163898
 31
0.0
  0
LINE
  5
286
100
AcDbEntity
100
AcDbLine
  8
Layer0
 62
256
370
-1
  6
BYLAYER
 10
337.66348124571499
 20
54.908043105163898
 30
0.0
 11
336.95172902969199
 21
54.814339148261098
 31
0.0
  0
LINE
  5
287
100
AcDbEntity
100
AcDbLine
  8
Layer0
 62
256
370
-1
  6
BYLAYER
 10
336.95172902969199
 20
54.814339148261098
 30
0.0
 11
336.288481550965
 21
54.5396130473626
 31
0.0
  0
LINE
  5
288
100
AcDbEntity
100
AcDbLine
  8
Layer0
 62
256
370
-1
  6
BYLAYER
 10
336.288481550965
 20
54.5396130473626
 30
0.0
 11
335.71893802914002
 21
54.102586932238196
 31
0.0
  0
LINE
  5
289
100
AcDbEntity
100
AcDbLine
  8
Layer0
 62
256
370
-1
  6
BYLAYER
 10
335.71893802914002
 20
54.102586932238196
 30
0.0
 11
335.28191191401601
 21
53.533043410413903
 31
0.0
  0
LINE
  5
28A
100
AcDbEntity
100
AcDbLine
  8
Layer0
 62
256
370
-1
  6
BYLAYER
 10
335.28191191401601
 20
53.533043410413903
 30
0.0
 11
335.00718581311702
 21
52.869795931686802
 31
0.0
  0
LINE
  5
28B
100
AcDbEntity
100
AcDbLine
  8
Layer0
 62
256
370
-1
  6
BYLAYER
 10
335.00718581311702
 20
52.869795931686802
 30
0.0
 11
334.91348185621501
 21
52.158043715663901
 31
0.0
  0
LINE
  5
28C
100
AcDbEntity
100
AcDbLine
  8
Layer0
 62
256
370
-1
  6
BYLAYER
 10
334.91348185621501
 20
52.158043715663901
 30
0.0
 11
335.00718581311702
 21
51.4462914996409
 31
0.0
  0
LINE
  5
28D
100
AcDbEntity
100
AcDbLine
  8
Layer0
 62
256
370
-1
  6
BYLAYER
 10
335.00718581311702
 20
51.4462914996409
 30
0.0
 11
335.28191191401601
 21
50.783044020913799
 31
0.0
  0
LINE
  5
28E
100
AcDbEntity
100
AcDbLine
  8
Layer0
 62
256
370
-1
  6
BYLAYER
 10
335.28191191401601
 20
50.783044020913799
 30
0.0
 11
335.71893802914002
 21
50.213500499089498
 31
0.0
  0
LINE
  5
28F
100
AcDbEntity
100
AcDbLine
  8
Layer0
 62
256
370
-1
  6
BYLAYER
 10
335.71893802914002
 20
50.213500499089498
 30
0.0
 11
336.288481550965
 21
49.776474383965102
 31
0.0
  0
LINE
  5
290
100
AcDbEntity
100
AcDbLine
  8
Layer0
 62
256
370
-1
  6
BYLAYER
 10
336.288481550965
 20
49.776474383965102
 30
0.0
 11
336.95172902969199
 21
49.501748283066597
 31
0.0
  0
LINE
  5
291
100
AcDbEntity
100
AcDbLine
  8
Layer0
 62
256
370
-1
  6
BYLAYER
 10
336.95172902969199
 20
49.501748283066597
 30
0.0
 11
337.66348124571499
 21
49.408044326163797
 31
0.0
  0
LINE
  5
292
100
AcDbEntity
100
AcDbLine
  8
Layer0
 62
256
370
-1
  6
BYLAYER
 10
337.66348124571499
 20
49.408044326163797
 30
0.0
 11
338.37523346173703
 21
49.501748283066597
 31
0.0
  0
LINE
  5
293
100
AcDbEntity
100
AcDbLine
  8
Layer0
 62
256
370
-1
  6
BYLAYER
 10
338.37523346173703
 20
49.501748283066597
 30
0.0
 11
339.03848094046498
 21
49.776474383965102
 31
0.0
  0
LINE
  5
294
100
AcDbEntity
100
AcDbLine
  8
Layer0
 62
256
370
-1
  6
BYLAYER
 10
339.03848094046498
 20
49.776474383965102
 30
0.0
 11
339.60802446228899
 21
50.213500499089498
 31
0.0
  0
LINE
  5
295
100
AcDbEntity
100
AcDbLine
  8
Layer0
 62
256
370
-1
  6
BYLAYER
 10
339.60802446228899
 20
50.213500499089498
 30
0.0
 11
340.04505057741301
 21
50.783044020913799
 31
0.0
  0
LINE
  5
296
100
AcDbEntity
100
AcDbLine
  8
Layer0
 62
256
370
-1
  6
BYLAYER
 10
340.04505057741301
 20
50.783044020913799
 30
0.0
 11
340.319776678312
 21
51.4462914996409
 31
0.0
  0
LINE
  5
297
100
AcDbEntity
100
AcDbLine
  8
Layer0
 62
256
370
-1
  6
BYLAYER
 10
340.319776678312
 20
51.4462914996409
 30
0.0
 11
340.41348063521502
 21
52.158043715663901
 31
0.0
  0
LINE
  5
298
100
AcDbEntity
100
AcDbLine
  8
Layer0
 62
256
370
-1
  6
BYLAYER
 10
339.281911026015
 20
150.20890633724599
 30
0.0
 11
339.00718492511697
 21
149.545658858519
 31
0.0
  0
LINE
  5
299
100
AcDbEntity
100
AcDbLine
  8
Layer0
 62
256
370
-1
  6
BYLAYER
 10
339.00718492511697
 20
149.545658858519
 30
0.0
 11
338.913480968214
 21
148.833906642496
 31
0.0
  0
LINE
  5
29A
100
AcDbEntity
100
AcDbLine
  8
Layer0
 62
256
370
-1
  6
BYLAYER
 10
338.913480968214
 20
148.833906642496
 30
0.0
 11
339.00718492511697
 21
148.122154426473
 31
0.0
  0
LINE
  5
29B
100
AcDbEntity
100
AcDbLine
  8
Layer0
 62
256
370
-1
  6
BYLAYER
 10
339.00718492511697
 20
148.122154426473
 30
0.0
 11
339.281911026015
 21
147.45890694774599
 31
0.0
  0
LINE
  5
29C
100
AcDbEntity
100
AcDbLine
  8
Layer0
 62
256
370
-1
  6
BYLAYER
 10
339.281911026015
 20
147.45890694774599
 30
0.0
 11
339.71893714113997
 21
146.889363425921
 31
0.0
  0
LINE
  5
29D
100
AcDbEntity
100
AcDbLine
  8
Layer0
 62
256
370
-1
  6
BYLAYER
 10
339.71893714113997
 20
146.889363425921
 30
0.0
 11
340.28848066296399
 21
146.45233731079699
 31
0.0
  0
LINE
  5
29E
100
AcDbEntity
100
AcDbLine
  8
Layer0
 62
256
370
-1
  6
BYLAYER
 10
340.28848066296399
 20
146.45233731079699
 30
0.0
 11
340.95172814169098
 21
146.177611209899
 31
0.0
  0
LINE
  5
29F
100
AcDbEntity
100
AcDbLine
  8
Layer0
 62
256
370
-1
  6
BYLAYER
 10
340.95172814169098
 20
146.177611209899
 30
0.0
 11
341.66348035771398
 21
146.083907252996
 31
0.0
  0
LINE
  5
2A0
100
AcDbEntity
100
AcDbLine
  8
Layer0
 62
256
370
-1
  6
BYLAYER
 10
341.66348035771398
 20
146.083907252996
 30
0.0
 11
342.37523257373698
 21
146.177611209899
 31
0.0
  0
LINE
  5
2A1
100
AcDbEntity
100
AcDbLine
  8
Layer0
 62
256
370
-1
  6
BYLAYER
 10
342.37523257373698
 20
146.177611209899
 30
0.0
 11
343.03848005246402
 21
146.45233731079699
 31
0.0
  0
LINE
  5
2A2
100
AcDbEntity
100
AcDbLine
  8
Layer0
 62
256
370
-1
  6
BYLAYER
 10
343.03848005246402
 20
146.45233731079699
 30
0.0
 11
343.60802357428798
 21
146.889363425921
 31
0.0
  0
LINE
  5
2A3
100
AcDbEntity
100
AcDbLine
  8
Layer0
 62
256
370
-1
  6
BYLAYER
 10
343.60802357428798
 20
146.889363425921
 30
0.0
 11
344.04504968941302
 21
147.45890694774599
 31
0.0
  0
LINE
  5
2A4
100
AcDbEntity
100
AcDbLine
  8
Layer0
 62
256
370
-1
  6
BYLAYER
 10
344.04504968941302
 20
147.45890694774599
 30
0.0
 11
344.31977579031098
 21
148.122154426473
 31
0.0
  0
LINE
  5
2A5
100
AcDbEntity
100
AcDbLine
  8
Layer0
 62
256
370
-1
  6
BYLAYER
 10
344.31977579031098
 20
148.122154426473
 30
0.0
 11
344.41347974721401
 21
148.833906642496
 31
0.0
  0
LINE
  5
2A6
100
AcDbEntity
100
AcDbLine
  8
Layer0
 62
256
370
-1
  6
BYLAYER
 10
320.413485075214
 20
74.833923070495899
 30
0.0
 11
320.31978111831103
 21
75.545675286518701
 31
0.0
  0
LINE
  5
2A7
100
AcDbEntity
100
AcDbLine
  8
Layer0
 62
256
370
-1
  6
BYLAYER
 10
320.31978111831103
 20
75.545675286518701
 30
0.0
 11
320.04505501741301
 21
76.208922765245902
 31
0.0
  0
LINE
  5
2A8
100
AcDbEntity
100
AcDbLine
  8
Layer0
 62
256
370
-1
  6
BYLAYER
 10
320.04505501741301
 20
76.208922765245902
 30
0.0
 11
319.60802890228803
 21
76.778466287070103
 31
0.0
  0
LINE
  5
2A9
100
AcDbEntity
100
AcDbLine
  8
Layer0
 62
256
370
-1
  6
BYLAYER
 10
319.60802890228803
 20
76.778466287070103
 30
0.0
 11
319.03848538046401
 21
77.215492402194499
 31
0.0
  0
LINE
  5
2AA
100
AcDbEntity
100
AcDbLine
  8
Layer0
 62
256
370
-1
  6
BYLAYER
 10
319.03848538046401
 20
77.215492402194499
 30
0.0
 11
318.37523790173702
 21
77.490218503093004
 31
0.0
  0
LINE
  5
2AB
100
AcDbEntity
100
AcDbLine
  8
Layer0
 62
256
370
-1
  6
BYLAYER
 10
318.37523790173702
 20
77.490218503093004
 30
0.0
 11
317.66348568571402
 21
77.583922459995804
 31
0.0
  0
LINE
  5
2AC
100
AcDbEntity
100
AcDbLine
  8
Layer0
 62
256
370
-1
  6
BYLAYER
 10
317.66348568571402
 20
77.583922459995804
 30
0.0
 11
316.95173346969102
 21
77.490218503093004
 31
0.0
  0
LINE
  5
2AD
100
AcDbEntity
100
AcDbLine
  8
Layer0
 62
256
370
-1
  6
BYLAYER
 10
316.95173346969102
 20
77.490218503093004
 30
0.0
 11
316.28848599096398
 21
77.215492402194499
 31
0.0
  0
LINE
  5
2AE
100
AcDbEntity
100
AcDbLine
  8
Layer0
 62
256
370
-1
  6
BYLAYER
 10
316.28848599096398
 20
77.215492402194499
 30
0.0
 11
315.71894246914002
 21
76.778466287070103
 31
0.0
  0
LINE
  5
2AF
100
AcDbEntity
100
AcDbLine
  8
Layer0
 62
256
370
-1
  6
BYLAYER
 10
315.71894246914002
 20
76.778466287070103
 30
0.0
 11
315.28191635401498
 21
76.208922765245902
 31
0.0
  0
LINE
  5
2B0
100
AcDbEntity
100
AcDbLine
  8
Layer0
 62
256
370
-1
  6
BYLAYER
 10
315.28191635401498
 20
76.208922765245902
 30
0.0
 11
315.00719025311702
 21
75.545675286518701
 31
0.0
  0
LINE
  5
2B1
100
AcDbEntity
100
AcDbLine
  8
Layer0
 62
256
370
-1
  6
BYLAYER
 10
315.00719025311702
 20
75.545675286518701
 30
0.0
 11
314.91348629621399
 21
74.833923070495899
 31
0.0
  0
LINE
  5
2B2
100
AcDbEntity
100
AcDbLine
  8
Layer0
 62
256
370
-1
  6
BYLAYER
 10
314.91348629621399
 20
74.833923070495899
 30
0.0
 11
315.00719025311702
 21
74.122170854472898
 31
0.0
  0
LINE
  5
2B3
100
AcDbEntity
100
AcDbLine
  8
Layer0
 62
256
370
-1
  6
BYLAYER
 10
315.00719025311702
 20
74.122170854472898
 30
0.0
 11
315.28191635401498
 21
73.458923375745897
 31
0.0
  0
LINE
  5
2B4
100
AcDbEntity
100
AcDbLine
  8
Layer0
 62
256
370
-1
  6
BYLAYER
 10
315.28191635401498
 20
73.458923375745897
 30
0.0
 11
315.71894246914002
 21
72.889379853921497
 31
0.0
  0
LINE
  5
2B5
100
AcDbEntity
100
AcDbLine
  8
Layer0
 62
256
370
-1
  6
BYLAYER
 10
315.71894246914002
 20
72.889379853921497
 30
0.0
 11
316.28848599096398
 21
72.4523537387971
 31
0.0
  0
LINE
  5
2B6
100
AcDbEntity
100
AcDbLine
  8
Layer0
 62
256
370
-1
  6
BYLAYER
 10
316.28848599096398
 20
72.4523537387971
 30
0.0
 11
316.95173346969102
 21
72.177627637898595
 31
0.0
  0
LINE
  5
2B7
100
AcDbEntity
100
AcDbLine
  8
Layer0
 62
256
370
-1
  6
BYLAYER
 10
316.95173346969102
 20
72.177627637898595
 30
0.0
 11
317.66348568571402
 21
72.083923680995895
 31
0.0
  0
LINE
  5
2B8
100
AcDbEntity
100
AcDbLine
  8
Layer0
 62
256
370
-1
  6
BYLAYER
 10
317.66348568571402
 20
72.083923680995895
 30
0.0
 11
318.37523790173702
 21
72.177627637898595
 31
0.0
  0
LINE
  5
2B9
100
AcDbEntity
100
AcDbLine
  8
Layer0
 62
256
370
-1
  6
BYLAYER
 10
318.37523790173702
 20
72.177627637898595
 30
0.0
 11
319.03848538046401
 21
72.4523537387971
 31
0.0
  0
LINE
  5
2BA
100
AcDbEntity
100
AcDbLine
  8
Layer0
 62
256
370
-1
  6
BYLAYER
 10
319.03848538046401
 20
72.4523537387971
 30
0.0
 11
319.60802890228803
 21
72.889379853921497
 31
0.0
  0
LINE
  5
2BB
100
AcDbEntity
100
AcDbLine
  8
Layer0
 62
256
370
-1
  6
BYLAYER
 10
319.60802890228803
 20
72.889379853921497
 30
0.0
 11
320.04505501741301
 21
73.458923375745897
 31
0.0
  0
LINE
  5
2BC
100
AcDbEntity
100
AcDbLine
  8
Layer0
 62
256
370
-1
  6
BYLAYER
 10
320.04505501741301
 20
73.458923375745897
 30
0.0
 11
320.31978111831103
 21
74.122170854472898
 31
0.0
  0
LINE
  5
2BD
100
AcDbEntity
100
AcDbLine
  8
Layer0
 62
256
370
-1
  6
BYLAYER
 10
320.31978111831103
 20
74.122170854472898
 30
0.0
 11
320.413485075214
 21
74.833923070495899
 31
0.0
  0
LINE
  5
2BE
100
AcDbEntity
100
AcDbLine
  8
Layer0
 62
256
370
-1
  6
BYLAYER
 10
270.41349617521399
 20
74.833923070495899
 30
0.0
 11
270.31979221831102
 21
75.545675286518701
 31
0.0
  0
LINE
  5
2BF
100
AcDbEntity
100
AcDbLine
  8
Layer0
 62
256
370
-1
  6
BYLAYER
 10
270.31979221831102
 20
75.545675286518701
 30
0.0
 11
270.045066117413
 21
76.208922765245802
 31
0.0
  0
LINE
  5
2C0
100
AcDbEntity
100
AcDbLine
  8
Layer0
 62
256
370
-1
  6
BYLAYER
 10
270.045066117413
 20
76.208922765245802
 30
0.0
 11
269.60804000228802
 21
76.778466287070103
 31
0.0
  0
LINE
  5
2C1
100
AcDbEntity
100
AcDbLine
  8
Layer0
 62
256
370
-1
  6
BYLAYER
 10
269.60804000228802
 20
76.778466287070103
 30
0.0
 11
269.038496480464
 21
77.2154924021944
 31
0.0
  0
LINE
  5
2C2
100
AcDbEntity
100
AcDbLine
  8
Layer0
 62
256
370
-1
  6
BYLAYER
 10
269.038496480464
 20
77.2154924021944
 30
0.0
 11
268.37524900173702
 21
77.490218503092905
 31
0.0
  0
LINE
  5
2C3
100
AcDbEntity
100
AcDbLine
  8
Layer0
 62
256
370
-1
  6
BYLAYER
 10
268.37524900173702
 20
77.490218503092905
 30
0.0
 11
267.66349678571402
 21
77.583922459995705
 31
0.0
  0
LINE
  5
2C4
100
AcDbEntity
100
AcDbLine
  8
Layer0
 62
256
370
-1
  6
BYLAYER
 10
267.66349678571402
 20
77.583922459995705
 30
0.0
 11
266.95174456969102
 21
77.490218503092905
 31
0.0
  0
LINE
  5
2C5
100
AcDbEntity
100
AcDbLine
  8
Layer0
 62
256
370
-1
  6
BYLAYER
 10
266.95174456969102
 20
77.490218503092905
 30
0.0
 11
266.28849709096397
 21
77.2154924021944
 31
0.0
  0
LINE
  5
2C6
100
AcDbEntity
100
AcDbLine
  8
Layer0
 62
256
370
-1
  6
BYLAYER
 10
266.28849709096397
 20
77.2154924021944
 30
0.0
 11
265.71895356914001
 21
76.778466287070103
 31
0.0
  0
LINE
  5
2C7
100
AcDbEntity
100
AcDbLine
  8
Layer0
 62
256
370
-1
  6
BYLAYER
 10
265.71895356914001
 20
76.778466287070103
 30
0.0
 11
265.28192745401498
 21
76.208922765245802
 31
0.0
  0
LINE
  5
2C8
100
AcDbEntity
100
AcDbLine
  8
Layer0
 62
256
370
-1
  6
BYLAYER
 10
265.28192745401498
 20
76.208922765245802
 30
0.0
 11
265.00720135311701
 21
75.545675286518701
 31
0.0
  0
LINE
  5
2C9
100
AcDbEntity
100
AcDbLine
  8
Layer0
 62
256
370
-1
  6
BYLAYER
 10
265.00720135311701
 20
75.545675286518701
 30
0.0
 11
264.91349739621398
 21
74.833923070495899
 31
0.0
  0
LINE
  5
2CA
100
AcDbEntity
100
AcDbLine
  8
Layer0
 62
256
370
-1
  6
BYLAYER
 10
264.91349739621398
 20
74.833923070495899
 30
0.0
 11
265.00720135311701
 21
74.122170854472898
 31
0.0
  0
LINE
  5
2CB
100
AcDbEntity
100
AcDbLine
  8
Layer0
 62
256
370
-1
  6
BYLAYER
 10
265.00720135311701
 20
74.122170854472898
 30
0.0
 11
265.28192745401498
 21
73.458923375745897
 31
0.0
  0
LINE
  5
2CC
100
AcDbEntity
100
AcDbLine
  8
Layer0
 62
256
370
-1
  6
BYLAYER
 10
265.28192745401498
 20
73.458923375745897
 30
0.0
 11
265.71895356914001
 21
72.889379853921596
 31
0.0
  0
LINE
  5
2CD
100
AcDbEntity
100
AcDbLine
  8
Layer0
 62
256
370
-1
  6
BYLAYER
 10
265.71895356914001
 20
72.889379853921596
 30
0.0
 11
266.28849709096397
 21
72.4523537387972
 31
0.0
  0
LINE
  5
2CE
100
AcDbEntity
100
AcDbLine
  8
Layer0
 62
256
370
-1
  6
BYLAYER
 10
266.28849709096397
 20
72.4523537387972
 30
0.0
 11
266.95174456969102
 21
72.177627637898695
 31
0.0
  0
LINE
  5
2CF
100
AcDbEntity
100
AcDbLine
  8
Layer0
 62
256
370
-1
  6
BYLAYER
 10
266.95174456969102
 20
72.177627637898695
 30
0.0
 11
267.66349678571402
 21
72.083923680995895
 31
0.0
  0
LINE
  5
2D0
100
AcDbEntity
100
AcDbLine
  8
Layer0
 62
256
370
-1
  6
BYLAYER
 10
267.66349678571402
 20
72.083923680995895
 30
0.0
 11
268.37524900173702
 21
72.177627637898695
 31
0.0
  0
LINE
  5
2D1
100
AcDbEntity
100
AcDbLine
  8
Layer0
 62
256
370
-1
  6
BYLAYER
 10
268.37524900173702
 20
72.177627637898695
 30
0.0
 11
269.038496480464
 21
72.4523537387972
 31
0.0
  0
LINE
  5
2D2
100
AcDbEntity
100
AcDbLine
  8
Layer0
 62
256
370
-1
  6
BYLAYER
 10
269.038496480464
 20
72.4523537387972
 30
0.0
 11
269.60804000228802
 21
72.889379853921596
 31
0.0
  0
LINE
  5
2D3
100
AcDbEntity
100
AcDbLine
  8
Layer0
 62
256
370
-1
  6
BYLAYER
 10
269.60804000228802
 20
72.889379853921596
 30
0.0
 11
270.045066117413
 21
73.458923375745897
 31
0.0
  0
LINE
  5
2D4
100
AcDbEntity
100
AcDbLine
  8
Layer0
 62
256
370
-1
  6
BYLAYER
 10
270.045066117413
 20
73.458923375745897
 30
0.0
 11
270.31979221831102
 21
74.122170854472898
 31
0.0
  0
LINE
  5
2D5
100
AcDbEntity
100
AcDbLine
  8
Layer0
 62
256
370
-1
  6
BYLAYER
 10
270.31979221831102
 20
74.122170854472898
 30
0.0
 11
270.41349617521399
 21
74.833923070495899
 31
0.0
  0
LINE
  5
2D6
100
AcDbEntity
100
AcDbLine
  8
Layer0
 62
256
370
-1
  6
BYLAYER
 10
246.41350150321401
 20
148.833906642496
 30
0.0
 11
246.31979754631101
 21
149.545658858519
 31
0.0
  0
LINE
  5
2D7
100
AcDbEntity
100
AcDbLine
  8
Layer0
 62
256
370
-1
  6
BYLAYER
 10
292.195854762647
 20
35.226193742719303
 30
0.0
 11
292.71349285285203
 21
35.1580453952974
 31
0.0
  0
LINE
  5
2D8
100
AcDbEntity
100
AcDbLine
  8
Layer0
 62
256
370
-1
  6
BYLAYER
 10
292.71349285285203
 20
35.1580453952974
 30
0.0
 11
293.231130943057
 21
35.226193742719303
 31
0.0
  0
LINE
  5
2D9
100
AcDbEntity
100
AcDbLine
  8
Layer0
 62
256
370
-1
  6
BYLAYER
 10
291.71349285285203
 20
35.425994587728603
 30
0.0
 11
292.195854762647
 21
35.226193742719303
 31
0.0
  0
LINE
  5
2DA
100
AcDbEntity
100
AcDbLine
  8
Layer0
 62
256
370
-1
  6
BYLAYER
 10
291.29927929047898
 20
35.7438318329244
 30
0.0
 11
291.71349285285203
 21
35.425994587728603
 31
0.0
  0
LINE
  5
2DB
100
AcDbEntity
100
AcDbLine
  8
Layer0
 62
256
370
-1
  6
BYLAYER
 10
293.231130943057
 20
35.226193742719303
 30
0.0
 11
293.71349285285203
 21
35.425994587728603
 31
0.0
  0
LINE
  5
2DC
100
AcDbEntity
100
AcDbLine
  8
Layer0
 62
256
370
-1
  6
BYLAYER
 10
293.71349285285203
 20
35.425994587728603
 30
0.0
 11
294.12770641522502
 21
35.7438318329244
 31
0.0
  0
LINE
  5
2DD
100
AcDbEntity
100
AcDbLine
  8
Layer0
 62
256
370
-1
  6
BYLAYER
 10
294.12770641522502
 20
35.7438318329244
 30
0.0
 11
294.44554366042098
 21
36.1580453952974
 31
0.0
  0
LINE
  5
2DE
100
AcDbEntity
100
AcDbLine
  8
Layer0
 62
256
370
-1
  6
BYLAYER
 10
294.44554366042098
 20
36.1580453952974
 30
0.0
 11
294.64534450542999
 21
36.640407305092403
 31
0.0
  0
LINE
  5
2DF
100
AcDbEntity
100
AcDbLine
  8
Layer0
 62
256
370
-1
  6
BYLAYER
 10
294.64534450542999
 20
36.640407305092403
 30
0.0
 11
294.71349285285203
 21
37.1580453952974
 31
0.0
  0
LINE
  5
2E0
100
AcDbEntity
100
AcDbLine
  8
Layer0
 62
256
370
-1
  6
BYLAYER
 10
334.39553413185899
 20
38.1580453952974
 30
0.0
 11
334.07769688666298
 21
38.572258957670499
 31
0.0
  0
LINE
  5
2E1
100
AcDbEntity
100
AcDbLine
  8
Layer0
 62
256
370
-1
  6
BYLAYER
 10
334.07769688666298
 20
38.572258957670499
 30
0.0
 11
333.66348332428998
 21
38.890096202866303
 31
0.0
  0
LINE
  5
2E2
100
AcDbEntity
100
AcDbLine
  8
Layer0
 62
256
370
-1
  6
BYLAYER
 10
333.66348332428998
 20
38.890096202866303
 30
0.0
 11
333.18112141449501
 21
39.089897047875603
 31
0.0
  0
LINE
  5
2E3
100
AcDbEntity
100
AcDbLine
  8
Layer0
 62
256
370
-1
  6
BYLAYER
 10
333.18112141449501
 20
39.089897047875603
 30
0.0
 11
332.66348332428998
 21
39.1580453952974
 31
0.0
  0
LINE
  5
2E4
100
AcDbEntity
100
AcDbLine
  8
Layer0
 62
256
370
-1
  6
BYLAYER
 10
332.66348332428998
 20
39.1580453952974
 30
0.0
 11
332.14584523408502
 21
39.089897047875603
 31
0.0
  0
LINE
  5
2E5
100
AcDbEntity
100
AcDbLine
  8
Layer0
 62
256
370
-1
  6
BYLAYER
 10
332.14584523408502
 20
39.089897047875603
 30
0.0
 11
331.66348332428998
 21
38.890096202866303
 31
0.0
  0
LINE
  5
2E6
100
AcDbEntity
100
AcDbLine
  8
Layer0
 62
256
370
-1
  6
BYLAYER
 10
331.66348332428998
 20
38.890096202866303
 30
0.0
 11
331.24926976191699
 21
38.572258957670499
 31
0.0
  0
LINE
  5
2E7
100
AcDbEntity
100
AcDbLine
  8
Layer0
 62
256
370
-1
  6
BYLAYER
 10
331.24926976191699
 20
38.572258957670499
 30
0.0
 11
330.93143251672097
 21
38.1580453952974
 31
0.0
  0
LINE
  5
2E8
100
AcDbEntity
100
AcDbLine
  8
Layer0
 62
256
370
-1
  6
BYLAYER
 10
330.93143251672097
 20
38.1580453952974
 30
0.0
 11
330.73163167171202
 21
37.675683485502503
 31
0.0
  0
LINE
  5
2E9
100
AcDbEntity
100
AcDbLine
  8
Layer0
 62
256
370
-1
  6
BYLAYER
 10
330.73163167171202
 20
37.675683485502503
 30
0.0
 11
330.66348332428998
 21
37.1580453952974
 31
0.0
  0
LINE
  5
2EA
100
AcDbEntity
100
AcDbLine
  8
Layer0
 62
256
370
-1
  6
BYLAYER
 10
330.66348332428998
 20
37.1580453952974
 30
0.0
 11
330.73163167171202
 21
36.640407305092403
 31
0.0
  0
LINE
  5
2EB
100
AcDbEntity
100
AcDbLine
  8
Layer0
 62
256
370
-1
  6
BYLAYER
 10
330.73163167171202
 20
36.640407305092403
 30
0.0
 11
330.93143251672097
 21
36.1580453952974
 31
0.0
  0
LINE
  5
2EC
100
AcDbEntity
100
AcDbLine
  8
Layer0
 62
256
370
-1
  6
BYLAYER
 10
330.93143251672097
 20
36.1580453952974
 30
0.0
 11
331.24926976191699
 21
35.7438318329244
 31
0.0
  0
LINE
  5
2ED
100
AcDbEntity
100
AcDbLine
  8
Layer0
 62
256
370
-1
  6
BYLAYER
 10
331.24926976191699
 20
35.7438318329244
 30
0.0
 11
331.66348332428998
 21
35.425994587728603
 31
0.0
  0
LINE
  5
2EE
100
AcDbEntity
100
AcDbLine
  8
Layer0
 62
256
370
-1
  6
BYLAYER
 10
331.66348332428998
 20
35.425994587728603
 30
0.0
 11
332.14584523408502
 21
35.226193742719303
 31
0.0
  0
LINE
  5
2EF
100
AcDbEntity
100
AcDbLine
  8
Layer0
 62
256
370
-1
  6
BYLAYER
 10
332.14584523408502
 20
35.226193742719303
 30
0.0
 11
332.66348332428998
 21
35.1580453952974
 31
0.0
  0
LINE
  5
2F0
100
AcDbEntity
100
AcDbLine
  8
Layer0
 62
256
370
-1
  6
BYLAYER
 10
332.66348332428998
 20
35.1580453952974
 30
0.0
 11
333.18112141449501
 21
35.226193742719303
 31
0.0
  0
LINE
  5
2F1
100
AcDbEntity
100
AcDbLine
  8
Layer0
 62
256
370
-1
  6
BYLAYER
 10
333.18112141449501
 20
35.226193742719303
 30
0.0
 11
333.66348332428998
 21
35.425994587728603
 31
0.0
  0
LINE
  5
2F2
100
AcDbEntity
100
AcDbLine
  8
Layer0
 62
256
370
-1
  6
BYLAYER
 10
333.66348332428998
 20
35.425994587728603
 30
0.0
 11
334.07769688666298
 21
35.7438318329244
 31
0.0
  0
LINE
  5
2F3
100
AcDbEntity
100
AcDbLine
  8
Layer0
 62
256
370
-1
  6
BYLAYER
 10
334.07769688666298
 20
35.7438318329244
 30
0.0
 11
334.39553413185899
 21
36.1580453952974
 31
0.0
  0
LINE
  5
2F4
100
AcDbEntity
100
AcDbLine
  8
Layer0
 62
256
370
-1
  6
BYLAYER
 10
334.39553413185899
 20
36.1580453952974
 30
0.0
 11
334.595334976868
 21
36.640407305092403
 31
0.0
  0
LINE
  5
2F5
100
AcDbEntity
100
AcDbLine
  8
Layer0
 62
256
370
-1
  6
BYLAYER
 10
334.595334976868
 20
36.640407305092403
 30
0.0
 11
334.66348332428998
 21
37.1580453952974
 31
0.0
  0
LINE
  5
2F6
100
AcDbEntity
100
AcDbLine
  8
Layer0
 62
2
420
16776960
370
-1
  6
BYLAYER
 10
236.663503743738
 20
46.158041553833399
 30
0.0
 11
236.663503743738
 21
152.83390721480899
 31
0.0
  0
LINE
  5
2F7
100
AcDbEntity
100
AcDbLine
  8
Layer0
 62
2
420
16776960
370
-1
  6
BYLAYER
 10
163.663503743738
 20
45.158041553833399
 30
0.0
 11
223.663503743738
 21
45.158041553833399
 31
0.0
  0
MTEXT
  5
2F8
100
AcDbEntity
100
AcDbMText
  8
0
 62
256
370
-1
  6
BYLAYER
 10
393.29329011390894
 20
62.535955727794374
 30
0.0
 40
20.0
 41
0.0
 71
2
 72
1
  1
\H5.71429;UP 90 DEG\P
  7
textstyle0
 50
0.0
 73
2
 44
1.0
  0
MTEXT
  5
2F9
100
AcDbEntity
100
AcDbMText
  8
0
 62
256
370
-1
  6
BYLAYER
 10
195.33453412240135
 20
63.399147977757352
 30
0.0
 40
20.0
 41
0.0
 71
2
 72
1
  1
\H5.71429;UP 90 DEG\P
  7
textstyle1
 50
0.0
 73
2
 44
1.0
  0
MTEXT
  5
2FA
100
AcDbEntity
100
AcDbMText
  8
0
 62
256
370
-1
  6
BYLAYER
 10
293.45071986819221
 20
62.535955727794374
 30
0.0
 40
20.0
 41
0.0
 71
2
 72
1
  1
\H5.71429;UP 90 DEG\P
  7
textstyle2
 50
0.0
 73
2
 44
1.0
  0
MTEXT
  5
2FB
100
AcDbEntity
100
AcDbMText
  8
0
 62
256
370
-1
  6
BYLAYER
 10
221.51803237127808
 20
97.063645726313155
 30
0.0
 40
20.0
 41
0.0
 71
2
 72
1
  1
\H5.71429;UP 90 DEG\P
  7
textstyle3
 50
90.0
 73
2
 44
1.0
  0
MTEXT
  5
2FC
100
AcDbEntity
100
AcDbMText
  8
0
 62
256
370
-1
  6
BYLAYER
 10
330.0
 20
100.0
 30
0.0
 40
20.0
 41
0.0
 71
2
 72
1
  1
\H5.71429;UP 90 DEG\P
  7
textstyle4
 50
90.0
 73
2
 44
1.0
  0
MTEXT
  5
2FD
100
AcDbEntity
100
AcDbMText
  8
0
 62
256
370
-1
  6
BYLAYER
 10
20.0
 20
90.0
 30
0.0
 40
20.0
 41
0.0
 71
2
 72
1
  1
\H15.7143;2.0MM MILD STEEL
  7
textstyle5
 50
90.0
 73
2
 44
1.0
  0
MTEXT
  5
2FE
100
AcDbEntity
100
AcDbMText
  8
0
 62
256
370
-1
  6
BYLAYER
 10
430.0
 20
80.0
 30
0.0
 40
20.0
 41
0.0
 71
2
 72
1
  1
\H15.7143;2.0MM MILD STEEL
  7
textstyle6
 50
90.0
 73
2
 44
1.0
  0
ENDSEC
  0
SECTION
  2
OBJECTS
  0
DICTIONARY
  5
C
100
AcDbDictionary
280
0
281
1
  3
ACAD_GROUP
350
D
  3
ACAD_LAYOUT
350
1A
  3
ACAD_MLINESTYLE
350
17
  3
ACAD_PLOTSETTINGS
350
19
  3
ACAD_PLOTSTYLENAME
350
E
  3
AcDbVariableDictionary
350
2FF
  3
QCAD_OBJECTS
350
300
  0
DICTIONARY
  5
D
100
AcDbDictionary
280
0
281
1
  0
ACDBDICTIONARYWDFLT
  5
E
100
AcDbDictionary
281
1
  3
Normal
350
F
100
AcDbDictionaryWithDefault
340
F
  0
ACDBPLACEHOLDER
  5
F
  0
DICTIONARY
  5
17
100
AcDbDictionary
280
0
281
1
  3
Standard
350
18
  0
MLINESTYLE
  5
18
100
AcDbMlineStyle
  2
STANDARD
 70
0
  3

 62
256
 51
90.0
 52
90.0
 71
2
 49
0.5
 62
256
  6
BYLAYER
 49
-0.5
 62
256
  6
BYLAYER
  0
DICTIONARY
  5
19
100
AcDbDictionary
280
0
281
1
  0
DICTIONARY
  5
1A
100
AcDbDictionary
281
1
  3
Layout1
350
1E
  3
Layout2
350
26
  3
Model
350
22
  0
LAYOUT
  5
1E
100
AcDbPlotSettings
  1

  2
none_device
  4

  6

 40
0.0
 41
0.0
 42
0.0
 43
0.0
 44
0.0
 45
0.0
 46
0.0
 47
0.0
 48
0.0
 49
0.0
140
0.0
141
0.0
142
1.0
143
1.0
 70
688
 72
0
 73
0
 74
5
  7

 75
16
147
1.0
148
0.0
149
0.0
100
AcDbLayout
  1
Layout1
 70
1
 71
1
 10
0.0
 20
0.0
 11
420.0
 21
297.0
 12
0.0
 22
0.0
 32
0.0
 14
100000000000000000000.0
 24
100000000000000000000.0
 34
100000000000000000000.0
 15
-100000000000000000000.0
 25
-100000000000000000000.0
 35
-100000000000000000000.0
146
0.0
 13
0.0
 23
0.0
 33
0.0
 16
1.0
 26
0.0
 36
0.0
 17
0.0
 27
1.0
 37
0.0
 76
0
330
1B
  0
LAYOUT
  5
22
100
AcDbPlotSettings
  1

  2
none_device
  4

  6

 40
0.0
 41
0.0
 42
0.0
 43
0.0
 44
0.0
 45
0.0
 46
0.0
 47
0.0
 48
0.0
 49
0.0
140
0.0
141
0.0
142
1.0
143
1.0
 70
1712
 72
0
 73
0
 74
0
  7

 75
0
147
1.0
148
0.0
149
0.0
100
AcDbLayout
  1
Model
 70
1
 71
0
 10
0.0
 20
0.0
 11
12.0
 21
9.0
 12
0.0
 22
0.0
 32
0.0
 14
0.0
 24
0.0
 34
0.0
 15
0.0
 25
0.0
 35
0.0
146
0.0
 13
0.0
 23
0.0
 33
0.0
 16
1.0
 26
0.0
 36
0.0
 17
0.0
 27
1.0
 37
0.0
 76
0
330
1F
  0
LAYOUT
  5
26
100
AcDbPlotSettings
  1

  2
none_device
  4

  6

 40
0.0
 41
0.0
 42
0.0
 43
0.0
 44
0.0
 45
0.0
 46
0.0
 47
0.0
 48
0.0
 49
0.0
140
0.0
141
0.0
142
1.0
143
1.0
 70
688
 72
0
 73
0
 74
5
  7

 75
16
147
1.0
148
0.0
149
0.0
100
AcDbLayout
  1
Layout2
 70
1
 71
2
 10
0.0
 20
0.0
 11
12.0
 21
9.0
 12
0.0
 22
0.0
 32
0.0
 14
0.0
 24
0.0
 34
0.0
 15
0.0
 25
0.0
 35
0.0
146
0.0
 13
0.0
 23
0.0
 33
0.0
 16
1.0
 26
0.0
 36
0.0
 17
0.0
 27
1.0
 37
0.0
 76
0
330
23
  0
DICTIONARY
  5
2FF
100
AcDbDictionary
281
1
  3
DIMASSOC
350
302
  3
HIDETEXT
350
301
  0
DICTIONARYVAR
  5
301
100
DictionaryVariables
280
0
  1
2
  0
DICTIONARYVAR
  5
302
100
DictionaryVariables
280
0
  1
1
  0
DICTIONARY
  5
300
100
AcDbDictionary
281
1
  3
Grid/DisplayGrid00
350
303
  3
Grid/DisplayGrid01
350
304
  3
Grid/DisplayGrid02
350
305
  3
Grid/DisplayGrid03
350
306
  3
Grid/GridSpacingX00
350
307
  3
Grid/GridSpacingX01
350
308
  3
Grid/GridSpacingX02
350
309
  3
Grid/GridSpacingX03
350
30A
  3
Grid/GridSpacingY00
350
30B
  3
Grid/GridSpacingY01
350
30C
  3
Grid/GridSpacingY02
350
30D
  3
Grid/GridSpacingY03
350
30E
  3
Grid/IsometricGrid00
350
30F
  3
Grid/IsometricGrid01
350
310
  3
Grid/IsometricGrid02
350
311
  3
Grid/IsometricGrid03
350
312
  3
Grid/IsometricProjection00
350
313
  3
Grid/IsometricProjection01
350
314
  3
Grid/IsometricProjection02
350
315
  3
Grid/IsometricProjection03
350
316
  3
Grid/MetaGridSpacingX00
350
317
  3
Grid/MetaGridSpacingX01
350
318
  3
Grid/MetaGridSpacingX02
350
319
  3
Grid/MetaGridSpacingX03
350
31A
  3
Grid/MetaGridSpacingY00
350
31B
  3
Grid/MetaGridSpacingY01
350
31C
  3
Grid/MetaGridSpacingY02
350
31D
  3
Grid/MetaGridSpacingY03
350
31E
  3
MultiPageSettings/Columns
350
31F
  3
MultiPageSettings/GlueMarginsBottom
350
320
  3
MultiPageSettings/GlueMarginsLeft
350
321
  3
MultiPageSettings/GlueMarginsRight
350
322
  3
MultiPageSettings/GlueMarginsTop
350
323
  3
MultiPageSettings/PrintCropMarks
350
324
  3
MultiPageSettings/Rows
350
325
  3
PageSettings/OffsetX
350
326
  3
PageSettings/OffsetY
350
327
  3
PageSettings/PageOrientation
350
328
  3
PageSettings/PaperHeight
350
329
  3
PageSettings/PaperWidth
350
32A
  3
PageSettings/Scale
350
32B
  3
PageSettings/ShowPaperBorders
350
32C
  3
UnitSettings/PaperUnit
350
32D
  0
XRECORD
  5
303
330
300
100
AcDbXrecord
280
1
290
1
  0
XRECORD
  5
304
330
300
100
AcDbXrecord
280
1
290
1
  0
XRECORD
  5
305
330
300
100
AcDbXrecord
280
1
290
1
  0
XRECORD
  5
306
330
300
100
AcDbXrecord
280
1
290
1
  0
XRECORD
  5
307
330
300
100
AcDbXrecord
280
1
1000
auto
  0
XRECORD
  5
308
330
300
100
AcDbXrecord
280
1
1000
auto
  0
XRECORD
  5
309
330
300
100
AcDbXrecord
280
1
1000
auto
  0
XRECORD
  5
30A
330
300
100
AcDbXrecord
280
1
1000
auto
  0
XRECORD
  5
30B
330
300
100
AcDbXrecord
280
1
1000
auto
  0
XRECORD
  5
30C
330
300
100
AcDbXrecord
280
1
1000
auto
  0
XRECORD
  5
30D
330
300
100
AcDbXrecord
280
1
1000
auto
  0
XRECORD
  5
30E
330
300
100
AcDbXrecord
280
1
1000
auto
  0
XRECORD
  5
30F
330
300
100
AcDbXrecord
280
1
290
0
  0
XRECORD
  5
310
330
300
100
AcDbXrecord
280
1
290
0
  0
XRECORD
  5
311
330
300
100
AcDbXrecord
280
1
290
0
  0
XRECORD
  5
312
330
300
100
AcDbXrecord
280
1
290
0
  0
XRECORD
  5
313
330
300
100
AcDbXrecord
280
1
 90
0
  0
XRECORD
  5
314
330
300
100
AcDbXrecord
280
1
 90
0
  0
XRECORD
  5
315
330
300
100
AcDbXrecord
280
1
 90
0
  0
XRECORD
  5
316
330
300
100
AcDbXrecord
280
1
 90
0
  0
XRECORD
  5
317
330
300
100
AcDbXrecord
280
1
1000
auto
  0
XRECORD
  5
318
330
300
100
AcDbXrecord
280
1
1000
auto
  0
XRECORD
  5
319
330
300
100
AcDbXrecord
280
1
1000
auto
  0
XRECORD
  5
31A
330
300
100
AcDbXrecord
280
1
1000
auto
  0
XRECORD
  5
31B
330
300
100
AcDbXrecord
280
1
1000
auto
  0
XRECORD
  5
31C
330
300
100
AcDbXrecord
280
1
1000
auto
  0
XRECORD
  5
31D
330
300
100
AcDbXrecord
280
1
1000
auto
  0
XRECORD
  5
31E
330
300
100
AcDbXrecord
280
1
1000
auto
  0
XRECORD
  5
31F
330
300
100
AcDbXrecord
280
1
 90
1
  0
XRECORD
  5
320
330
300
100
AcDbXrecord
280
1
 40
10.0
  0
XRECORD
  5
321
330
300
100
AcDbXrecord
280
1
 40
10.0
  0
XRECORD
  5
322
330
300
100
AcDbXrecord
280
1
 40
10.0
  0
XRECORD
  5
323
330
300
100
AcDbXrecord
280
1
 40
10.0
  0
XRECORD
  5
324
330
300
100
AcDbXrecord
280
1
290
0
  0
XRECORD
  5
325
330
300
100
AcDbXrecord
280
1
 90
1
  0
XRECORD
  5
326
330
300
100
AcDbXrecord
280
1
 40
0.0
  0
XRECORD
  5
327
330
300
100
AcDbXrecord
280
1
 40
0.0
  0
XRECORD
  5
328
330
300
100
AcDbXrecord
280
1
1000
Portrait
  0
XRECORD
  5
329
330
300
100
AcDbXrecord
280
1
 40
297.0
  0
XRECORD
  5
32A
330
300
100
AcDbXrecord
280
1
 40
210.0
  0
XRECORD
  5
32B
330
300
100
AcDbXrecord
280
1
1000
1:1
  0
XRECORD
  5
32C
330
300
100
AcDbXrecord
280
1
290
1
  0
XRECORD
  5
32D
330
300
100
AcDbXrecord
280
1
 90
4
  0
ENDSEC
  0
EOF
