%
M48
M72
T01C0.0236
T02C0.0315
T03C0.0320
T04C0.0400
T05C0.0440
T06C0.0470
T07C0.0472
T08C0.0551
T09C0.1102
T10C0.1260
%
T01
X53334Y10097
X53584Y10722
X53834Y11347
X52209Y30827
X53559Y27627
X46879Y30377
X46159Y29427
X45259Y29427
X42959Y30222
X41873Y30948
X39865Y30948
X37309Y30877
X36409Y30877
X35509Y30877
X31159Y34005
X30647Y35072
X29084Y34230
X28953Y36614
X25934Y37838
X24527Y37838
X21521Y36968
X14701Y38405
X14177Y26346
X17152Y24568
X21499Y24097
X21971Y23211
X22444Y22267
X22149Y25633
X25670Y26939
X28646Y27080
X29820Y24703
X32601Y23389
X34020Y23390
X33709Y20972
X32245Y20467
X34390Y17798
X33591Y17269
X36843Y17669
X38702Y16384
X40176Y16360
X41334Y17347
X39226Y18438
X37834Y19722
X41584Y14722
X42334Y13097
X47209Y11722
X47959Y11722
X48709Y11722
X49459Y11722
X50209Y11722
X50209Y12472
X47584Y16722
X46084Y16972
X50495Y19314
X44709Y25627
X41282Y25574
X41282Y28408
X34963Y26873
X31289Y30771
X28907Y30371
X40427Y35636
X40466Y36181
X41518Y36455
X41470Y37563
X36216Y38757
X34380Y38744
X34410Y38118
X13586Y20495
T02
X22857Y19314
X22857Y11834
X5337Y19314
X5337Y11834
T03
X55359Y36831
X55359Y37831
X59556Y37804
X59556Y36804
X43510Y37844
X43510Y36844
X47330Y36837
X47330Y37837
X51184Y37822
X51184Y36822
X49271Y23977
X48271Y23977
X47271Y23977
X46271Y23977
X45271Y23977
X44271Y23977
X43271Y23977
X42271Y23977
X41271Y23977
X40271Y23977
X39271Y23977
X38271Y23977
X37271Y23977
X36271Y23977
X36271Y20977
X37271Y20977
X38271Y20977
X39271Y20977
X40271Y20977
X41271Y20977
X42271Y20977
X43271Y20977
X44271Y20977
X45271Y20977
X46271Y20977
X47271Y20977
X48271Y20977
X49271Y20977
X12271Y21763
X13271Y21763
X13294Y24321
X12294Y24321
T04
X52879Y32897
X51879Y32897
X50879Y32897
X49879Y32897
X48879Y32897
X47879Y32897
X46879Y32897
X45879Y32897
X44879Y32897
X43879Y32897
X42879Y32897
X41879Y32897
X40879Y32897
X39879Y32897
X38879Y32897
X37879Y32897
X36879Y32897
X35879Y32897
X34879Y32897
X33879Y32897
X33879Y31897
X34879Y31897
X35879Y31897
X36879Y31897
X37879Y31897
X38879Y31897
X39879Y31897
X40879Y31897
X41879Y31897
X42879Y31897
X43879Y31897
X44879Y31897
X45879Y31897
X46879Y31897
X47879Y31897
X48879Y31897
X49879Y31897
X50879Y31897
X51879Y31897
X52879Y31897
X50726Y29808
X50726Y28808
X45865Y34255
X44865Y34255
X43865Y34255
X42865Y34255
X41865Y34255
X40865Y34255
X39865Y34255
X38865Y34255
X37865Y34255
X36865Y34255
X35865Y34255
X34865Y34255
X33865Y34255
X35675Y37551
X37675Y37551
X36675Y39551
X27115Y39547
X26115Y39647
X25115Y39547
X24115Y39647
X23115Y39547
X22115Y39647
X21115Y39547
X20115Y39647
X19115Y39547
X18115Y39647
X17115Y39547
X16115Y39647
X15115Y39547
X14115Y39647
X13115Y39547
X12115Y39647
X26765Y23981
X27765Y23981
X27765Y22981
X26765Y22981
X26765Y21981
X27765Y21981
T05
X27734Y19027
X26751Y19008
T06
X41210Y4788
X43178Y4788
X45210Y4788
X47178Y4788
X49210Y4788
X51178Y4788
X53210Y4788
X55178Y4788
X57225Y4780
X59194Y4780
X61162Y4780
X6193Y36704
X6193Y34735
X6193Y32767
X6193Y30302
X6193Y28334
X6193Y26365
X6117Y24137
X6117Y22168
X19200Y4783
X21168Y4783
X23225Y4780
X25194Y4780
X27162Y4780
X29210Y4788
X31178Y4788
X33210Y4788
X35178Y4788
X37210Y4788
X39178Y4788
X17168Y4783
X15200Y4783
X13168Y4783
X11200Y4783
X9168Y4783
X7200Y4783
T07
X36578Y13763
X35200Y13763
T08
X7360Y39413
T09
X54796Y32397
X31961Y32397
X54796Y13105
X31961Y13105
T10
X5023Y38979
X10093Y39556
X39581Y39560
X62837Y38861
X63487Y9274
X4786Y3369
X4609Y9334
X7700Y18920
X20298Y12424
X63428Y3192
M30
