G75*
G70*
%OFA0B0*%
%FSLAX24Y24*%
%IPPOS*%
%LPD*%
%AMOC8*
5,1,8,0,0,1.08239X$1,22.5*
%
%ADD10C,0.0000*%
%ADD11C,0.1142*%
%ADD12C,0.0100*%
%ADD13C,0.1300*%
%ADD14R,0.0640X0.0640*%
%ADD15OC8,0.0640*%
%ADD16C,0.0560*%
%ADD17OC8,0.0780*%
%ADD18C,0.0780*%
%ADD19C,0.0745*%
%ADD20R,0.0800X0.0800*%
%ADD21R,0.0840X0.0840*%
%ADD22C,0.0840*%
%ADD23OC8,0.0700*%
%ADD24C,0.0640*%
%ADD25R,0.0867X0.0867*%
D10*
X004156Y003369D02*
X004158Y003419D01*
X004164Y003469D01*
X004174Y003518D01*
X004188Y003566D01*
X004205Y003613D01*
X004226Y003658D01*
X004251Y003702D01*
X004279Y003743D01*
X004311Y003782D01*
X004345Y003819D01*
X004382Y003853D01*
X004422Y003883D01*
X004464Y003910D01*
X004508Y003934D01*
X004554Y003955D01*
X004601Y003971D01*
X004649Y003984D01*
X004699Y003993D01*
X004748Y003998D01*
X004799Y003999D01*
X004849Y003996D01*
X004898Y003989D01*
X004947Y003978D01*
X004995Y003963D01*
X005041Y003945D01*
X005086Y003923D01*
X005129Y003897D01*
X005170Y003868D01*
X005209Y003836D01*
X005245Y003801D01*
X005277Y003763D01*
X005307Y003723D01*
X005334Y003680D01*
X005357Y003636D01*
X005376Y003590D01*
X005392Y003542D01*
X005404Y003493D01*
X005412Y003444D01*
X005416Y003394D01*
X005416Y003344D01*
X005412Y003294D01*
X005404Y003245D01*
X005392Y003196D01*
X005376Y003148D01*
X005357Y003102D01*
X005334Y003058D01*
X005307Y003015D01*
X005277Y002975D01*
X005245Y002937D01*
X005209Y002902D01*
X005170Y002870D01*
X005129Y002841D01*
X005086Y002815D01*
X005041Y002793D01*
X004995Y002775D01*
X004947Y002760D01*
X004898Y002749D01*
X004849Y002742D01*
X004799Y002739D01*
X004748Y002740D01*
X004699Y002745D01*
X004649Y002754D01*
X004601Y002767D01*
X004554Y002783D01*
X004508Y002804D01*
X004464Y002828D01*
X004422Y002855D01*
X004382Y002885D01*
X004345Y002919D01*
X004311Y002956D01*
X004279Y002995D01*
X004251Y003036D01*
X004226Y003080D01*
X004205Y003125D01*
X004188Y003172D01*
X004174Y003220D01*
X004164Y003269D01*
X004158Y003319D01*
X004156Y003369D01*
X003979Y009334D02*
X003981Y009384D01*
X003987Y009434D01*
X003997Y009483D01*
X004011Y009531D01*
X004028Y009578D01*
X004049Y009623D01*
X004074Y009667D01*
X004102Y009708D01*
X004134Y009747D01*
X004168Y009784D01*
X004205Y009818D01*
X004245Y009848D01*
X004287Y009875D01*
X004331Y009899D01*
X004377Y009920D01*
X004424Y009936D01*
X004472Y009949D01*
X004522Y009958D01*
X004571Y009963D01*
X004622Y009964D01*
X004672Y009961D01*
X004721Y009954D01*
X004770Y009943D01*
X004818Y009928D01*
X004864Y009910D01*
X004909Y009888D01*
X004952Y009862D01*
X004993Y009833D01*
X005032Y009801D01*
X005068Y009766D01*
X005100Y009728D01*
X005130Y009688D01*
X005157Y009645D01*
X005180Y009601D01*
X005199Y009555D01*
X005215Y009507D01*
X005227Y009458D01*
X005235Y009409D01*
X005239Y009359D01*
X005239Y009309D01*
X005235Y009259D01*
X005227Y009210D01*
X005215Y009161D01*
X005199Y009113D01*
X005180Y009067D01*
X005157Y009023D01*
X005130Y008980D01*
X005100Y008940D01*
X005068Y008902D01*
X005032Y008867D01*
X004993Y008835D01*
X004952Y008806D01*
X004909Y008780D01*
X004864Y008758D01*
X004818Y008740D01*
X004770Y008725D01*
X004721Y008714D01*
X004672Y008707D01*
X004622Y008704D01*
X004571Y008705D01*
X004522Y008710D01*
X004472Y008719D01*
X004424Y008732D01*
X004377Y008748D01*
X004331Y008769D01*
X004287Y008793D01*
X004245Y008820D01*
X004205Y008850D01*
X004168Y008884D01*
X004134Y008921D01*
X004102Y008960D01*
X004074Y009001D01*
X004049Y009045D01*
X004028Y009090D01*
X004011Y009137D01*
X003997Y009185D01*
X003987Y009234D01*
X003981Y009284D01*
X003979Y009334D01*
X007070Y018920D02*
X007072Y018970D01*
X007078Y019020D01*
X007088Y019069D01*
X007102Y019117D01*
X007119Y019164D01*
X007140Y019209D01*
X007165Y019253D01*
X007193Y019294D01*
X007225Y019333D01*
X007259Y019370D01*
X007296Y019404D01*
X007336Y019434D01*
X007378Y019461D01*
X007422Y019485D01*
X007468Y019506D01*
X007515Y019522D01*
X007563Y019535D01*
X007613Y019544D01*
X007662Y019549D01*
X007713Y019550D01*
X007763Y019547D01*
X007812Y019540D01*
X007861Y019529D01*
X007909Y019514D01*
X007955Y019496D01*
X008000Y019474D01*
X008043Y019448D01*
X008084Y019419D01*
X008123Y019387D01*
X008159Y019352D01*
X008191Y019314D01*
X008221Y019274D01*
X008248Y019231D01*
X008271Y019187D01*
X008290Y019141D01*
X008306Y019093D01*
X008318Y019044D01*
X008326Y018995D01*
X008330Y018945D01*
X008330Y018895D01*
X008326Y018845D01*
X008318Y018796D01*
X008306Y018747D01*
X008290Y018699D01*
X008271Y018653D01*
X008248Y018609D01*
X008221Y018566D01*
X008191Y018526D01*
X008159Y018488D01*
X008123Y018453D01*
X008084Y018421D01*
X008043Y018392D01*
X008000Y018366D01*
X007955Y018344D01*
X007909Y018326D01*
X007861Y018311D01*
X007812Y018300D01*
X007763Y018293D01*
X007713Y018290D01*
X007662Y018291D01*
X007613Y018296D01*
X007563Y018305D01*
X007515Y018318D01*
X007468Y018334D01*
X007422Y018355D01*
X007378Y018379D01*
X007336Y018406D01*
X007296Y018436D01*
X007259Y018470D01*
X007225Y018507D01*
X007193Y018546D01*
X007165Y018587D01*
X007140Y018631D01*
X007119Y018676D01*
X007102Y018723D01*
X007088Y018771D01*
X007078Y018820D01*
X007072Y018870D01*
X007070Y018920D01*
X019668Y012424D02*
X019670Y012474D01*
X019676Y012524D01*
X019686Y012573D01*
X019700Y012621D01*
X019717Y012668D01*
X019738Y012713D01*
X019763Y012757D01*
X019791Y012798D01*
X019823Y012837D01*
X019857Y012874D01*
X019894Y012908D01*
X019934Y012938D01*
X019976Y012965D01*
X020020Y012989D01*
X020066Y013010D01*
X020113Y013026D01*
X020161Y013039D01*
X020211Y013048D01*
X020260Y013053D01*
X020311Y013054D01*
X020361Y013051D01*
X020410Y013044D01*
X020459Y013033D01*
X020507Y013018D01*
X020553Y013000D01*
X020598Y012978D01*
X020641Y012952D01*
X020682Y012923D01*
X020721Y012891D01*
X020757Y012856D01*
X020789Y012818D01*
X020819Y012778D01*
X020846Y012735D01*
X020869Y012691D01*
X020888Y012645D01*
X020904Y012597D01*
X020916Y012548D01*
X020924Y012499D01*
X020928Y012449D01*
X020928Y012399D01*
X020924Y012349D01*
X020916Y012300D01*
X020904Y012251D01*
X020888Y012203D01*
X020869Y012157D01*
X020846Y012113D01*
X020819Y012070D01*
X020789Y012030D01*
X020757Y011992D01*
X020721Y011957D01*
X020682Y011925D01*
X020641Y011896D01*
X020598Y011870D01*
X020553Y011848D01*
X020507Y011830D01*
X020459Y011815D01*
X020410Y011804D01*
X020361Y011797D01*
X020311Y011794D01*
X020260Y011795D01*
X020211Y011800D01*
X020161Y011809D01*
X020113Y011822D01*
X020066Y011838D01*
X020020Y011859D01*
X019976Y011883D01*
X019934Y011910D01*
X019894Y011940D01*
X019857Y011974D01*
X019823Y012011D01*
X019791Y012050D01*
X019763Y012091D01*
X019738Y012135D01*
X019717Y012180D01*
X019700Y012227D01*
X019686Y012275D01*
X019676Y012324D01*
X019670Y012374D01*
X019668Y012424D01*
X031410Y013105D02*
X031412Y013152D01*
X031418Y013198D01*
X031428Y013244D01*
X031441Y013289D01*
X031459Y013332D01*
X031480Y013374D01*
X031504Y013414D01*
X031532Y013451D01*
X031563Y013486D01*
X031597Y013519D01*
X031633Y013548D01*
X031672Y013574D01*
X031713Y013597D01*
X031756Y013616D01*
X031800Y013632D01*
X031845Y013644D01*
X031891Y013652D01*
X031938Y013656D01*
X031984Y013656D01*
X032031Y013652D01*
X032077Y013644D01*
X032122Y013632D01*
X032166Y013616D01*
X032209Y013597D01*
X032250Y013574D01*
X032289Y013548D01*
X032325Y013519D01*
X032359Y013486D01*
X032390Y013451D01*
X032418Y013414D01*
X032442Y013374D01*
X032463Y013332D01*
X032481Y013289D01*
X032494Y013244D01*
X032504Y013198D01*
X032510Y013152D01*
X032512Y013105D01*
X032510Y013058D01*
X032504Y013012D01*
X032494Y012966D01*
X032481Y012921D01*
X032463Y012878D01*
X032442Y012836D01*
X032418Y012796D01*
X032390Y012759D01*
X032359Y012724D01*
X032325Y012691D01*
X032289Y012662D01*
X032250Y012636D01*
X032209Y012613D01*
X032166Y012594D01*
X032122Y012578D01*
X032077Y012566D01*
X032031Y012558D01*
X031984Y012554D01*
X031938Y012554D01*
X031891Y012558D01*
X031845Y012566D01*
X031800Y012578D01*
X031756Y012594D01*
X031713Y012613D01*
X031672Y012636D01*
X031633Y012662D01*
X031597Y012691D01*
X031563Y012724D01*
X031532Y012759D01*
X031504Y012796D01*
X031480Y012836D01*
X031459Y012878D01*
X031441Y012921D01*
X031428Y012966D01*
X031418Y013012D01*
X031412Y013058D01*
X031410Y013105D01*
X054245Y013105D02*
X054247Y013152D01*
X054253Y013198D01*
X054263Y013244D01*
X054276Y013289D01*
X054294Y013332D01*
X054315Y013374D01*
X054339Y013414D01*
X054367Y013451D01*
X054398Y013486D01*
X054432Y013519D01*
X054468Y013548D01*
X054507Y013574D01*
X054548Y013597D01*
X054591Y013616D01*
X054635Y013632D01*
X054680Y013644D01*
X054726Y013652D01*
X054773Y013656D01*
X054819Y013656D01*
X054866Y013652D01*
X054912Y013644D01*
X054957Y013632D01*
X055001Y013616D01*
X055044Y013597D01*
X055085Y013574D01*
X055124Y013548D01*
X055160Y013519D01*
X055194Y013486D01*
X055225Y013451D01*
X055253Y013414D01*
X055277Y013374D01*
X055298Y013332D01*
X055316Y013289D01*
X055329Y013244D01*
X055339Y013198D01*
X055345Y013152D01*
X055347Y013105D01*
X055345Y013058D01*
X055339Y013012D01*
X055329Y012966D01*
X055316Y012921D01*
X055298Y012878D01*
X055277Y012836D01*
X055253Y012796D01*
X055225Y012759D01*
X055194Y012724D01*
X055160Y012691D01*
X055124Y012662D01*
X055085Y012636D01*
X055044Y012613D01*
X055001Y012594D01*
X054957Y012578D01*
X054912Y012566D01*
X054866Y012558D01*
X054819Y012554D01*
X054773Y012554D01*
X054726Y012558D01*
X054680Y012566D01*
X054635Y012578D01*
X054591Y012594D01*
X054548Y012613D01*
X054507Y012636D01*
X054468Y012662D01*
X054432Y012691D01*
X054398Y012724D01*
X054367Y012759D01*
X054339Y012796D01*
X054315Y012836D01*
X054294Y012878D01*
X054276Y012921D01*
X054263Y012966D01*
X054253Y013012D01*
X054247Y013058D01*
X054245Y013105D01*
X062857Y009274D02*
X062859Y009324D01*
X062865Y009374D01*
X062875Y009423D01*
X062889Y009471D01*
X062906Y009518D01*
X062927Y009563D01*
X062952Y009607D01*
X062980Y009648D01*
X063012Y009687D01*
X063046Y009724D01*
X063083Y009758D01*
X063123Y009788D01*
X063165Y009815D01*
X063209Y009839D01*
X063255Y009860D01*
X063302Y009876D01*
X063350Y009889D01*
X063400Y009898D01*
X063449Y009903D01*
X063500Y009904D01*
X063550Y009901D01*
X063599Y009894D01*
X063648Y009883D01*
X063696Y009868D01*
X063742Y009850D01*
X063787Y009828D01*
X063830Y009802D01*
X063871Y009773D01*
X063910Y009741D01*
X063946Y009706D01*
X063978Y009668D01*
X064008Y009628D01*
X064035Y009585D01*
X064058Y009541D01*
X064077Y009495D01*
X064093Y009447D01*
X064105Y009398D01*
X064113Y009349D01*
X064117Y009299D01*
X064117Y009249D01*
X064113Y009199D01*
X064105Y009150D01*
X064093Y009101D01*
X064077Y009053D01*
X064058Y009007D01*
X064035Y008963D01*
X064008Y008920D01*
X063978Y008880D01*
X063946Y008842D01*
X063910Y008807D01*
X063871Y008775D01*
X063830Y008746D01*
X063787Y008720D01*
X063742Y008698D01*
X063696Y008680D01*
X063648Y008665D01*
X063599Y008654D01*
X063550Y008647D01*
X063500Y008644D01*
X063449Y008645D01*
X063400Y008650D01*
X063350Y008659D01*
X063302Y008672D01*
X063255Y008688D01*
X063209Y008709D01*
X063165Y008733D01*
X063123Y008760D01*
X063083Y008790D01*
X063046Y008824D01*
X063012Y008861D01*
X062980Y008900D01*
X062952Y008941D01*
X062927Y008985D01*
X062906Y009030D01*
X062889Y009077D01*
X062875Y009125D01*
X062865Y009174D01*
X062859Y009224D01*
X062857Y009274D01*
X062798Y003192D02*
X062800Y003242D01*
X062806Y003292D01*
X062816Y003341D01*
X062830Y003389D01*
X062847Y003436D01*
X062868Y003481D01*
X062893Y003525D01*
X062921Y003566D01*
X062953Y003605D01*
X062987Y003642D01*
X063024Y003676D01*
X063064Y003706D01*
X063106Y003733D01*
X063150Y003757D01*
X063196Y003778D01*
X063243Y003794D01*
X063291Y003807D01*
X063341Y003816D01*
X063390Y003821D01*
X063441Y003822D01*
X063491Y003819D01*
X063540Y003812D01*
X063589Y003801D01*
X063637Y003786D01*
X063683Y003768D01*
X063728Y003746D01*
X063771Y003720D01*
X063812Y003691D01*
X063851Y003659D01*
X063887Y003624D01*
X063919Y003586D01*
X063949Y003546D01*
X063976Y003503D01*
X063999Y003459D01*
X064018Y003413D01*
X064034Y003365D01*
X064046Y003316D01*
X064054Y003267D01*
X064058Y003217D01*
X064058Y003167D01*
X064054Y003117D01*
X064046Y003068D01*
X064034Y003019D01*
X064018Y002971D01*
X063999Y002925D01*
X063976Y002881D01*
X063949Y002838D01*
X063919Y002798D01*
X063887Y002760D01*
X063851Y002725D01*
X063812Y002693D01*
X063771Y002664D01*
X063728Y002638D01*
X063683Y002616D01*
X063637Y002598D01*
X063589Y002583D01*
X063540Y002572D01*
X063491Y002565D01*
X063441Y002562D01*
X063390Y002563D01*
X063341Y002568D01*
X063291Y002577D01*
X063243Y002590D01*
X063196Y002606D01*
X063150Y002627D01*
X063106Y002651D01*
X063064Y002678D01*
X063024Y002708D01*
X062987Y002742D01*
X062953Y002779D01*
X062921Y002818D01*
X062893Y002859D01*
X062868Y002903D01*
X062847Y002948D01*
X062830Y002995D01*
X062816Y003043D01*
X062806Y003092D01*
X062800Y003142D01*
X062798Y003192D01*
X054245Y032397D02*
X054247Y032444D01*
X054253Y032490D01*
X054263Y032536D01*
X054276Y032581D01*
X054294Y032624D01*
X054315Y032666D01*
X054339Y032706D01*
X054367Y032743D01*
X054398Y032778D01*
X054432Y032811D01*
X054468Y032840D01*
X054507Y032866D01*
X054548Y032889D01*
X054591Y032908D01*
X054635Y032924D01*
X054680Y032936D01*
X054726Y032944D01*
X054773Y032948D01*
X054819Y032948D01*
X054866Y032944D01*
X054912Y032936D01*
X054957Y032924D01*
X055001Y032908D01*
X055044Y032889D01*
X055085Y032866D01*
X055124Y032840D01*
X055160Y032811D01*
X055194Y032778D01*
X055225Y032743D01*
X055253Y032706D01*
X055277Y032666D01*
X055298Y032624D01*
X055316Y032581D01*
X055329Y032536D01*
X055339Y032490D01*
X055345Y032444D01*
X055347Y032397D01*
X055345Y032350D01*
X055339Y032304D01*
X055329Y032258D01*
X055316Y032213D01*
X055298Y032170D01*
X055277Y032128D01*
X055253Y032088D01*
X055225Y032051D01*
X055194Y032016D01*
X055160Y031983D01*
X055124Y031954D01*
X055085Y031928D01*
X055044Y031905D01*
X055001Y031886D01*
X054957Y031870D01*
X054912Y031858D01*
X054866Y031850D01*
X054819Y031846D01*
X054773Y031846D01*
X054726Y031850D01*
X054680Y031858D01*
X054635Y031870D01*
X054591Y031886D01*
X054548Y031905D01*
X054507Y031928D01*
X054468Y031954D01*
X054432Y031983D01*
X054398Y032016D01*
X054367Y032051D01*
X054339Y032088D01*
X054315Y032128D01*
X054294Y032170D01*
X054276Y032213D01*
X054263Y032258D01*
X054253Y032304D01*
X054247Y032350D01*
X054245Y032397D01*
X062207Y038861D02*
X062209Y038911D01*
X062215Y038961D01*
X062225Y039010D01*
X062239Y039058D01*
X062256Y039105D01*
X062277Y039150D01*
X062302Y039194D01*
X062330Y039235D01*
X062362Y039274D01*
X062396Y039311D01*
X062433Y039345D01*
X062473Y039375D01*
X062515Y039402D01*
X062559Y039426D01*
X062605Y039447D01*
X062652Y039463D01*
X062700Y039476D01*
X062750Y039485D01*
X062799Y039490D01*
X062850Y039491D01*
X062900Y039488D01*
X062949Y039481D01*
X062998Y039470D01*
X063046Y039455D01*
X063092Y039437D01*
X063137Y039415D01*
X063180Y039389D01*
X063221Y039360D01*
X063260Y039328D01*
X063296Y039293D01*
X063328Y039255D01*
X063358Y039215D01*
X063385Y039172D01*
X063408Y039128D01*
X063427Y039082D01*
X063443Y039034D01*
X063455Y038985D01*
X063463Y038936D01*
X063467Y038886D01*
X063467Y038836D01*
X063463Y038786D01*
X063455Y038737D01*
X063443Y038688D01*
X063427Y038640D01*
X063408Y038594D01*
X063385Y038550D01*
X063358Y038507D01*
X063328Y038467D01*
X063296Y038429D01*
X063260Y038394D01*
X063221Y038362D01*
X063180Y038333D01*
X063137Y038307D01*
X063092Y038285D01*
X063046Y038267D01*
X062998Y038252D01*
X062949Y038241D01*
X062900Y038234D01*
X062850Y038231D01*
X062799Y038232D01*
X062750Y038237D01*
X062700Y038246D01*
X062652Y038259D01*
X062605Y038275D01*
X062559Y038296D01*
X062515Y038320D01*
X062473Y038347D01*
X062433Y038377D01*
X062396Y038411D01*
X062362Y038448D01*
X062330Y038487D01*
X062302Y038528D01*
X062277Y038572D01*
X062256Y038617D01*
X062239Y038664D01*
X062225Y038712D01*
X062215Y038761D01*
X062209Y038811D01*
X062207Y038861D01*
X038951Y039560D02*
X038953Y039610D01*
X038959Y039660D01*
X038969Y039709D01*
X038983Y039757D01*
X039000Y039804D01*
X039021Y039849D01*
X039046Y039893D01*
X039074Y039934D01*
X039106Y039973D01*
X039140Y040010D01*
X039177Y040044D01*
X039217Y040074D01*
X039259Y040101D01*
X039303Y040125D01*
X039349Y040146D01*
X039396Y040162D01*
X039444Y040175D01*
X039494Y040184D01*
X039543Y040189D01*
X039594Y040190D01*
X039644Y040187D01*
X039693Y040180D01*
X039742Y040169D01*
X039790Y040154D01*
X039836Y040136D01*
X039881Y040114D01*
X039924Y040088D01*
X039965Y040059D01*
X040004Y040027D01*
X040040Y039992D01*
X040072Y039954D01*
X040102Y039914D01*
X040129Y039871D01*
X040152Y039827D01*
X040171Y039781D01*
X040187Y039733D01*
X040199Y039684D01*
X040207Y039635D01*
X040211Y039585D01*
X040211Y039535D01*
X040207Y039485D01*
X040199Y039436D01*
X040187Y039387D01*
X040171Y039339D01*
X040152Y039293D01*
X040129Y039249D01*
X040102Y039206D01*
X040072Y039166D01*
X040040Y039128D01*
X040004Y039093D01*
X039965Y039061D01*
X039924Y039032D01*
X039881Y039006D01*
X039836Y038984D01*
X039790Y038966D01*
X039742Y038951D01*
X039693Y038940D01*
X039644Y038933D01*
X039594Y038930D01*
X039543Y038931D01*
X039494Y038936D01*
X039444Y038945D01*
X039396Y038958D01*
X039349Y038974D01*
X039303Y038995D01*
X039259Y039019D01*
X039217Y039046D01*
X039177Y039076D01*
X039140Y039110D01*
X039106Y039147D01*
X039074Y039186D01*
X039046Y039227D01*
X039021Y039271D01*
X039000Y039316D01*
X038983Y039363D01*
X038969Y039411D01*
X038959Y039460D01*
X038953Y039510D01*
X038951Y039560D01*
X031410Y032397D02*
X031412Y032444D01*
X031418Y032490D01*
X031428Y032536D01*
X031441Y032581D01*
X031459Y032624D01*
X031480Y032666D01*
X031504Y032706D01*
X031532Y032743D01*
X031563Y032778D01*
X031597Y032811D01*
X031633Y032840D01*
X031672Y032866D01*
X031713Y032889D01*
X031756Y032908D01*
X031800Y032924D01*
X031845Y032936D01*
X031891Y032944D01*
X031938Y032948D01*
X031984Y032948D01*
X032031Y032944D01*
X032077Y032936D01*
X032122Y032924D01*
X032166Y032908D01*
X032209Y032889D01*
X032250Y032866D01*
X032289Y032840D01*
X032325Y032811D01*
X032359Y032778D01*
X032390Y032743D01*
X032418Y032706D01*
X032442Y032666D01*
X032463Y032624D01*
X032481Y032581D01*
X032494Y032536D01*
X032504Y032490D01*
X032510Y032444D01*
X032512Y032397D01*
X032510Y032350D01*
X032504Y032304D01*
X032494Y032258D01*
X032481Y032213D01*
X032463Y032170D01*
X032442Y032128D01*
X032418Y032088D01*
X032390Y032051D01*
X032359Y032016D01*
X032325Y031983D01*
X032289Y031954D01*
X032250Y031928D01*
X032209Y031905D01*
X032166Y031886D01*
X032122Y031870D01*
X032077Y031858D01*
X032031Y031850D01*
X031984Y031846D01*
X031938Y031846D01*
X031891Y031850D01*
X031845Y031858D01*
X031800Y031870D01*
X031756Y031886D01*
X031713Y031905D01*
X031672Y031928D01*
X031633Y031954D01*
X031597Y031983D01*
X031563Y032016D01*
X031532Y032051D01*
X031504Y032088D01*
X031480Y032128D01*
X031459Y032170D01*
X031441Y032213D01*
X031428Y032258D01*
X031418Y032304D01*
X031412Y032350D01*
X031410Y032397D01*
X009463Y039556D02*
X009465Y039606D01*
X009471Y039656D01*
X009481Y039705D01*
X009495Y039753D01*
X009512Y039800D01*
X009533Y039845D01*
X009558Y039889D01*
X009586Y039930D01*
X009618Y039969D01*
X009652Y040006D01*
X009689Y040040D01*
X009729Y040070D01*
X009771Y040097D01*
X009815Y040121D01*
X009861Y040142D01*
X009908Y040158D01*
X009956Y040171D01*
X010006Y040180D01*
X010055Y040185D01*
X010106Y040186D01*
X010156Y040183D01*
X010205Y040176D01*
X010254Y040165D01*
X010302Y040150D01*
X010348Y040132D01*
X010393Y040110D01*
X010436Y040084D01*
X010477Y040055D01*
X010516Y040023D01*
X010552Y039988D01*
X010584Y039950D01*
X010614Y039910D01*
X010641Y039867D01*
X010664Y039823D01*
X010683Y039777D01*
X010699Y039729D01*
X010711Y039680D01*
X010719Y039631D01*
X010723Y039581D01*
X010723Y039531D01*
X010719Y039481D01*
X010711Y039432D01*
X010699Y039383D01*
X010683Y039335D01*
X010664Y039289D01*
X010641Y039245D01*
X010614Y039202D01*
X010584Y039162D01*
X010552Y039124D01*
X010516Y039089D01*
X010477Y039057D01*
X010436Y039028D01*
X010393Y039002D01*
X010348Y038980D01*
X010302Y038962D01*
X010254Y038947D01*
X010205Y038936D01*
X010156Y038929D01*
X010106Y038926D01*
X010055Y038927D01*
X010006Y038932D01*
X009956Y038941D01*
X009908Y038954D01*
X009861Y038970D01*
X009815Y038991D01*
X009771Y039015D01*
X009729Y039042D01*
X009689Y039072D01*
X009652Y039106D01*
X009618Y039143D01*
X009586Y039182D01*
X009558Y039223D01*
X009533Y039267D01*
X009512Y039312D01*
X009495Y039359D01*
X009481Y039407D01*
X009471Y039456D01*
X009465Y039506D01*
X009463Y039556D01*
X004393Y038979D02*
X004395Y039029D01*
X004401Y039079D01*
X004411Y039128D01*
X004425Y039176D01*
X004442Y039223D01*
X004463Y039268D01*
X004488Y039312D01*
X004516Y039353D01*
X004548Y039392D01*
X004582Y039429D01*
X004619Y039463D01*
X004659Y039493D01*
X004701Y039520D01*
X004745Y039544D01*
X004791Y039565D01*
X004838Y039581D01*
X004886Y039594D01*
X004936Y039603D01*
X004985Y039608D01*
X005036Y039609D01*
X005086Y039606D01*
X005135Y039599D01*
X005184Y039588D01*
X005232Y039573D01*
X005278Y039555D01*
X005323Y039533D01*
X005366Y039507D01*
X005407Y039478D01*
X005446Y039446D01*
X005482Y039411D01*
X005514Y039373D01*
X005544Y039333D01*
X005571Y039290D01*
X005594Y039246D01*
X005613Y039200D01*
X005629Y039152D01*
X005641Y039103D01*
X005649Y039054D01*
X005653Y039004D01*
X005653Y038954D01*
X005649Y038904D01*
X005641Y038855D01*
X005629Y038806D01*
X005613Y038758D01*
X005594Y038712D01*
X005571Y038668D01*
X005544Y038625D01*
X005514Y038585D01*
X005482Y038547D01*
X005446Y038512D01*
X005407Y038480D01*
X005366Y038451D01*
X005323Y038425D01*
X005278Y038403D01*
X005232Y038385D01*
X005184Y038370D01*
X005135Y038359D01*
X005086Y038352D01*
X005036Y038349D01*
X004985Y038350D01*
X004936Y038355D01*
X004886Y038364D01*
X004838Y038377D01*
X004791Y038393D01*
X004745Y038414D01*
X004701Y038438D01*
X004659Y038465D01*
X004619Y038495D01*
X004582Y038529D01*
X004548Y038566D01*
X004516Y038605D01*
X004488Y038646D01*
X004463Y038690D01*
X004442Y038735D01*
X004425Y038782D01*
X004411Y038830D01*
X004401Y038879D01*
X004395Y038929D01*
X004393Y038979D01*
D11*
X031961Y032397D03*
X054796Y032397D03*
X054796Y013105D03*
X031961Y013105D03*
D12*
X040956Y001743D02*
X004456Y001743D01*
X004837Y001722D02*
X063855Y001722D01*
X063855Y001723D02*
X063913Y001728D01*
X063971Y001737D01*
X064028Y001750D01*
X064085Y001766D01*
X064140Y001786D01*
X064194Y001809D01*
X064246Y001836D01*
X064296Y001865D01*
X064345Y001898D01*
X064391Y001934D01*
X064435Y001973D01*
X064476Y002015D01*
X064515Y002059D01*
X064551Y002105D01*
X064584Y002154D01*
X064613Y002204D01*
X064640Y002256D01*
X064663Y002310D01*
X064683Y002365D01*
X064699Y002422D01*
X064711Y002479D01*
X064720Y002537D01*
X064725Y002595D01*
X064727Y002654D01*
X064725Y002712D01*
X064719Y002771D01*
X064719Y002764D02*
X064719Y010222D01*
X064717Y010266D01*
X064711Y010309D01*
X064702Y010351D01*
X064689Y010393D01*
X064672Y010433D01*
X064652Y010472D01*
X064629Y010509D01*
X064602Y010543D01*
X064573Y010576D01*
X064540Y010605D01*
X064506Y010632D01*
X064469Y010655D01*
X064430Y010675D01*
X064390Y010692D01*
X064348Y010705D01*
X064306Y010714D01*
X064263Y010720D01*
X064219Y010722D01*
X056584Y010722D01*
X056540Y010724D01*
X056497Y010730D01*
X056455Y010739D01*
X056413Y010752D01*
X056373Y010769D01*
X056334Y010789D01*
X056297Y010812D01*
X056263Y010839D01*
X056230Y010868D01*
X056201Y010901D01*
X056174Y010935D01*
X056151Y010972D01*
X056131Y011011D01*
X056114Y011051D01*
X056101Y011093D01*
X056092Y011135D01*
X056086Y011178D01*
X056084Y011222D01*
X056080Y011258D02*
X056080Y034092D01*
X056084Y033847D02*
X056086Y033891D01*
X056092Y033934D01*
X056101Y033976D01*
X056114Y034018D01*
X056131Y034058D01*
X056151Y034097D01*
X056174Y034134D01*
X056201Y034168D01*
X056230Y034201D01*
X056263Y034230D01*
X056297Y034257D01*
X056334Y034280D01*
X056373Y034300D01*
X056413Y034317D01*
X056455Y034330D01*
X056497Y034339D01*
X056540Y034345D01*
X056584Y034347D01*
X064219Y034347D01*
X064263Y034349D01*
X064306Y034355D01*
X064348Y034364D01*
X064390Y034377D01*
X064430Y034394D01*
X064469Y034414D01*
X064506Y034437D01*
X064540Y034464D01*
X064573Y034493D01*
X064602Y034526D01*
X064629Y034560D01*
X064652Y034597D01*
X064672Y034636D01*
X064689Y034676D01*
X064702Y034718D01*
X064711Y034760D01*
X064717Y034803D01*
X064719Y034847D01*
X064719Y038875D01*
X064720Y038874D02*
X064717Y038960D01*
X064709Y039046D01*
X064697Y039131D01*
X064682Y039216D01*
X064662Y039300D01*
X064638Y039383D01*
X064611Y039464D01*
X064579Y039544D01*
X064543Y039622D01*
X064504Y039699D01*
X064461Y039774D01*
X064415Y039846D01*
X064365Y039916D01*
X064312Y039984D01*
X064255Y040049D01*
X064196Y040111D01*
X064134Y040170D01*
X064068Y040227D01*
X064001Y040280D01*
X063930Y040329D01*
X063858Y040375D01*
X063783Y040418D01*
X063706Y040457D01*
X063628Y040492D01*
X063548Y040524D01*
X063466Y040551D01*
X063383Y040574D01*
X063299Y040594D01*
X063215Y040609D01*
X063129Y040621D01*
X063044Y040628D01*
X062958Y040631D01*
X062872Y040630D01*
X062786Y040624D01*
X062785Y040625D02*
X004765Y040625D01*
X004690Y040623D01*
X004615Y040618D01*
X004540Y040608D01*
X004466Y040595D01*
X004393Y040579D01*
X004321Y040558D01*
X004249Y040534D01*
X004179Y040507D01*
X004111Y040476D01*
X004044Y040442D01*
X003979Y040404D01*
X003916Y040364D01*
X003854Y040320D01*
X003796Y040273D01*
X003739Y040223D01*
X003685Y040171D01*
X003634Y040116D01*
X003586Y040058D01*
X003540Y039999D01*
X003498Y039937D01*
X003458Y039873D01*
X003422Y039807D01*
X003389Y039739D01*
X003360Y039670D01*
X003334Y039599D01*
X003312Y039527D01*
X003293Y039455D01*
X003278Y039381D01*
X003266Y039307D01*
X003259Y039232D01*
X003255Y039157D01*
X003254Y039082D01*
X003258Y039006D01*
X003258Y039002D02*
X003258Y003354D01*
X003257Y003355D02*
X003255Y003277D01*
X003257Y003200D01*
X003262Y003123D01*
X003272Y003046D01*
X003285Y002970D01*
X003302Y002895D01*
X003323Y002821D01*
X003347Y002747D01*
X003375Y002675D01*
X003407Y002605D01*
X003442Y002536D01*
X003480Y002469D01*
X003522Y002404D01*
X003567Y002341D01*
X003614Y002281D01*
X003665Y002223D01*
X003719Y002167D01*
X003775Y002114D01*
X003834Y002065D01*
X003896Y002018D01*
X003959Y001974D01*
X004025Y001933D01*
X004093Y001896D01*
X004162Y001862D01*
X004233Y001832D01*
X004306Y001805D01*
X004379Y001782D01*
X004454Y001763D01*
X004530Y001747D01*
X004606Y001735D01*
X004683Y001727D01*
X004760Y001723D01*
X004837Y001722D01*
D13*
X004786Y003369D03*
X004609Y009334D03*
X007700Y018920D03*
X020298Y012424D03*
X005023Y038979D03*
X010093Y039556D03*
X039581Y039560D03*
X062837Y038861D03*
X063487Y009274D03*
X063428Y003192D03*
D14*
X033879Y031897D03*
D15*
X033879Y032897D03*
X034879Y032897D03*
X035879Y032897D03*
X036879Y032897D03*
X037879Y032897D03*
X038879Y032897D03*
X039879Y032897D03*
X040879Y032897D03*
X041879Y032897D03*
X042879Y032897D03*
X043879Y032897D03*
X044879Y032897D03*
X045879Y032897D03*
X046879Y032897D03*
X047879Y032897D03*
X048879Y032897D03*
X049879Y032897D03*
X050879Y032897D03*
X051879Y032897D03*
X052879Y032897D03*
X052879Y031897D03*
X051879Y031897D03*
X050879Y031897D03*
X049879Y031897D03*
X048879Y031897D03*
X047879Y031897D03*
X046879Y031897D03*
X045879Y031897D03*
X044879Y031897D03*
X043879Y031897D03*
X042879Y031897D03*
X041879Y031897D03*
X040879Y031897D03*
X039879Y031897D03*
X038879Y031897D03*
X037879Y031897D03*
X036879Y031897D03*
X035879Y031897D03*
X034879Y031897D03*
X050726Y029808D03*
X050726Y028808D03*
D16*
X049271Y024237D02*
X049271Y023717D01*
X048271Y023717D02*
X048271Y024237D01*
X047271Y024237D02*
X047271Y023717D01*
X046271Y023717D02*
X046271Y024237D01*
X045271Y024237D02*
X045271Y023717D01*
X044271Y023717D02*
X044271Y024237D01*
X043271Y024237D02*
X043271Y023717D01*
X042271Y023717D02*
X042271Y024237D01*
X041271Y024237D02*
X041271Y023717D01*
X040271Y023717D02*
X040271Y024237D01*
X039271Y024237D02*
X039271Y023717D01*
X038271Y023717D02*
X038271Y024237D01*
X037271Y024237D02*
X037271Y023717D01*
X036271Y023717D02*
X036271Y024237D01*
X036271Y021237D02*
X036271Y020717D01*
X037271Y020717D02*
X037271Y021237D01*
X038271Y021237D02*
X038271Y020717D01*
X039271Y020717D02*
X039271Y021237D01*
X040271Y021237D02*
X040271Y020717D01*
X041271Y020717D02*
X041271Y021237D01*
X042271Y021237D02*
X042271Y020717D01*
X043271Y020717D02*
X043271Y021237D01*
X044271Y021237D02*
X044271Y020717D01*
X045271Y020717D02*
X045271Y021237D01*
X046271Y021237D02*
X046271Y020717D01*
X047271Y020717D02*
X047271Y021237D01*
X048271Y021237D02*
X048271Y020717D01*
X049271Y020717D02*
X049271Y021237D01*
D17*
X027765Y021981D03*
X026765Y021981D03*
X026765Y022981D03*
X027765Y022981D03*
X027765Y023981D03*
X026765Y023981D03*
D18*
X026751Y019378D02*
X026751Y018638D01*
X027734Y018657D02*
X027734Y019397D01*
D19*
X006470Y022168D02*
X005765Y022168D01*
X005765Y024137D02*
X006470Y024137D01*
X006545Y026365D02*
X005840Y026365D01*
X005840Y028334D02*
X006545Y028334D01*
X006545Y030302D02*
X005840Y030302D01*
X005840Y032767D02*
X006545Y032767D01*
X006545Y034735D02*
X005840Y034735D01*
X005840Y036704D02*
X006545Y036704D01*
X007200Y005136D02*
X007200Y004431D01*
X009168Y004431D02*
X009168Y005136D01*
X011200Y005136D02*
X011200Y004431D01*
X013168Y004431D02*
X013168Y005136D01*
X015200Y005136D02*
X015200Y004431D01*
X017168Y004431D02*
X017168Y005136D01*
X019200Y005136D02*
X019200Y004431D01*
X021168Y004431D02*
X021168Y005136D01*
X023225Y005133D02*
X023225Y004428D01*
X025194Y004428D02*
X025194Y005133D01*
X027162Y005133D02*
X027162Y004428D01*
X029210Y004436D02*
X029210Y005141D01*
X031178Y005141D02*
X031178Y004436D01*
X033210Y004436D02*
X033210Y005141D01*
X035178Y005141D02*
X035178Y004436D01*
X037210Y004436D02*
X037210Y005141D01*
X039178Y005141D02*
X039178Y004436D01*
X041210Y004436D02*
X041210Y005141D01*
X043178Y005141D02*
X043178Y004436D01*
X045210Y004436D02*
X045210Y005141D01*
X047178Y005141D02*
X047178Y004436D01*
X049210Y004436D02*
X049210Y005141D01*
X051178Y005141D02*
X051178Y004436D01*
X053210Y004436D02*
X053210Y005141D01*
X055178Y005141D02*
X055178Y004436D01*
X057225Y004428D02*
X057225Y005133D01*
X059194Y005133D02*
X059194Y004428D01*
X061162Y004428D02*
X061162Y005133D01*
D20*
X022857Y011834D03*
X022857Y019314D03*
X005337Y019314D03*
X005337Y011834D03*
D21*
X035200Y013763D03*
D22*
X036578Y013763D03*
D23*
X013271Y021763D03*
X012271Y021763D03*
X012294Y024321D03*
X013294Y024321D03*
X043510Y036844D03*
X043510Y037844D03*
X047330Y037837D03*
X047330Y036837D03*
X051184Y036822D03*
X051184Y037822D03*
X055359Y037831D03*
X055359Y036831D03*
X059556Y036804D03*
X059556Y037804D03*
D24*
X045865Y034555D02*
X045865Y033955D01*
X044865Y033955D02*
X044865Y034555D01*
X043865Y034555D02*
X043865Y033955D01*
X042865Y033955D02*
X042865Y034555D01*
X041865Y034555D02*
X041865Y033955D01*
X040865Y033955D02*
X040865Y034555D01*
X039865Y034555D02*
X039865Y033955D01*
X038865Y033955D02*
X038865Y034555D01*
X037865Y034555D02*
X037865Y033955D01*
X036865Y033955D02*
X036865Y034555D01*
X035865Y034555D02*
X035865Y033955D01*
X034865Y033955D02*
X034865Y034555D01*
X033865Y034555D02*
X033865Y033955D01*
X035675Y037251D02*
X035675Y037851D01*
X037675Y037851D02*
X037675Y037251D01*
X036975Y039551D02*
X036375Y039551D01*
X027115Y039247D02*
X027115Y039847D01*
X026115Y039947D02*
X026115Y039347D01*
X025115Y039247D02*
X025115Y039847D01*
X024115Y039947D02*
X024115Y039347D01*
X023115Y039247D02*
X023115Y039847D01*
X022115Y039947D02*
X022115Y039347D01*
X021115Y039247D02*
X021115Y039847D01*
X020115Y039947D02*
X020115Y039347D01*
X019115Y039247D02*
X019115Y039847D01*
X018115Y039947D02*
X018115Y039347D01*
X017115Y039247D02*
X017115Y039847D01*
X016115Y039947D02*
X016115Y039347D01*
X015115Y039247D02*
X015115Y039847D01*
X014115Y039947D02*
X014115Y039347D01*
X013115Y039247D02*
X013115Y039847D01*
X012115Y039947D02*
X012115Y039347D01*
D25*
X007360Y039413D03*
M02*
