G75*
G70*
%OFA0B0*%
%FSLAX24Y24*%
%IPPOS*%
%LPD*%
%AMOC8*
5,1,8,0,0,1.08239X$1,22.5*
%
%ADD10C,0.0000*%
%ADD11C,0.0100*%
%ADD12C,0.0040*%
%ADD13C,0.0090*%
%ADD14C,0.0050*%
%ADD15C,0.0060*%
%ADD16C,0.0120*%
%ADD17C,0.0110*%
%ADD18C,0.0080*%
%ADD19C,0.0150*%
%ADD20C,0.0140*%
%ADD21C,0.0070*%
%ADD22C,0.0180*%
%ADD23C,0.0360*%
%ADD24C,0.0130*%
D10*
X004156Y003369D02*
X004158Y003419D01*
X004164Y003469D01*
X004174Y003518D01*
X004188Y003566D01*
X004205Y003613D01*
X004226Y003658D01*
X004251Y003702D01*
X004279Y003743D01*
X004311Y003782D01*
X004345Y003819D01*
X004382Y003853D01*
X004422Y003883D01*
X004464Y003910D01*
X004508Y003934D01*
X004554Y003955D01*
X004601Y003971D01*
X004649Y003984D01*
X004699Y003993D01*
X004748Y003998D01*
X004799Y003999D01*
X004849Y003996D01*
X004898Y003989D01*
X004947Y003978D01*
X004995Y003963D01*
X005041Y003945D01*
X005086Y003923D01*
X005129Y003897D01*
X005170Y003868D01*
X005209Y003836D01*
X005245Y003801D01*
X005277Y003763D01*
X005307Y003723D01*
X005334Y003680D01*
X005357Y003636D01*
X005376Y003590D01*
X005392Y003542D01*
X005404Y003493D01*
X005412Y003444D01*
X005416Y003394D01*
X005416Y003344D01*
X005412Y003294D01*
X005404Y003245D01*
X005392Y003196D01*
X005376Y003148D01*
X005357Y003102D01*
X005334Y003058D01*
X005307Y003015D01*
X005277Y002975D01*
X005245Y002937D01*
X005209Y002902D01*
X005170Y002870D01*
X005129Y002841D01*
X005086Y002815D01*
X005041Y002793D01*
X004995Y002775D01*
X004947Y002760D01*
X004898Y002749D01*
X004849Y002742D01*
X004799Y002739D01*
X004748Y002740D01*
X004699Y002745D01*
X004649Y002754D01*
X004601Y002767D01*
X004554Y002783D01*
X004508Y002804D01*
X004464Y002828D01*
X004422Y002855D01*
X004382Y002885D01*
X004345Y002919D01*
X004311Y002956D01*
X004279Y002995D01*
X004251Y003036D01*
X004226Y003080D01*
X004205Y003125D01*
X004188Y003172D01*
X004174Y003220D01*
X004164Y003269D01*
X004158Y003319D01*
X004156Y003369D01*
X003979Y009334D02*
X003981Y009384D01*
X003987Y009434D01*
X003997Y009483D01*
X004011Y009531D01*
X004028Y009578D01*
X004049Y009623D01*
X004074Y009667D01*
X004102Y009708D01*
X004134Y009747D01*
X004168Y009784D01*
X004205Y009818D01*
X004245Y009848D01*
X004287Y009875D01*
X004331Y009899D01*
X004377Y009920D01*
X004424Y009936D01*
X004472Y009949D01*
X004522Y009958D01*
X004571Y009963D01*
X004622Y009964D01*
X004672Y009961D01*
X004721Y009954D01*
X004770Y009943D01*
X004818Y009928D01*
X004864Y009910D01*
X004909Y009888D01*
X004952Y009862D01*
X004993Y009833D01*
X005032Y009801D01*
X005068Y009766D01*
X005100Y009728D01*
X005130Y009688D01*
X005157Y009645D01*
X005180Y009601D01*
X005199Y009555D01*
X005215Y009507D01*
X005227Y009458D01*
X005235Y009409D01*
X005239Y009359D01*
X005239Y009309D01*
X005235Y009259D01*
X005227Y009210D01*
X005215Y009161D01*
X005199Y009113D01*
X005180Y009067D01*
X005157Y009023D01*
X005130Y008980D01*
X005100Y008940D01*
X005068Y008902D01*
X005032Y008867D01*
X004993Y008835D01*
X004952Y008806D01*
X004909Y008780D01*
X004864Y008758D01*
X004818Y008740D01*
X004770Y008725D01*
X004721Y008714D01*
X004672Y008707D01*
X004622Y008704D01*
X004571Y008705D01*
X004522Y008710D01*
X004472Y008719D01*
X004424Y008732D01*
X004377Y008748D01*
X004331Y008769D01*
X004287Y008793D01*
X004245Y008820D01*
X004205Y008850D01*
X004168Y008884D01*
X004134Y008921D01*
X004102Y008960D01*
X004074Y009001D01*
X004049Y009045D01*
X004028Y009090D01*
X004011Y009137D01*
X003997Y009185D01*
X003987Y009234D01*
X003981Y009284D01*
X003979Y009334D01*
X007070Y018920D02*
X007072Y018970D01*
X007078Y019020D01*
X007088Y019069D01*
X007102Y019117D01*
X007119Y019164D01*
X007140Y019209D01*
X007165Y019253D01*
X007193Y019294D01*
X007225Y019333D01*
X007259Y019370D01*
X007296Y019404D01*
X007336Y019434D01*
X007378Y019461D01*
X007422Y019485D01*
X007468Y019506D01*
X007515Y019522D01*
X007563Y019535D01*
X007613Y019544D01*
X007662Y019549D01*
X007713Y019550D01*
X007763Y019547D01*
X007812Y019540D01*
X007861Y019529D01*
X007909Y019514D01*
X007955Y019496D01*
X008000Y019474D01*
X008043Y019448D01*
X008084Y019419D01*
X008123Y019387D01*
X008159Y019352D01*
X008191Y019314D01*
X008221Y019274D01*
X008248Y019231D01*
X008271Y019187D01*
X008290Y019141D01*
X008306Y019093D01*
X008318Y019044D01*
X008326Y018995D01*
X008330Y018945D01*
X008330Y018895D01*
X008326Y018845D01*
X008318Y018796D01*
X008306Y018747D01*
X008290Y018699D01*
X008271Y018653D01*
X008248Y018609D01*
X008221Y018566D01*
X008191Y018526D01*
X008159Y018488D01*
X008123Y018453D01*
X008084Y018421D01*
X008043Y018392D01*
X008000Y018366D01*
X007955Y018344D01*
X007909Y018326D01*
X007861Y018311D01*
X007812Y018300D01*
X007763Y018293D01*
X007713Y018290D01*
X007662Y018291D01*
X007613Y018296D01*
X007563Y018305D01*
X007515Y018318D01*
X007468Y018334D01*
X007422Y018355D01*
X007378Y018379D01*
X007336Y018406D01*
X007296Y018436D01*
X007259Y018470D01*
X007225Y018507D01*
X007193Y018546D01*
X007165Y018587D01*
X007140Y018631D01*
X007119Y018676D01*
X007102Y018723D01*
X007088Y018771D01*
X007078Y018820D01*
X007072Y018870D01*
X007070Y018920D01*
X019668Y012424D02*
X019670Y012474D01*
X019676Y012524D01*
X019686Y012573D01*
X019700Y012621D01*
X019717Y012668D01*
X019738Y012713D01*
X019763Y012757D01*
X019791Y012798D01*
X019823Y012837D01*
X019857Y012874D01*
X019894Y012908D01*
X019934Y012938D01*
X019976Y012965D01*
X020020Y012989D01*
X020066Y013010D01*
X020113Y013026D01*
X020161Y013039D01*
X020211Y013048D01*
X020260Y013053D01*
X020311Y013054D01*
X020361Y013051D01*
X020410Y013044D01*
X020459Y013033D01*
X020507Y013018D01*
X020553Y013000D01*
X020598Y012978D01*
X020641Y012952D01*
X020682Y012923D01*
X020721Y012891D01*
X020757Y012856D01*
X020789Y012818D01*
X020819Y012778D01*
X020846Y012735D01*
X020869Y012691D01*
X020888Y012645D01*
X020904Y012597D01*
X020916Y012548D01*
X020924Y012499D01*
X020928Y012449D01*
X020928Y012399D01*
X020924Y012349D01*
X020916Y012300D01*
X020904Y012251D01*
X020888Y012203D01*
X020869Y012157D01*
X020846Y012113D01*
X020819Y012070D01*
X020789Y012030D01*
X020757Y011992D01*
X020721Y011957D01*
X020682Y011925D01*
X020641Y011896D01*
X020598Y011870D01*
X020553Y011848D01*
X020507Y011830D01*
X020459Y011815D01*
X020410Y011804D01*
X020361Y011797D01*
X020311Y011794D01*
X020260Y011795D01*
X020211Y011800D01*
X020161Y011809D01*
X020113Y011822D01*
X020066Y011838D01*
X020020Y011859D01*
X019976Y011883D01*
X019934Y011910D01*
X019894Y011940D01*
X019857Y011974D01*
X019823Y012011D01*
X019791Y012050D01*
X019763Y012091D01*
X019738Y012135D01*
X019717Y012180D01*
X019700Y012227D01*
X019686Y012275D01*
X019676Y012324D01*
X019670Y012374D01*
X019668Y012424D01*
X031410Y013105D02*
X031412Y013152D01*
X031418Y013198D01*
X031428Y013244D01*
X031441Y013289D01*
X031459Y013332D01*
X031480Y013374D01*
X031504Y013414D01*
X031532Y013451D01*
X031563Y013486D01*
X031597Y013519D01*
X031633Y013548D01*
X031672Y013574D01*
X031713Y013597D01*
X031756Y013616D01*
X031800Y013632D01*
X031845Y013644D01*
X031891Y013652D01*
X031938Y013656D01*
X031984Y013656D01*
X032031Y013652D01*
X032077Y013644D01*
X032122Y013632D01*
X032166Y013616D01*
X032209Y013597D01*
X032250Y013574D01*
X032289Y013548D01*
X032325Y013519D01*
X032359Y013486D01*
X032390Y013451D01*
X032418Y013414D01*
X032442Y013374D01*
X032463Y013332D01*
X032481Y013289D01*
X032494Y013244D01*
X032504Y013198D01*
X032510Y013152D01*
X032512Y013105D01*
X032510Y013058D01*
X032504Y013012D01*
X032494Y012966D01*
X032481Y012921D01*
X032463Y012878D01*
X032442Y012836D01*
X032418Y012796D01*
X032390Y012759D01*
X032359Y012724D01*
X032325Y012691D01*
X032289Y012662D01*
X032250Y012636D01*
X032209Y012613D01*
X032166Y012594D01*
X032122Y012578D01*
X032077Y012566D01*
X032031Y012558D01*
X031984Y012554D01*
X031938Y012554D01*
X031891Y012558D01*
X031845Y012566D01*
X031800Y012578D01*
X031756Y012594D01*
X031713Y012613D01*
X031672Y012636D01*
X031633Y012662D01*
X031597Y012691D01*
X031563Y012724D01*
X031532Y012759D01*
X031504Y012796D01*
X031480Y012836D01*
X031459Y012878D01*
X031441Y012921D01*
X031428Y012966D01*
X031418Y013012D01*
X031412Y013058D01*
X031410Y013105D01*
X054245Y013105D02*
X054247Y013152D01*
X054253Y013198D01*
X054263Y013244D01*
X054276Y013289D01*
X054294Y013332D01*
X054315Y013374D01*
X054339Y013414D01*
X054367Y013451D01*
X054398Y013486D01*
X054432Y013519D01*
X054468Y013548D01*
X054507Y013574D01*
X054548Y013597D01*
X054591Y013616D01*
X054635Y013632D01*
X054680Y013644D01*
X054726Y013652D01*
X054773Y013656D01*
X054819Y013656D01*
X054866Y013652D01*
X054912Y013644D01*
X054957Y013632D01*
X055001Y013616D01*
X055044Y013597D01*
X055085Y013574D01*
X055124Y013548D01*
X055160Y013519D01*
X055194Y013486D01*
X055225Y013451D01*
X055253Y013414D01*
X055277Y013374D01*
X055298Y013332D01*
X055316Y013289D01*
X055329Y013244D01*
X055339Y013198D01*
X055345Y013152D01*
X055347Y013105D01*
X055345Y013058D01*
X055339Y013012D01*
X055329Y012966D01*
X055316Y012921D01*
X055298Y012878D01*
X055277Y012836D01*
X055253Y012796D01*
X055225Y012759D01*
X055194Y012724D01*
X055160Y012691D01*
X055124Y012662D01*
X055085Y012636D01*
X055044Y012613D01*
X055001Y012594D01*
X054957Y012578D01*
X054912Y012566D01*
X054866Y012558D01*
X054819Y012554D01*
X054773Y012554D01*
X054726Y012558D01*
X054680Y012566D01*
X054635Y012578D01*
X054591Y012594D01*
X054548Y012613D01*
X054507Y012636D01*
X054468Y012662D01*
X054432Y012691D01*
X054398Y012724D01*
X054367Y012759D01*
X054339Y012796D01*
X054315Y012836D01*
X054294Y012878D01*
X054276Y012921D01*
X054263Y012966D01*
X054253Y013012D01*
X054247Y013058D01*
X054245Y013105D01*
X062857Y009274D02*
X062859Y009324D01*
X062865Y009374D01*
X062875Y009423D01*
X062889Y009471D01*
X062906Y009518D01*
X062927Y009563D01*
X062952Y009607D01*
X062980Y009648D01*
X063012Y009687D01*
X063046Y009724D01*
X063083Y009758D01*
X063123Y009788D01*
X063165Y009815D01*
X063209Y009839D01*
X063255Y009860D01*
X063302Y009876D01*
X063350Y009889D01*
X063400Y009898D01*
X063449Y009903D01*
X063500Y009904D01*
X063550Y009901D01*
X063599Y009894D01*
X063648Y009883D01*
X063696Y009868D01*
X063742Y009850D01*
X063787Y009828D01*
X063830Y009802D01*
X063871Y009773D01*
X063910Y009741D01*
X063946Y009706D01*
X063978Y009668D01*
X064008Y009628D01*
X064035Y009585D01*
X064058Y009541D01*
X064077Y009495D01*
X064093Y009447D01*
X064105Y009398D01*
X064113Y009349D01*
X064117Y009299D01*
X064117Y009249D01*
X064113Y009199D01*
X064105Y009150D01*
X064093Y009101D01*
X064077Y009053D01*
X064058Y009007D01*
X064035Y008963D01*
X064008Y008920D01*
X063978Y008880D01*
X063946Y008842D01*
X063910Y008807D01*
X063871Y008775D01*
X063830Y008746D01*
X063787Y008720D01*
X063742Y008698D01*
X063696Y008680D01*
X063648Y008665D01*
X063599Y008654D01*
X063550Y008647D01*
X063500Y008644D01*
X063449Y008645D01*
X063400Y008650D01*
X063350Y008659D01*
X063302Y008672D01*
X063255Y008688D01*
X063209Y008709D01*
X063165Y008733D01*
X063123Y008760D01*
X063083Y008790D01*
X063046Y008824D01*
X063012Y008861D01*
X062980Y008900D01*
X062952Y008941D01*
X062927Y008985D01*
X062906Y009030D01*
X062889Y009077D01*
X062875Y009125D01*
X062865Y009174D01*
X062859Y009224D01*
X062857Y009274D01*
X062798Y003192D02*
X062800Y003242D01*
X062806Y003292D01*
X062816Y003341D01*
X062830Y003389D01*
X062847Y003436D01*
X062868Y003481D01*
X062893Y003525D01*
X062921Y003566D01*
X062953Y003605D01*
X062987Y003642D01*
X063024Y003676D01*
X063064Y003706D01*
X063106Y003733D01*
X063150Y003757D01*
X063196Y003778D01*
X063243Y003794D01*
X063291Y003807D01*
X063341Y003816D01*
X063390Y003821D01*
X063441Y003822D01*
X063491Y003819D01*
X063540Y003812D01*
X063589Y003801D01*
X063637Y003786D01*
X063683Y003768D01*
X063728Y003746D01*
X063771Y003720D01*
X063812Y003691D01*
X063851Y003659D01*
X063887Y003624D01*
X063919Y003586D01*
X063949Y003546D01*
X063976Y003503D01*
X063999Y003459D01*
X064018Y003413D01*
X064034Y003365D01*
X064046Y003316D01*
X064054Y003267D01*
X064058Y003217D01*
X064058Y003167D01*
X064054Y003117D01*
X064046Y003068D01*
X064034Y003019D01*
X064018Y002971D01*
X063999Y002925D01*
X063976Y002881D01*
X063949Y002838D01*
X063919Y002798D01*
X063887Y002760D01*
X063851Y002725D01*
X063812Y002693D01*
X063771Y002664D01*
X063728Y002638D01*
X063683Y002616D01*
X063637Y002598D01*
X063589Y002583D01*
X063540Y002572D01*
X063491Y002565D01*
X063441Y002562D01*
X063390Y002563D01*
X063341Y002568D01*
X063291Y002577D01*
X063243Y002590D01*
X063196Y002606D01*
X063150Y002627D01*
X063106Y002651D01*
X063064Y002678D01*
X063024Y002708D01*
X062987Y002742D01*
X062953Y002779D01*
X062921Y002818D01*
X062893Y002859D01*
X062868Y002903D01*
X062847Y002948D01*
X062830Y002995D01*
X062816Y003043D01*
X062806Y003092D01*
X062800Y003142D01*
X062798Y003192D01*
X054245Y032397D02*
X054247Y032444D01*
X054253Y032490D01*
X054263Y032536D01*
X054276Y032581D01*
X054294Y032624D01*
X054315Y032666D01*
X054339Y032706D01*
X054367Y032743D01*
X054398Y032778D01*
X054432Y032811D01*
X054468Y032840D01*
X054507Y032866D01*
X054548Y032889D01*
X054591Y032908D01*
X054635Y032924D01*
X054680Y032936D01*
X054726Y032944D01*
X054773Y032948D01*
X054819Y032948D01*
X054866Y032944D01*
X054912Y032936D01*
X054957Y032924D01*
X055001Y032908D01*
X055044Y032889D01*
X055085Y032866D01*
X055124Y032840D01*
X055160Y032811D01*
X055194Y032778D01*
X055225Y032743D01*
X055253Y032706D01*
X055277Y032666D01*
X055298Y032624D01*
X055316Y032581D01*
X055329Y032536D01*
X055339Y032490D01*
X055345Y032444D01*
X055347Y032397D01*
X055345Y032350D01*
X055339Y032304D01*
X055329Y032258D01*
X055316Y032213D01*
X055298Y032170D01*
X055277Y032128D01*
X055253Y032088D01*
X055225Y032051D01*
X055194Y032016D01*
X055160Y031983D01*
X055124Y031954D01*
X055085Y031928D01*
X055044Y031905D01*
X055001Y031886D01*
X054957Y031870D01*
X054912Y031858D01*
X054866Y031850D01*
X054819Y031846D01*
X054773Y031846D01*
X054726Y031850D01*
X054680Y031858D01*
X054635Y031870D01*
X054591Y031886D01*
X054548Y031905D01*
X054507Y031928D01*
X054468Y031954D01*
X054432Y031983D01*
X054398Y032016D01*
X054367Y032051D01*
X054339Y032088D01*
X054315Y032128D01*
X054294Y032170D01*
X054276Y032213D01*
X054263Y032258D01*
X054253Y032304D01*
X054247Y032350D01*
X054245Y032397D01*
X062207Y038861D02*
X062209Y038911D01*
X062215Y038961D01*
X062225Y039010D01*
X062239Y039058D01*
X062256Y039105D01*
X062277Y039150D01*
X062302Y039194D01*
X062330Y039235D01*
X062362Y039274D01*
X062396Y039311D01*
X062433Y039345D01*
X062473Y039375D01*
X062515Y039402D01*
X062559Y039426D01*
X062605Y039447D01*
X062652Y039463D01*
X062700Y039476D01*
X062750Y039485D01*
X062799Y039490D01*
X062850Y039491D01*
X062900Y039488D01*
X062949Y039481D01*
X062998Y039470D01*
X063046Y039455D01*
X063092Y039437D01*
X063137Y039415D01*
X063180Y039389D01*
X063221Y039360D01*
X063260Y039328D01*
X063296Y039293D01*
X063328Y039255D01*
X063358Y039215D01*
X063385Y039172D01*
X063408Y039128D01*
X063427Y039082D01*
X063443Y039034D01*
X063455Y038985D01*
X063463Y038936D01*
X063467Y038886D01*
X063467Y038836D01*
X063463Y038786D01*
X063455Y038737D01*
X063443Y038688D01*
X063427Y038640D01*
X063408Y038594D01*
X063385Y038550D01*
X063358Y038507D01*
X063328Y038467D01*
X063296Y038429D01*
X063260Y038394D01*
X063221Y038362D01*
X063180Y038333D01*
X063137Y038307D01*
X063092Y038285D01*
X063046Y038267D01*
X062998Y038252D01*
X062949Y038241D01*
X062900Y038234D01*
X062850Y038231D01*
X062799Y038232D01*
X062750Y038237D01*
X062700Y038246D01*
X062652Y038259D01*
X062605Y038275D01*
X062559Y038296D01*
X062515Y038320D01*
X062473Y038347D01*
X062433Y038377D01*
X062396Y038411D01*
X062362Y038448D01*
X062330Y038487D01*
X062302Y038528D01*
X062277Y038572D01*
X062256Y038617D01*
X062239Y038664D01*
X062225Y038712D01*
X062215Y038761D01*
X062209Y038811D01*
X062207Y038861D01*
X038951Y039560D02*
X038953Y039610D01*
X038959Y039660D01*
X038969Y039709D01*
X038983Y039757D01*
X039000Y039804D01*
X039021Y039849D01*
X039046Y039893D01*
X039074Y039934D01*
X039106Y039973D01*
X039140Y040010D01*
X039177Y040044D01*
X039217Y040074D01*
X039259Y040101D01*
X039303Y040125D01*
X039349Y040146D01*
X039396Y040162D01*
X039444Y040175D01*
X039494Y040184D01*
X039543Y040189D01*
X039594Y040190D01*
X039644Y040187D01*
X039693Y040180D01*
X039742Y040169D01*
X039790Y040154D01*
X039836Y040136D01*
X039881Y040114D01*
X039924Y040088D01*
X039965Y040059D01*
X040004Y040027D01*
X040040Y039992D01*
X040072Y039954D01*
X040102Y039914D01*
X040129Y039871D01*
X040152Y039827D01*
X040171Y039781D01*
X040187Y039733D01*
X040199Y039684D01*
X040207Y039635D01*
X040211Y039585D01*
X040211Y039535D01*
X040207Y039485D01*
X040199Y039436D01*
X040187Y039387D01*
X040171Y039339D01*
X040152Y039293D01*
X040129Y039249D01*
X040102Y039206D01*
X040072Y039166D01*
X040040Y039128D01*
X040004Y039093D01*
X039965Y039061D01*
X039924Y039032D01*
X039881Y039006D01*
X039836Y038984D01*
X039790Y038966D01*
X039742Y038951D01*
X039693Y038940D01*
X039644Y038933D01*
X039594Y038930D01*
X039543Y038931D01*
X039494Y038936D01*
X039444Y038945D01*
X039396Y038958D01*
X039349Y038974D01*
X039303Y038995D01*
X039259Y039019D01*
X039217Y039046D01*
X039177Y039076D01*
X039140Y039110D01*
X039106Y039147D01*
X039074Y039186D01*
X039046Y039227D01*
X039021Y039271D01*
X039000Y039316D01*
X038983Y039363D01*
X038969Y039411D01*
X038959Y039460D01*
X038953Y039510D01*
X038951Y039560D01*
X031410Y032397D02*
X031412Y032444D01*
X031418Y032490D01*
X031428Y032536D01*
X031441Y032581D01*
X031459Y032624D01*
X031480Y032666D01*
X031504Y032706D01*
X031532Y032743D01*
X031563Y032778D01*
X031597Y032811D01*
X031633Y032840D01*
X031672Y032866D01*
X031713Y032889D01*
X031756Y032908D01*
X031800Y032924D01*
X031845Y032936D01*
X031891Y032944D01*
X031938Y032948D01*
X031984Y032948D01*
X032031Y032944D01*
X032077Y032936D01*
X032122Y032924D01*
X032166Y032908D01*
X032209Y032889D01*
X032250Y032866D01*
X032289Y032840D01*
X032325Y032811D01*
X032359Y032778D01*
X032390Y032743D01*
X032418Y032706D01*
X032442Y032666D01*
X032463Y032624D01*
X032481Y032581D01*
X032494Y032536D01*
X032504Y032490D01*
X032510Y032444D01*
X032512Y032397D01*
X032510Y032350D01*
X032504Y032304D01*
X032494Y032258D01*
X032481Y032213D01*
X032463Y032170D01*
X032442Y032128D01*
X032418Y032088D01*
X032390Y032051D01*
X032359Y032016D01*
X032325Y031983D01*
X032289Y031954D01*
X032250Y031928D01*
X032209Y031905D01*
X032166Y031886D01*
X032122Y031870D01*
X032077Y031858D01*
X032031Y031850D01*
X031984Y031846D01*
X031938Y031846D01*
X031891Y031850D01*
X031845Y031858D01*
X031800Y031870D01*
X031756Y031886D01*
X031713Y031905D01*
X031672Y031928D01*
X031633Y031954D01*
X031597Y031983D01*
X031563Y032016D01*
X031532Y032051D01*
X031504Y032088D01*
X031480Y032128D01*
X031459Y032170D01*
X031441Y032213D01*
X031428Y032258D01*
X031418Y032304D01*
X031412Y032350D01*
X031410Y032397D01*
X009463Y039556D02*
X009465Y039606D01*
X009471Y039656D01*
X009481Y039705D01*
X009495Y039753D01*
X009512Y039800D01*
X009533Y039845D01*
X009558Y039889D01*
X009586Y039930D01*
X009618Y039969D01*
X009652Y040006D01*
X009689Y040040D01*
X009729Y040070D01*
X009771Y040097D01*
X009815Y040121D01*
X009861Y040142D01*
X009908Y040158D01*
X009956Y040171D01*
X010006Y040180D01*
X010055Y040185D01*
X010106Y040186D01*
X010156Y040183D01*
X010205Y040176D01*
X010254Y040165D01*
X010302Y040150D01*
X010348Y040132D01*
X010393Y040110D01*
X010436Y040084D01*
X010477Y040055D01*
X010516Y040023D01*
X010552Y039988D01*
X010584Y039950D01*
X010614Y039910D01*
X010641Y039867D01*
X010664Y039823D01*
X010683Y039777D01*
X010699Y039729D01*
X010711Y039680D01*
X010719Y039631D01*
X010723Y039581D01*
X010723Y039531D01*
X010719Y039481D01*
X010711Y039432D01*
X010699Y039383D01*
X010683Y039335D01*
X010664Y039289D01*
X010641Y039245D01*
X010614Y039202D01*
X010584Y039162D01*
X010552Y039124D01*
X010516Y039089D01*
X010477Y039057D01*
X010436Y039028D01*
X010393Y039002D01*
X010348Y038980D01*
X010302Y038962D01*
X010254Y038947D01*
X010205Y038936D01*
X010156Y038929D01*
X010106Y038926D01*
X010055Y038927D01*
X010006Y038932D01*
X009956Y038941D01*
X009908Y038954D01*
X009861Y038970D01*
X009815Y038991D01*
X009771Y039015D01*
X009729Y039042D01*
X009689Y039072D01*
X009652Y039106D01*
X009618Y039143D01*
X009586Y039182D01*
X009558Y039223D01*
X009533Y039267D01*
X009512Y039312D01*
X009495Y039359D01*
X009481Y039407D01*
X009471Y039456D01*
X009465Y039506D01*
X009463Y039556D01*
X004393Y038979D02*
X004395Y039029D01*
X004401Y039079D01*
X004411Y039128D01*
X004425Y039176D01*
X004442Y039223D01*
X004463Y039268D01*
X004488Y039312D01*
X004516Y039353D01*
X004548Y039392D01*
X004582Y039429D01*
X004619Y039463D01*
X004659Y039493D01*
X004701Y039520D01*
X004745Y039544D01*
X004791Y039565D01*
X004838Y039581D01*
X004886Y039594D01*
X004936Y039603D01*
X004985Y039608D01*
X005036Y039609D01*
X005086Y039606D01*
X005135Y039599D01*
X005184Y039588D01*
X005232Y039573D01*
X005278Y039555D01*
X005323Y039533D01*
X005366Y039507D01*
X005407Y039478D01*
X005446Y039446D01*
X005482Y039411D01*
X005514Y039373D01*
X005544Y039333D01*
X005571Y039290D01*
X005594Y039246D01*
X005613Y039200D01*
X005629Y039152D01*
X005641Y039103D01*
X005649Y039054D01*
X005653Y039004D01*
X005653Y038954D01*
X005649Y038904D01*
X005641Y038855D01*
X005629Y038806D01*
X005613Y038758D01*
X005594Y038712D01*
X005571Y038668D01*
X005544Y038625D01*
X005514Y038585D01*
X005482Y038547D01*
X005446Y038512D01*
X005407Y038480D01*
X005366Y038451D01*
X005323Y038425D01*
X005278Y038403D01*
X005232Y038385D01*
X005184Y038370D01*
X005135Y038359D01*
X005086Y038352D01*
X005036Y038349D01*
X004985Y038350D01*
X004936Y038355D01*
X004886Y038364D01*
X004838Y038377D01*
X004791Y038393D01*
X004745Y038414D01*
X004701Y038438D01*
X004659Y038465D01*
X004619Y038495D01*
X004582Y038529D01*
X004548Y038566D01*
X004516Y038605D01*
X004488Y038646D01*
X004463Y038690D01*
X004442Y038735D01*
X004425Y038782D01*
X004411Y038830D01*
X004401Y038879D01*
X004395Y038929D01*
X004393Y038979D01*
D11*
X004456Y001743D02*
X040956Y001743D01*
X040084Y001722D02*
X040084Y009682D01*
X042084Y009702D02*
X042084Y001722D01*
X044084Y001722D02*
X044084Y009662D01*
X046084Y009662D02*
X046084Y001722D01*
X048084Y001722D02*
X048084Y009702D01*
X050084Y009682D02*
X050084Y001722D01*
X052084Y001722D02*
X052084Y009702D01*
X052503Y009924D02*
X050672Y009924D01*
X050672Y010751D01*
X052503Y010751D01*
X052503Y009924D01*
X052503Y011341D02*
X050672Y011341D01*
X050672Y012168D01*
X052503Y012168D01*
X052503Y011341D01*
X052503Y012700D02*
X050731Y012700D01*
X050672Y012700D02*
X050672Y013526D01*
X052503Y013526D01*
X052503Y012700D01*
X049209Y014097D02*
X048834Y013722D01*
X047584Y013722D01*
X047584Y015472D01*
X048834Y015472D01*
X049209Y015097D01*
X049209Y014972D01*
X049209Y014222D02*
X049209Y014097D01*
X046709Y014347D02*
X044834Y014347D01*
X044834Y015097D01*
X046709Y015097D01*
X046709Y014347D01*
X043959Y014347D02*
X043959Y015097D01*
X042084Y015097D01*
X042084Y014347D01*
X043959Y014347D01*
X040959Y014347D02*
X039084Y014347D01*
X039084Y015097D01*
X040959Y015097D01*
X040959Y014347D01*
X037621Y015475D02*
X037621Y011932D01*
X034078Y011932D01*
X034078Y015475D01*
X037621Y015475D01*
X037334Y018097D02*
X036334Y018097D01*
X036334Y020097D01*
X037334Y020097D01*
X037334Y018097D01*
X035084Y018097D02*
X035084Y020097D01*
X034084Y020097D01*
X034084Y018097D01*
X035084Y018097D01*
X033251Y017660D02*
X033251Y019078D01*
X032897Y019432D01*
X032837Y019432D02*
X032778Y019432D01*
X032011Y019432D02*
X031893Y019432D01*
X031538Y019078D01*
X031538Y017660D01*
X032070Y017660D01*
X032778Y017660D02*
X033251Y017660D01*
X029118Y019973D02*
X025398Y019973D01*
X025397Y019976D01*
X029117Y019976D01*
X029118Y019973D01*
X029117Y019976D02*
X029114Y025978D01*
X025403Y025988D01*
X025404Y023835D01*
X025939Y023841D01*
X025938Y025516D01*
X028596Y025516D01*
X028602Y020421D01*
X025928Y020413D01*
X025914Y022116D01*
X026095Y022116D01*
X026107Y023822D01*
X025939Y023841D01*
X026111Y023826D02*
X026105Y022114D01*
X025400Y022114D01*
X025397Y019976D01*
X024852Y021142D02*
X024452Y021142D01*
X024432Y021162D01*
X024852Y021142D02*
X024892Y021182D01*
X024892Y022522D01*
X024552Y022862D01*
X024492Y022862D01*
X023652Y022842D02*
X023632Y022862D01*
X023532Y022862D01*
X023152Y022482D01*
X023152Y021182D01*
X023592Y021182D01*
X023625Y020141D02*
X023625Y011046D01*
X004609Y011046D01*
X004609Y020141D01*
X023625Y020141D01*
X025400Y022114D02*
X025403Y023826D01*
X026111Y023826D01*
X025404Y023835D02*
X025403Y023826D01*
X025420Y022116D02*
X025914Y022116D01*
X020259Y022149D02*
X020259Y021263D01*
X018369Y021263D01*
X018369Y022149D01*
X020259Y022149D01*
X020259Y022739D02*
X018369Y022739D01*
X018369Y023684D01*
X020259Y023684D01*
X020259Y022739D01*
X020259Y024038D02*
X018369Y024038D01*
X018369Y024983D01*
X020259Y024983D01*
X020259Y024038D01*
X017956Y023507D02*
X017956Y022149D01*
X017483Y022149D01*
X016656Y022149D02*
X016184Y022149D01*
X016184Y023448D01*
X016597Y023861D01*
X016656Y023861D01*
X017424Y023861D02*
X017601Y023861D01*
X017956Y023507D01*
X013765Y023558D02*
X013777Y025101D01*
X013766Y025094D02*
X013721Y025148D01*
X013673Y025199D01*
X013623Y025247D01*
X013570Y025292D01*
X013514Y025334D01*
X013457Y025373D01*
X013397Y025409D01*
X013335Y025441D01*
X013271Y025470D01*
X013206Y025495D01*
X013140Y025517D01*
X013072Y025535D01*
X013004Y025549D01*
X012935Y025559D01*
X012865Y025565D01*
X012796Y025567D01*
X012726Y025565D01*
X012656Y025560D01*
X012587Y025550D01*
X012519Y025537D01*
X012451Y025520D01*
X012385Y025499D01*
X012319Y025474D01*
X012256Y025446D01*
X012193Y025414D01*
X012133Y025378D01*
X012075Y025340D01*
X012019Y025298D01*
X011966Y025253D01*
X011915Y025205D01*
X011867Y025155D01*
X011822Y025101D01*
X011780Y025046D01*
X011741Y024988D01*
X011706Y024928D01*
X011673Y024866D01*
X011645Y024802D01*
X011620Y024737D01*
X011599Y024670D01*
X011581Y024603D01*
X011568Y024534D01*
X011558Y024465D01*
X011552Y024396D01*
X011550Y024326D01*
X011552Y024256D01*
X011558Y024187D01*
X011568Y024118D01*
X011581Y024049D01*
X011599Y023982D01*
X011620Y023915D01*
X011645Y023850D01*
X011673Y023786D01*
X011706Y023724D01*
X011741Y023664D01*
X011780Y023606D01*
X011822Y023551D01*
X011867Y023497D01*
X011915Y023447D01*
X011966Y023399D01*
X012019Y023354D01*
X012075Y023312D01*
X012133Y023274D01*
X012193Y023238D01*
X012256Y023206D01*
X012319Y023178D01*
X012385Y023153D01*
X012451Y023132D01*
X012519Y023115D01*
X012587Y023102D01*
X012656Y023092D01*
X012726Y023087D01*
X012796Y023085D01*
X012865Y023087D01*
X012935Y023093D01*
X013004Y023103D01*
X013072Y023117D01*
X013140Y023135D01*
X013206Y023157D01*
X013271Y023182D01*
X013335Y023211D01*
X013397Y023243D01*
X013457Y023279D01*
X013514Y023318D01*
X013570Y023360D01*
X013623Y023405D01*
X013673Y023453D01*
X013721Y023504D01*
X013766Y023558D01*
X013736Y022530D02*
X013738Y020987D01*
X013739Y020974D02*
X013694Y020922D01*
X013646Y020873D01*
X013596Y020827D01*
X013543Y020783D01*
X013487Y020743D01*
X013429Y020705D01*
X013370Y020672D01*
X013308Y020641D01*
X013245Y020614D01*
X013180Y020591D01*
X013114Y020572D01*
X013047Y020556D01*
X012980Y020544D01*
X012911Y020536D01*
X012843Y020532D01*
X012774Y020531D01*
X012706Y020535D01*
X012637Y020543D01*
X012570Y020554D01*
X012503Y020569D01*
X012437Y020588D01*
X012372Y020611D01*
X012308Y020637D01*
X012246Y020667D01*
X012186Y020701D01*
X012128Y020738D01*
X012073Y020778D01*
X012019Y020821D01*
X011968Y020867D01*
X011920Y020916D01*
X011875Y020967D01*
X011832Y021021D01*
X011793Y021078D01*
X011757Y021136D01*
X011724Y021197D01*
X011695Y021259D01*
X011670Y021323D01*
X011648Y021388D01*
X011630Y021454D01*
X011616Y021522D01*
X011605Y021589D01*
X011599Y021658D01*
X011596Y021726D01*
X011597Y021795D01*
X011602Y021864D01*
X011611Y021932D01*
X011624Y021999D01*
X011641Y022066D01*
X011662Y022131D01*
X011686Y022196D01*
X011713Y022259D01*
X011745Y022320D01*
X011780Y022379D01*
X011818Y022436D01*
X011859Y022491D01*
X011903Y022544D01*
X011950Y022594D01*
X012000Y022641D01*
X012053Y022685D01*
X012108Y022726D01*
X012165Y022764D01*
X012224Y022799D01*
X012286Y022830D01*
X012348Y022858D01*
X012413Y022882D01*
X012478Y022902D01*
X012545Y022919D01*
X012613Y022932D01*
X012681Y022941D01*
X012749Y022946D01*
X012818Y022947D01*
X012887Y022944D01*
X012955Y022938D01*
X013023Y022927D01*
X013090Y022913D01*
X013156Y022895D01*
X013221Y022873D01*
X013285Y022847D01*
X013347Y022818D01*
X013408Y022785D01*
X013466Y022749D01*
X013523Y022710D01*
X013577Y022668D01*
X013628Y022622D01*
X013677Y022574D01*
X013723Y022523D01*
X013766Y022469D01*
X010829Y023226D02*
X010829Y021290D01*
X009969Y021290D01*
X009969Y023179D01*
X010006Y023179D01*
X009997Y023188D02*
X009997Y023226D01*
X010829Y023226D01*
X010866Y023600D02*
X009978Y023600D01*
X009978Y025516D01*
X010006Y025507D02*
X010866Y025507D01*
X010866Y023600D01*
X009688Y023211D02*
X009629Y023152D01*
X003310Y023152D01*
X003310Y021026D02*
X008152Y021026D01*
X009688Y021026D01*
X011046Y021026D01*
X011046Y037680D01*
X009688Y037680D01*
X009688Y031302D01*
X003310Y031302D01*
X009688Y031302D02*
X009688Y023211D01*
X009688Y021026D01*
X009135Y021022D02*
X009135Y021329D01*
X009135Y021175D02*
X008674Y021175D01*
X008828Y021022D01*
X008751Y021537D02*
X008674Y021614D01*
X008674Y021768D01*
X008751Y021844D01*
X008828Y021844D01*
X009135Y021537D01*
X009135Y021844D01*
X008981Y022053D02*
X009135Y022207D01*
X008981Y022360D01*
X008674Y022360D01*
X008674Y022053D02*
X008981Y022053D01*
X008905Y022569D02*
X008905Y022876D01*
X008751Y022722D02*
X009058Y022722D01*
X009058Y023486D02*
X009135Y023563D01*
X009135Y023716D01*
X009058Y023793D01*
X008905Y023793D01*
X008905Y023640D01*
X008751Y023486D02*
X009058Y023486D01*
X008751Y023486D02*
X008674Y023563D01*
X008674Y023716D01*
X008751Y023793D01*
X008674Y024002D02*
X009135Y024309D01*
X008674Y024309D01*
X008674Y024518D02*
X008674Y024748D01*
X008751Y024824D01*
X009058Y024824D01*
X009135Y024748D01*
X009135Y024518D01*
X008674Y024518D01*
X008674Y024002D02*
X009135Y024002D01*
X009629Y025397D02*
X003251Y025397D01*
X008152Y021026D02*
X008152Y037680D01*
X009688Y037680D01*
X008152Y037680D02*
X003310Y037680D01*
X003258Y039002D02*
X003258Y003354D01*
X003257Y003355D02*
X003255Y003277D01*
X003257Y003200D01*
X003262Y003123D01*
X003272Y003046D01*
X003285Y002970D01*
X003302Y002895D01*
X003323Y002821D01*
X003347Y002747D01*
X003375Y002675D01*
X003407Y002605D01*
X003442Y002536D01*
X003480Y002469D01*
X003522Y002404D01*
X003567Y002341D01*
X003614Y002281D01*
X003665Y002223D01*
X003719Y002167D01*
X003775Y002114D01*
X003834Y002065D01*
X003896Y002018D01*
X003959Y001974D01*
X004025Y001933D01*
X004093Y001896D01*
X004162Y001862D01*
X004233Y001832D01*
X004306Y001805D01*
X004379Y001782D01*
X004454Y001763D01*
X004530Y001747D01*
X004606Y001735D01*
X004683Y001727D01*
X004760Y001723D01*
X004837Y001722D01*
X063855Y001722D01*
X063855Y001723D02*
X063913Y001728D01*
X063971Y001737D01*
X064028Y001750D01*
X064085Y001766D01*
X064140Y001786D01*
X064194Y001809D01*
X064246Y001836D01*
X064296Y001865D01*
X064345Y001898D01*
X064391Y001934D01*
X064435Y001973D01*
X064476Y002015D01*
X064515Y002059D01*
X064551Y002105D01*
X064584Y002154D01*
X064613Y002204D01*
X064640Y002256D01*
X064663Y002310D01*
X064683Y002365D01*
X064699Y002422D01*
X064711Y002479D01*
X064720Y002537D01*
X064725Y002595D01*
X064727Y002654D01*
X064725Y002712D01*
X064719Y002771D01*
X064719Y002764D02*
X064719Y010222D01*
X064717Y010266D01*
X064711Y010309D01*
X064702Y010351D01*
X064689Y010393D01*
X064672Y010433D01*
X064652Y010472D01*
X064629Y010509D01*
X064602Y010543D01*
X064573Y010576D01*
X064540Y010605D01*
X064506Y010632D01*
X064469Y010655D01*
X064430Y010675D01*
X064390Y010692D01*
X064348Y010705D01*
X064306Y010714D01*
X064263Y010720D01*
X064219Y010722D01*
X056584Y010722D01*
X056540Y010724D01*
X056497Y010730D01*
X056455Y010739D01*
X056413Y010752D01*
X056373Y010769D01*
X056334Y010789D01*
X056297Y010812D01*
X056263Y010839D01*
X056230Y010868D01*
X056201Y010901D01*
X056174Y010935D01*
X056151Y010972D01*
X056131Y011011D01*
X056114Y011051D01*
X056101Y011093D01*
X056092Y011135D01*
X056086Y011178D01*
X056084Y011222D01*
X056080Y011258D02*
X056080Y034092D01*
X056084Y033847D02*
X056086Y033891D01*
X056092Y033934D01*
X056101Y033976D01*
X056114Y034018D01*
X056131Y034058D01*
X056151Y034097D01*
X056174Y034134D01*
X056201Y034168D01*
X056230Y034201D01*
X056263Y034230D01*
X056297Y034257D01*
X056334Y034280D01*
X056373Y034300D01*
X056413Y034317D01*
X056455Y034330D01*
X056497Y034339D01*
X056540Y034345D01*
X056584Y034347D01*
X064219Y034347D01*
X064263Y034349D01*
X064306Y034355D01*
X064348Y034364D01*
X064390Y034377D01*
X064430Y034394D01*
X064469Y034414D01*
X064506Y034437D01*
X064540Y034464D01*
X064573Y034493D01*
X064602Y034526D01*
X064629Y034560D01*
X064652Y034597D01*
X064672Y034636D01*
X064689Y034676D01*
X064702Y034718D01*
X064711Y034760D01*
X064717Y034803D01*
X064719Y034847D01*
X064719Y038875D01*
X064720Y038874D02*
X064717Y038960D01*
X064709Y039046D01*
X064697Y039131D01*
X064682Y039216D01*
X064662Y039300D01*
X064638Y039383D01*
X064611Y039464D01*
X064579Y039544D01*
X064543Y039622D01*
X064504Y039699D01*
X064461Y039774D01*
X064415Y039846D01*
X064365Y039916D01*
X064312Y039984D01*
X064255Y040049D01*
X064196Y040111D01*
X064134Y040170D01*
X064068Y040227D01*
X064001Y040280D01*
X063930Y040329D01*
X063858Y040375D01*
X063783Y040418D01*
X063706Y040457D01*
X063628Y040492D01*
X063548Y040524D01*
X063466Y040551D01*
X063383Y040574D01*
X063299Y040594D01*
X063215Y040609D01*
X063129Y040621D01*
X063044Y040628D01*
X062958Y040631D01*
X062872Y040630D01*
X062786Y040624D01*
X062785Y040625D02*
X004765Y040625D01*
X004690Y040623D01*
X004615Y040618D01*
X004540Y040608D01*
X004466Y040595D01*
X004393Y040579D01*
X004321Y040558D01*
X004249Y040534D01*
X004179Y040507D01*
X004111Y040476D01*
X004044Y040442D01*
X003979Y040404D01*
X003916Y040364D01*
X003854Y040320D01*
X003796Y040273D01*
X003739Y040223D01*
X003685Y040171D01*
X003634Y040116D01*
X003586Y040058D01*
X003540Y039999D01*
X003498Y039937D01*
X003458Y039873D01*
X003422Y039807D01*
X003389Y039739D01*
X003360Y039670D01*
X003334Y039599D01*
X003312Y039527D01*
X003293Y039455D01*
X003278Y039381D01*
X003266Y039307D01*
X003259Y039232D01*
X003255Y039157D01*
X003254Y039082D01*
X003258Y039006D01*
X011696Y036676D02*
X011696Y036499D01*
X011696Y036676D02*
X012050Y037030D01*
X013349Y037030D01*
X013349Y036558D01*
X013349Y035731D02*
X013349Y035259D01*
X012050Y035259D01*
X011696Y035613D01*
X011696Y035731D01*
X012050Y034255D02*
X013349Y034255D01*
X013349Y033782D01*
X013349Y033015D02*
X013349Y032542D01*
X012050Y032542D01*
X011696Y032897D01*
X011696Y033015D01*
X011696Y033782D02*
X011696Y033900D01*
X012050Y034255D01*
X010552Y032762D02*
X010092Y032762D01*
X010092Y032915D02*
X010092Y032608D01*
X010092Y032399D02*
X010475Y032399D01*
X010552Y032323D01*
X010552Y032169D01*
X010475Y032092D01*
X010092Y032092D01*
X010169Y031884D02*
X010092Y031807D01*
X010092Y031654D01*
X010169Y031577D01*
X010475Y031577D01*
X010552Y031654D01*
X010552Y031807D01*
X010475Y031884D01*
X010169Y031884D01*
X011696Y031125D02*
X012050Y031479D01*
X013349Y031479D01*
X013349Y031066D01*
X013349Y030239D02*
X013349Y029826D01*
X011991Y029826D01*
X011696Y030121D01*
X011696Y030239D01*
X011696Y031066D02*
X011696Y031125D01*
X010552Y030545D02*
X010092Y030852D01*
X010092Y029821D02*
X010552Y029821D01*
X010092Y029514D01*
X010552Y029514D01*
X010552Y029324D02*
X010552Y029170D01*
X010552Y029247D02*
X010092Y029247D01*
X010092Y029170D02*
X010092Y029324D01*
X010169Y028446D02*
X010322Y028446D01*
X010399Y028369D01*
X010399Y028139D01*
X010552Y028139D02*
X010092Y028139D01*
X010092Y028369D01*
X010169Y028446D01*
X010399Y028293D02*
X010552Y028446D01*
X010552Y027930D02*
X010552Y027624D01*
X010092Y027624D01*
X010092Y027930D01*
X010322Y027777D02*
X010322Y027624D01*
X010552Y027415D02*
X010092Y027415D01*
X010092Y027108D02*
X010552Y027108D01*
X010399Y027261D01*
X010552Y027415D01*
X010475Y026899D02*
X010169Y026899D01*
X010092Y026822D01*
X010092Y026669D01*
X010169Y026592D01*
X010475Y026592D01*
X010552Y026669D01*
X010552Y026822D01*
X010475Y026899D01*
X010322Y026384D02*
X010399Y026307D01*
X010399Y026077D01*
X010552Y026077D02*
X010092Y026077D01*
X010092Y026307D01*
X010169Y026384D01*
X010322Y026384D01*
X009334Y019373D02*
X013645Y019373D01*
X013645Y015003D01*
X009274Y015003D01*
X009274Y019314D01*
X005316Y015711D02*
X005318Y015791D01*
X005324Y015870D01*
X005334Y015949D01*
X005348Y016027D01*
X005365Y016105D01*
X005387Y016181D01*
X005412Y016257D01*
X005441Y016331D01*
X005474Y016403D01*
X005510Y016474D01*
X005550Y016543D01*
X005593Y016610D01*
X005640Y016675D01*
X005689Y016737D01*
X005742Y016797D01*
X005798Y016854D01*
X005856Y016908D01*
X005917Y016959D01*
X005980Y017007D01*
X006046Y017052D01*
X006114Y017093D01*
X006184Y017131D01*
X006256Y017166D01*
X006329Y017197D01*
X006404Y017224D01*
X006480Y017247D01*
X006557Y017267D01*
X006635Y017283D01*
X006714Y017295D01*
X006793Y017303D01*
X006872Y017307D01*
X006952Y017307D01*
X007031Y017303D01*
X007110Y017295D01*
X007189Y017283D01*
X007267Y017267D01*
X007344Y017247D01*
X007420Y017224D01*
X007495Y017197D01*
X007568Y017166D01*
X007640Y017131D01*
X007710Y017093D01*
X007778Y017052D01*
X007844Y017007D01*
X007907Y016959D01*
X007968Y016908D01*
X008026Y016854D01*
X008082Y016797D01*
X008135Y016737D01*
X008184Y016675D01*
X008231Y016610D01*
X008274Y016543D01*
X008314Y016474D01*
X008350Y016403D01*
X008383Y016331D01*
X008412Y016257D01*
X008437Y016181D01*
X008459Y016105D01*
X008476Y016027D01*
X008490Y015949D01*
X008500Y015870D01*
X008506Y015791D01*
X008508Y015711D01*
X008506Y015631D01*
X008500Y015552D01*
X008490Y015473D01*
X008476Y015395D01*
X008459Y015317D01*
X008437Y015241D01*
X008412Y015165D01*
X008383Y015091D01*
X008350Y015019D01*
X008314Y014948D01*
X008274Y014879D01*
X008231Y014812D01*
X008184Y014747D01*
X008135Y014685D01*
X008082Y014625D01*
X008026Y014568D01*
X007968Y014514D01*
X007907Y014463D01*
X007844Y014415D01*
X007778Y014370D01*
X007710Y014329D01*
X007640Y014291D01*
X007568Y014256D01*
X007495Y014225D01*
X007420Y014198D01*
X007344Y014175D01*
X007267Y014155D01*
X007189Y014139D01*
X007110Y014127D01*
X007031Y014119D01*
X006952Y014115D01*
X006872Y014115D01*
X006793Y014119D01*
X006714Y014127D01*
X006635Y014139D01*
X006557Y014155D01*
X006480Y014175D01*
X006404Y014198D01*
X006329Y014225D01*
X006256Y014256D01*
X006184Y014291D01*
X006114Y014329D01*
X006046Y014370D01*
X005980Y014415D01*
X005917Y014463D01*
X005856Y014514D01*
X005798Y014568D01*
X005742Y014625D01*
X005689Y014685D01*
X005640Y014747D01*
X005593Y014812D01*
X005550Y014879D01*
X005510Y014948D01*
X005474Y015019D01*
X005441Y015091D01*
X005412Y015165D01*
X005387Y015241D01*
X005365Y015317D01*
X005348Y015395D01*
X005334Y015473D01*
X005324Y015552D01*
X005318Y015631D01*
X005316Y015711D01*
X014353Y016952D02*
X014353Y011932D01*
X019078Y011932D01*
X019078Y016952D01*
X014353Y016952D01*
X014412Y017778D02*
X014412Y019255D01*
X014412Y019314D02*
X020318Y019314D01*
X020318Y017778D01*
X014412Y017778D01*
X019782Y015771D02*
X019784Y015852D01*
X019790Y015934D01*
X019800Y016014D01*
X019814Y016094D01*
X019832Y016174D01*
X019853Y016252D01*
X019879Y016330D01*
X019908Y016405D01*
X019941Y016480D01*
X019978Y016553D01*
X020018Y016623D01*
X020061Y016692D01*
X020108Y016759D01*
X020158Y016823D01*
X020212Y016884D01*
X020268Y016943D01*
X020327Y016999D01*
X020388Y017053D01*
X020452Y017103D01*
X020519Y017150D01*
X020588Y017193D01*
X020658Y017233D01*
X020731Y017270D01*
X020806Y017303D01*
X020881Y017332D01*
X020959Y017358D01*
X021037Y017379D01*
X021117Y017397D01*
X021197Y017411D01*
X021277Y017421D01*
X021359Y017427D01*
X021440Y017429D01*
X021521Y017427D01*
X021603Y017421D01*
X021683Y017411D01*
X021763Y017397D01*
X021843Y017379D01*
X021921Y017358D01*
X021999Y017332D01*
X022074Y017303D01*
X022149Y017270D01*
X022222Y017233D01*
X022292Y017193D01*
X022361Y017150D01*
X022428Y017103D01*
X022492Y017053D01*
X022553Y016999D01*
X022612Y016943D01*
X022668Y016884D01*
X022722Y016823D01*
X022772Y016759D01*
X022819Y016692D01*
X022862Y016623D01*
X022902Y016553D01*
X022939Y016480D01*
X022972Y016405D01*
X023001Y016330D01*
X023027Y016252D01*
X023048Y016174D01*
X023066Y016094D01*
X023080Y016014D01*
X023090Y015934D01*
X023096Y015852D01*
X023098Y015771D01*
X023096Y015690D01*
X023090Y015608D01*
X023080Y015528D01*
X023066Y015448D01*
X023048Y015368D01*
X023027Y015290D01*
X023001Y015212D01*
X022972Y015137D01*
X022939Y015062D01*
X022902Y014989D01*
X022862Y014919D01*
X022819Y014850D01*
X022772Y014783D01*
X022722Y014719D01*
X022668Y014658D01*
X022612Y014599D01*
X022553Y014543D01*
X022492Y014489D01*
X022428Y014439D01*
X022361Y014392D01*
X022292Y014349D01*
X022222Y014309D01*
X022149Y014272D01*
X022074Y014239D01*
X021999Y014210D01*
X021921Y014184D01*
X021843Y014163D01*
X021763Y014145D01*
X021683Y014131D01*
X021603Y014121D01*
X021521Y014115D01*
X021440Y014113D01*
X021359Y014115D01*
X021277Y014121D01*
X021197Y014131D01*
X021117Y014145D01*
X021037Y014163D01*
X020959Y014184D01*
X020881Y014210D01*
X020806Y014239D01*
X020731Y014272D01*
X020658Y014309D01*
X020588Y014349D01*
X020519Y014392D01*
X020452Y014439D01*
X020388Y014489D01*
X020327Y014543D01*
X020268Y014599D01*
X020212Y014658D01*
X020158Y014719D01*
X020108Y014783D01*
X020061Y014850D01*
X020018Y014919D01*
X019978Y014989D01*
X019941Y015062D01*
X019908Y015137D01*
X019879Y015212D01*
X019853Y015290D01*
X019832Y015368D01*
X019814Y015448D01*
X019800Y015528D01*
X019790Y015608D01*
X019784Y015690D01*
X019782Y015771D01*
X025278Y011637D02*
X027404Y011637D01*
X027404Y010692D01*
X025278Y010692D01*
X025278Y011637D01*
X027404Y011519D02*
X027404Y010810D01*
X027995Y010692D02*
X029885Y010692D01*
X029885Y011637D01*
X027995Y011637D01*
X027995Y010692D01*
X030171Y010801D02*
X030438Y010801D01*
X030304Y010801D02*
X030304Y011201D01*
X030171Y011068D01*
X030631Y011201D02*
X030631Y010801D01*
X030631Y010934D02*
X030832Y011068D01*
X030631Y010934D02*
X030832Y010801D01*
X030084Y009722D02*
X062079Y009702D01*
X062084Y009692D02*
X062084Y001722D01*
X061944Y003163D02*
X006217Y003222D01*
X006182Y001722D02*
X006182Y008472D01*
X008190Y008472D01*
X008190Y001722D01*
X010198Y001722D02*
X010198Y008472D01*
X008190Y008472D01*
X006184Y008507D02*
X006184Y009688D01*
X006180Y009722D02*
X030084Y009722D01*
X030084Y008472D01*
X028084Y008472D01*
X026143Y008472D01*
X022186Y008472D01*
X022186Y001722D01*
X020178Y001722D02*
X020178Y008472D01*
X016221Y008472D01*
X016221Y001722D01*
X018229Y001663D02*
X018229Y008413D01*
X020178Y008472D02*
X022186Y008472D01*
X024194Y009653D02*
X024194Y001663D01*
X026143Y001722D02*
X026143Y008472D01*
X028084Y008472D02*
X028084Y001722D01*
X030084Y001722D02*
X030084Y008472D01*
X032084Y009722D02*
X032084Y001722D01*
X034084Y001722D02*
X034084Y009722D01*
X036209Y009682D02*
X036209Y001722D01*
X038084Y001722D02*
X038084Y009682D01*
X042084Y017097D02*
X046584Y017097D01*
X046709Y017222D01*
X046709Y017597D01*
X046709Y018472D02*
X046709Y018847D01*
X046584Y018972D01*
X042084Y018972D01*
X042084Y018472D01*
X042084Y017472D02*
X042084Y017097D01*
X035834Y021472D02*
X035834Y021972D01*
X035834Y021472D02*
X049709Y021472D01*
X049709Y023472D01*
X035834Y023472D01*
X035834Y022972D01*
X035878Y022970D01*
X035921Y022964D01*
X035963Y022955D01*
X036005Y022942D01*
X036045Y022925D01*
X036084Y022905D01*
X036121Y022882D01*
X036155Y022855D01*
X036188Y022826D01*
X036217Y022793D01*
X036244Y022759D01*
X036267Y022722D01*
X036287Y022683D01*
X036304Y022643D01*
X036317Y022601D01*
X036326Y022559D01*
X036332Y022516D01*
X036334Y022472D01*
X036332Y022428D01*
X036326Y022385D01*
X036317Y022343D01*
X036304Y022301D01*
X036287Y022261D01*
X036267Y022222D01*
X036244Y022185D01*
X036217Y022151D01*
X036188Y022118D01*
X036155Y022089D01*
X036121Y022062D01*
X036084Y022039D01*
X036045Y022019D01*
X036005Y022002D01*
X035963Y021989D01*
X035921Y021980D01*
X035878Y021974D01*
X035834Y021972D01*
X035584Y026222D02*
X036334Y026222D01*
X036334Y027972D01*
X035584Y027972D01*
X035584Y026222D01*
X037084Y026222D02*
X037084Y027972D01*
X037959Y027972D01*
X037959Y026222D01*
X037084Y026222D01*
X038709Y026222D02*
X038709Y027972D01*
X039459Y027972D01*
X039459Y026222D01*
X038709Y026222D01*
X040459Y026222D02*
X040459Y027972D01*
X041209Y027972D01*
X041209Y026222D01*
X040459Y026222D01*
X041959Y026222D02*
X041959Y027972D01*
X042834Y027972D01*
X042834Y026222D01*
X041959Y026222D01*
X043459Y026222D02*
X043459Y027972D01*
X044334Y027972D01*
X044334Y026222D01*
X043459Y026222D01*
X045334Y026222D02*
X046209Y026222D01*
X046209Y027972D01*
X045334Y027972D01*
X045334Y026222D01*
X047084Y026222D02*
X047084Y027972D01*
X047834Y027972D01*
X047834Y026222D01*
X047084Y026222D01*
X050141Y024334D02*
X050141Y023566D01*
X052030Y023566D01*
X052030Y024334D01*
X050141Y024334D01*
X050141Y023034D02*
X052030Y023034D01*
X052030Y022208D01*
X050141Y022208D01*
X050141Y023034D01*
X050141Y021499D02*
X050141Y020672D01*
X052030Y020672D01*
X052030Y021499D01*
X050141Y021499D01*
X052709Y028222D02*
X052709Y030222D01*
X054334Y030222D01*
X054334Y028222D01*
X052709Y028222D01*
X051209Y028597D02*
X050959Y028347D01*
X050459Y028347D01*
X050209Y028597D01*
X050209Y030097D01*
X050459Y030347D01*
X050959Y030347D01*
X051209Y030097D01*
X051209Y028597D01*
X052834Y029972D02*
X052836Y029994D01*
X052842Y030015D01*
X052851Y030034D01*
X052863Y030052D01*
X052879Y030068D01*
X052896Y030080D01*
X052916Y030089D01*
X052937Y030095D01*
X052959Y030097D01*
X052981Y030095D01*
X053002Y030089D01*
X053021Y030080D01*
X053039Y030068D01*
X053055Y030052D01*
X053067Y030034D01*
X053076Y030015D01*
X053082Y029994D01*
X053084Y029972D01*
X053082Y029950D01*
X053076Y029929D01*
X053067Y029910D01*
X053055Y029892D01*
X053039Y029876D01*
X053022Y029864D01*
X053002Y029855D01*
X052981Y029849D01*
X052959Y029847D01*
X052937Y029849D01*
X052916Y029855D01*
X052896Y029864D01*
X052879Y029876D01*
X052863Y029892D01*
X052851Y029909D01*
X052842Y029929D01*
X052836Y029950D01*
X052834Y029972D01*
X053243Y033666D02*
X052372Y033666D01*
X052372Y035576D01*
X053242Y035576D01*
X053242Y033672D01*
X052451Y033672D01*
X052028Y033667D02*
X052028Y033695D01*
X052027Y033673D02*
X052027Y035577D01*
X051157Y035577D01*
X051157Y033667D01*
X052028Y033667D01*
X052027Y033673D02*
X051236Y033673D01*
X050764Y033680D02*
X050764Y033708D01*
X050763Y033686D02*
X050763Y035590D01*
X049893Y035590D01*
X049893Y033680D01*
X050764Y033680D01*
X050763Y033686D02*
X049972Y033686D01*
X049590Y033708D02*
X049590Y033802D01*
X049588Y033729D02*
X049588Y035579D01*
X048667Y035579D01*
X048667Y033708D01*
X048758Y033708D01*
X048754Y033708D02*
X049590Y033708D01*
X048306Y033756D02*
X047385Y033756D01*
X047384Y033746D02*
X047384Y035633D01*
X047396Y035634D02*
X048314Y035634D01*
X048306Y035628D01*
X048314Y035634D02*
X048304Y033762D01*
X053243Y033666D02*
X053243Y033694D01*
X051961Y038295D02*
X052015Y038250D01*
X052066Y038202D01*
X052114Y038152D01*
X052159Y038099D01*
X052201Y038043D01*
X052240Y037986D01*
X052276Y037926D01*
X052308Y037864D01*
X052337Y037800D01*
X052362Y037735D01*
X052384Y037669D01*
X052402Y037601D01*
X052416Y037533D01*
X052426Y037464D01*
X052432Y037394D01*
X052434Y037325D01*
X052432Y037255D01*
X052427Y037185D01*
X052417Y037116D01*
X052404Y037048D01*
X052387Y036980D01*
X052366Y036914D01*
X052341Y036848D01*
X052313Y036785D01*
X052281Y036722D01*
X052245Y036662D01*
X052207Y036604D01*
X052165Y036548D01*
X052120Y036495D01*
X052072Y036444D01*
X052022Y036396D01*
X051968Y036351D01*
X051913Y036309D01*
X051855Y036270D01*
X051795Y036235D01*
X051733Y036202D01*
X051669Y036174D01*
X051604Y036149D01*
X051537Y036128D01*
X051470Y036110D01*
X051401Y036097D01*
X051332Y036087D01*
X051263Y036081D01*
X051193Y036079D01*
X051123Y036081D01*
X051054Y036087D01*
X050985Y036097D01*
X050916Y036110D01*
X050849Y036128D01*
X050782Y036149D01*
X050717Y036174D01*
X050653Y036202D01*
X050591Y036235D01*
X050531Y036270D01*
X050473Y036309D01*
X050418Y036351D01*
X050364Y036396D01*
X050314Y036444D01*
X050266Y036495D01*
X050221Y036548D01*
X050179Y036604D01*
X050141Y036662D01*
X050105Y036722D01*
X050073Y036785D01*
X050045Y036848D01*
X050020Y036914D01*
X049999Y036980D01*
X049982Y037048D01*
X049969Y037116D01*
X049959Y037185D01*
X049954Y037255D01*
X049952Y037325D01*
X049954Y037394D01*
X049960Y037464D01*
X049970Y037533D01*
X049984Y037601D01*
X050002Y037669D01*
X050024Y037735D01*
X050049Y037800D01*
X050078Y037864D01*
X050110Y037926D01*
X050146Y037986D01*
X050185Y038043D01*
X050227Y038099D01*
X050272Y038152D01*
X050320Y038202D01*
X050371Y038250D01*
X050425Y038295D01*
X050414Y038306D02*
X051881Y038306D01*
X051890Y038315D01*
X054622Y038342D02*
X056108Y038342D01*
X056246Y038259D01*
X056149Y038293D02*
X056203Y038248D01*
X056254Y038200D01*
X056302Y038150D01*
X056347Y038097D01*
X056389Y038041D01*
X056428Y037984D01*
X056464Y037924D01*
X056496Y037862D01*
X056525Y037798D01*
X056550Y037733D01*
X056572Y037667D01*
X056590Y037599D01*
X056604Y037531D01*
X056614Y037462D01*
X056620Y037392D01*
X056622Y037323D01*
X056620Y037253D01*
X056615Y037183D01*
X056605Y037114D01*
X056592Y037046D01*
X056575Y036978D01*
X056554Y036912D01*
X056529Y036846D01*
X056501Y036783D01*
X056469Y036720D01*
X056433Y036660D01*
X056395Y036602D01*
X056353Y036546D01*
X056308Y036493D01*
X056260Y036442D01*
X056210Y036394D01*
X056156Y036349D01*
X056101Y036307D01*
X056043Y036268D01*
X055983Y036233D01*
X055921Y036200D01*
X055857Y036172D01*
X055792Y036147D01*
X055725Y036126D01*
X055658Y036108D01*
X055589Y036095D01*
X055520Y036085D01*
X055451Y036079D01*
X055381Y036077D01*
X055311Y036079D01*
X055242Y036085D01*
X055173Y036095D01*
X055104Y036108D01*
X055037Y036126D01*
X054970Y036147D01*
X054905Y036172D01*
X054841Y036200D01*
X054779Y036233D01*
X054719Y036268D01*
X054661Y036307D01*
X054606Y036349D01*
X054552Y036394D01*
X054502Y036442D01*
X054454Y036493D01*
X054409Y036546D01*
X054367Y036602D01*
X054329Y036660D01*
X054293Y036720D01*
X054261Y036783D01*
X054233Y036846D01*
X054208Y036912D01*
X054187Y036978D01*
X054170Y037046D01*
X054157Y037114D01*
X054147Y037183D01*
X054142Y037253D01*
X054140Y037323D01*
X054142Y037392D01*
X054148Y037462D01*
X054158Y037531D01*
X054172Y037599D01*
X054190Y037667D01*
X054212Y037733D01*
X054237Y037798D01*
X054266Y037862D01*
X054298Y037924D01*
X054334Y037984D01*
X054373Y038041D01*
X054415Y038097D01*
X054460Y038150D01*
X054508Y038200D01*
X054559Y038248D01*
X054613Y038293D01*
X058864Y038333D02*
X060343Y038333D01*
X060376Y038333D02*
X060431Y038288D01*
X060483Y038239D01*
X060533Y038187D01*
X060579Y038133D01*
X060623Y038076D01*
X060663Y038017D01*
X060700Y037955D01*
X060733Y037892D01*
X060763Y037827D01*
X060789Y037760D01*
X060812Y037693D01*
X060830Y037623D01*
X060845Y037553D01*
X060856Y037483D01*
X060863Y037412D01*
X060866Y037340D01*
X060865Y037268D01*
X060860Y037197D01*
X060851Y037126D01*
X060838Y037056D01*
X060821Y036986D01*
X060801Y036918D01*
X060776Y036850D01*
X060748Y036785D01*
X060716Y036721D01*
X060681Y036658D01*
X060642Y036598D01*
X060600Y036540D01*
X060555Y036484D01*
X060507Y036432D01*
X060456Y036381D01*
X060403Y036334D01*
X060346Y036290D01*
X060288Y036249D01*
X060227Y036211D01*
X060164Y036177D01*
X060100Y036146D01*
X060033Y036119D01*
X059966Y036095D01*
X059897Y036076D01*
X059827Y036060D01*
X059757Y036048D01*
X059685Y036040D01*
X059614Y036036D01*
X059542Y036037D01*
X059471Y036041D01*
X059400Y036049D01*
X059329Y036060D01*
X059260Y036076D01*
X059191Y036096D01*
X059123Y036119D01*
X059057Y036147D01*
X058992Y036177D01*
X058930Y036212D01*
X058869Y036250D01*
X058810Y036291D01*
X058754Y036335D01*
X058701Y036382D01*
X058650Y036433D01*
X058602Y036486D01*
X058557Y036541D01*
X058515Y036599D01*
X058476Y036660D01*
X058441Y036722D01*
X058409Y036786D01*
X058381Y036852D01*
X058357Y036919D01*
X058336Y036988D01*
X058320Y037057D01*
X058307Y037128D01*
X058298Y037199D01*
X058293Y037270D01*
X058292Y037342D01*
X058295Y037413D01*
X058302Y037484D01*
X058313Y037555D01*
X058328Y037625D01*
X058347Y037694D01*
X058369Y037762D01*
X058395Y037829D01*
X058425Y037894D01*
X058459Y037957D01*
X058496Y038018D01*
X058536Y038077D01*
X058580Y038134D01*
X058626Y038188D01*
X058676Y038240D01*
X058728Y038289D01*
X058783Y038334D01*
X048142Y038306D02*
X048133Y038315D01*
X046572Y038315D01*
X046566Y038315D02*
X046512Y038270D01*
X046461Y038222D01*
X046413Y038172D01*
X046368Y038119D01*
X046326Y038063D01*
X046287Y038006D01*
X046251Y037946D01*
X046219Y037884D01*
X046190Y037820D01*
X046165Y037755D01*
X046143Y037689D01*
X046125Y037621D01*
X046111Y037553D01*
X046101Y037484D01*
X046095Y037414D01*
X046093Y037345D01*
X046095Y037275D01*
X046100Y037205D01*
X046110Y037136D01*
X046123Y037068D01*
X046140Y037000D01*
X046161Y036934D01*
X046186Y036868D01*
X046214Y036805D01*
X046246Y036742D01*
X046282Y036682D01*
X046320Y036624D01*
X046362Y036568D01*
X046407Y036515D01*
X046455Y036464D01*
X046505Y036416D01*
X046559Y036371D01*
X046614Y036329D01*
X046672Y036290D01*
X046732Y036255D01*
X046794Y036222D01*
X046858Y036194D01*
X046923Y036169D01*
X046990Y036148D01*
X047057Y036130D01*
X047126Y036117D01*
X047195Y036107D01*
X047264Y036101D01*
X047334Y036099D01*
X047404Y036101D01*
X047473Y036107D01*
X047542Y036117D01*
X047611Y036130D01*
X047678Y036148D01*
X047745Y036169D01*
X047810Y036194D01*
X047874Y036222D01*
X047936Y036255D01*
X047996Y036290D01*
X048054Y036329D01*
X048109Y036371D01*
X048163Y036416D01*
X048213Y036464D01*
X048261Y036515D01*
X048306Y036568D01*
X048348Y036624D01*
X048386Y036682D01*
X048422Y036742D01*
X048454Y036805D01*
X048482Y036868D01*
X048507Y036934D01*
X048528Y037000D01*
X048545Y037068D01*
X048558Y037136D01*
X048568Y037205D01*
X048573Y037275D01*
X048575Y037345D01*
X048573Y037414D01*
X048567Y037484D01*
X048557Y037553D01*
X048543Y037621D01*
X048525Y037689D01*
X048503Y037755D01*
X048478Y037820D01*
X048449Y037884D01*
X048417Y037946D01*
X048381Y038006D01*
X048342Y038063D01*
X048300Y038119D01*
X048255Y038172D01*
X048207Y038222D01*
X048156Y038270D01*
X048102Y038315D01*
X044268Y038334D02*
X044268Y038329D01*
X044268Y038334D02*
X044267Y038339D01*
X044263Y038343D01*
X044258Y038344D01*
X042761Y038341D01*
X042743Y038328D02*
X042689Y038283D01*
X042638Y038235D01*
X042590Y038185D01*
X042545Y038132D01*
X042503Y038076D01*
X042464Y038019D01*
X042428Y037959D01*
X042396Y037897D01*
X042367Y037833D01*
X042342Y037768D01*
X042320Y037702D01*
X042302Y037634D01*
X042288Y037566D01*
X042278Y037497D01*
X042272Y037427D01*
X042270Y037358D01*
X042272Y037288D01*
X042277Y037218D01*
X042287Y037149D01*
X042300Y037081D01*
X042317Y037013D01*
X042338Y036947D01*
X042363Y036881D01*
X042391Y036818D01*
X042423Y036755D01*
X042459Y036695D01*
X042497Y036637D01*
X042539Y036581D01*
X042584Y036528D01*
X042632Y036477D01*
X042682Y036429D01*
X042736Y036384D01*
X042791Y036342D01*
X042849Y036303D01*
X042909Y036268D01*
X042971Y036235D01*
X043035Y036207D01*
X043100Y036182D01*
X043167Y036161D01*
X043234Y036143D01*
X043303Y036130D01*
X043372Y036120D01*
X043441Y036114D01*
X043511Y036112D01*
X043581Y036114D01*
X043650Y036120D01*
X043719Y036130D01*
X043788Y036143D01*
X043855Y036161D01*
X043922Y036182D01*
X043987Y036207D01*
X044051Y036235D01*
X044113Y036268D01*
X044173Y036303D01*
X044231Y036342D01*
X044286Y036384D01*
X044340Y036429D01*
X044390Y036477D01*
X044438Y036528D01*
X044483Y036581D01*
X044525Y036637D01*
X044563Y036695D01*
X044599Y036755D01*
X044631Y036818D01*
X044659Y036881D01*
X044684Y036947D01*
X044705Y037013D01*
X044722Y037081D01*
X044735Y037149D01*
X044745Y037218D01*
X044750Y037288D01*
X044752Y037358D01*
X044750Y037427D01*
X044744Y037497D01*
X044734Y037566D01*
X044720Y037634D01*
X044702Y037702D01*
X044680Y037768D01*
X044655Y037833D01*
X044626Y037897D01*
X044594Y037959D01*
X044558Y038019D01*
X044519Y038076D01*
X044477Y038132D01*
X044432Y038185D01*
X044384Y038235D01*
X044333Y038283D01*
X044279Y038328D01*
X038137Y037025D02*
X035149Y037025D01*
X035149Y040048D01*
X035391Y040048D01*
X035391Y040080D01*
X035229Y040064D02*
X038137Y040064D01*
X038137Y037025D01*
X032837Y036263D02*
X032837Y034904D01*
X032483Y034550D01*
X032365Y034550D01*
X032640Y034281D02*
X032947Y034281D01*
X032794Y034128D02*
X032794Y034435D01*
X031479Y034550D02*
X031420Y034550D01*
X031066Y034904D01*
X031066Y036263D01*
X031538Y036263D01*
X032306Y036263D02*
X032837Y036263D01*
X030390Y036280D02*
X030390Y035399D01*
X028435Y035399D01*
X028435Y036280D01*
X028451Y036280D02*
X030390Y036280D01*
X039959Y030097D02*
X039959Y028972D01*
X040209Y028722D01*
X041584Y028722D01*
X041584Y029097D01*
X041584Y029972D02*
X041584Y030347D01*
X040209Y030347D01*
X039959Y030097D01*
X054084Y009702D02*
X054084Y001722D01*
X056084Y001722D02*
X056084Y009702D01*
X056106Y008448D02*
X062070Y008448D01*
X060084Y008413D02*
X060084Y001722D01*
X058084Y001722D02*
X058084Y008413D01*
X061944Y006663D02*
X006211Y006722D01*
X010198Y008472D02*
X012147Y008472D01*
X012147Y001722D01*
X014154Y001722D02*
X014154Y008472D01*
X012147Y008472D01*
X010219Y008448D02*
X010219Y009688D01*
X014154Y008472D02*
X016221Y008472D01*
D12*
X025927Y018853D02*
X025927Y018953D01*
X025961Y018986D01*
X026027Y018986D01*
X026061Y018953D01*
X026061Y018853D01*
X026127Y018853D02*
X025927Y018853D01*
X025927Y019074D02*
X025927Y019174D01*
X025961Y019207D01*
X026027Y019207D01*
X026061Y019174D01*
X026061Y019074D01*
X026127Y019074D02*
X025927Y019074D01*
X026061Y019141D02*
X026127Y019207D01*
X026094Y019295D02*
X026127Y019328D01*
X026127Y019395D01*
X026094Y019428D01*
X025961Y019428D01*
X025927Y019395D01*
X025927Y019328D01*
X025961Y019295D01*
X026094Y019295D01*
X026094Y019516D02*
X026127Y019549D01*
X026127Y019616D01*
X026094Y019649D01*
X026027Y019649D01*
X026027Y019583D01*
X025961Y019649D02*
X025927Y019616D01*
X025927Y019549D01*
X025961Y019516D01*
X026094Y019516D01*
X026127Y019737D02*
X026127Y019870D01*
X026127Y019804D02*
X025927Y019804D01*
X025994Y019737D01*
X028354Y019777D02*
X028388Y019744D01*
X028354Y019777D02*
X028354Y019844D01*
X028388Y019877D01*
X028421Y019877D01*
X028555Y019744D01*
X028555Y019877D01*
X028521Y019656D02*
X028454Y019656D01*
X028454Y019590D01*
X028388Y019656D02*
X028354Y019623D01*
X028354Y019556D01*
X028388Y019523D01*
X028521Y019523D01*
X028555Y019556D01*
X028555Y019623D01*
X028521Y019656D01*
X028521Y019435D02*
X028388Y019435D01*
X028354Y019402D01*
X028354Y019335D01*
X028388Y019302D01*
X028521Y019302D01*
X028555Y019335D01*
X028555Y019402D01*
X028521Y019435D01*
X028555Y019214D02*
X028488Y019148D01*
X028488Y019181D02*
X028488Y019081D01*
X028555Y019081D02*
X028354Y019081D01*
X028354Y019181D01*
X028388Y019214D01*
X028454Y019214D01*
X028488Y019181D01*
X028454Y018993D02*
X028488Y018960D01*
X028488Y018860D01*
X028555Y018860D02*
X028354Y018860D01*
X028354Y018960D01*
X028388Y018993D01*
X028454Y018993D01*
D13*
X029356Y019993D02*
X029748Y019993D01*
X029827Y020071D01*
X029827Y020228D01*
X029748Y020306D01*
X029356Y020306D01*
X029356Y020508D02*
X029356Y020665D01*
X029356Y020587D02*
X029827Y020587D01*
X029827Y020665D02*
X029827Y020508D01*
X029591Y020852D02*
X029591Y021166D01*
X029356Y021368D02*
X029356Y021603D01*
X029435Y021681D01*
X029748Y021681D01*
X029827Y021603D01*
X029827Y021368D01*
X029356Y021368D01*
X029435Y021883D02*
X029748Y021883D01*
X029827Y021962D01*
X029827Y022118D01*
X029748Y022197D01*
X029435Y022197D01*
X029356Y022118D01*
X029356Y021962D01*
X029435Y021883D01*
X029356Y022399D02*
X029827Y022713D01*
X029356Y022713D01*
X029435Y022915D02*
X029748Y022915D01*
X029827Y022993D01*
X029827Y023150D01*
X029748Y023228D01*
X029591Y023228D01*
X029591Y023071D01*
X029435Y022915D02*
X029356Y022993D01*
X029356Y023150D01*
X029435Y023228D01*
X029356Y023430D02*
X029827Y023430D01*
X029827Y023744D01*
X029827Y023946D02*
X029827Y024259D01*
X029591Y024103D02*
X029591Y023946D01*
X029356Y023946D02*
X029827Y023946D01*
X029356Y023946D02*
X029356Y024259D01*
X029356Y022399D02*
X029827Y022399D01*
X035128Y019612D02*
X035128Y019455D01*
X035207Y019377D01*
X035285Y019377D01*
X035363Y019455D01*
X035363Y019690D01*
X035207Y019690D02*
X035520Y019690D01*
X035599Y019612D01*
X035599Y019455D01*
X035520Y019377D01*
X035599Y019175D02*
X035363Y018939D01*
X035442Y018861D02*
X035128Y019175D01*
X035128Y018861D02*
X035599Y018861D01*
X035520Y018659D02*
X035599Y018581D01*
X035599Y018424D01*
X035520Y018345D01*
X035363Y018502D02*
X035363Y018581D01*
X035442Y018659D01*
X035520Y018659D01*
X035363Y018581D02*
X035285Y018659D01*
X035207Y018659D01*
X035128Y018581D01*
X035128Y018424D01*
X035207Y018345D01*
X035128Y019612D02*
X035207Y019690D01*
X037378Y019487D02*
X037378Y019330D01*
X037457Y019252D01*
X037535Y019252D01*
X037613Y019330D01*
X037613Y019565D01*
X037457Y019565D02*
X037378Y019487D01*
X037457Y019565D02*
X037770Y019565D01*
X037849Y019487D01*
X037849Y019330D01*
X037770Y019252D01*
X037849Y019050D02*
X037613Y018814D01*
X037692Y018736D02*
X037378Y019050D01*
X037378Y018736D02*
X037849Y018736D01*
X037770Y018534D02*
X037849Y018456D01*
X037849Y018299D01*
X037770Y018220D01*
X037613Y018377D02*
X037613Y018456D01*
X037692Y018534D01*
X037770Y018534D01*
X037613Y018456D02*
X037535Y018534D01*
X037457Y018534D01*
X037378Y018456D01*
X037378Y018299D01*
X037457Y018220D01*
X042254Y019142D02*
X042567Y019142D01*
X042410Y019142D02*
X042410Y019613D01*
X042254Y019456D01*
X042769Y019378D02*
X043004Y019378D01*
X043083Y019299D01*
X043083Y019221D01*
X043004Y019142D01*
X042848Y019142D01*
X042769Y019221D01*
X042769Y019378D01*
X042926Y019534D01*
X043083Y019613D01*
X043285Y019613D02*
X043285Y019142D01*
X043598Y019142D02*
X043598Y019613D01*
X043442Y019456D01*
X043285Y019613D01*
X043800Y019613D02*
X043800Y019142D01*
X043800Y019378D02*
X043879Y019456D01*
X044036Y019456D01*
X044114Y019378D01*
X044114Y019142D01*
X044316Y019142D02*
X044630Y019142D01*
X044630Y019456D02*
X044316Y019142D01*
X044316Y019456D02*
X044630Y019456D01*
X049332Y015033D02*
X049645Y015033D01*
X049488Y014877D02*
X049488Y015190D01*
X046348Y014159D02*
X046348Y014003D01*
X046270Y013924D01*
X046035Y013924D01*
X046035Y013767D02*
X046035Y014238D01*
X046270Y014238D01*
X046348Y014159D01*
X045833Y014159D02*
X045754Y014238D01*
X045598Y014238D01*
X045519Y014159D01*
X045317Y014159D02*
X045239Y014238D01*
X045082Y014238D01*
X045004Y014159D01*
X045317Y014159D02*
X045317Y014081D01*
X045004Y013767D01*
X045317Y013767D01*
X045519Y013767D02*
X045833Y014081D01*
X045833Y014159D01*
X045833Y013767D02*
X045519Y013767D01*
X043473Y014003D02*
X043395Y013924D01*
X043160Y013924D01*
X043160Y013767D02*
X043160Y014238D01*
X043395Y014238D01*
X043473Y014159D01*
X043473Y014003D01*
X042958Y014081D02*
X042644Y013767D01*
X042958Y013767D01*
X042958Y014081D02*
X042958Y014159D01*
X042879Y014238D01*
X042723Y014238D01*
X042644Y014159D01*
X042442Y014159D02*
X042364Y014238D01*
X042207Y014238D01*
X042129Y014159D01*
X042442Y014159D02*
X042442Y014081D01*
X042129Y013767D01*
X042442Y013767D01*
X040731Y013846D02*
X040731Y014238D01*
X040418Y014238D02*
X040418Y013846D01*
X040496Y013767D01*
X040653Y013767D01*
X040731Y013846D01*
X040216Y013767D02*
X039902Y013767D01*
X040059Y013767D02*
X040059Y014238D01*
X039902Y014081D01*
X039723Y013846D02*
X039723Y013767D01*
X039644Y013767D01*
X039644Y013846D01*
X039723Y013846D01*
X039442Y013846D02*
X039364Y013767D01*
X039207Y013767D01*
X039129Y013846D01*
X039442Y014159D01*
X039442Y013846D01*
X039442Y014159D02*
X039364Y014238D01*
X039207Y014238D01*
X039129Y014159D01*
X039129Y013846D01*
X039738Y025970D02*
X039738Y026284D01*
X039503Y026206D02*
X039738Y025970D01*
X039974Y026206D02*
X039503Y026206D01*
X039503Y026486D02*
X039974Y026800D01*
X039503Y026800D01*
X039503Y027002D02*
X039503Y027315D01*
X039582Y027315D01*
X039895Y027002D01*
X039974Y027002D01*
X039974Y026486D02*
X039503Y026486D01*
X038474Y026409D02*
X038474Y026095D01*
X038474Y026252D02*
X038003Y026252D01*
X038160Y026095D01*
X038082Y026611D02*
X038003Y026689D01*
X038003Y026846D01*
X038082Y026925D01*
X038395Y026611D01*
X038474Y026689D01*
X038474Y026846D01*
X038395Y026925D01*
X038082Y026925D01*
X038003Y027127D02*
X038474Y027127D01*
X038317Y027127D02*
X038003Y027440D01*
X038238Y027205D02*
X038474Y027440D01*
X038395Y026611D02*
X038082Y026611D01*
X036849Y026611D02*
X036535Y026925D01*
X036457Y026925D01*
X036378Y026846D01*
X036378Y026689D01*
X036457Y026611D01*
X036457Y026409D02*
X036378Y026331D01*
X036378Y026174D01*
X036457Y026095D01*
X036457Y026409D02*
X036535Y026409D01*
X036849Y026095D01*
X036849Y026409D01*
X036849Y026611D02*
X036849Y026925D01*
X036849Y027127D02*
X036378Y027127D01*
X036613Y027205D02*
X036849Y027440D01*
X036692Y027127D02*
X036378Y027440D01*
X039582Y028783D02*
X039895Y028783D01*
X039738Y028627D02*
X039738Y028940D01*
X041253Y027362D02*
X041332Y027440D01*
X041410Y027440D01*
X041488Y027362D01*
X041488Y027205D01*
X041410Y027127D01*
X041332Y027127D01*
X041253Y027205D01*
X041253Y027362D01*
X041488Y027362D02*
X041567Y027440D01*
X041645Y027440D01*
X041724Y027362D01*
X041724Y027205D01*
X041645Y027127D01*
X041567Y027127D01*
X041488Y027205D01*
X041253Y026925D02*
X041567Y026611D01*
X041488Y026689D02*
X041724Y026925D01*
X041724Y026611D02*
X041253Y026611D01*
X041253Y026409D02*
X041332Y026252D01*
X041488Y026095D01*
X041488Y026331D01*
X041567Y026409D01*
X041645Y026409D01*
X041724Y026331D01*
X041724Y026174D01*
X041645Y026095D01*
X041488Y026095D01*
X042878Y026174D02*
X042878Y026331D01*
X042957Y026409D01*
X043035Y026409D01*
X043113Y026331D01*
X043192Y026409D01*
X043270Y026409D01*
X043349Y026331D01*
X043349Y026174D01*
X043270Y026095D01*
X043113Y026252D02*
X043113Y026331D01*
X042957Y026095D02*
X042878Y026174D01*
X042878Y026611D02*
X043349Y026611D01*
X043192Y026611D02*
X042878Y026925D01*
X042957Y027127D02*
X043035Y027127D01*
X043113Y027205D01*
X043113Y027440D01*
X042957Y027440D02*
X042878Y027362D01*
X042878Y027205D01*
X042957Y027127D01*
X043270Y027127D02*
X043349Y027205D01*
X043349Y027362D01*
X043270Y027440D01*
X042957Y027440D01*
X043349Y026925D02*
X043113Y026689D01*
X044378Y026752D02*
X044849Y026752D01*
X044692Y026752D02*
X044378Y027065D01*
X044613Y026830D02*
X044849Y027065D01*
X044849Y026550D02*
X044849Y026236D01*
X044849Y026393D02*
X044378Y026393D01*
X044535Y026236D01*
X046253Y026424D02*
X046253Y026581D01*
X046332Y026659D01*
X046410Y026659D01*
X046488Y026581D01*
X046567Y026659D01*
X046645Y026659D01*
X046724Y026581D01*
X046724Y026424D01*
X046645Y026345D01*
X046488Y026502D02*
X046488Y026581D01*
X046332Y026345D02*
X046253Y026424D01*
X046253Y026861D02*
X046724Y026861D01*
X046567Y026861D02*
X046253Y027175D01*
X046332Y027377D02*
X046410Y027377D01*
X046488Y027455D01*
X046488Y027690D01*
X046332Y027690D02*
X046253Y027612D01*
X046253Y027455D01*
X046332Y027377D01*
X046645Y027377D02*
X046724Y027455D01*
X046724Y027612D01*
X046645Y027690D01*
X046332Y027690D01*
X046724Y027175D02*
X046488Y026939D01*
X047878Y027018D02*
X048349Y027018D01*
X048349Y026861D02*
X048349Y027175D01*
X048270Y027377D02*
X048349Y027455D01*
X048349Y027612D01*
X048270Y027690D01*
X047878Y027690D01*
X047878Y027377D02*
X048270Y027377D01*
X047878Y027018D02*
X048035Y026861D01*
X048270Y026682D02*
X048349Y026682D01*
X048349Y026603D01*
X048270Y026603D01*
X048270Y026682D01*
X048270Y026401D02*
X048349Y026323D01*
X048349Y026166D01*
X048270Y026088D01*
X047957Y026401D01*
X048270Y026401D01*
X048270Y026088D02*
X047957Y026088D01*
X047878Y026166D01*
X047878Y026323D01*
X047957Y026401D01*
X050503Y027408D02*
X050503Y027565D01*
X050503Y027486D02*
X050974Y027486D01*
X050974Y027408D02*
X050974Y027565D01*
X050974Y027752D02*
X050974Y027987D01*
X050895Y028065D01*
X050582Y028065D01*
X050503Y027987D01*
X050503Y027752D01*
X050974Y027752D01*
D14*
X052734Y027872D02*
X052914Y027872D01*
X053028Y027872D02*
X053208Y027872D01*
X053323Y027872D02*
X053323Y028143D01*
X053458Y028143D01*
X053503Y028098D01*
X053503Y028007D01*
X053458Y027962D01*
X053323Y027962D01*
X053118Y028007D02*
X053028Y028007D01*
X053028Y027872D02*
X053028Y028143D01*
X053208Y028143D01*
X052914Y028143D02*
X052734Y028143D01*
X052734Y027872D01*
X052734Y028007D02*
X052824Y028007D01*
X053617Y027962D02*
X053753Y027962D01*
X053798Y028007D01*
X053798Y028098D01*
X053753Y028143D01*
X053617Y028143D01*
X053617Y027872D01*
X053708Y027962D02*
X053798Y027872D01*
X053912Y027917D02*
X053957Y027872D01*
X054047Y027872D01*
X054092Y027917D01*
X054092Y028098D01*
X054047Y028143D01*
X053957Y028143D01*
X053912Y028098D01*
X053912Y027917D01*
X054207Y027872D02*
X054207Y028143D01*
X054297Y028052D01*
X054387Y028143D01*
X054387Y027872D01*
D15*
X053891Y030377D02*
X053721Y030377D01*
X053721Y030718D01*
X053891Y030718D01*
X053948Y030661D01*
X053948Y030604D01*
X053891Y030547D01*
X053721Y030547D01*
X053891Y030547D02*
X053948Y030491D01*
X053948Y030434D01*
X053891Y030377D01*
X054089Y030547D02*
X054316Y030547D01*
X054202Y030434D02*
X054202Y030661D01*
X053211Y030661D02*
X053211Y030434D01*
X053154Y030377D01*
X052984Y030377D01*
X052984Y030718D01*
X053154Y030718D01*
X053211Y030661D01*
X052852Y030718D02*
X052739Y030718D01*
X052795Y030718D02*
X052795Y030377D01*
X052739Y030377D02*
X052852Y030377D01*
X046096Y035016D02*
X046096Y035103D01*
X046052Y035147D01*
X045966Y035147D01*
X045966Y035060D01*
X046052Y034973D02*
X046096Y035016D01*
X046052Y034973D02*
X045879Y034973D01*
X045836Y035016D01*
X045836Y035103D01*
X045879Y035147D01*
X045836Y035268D02*
X045836Y035398D01*
X045879Y035441D01*
X045966Y035441D01*
X046009Y035398D01*
X046009Y035268D01*
X046096Y035268D02*
X045836Y035268D01*
X045836Y035562D02*
X045836Y035736D01*
X045879Y035736D01*
X046052Y035562D01*
X046096Y035562D01*
X045101Y035579D02*
X045057Y035535D01*
X045014Y035535D01*
X044971Y035579D01*
X044971Y035665D01*
X045014Y035709D01*
X045057Y035709D01*
X045101Y035665D01*
X045101Y035579D01*
X044971Y035579D02*
X044927Y035535D01*
X044884Y035535D01*
X044841Y035579D01*
X044841Y035665D01*
X044884Y035709D01*
X044927Y035709D01*
X044971Y035665D01*
X044971Y035414D02*
X045014Y035371D01*
X045014Y035241D01*
X045101Y035241D02*
X044841Y035241D01*
X044841Y035371D01*
X044884Y035414D01*
X044971Y035414D01*
X044971Y035120D02*
X044971Y035033D01*
X044971Y035120D02*
X045057Y035120D01*
X045101Y035076D01*
X045101Y034989D01*
X045057Y034946D01*
X044884Y034946D01*
X044841Y034989D01*
X044841Y035076D01*
X044884Y035120D01*
X044093Y035081D02*
X044050Y035124D01*
X043963Y035124D01*
X043963Y035037D01*
X044050Y034951D02*
X044093Y034994D01*
X044093Y035081D01*
X044050Y034951D02*
X043876Y034951D01*
X043833Y034994D01*
X043833Y035081D01*
X043876Y035124D01*
X043833Y035245D02*
X043833Y035375D01*
X043876Y035419D01*
X043963Y035419D01*
X044006Y035375D01*
X044006Y035245D01*
X044093Y035245D02*
X043833Y035245D01*
X043876Y035540D02*
X043833Y035583D01*
X043833Y035670D01*
X043876Y035713D01*
X043919Y035713D01*
X044093Y035540D01*
X044093Y035713D01*
X044050Y035834D02*
X044093Y035878D01*
X044093Y035965D01*
X044050Y036008D01*
X043963Y036008D01*
X043919Y035965D01*
X043919Y035921D01*
X043963Y035834D01*
X043833Y035834D01*
X043833Y036008D01*
X043064Y035681D02*
X043021Y035725D01*
X042847Y035725D01*
X042804Y035681D01*
X042804Y035551D01*
X043064Y035551D01*
X043064Y035681D01*
X043064Y035430D02*
X042804Y035430D01*
X042804Y035257D02*
X043064Y035430D01*
X043064Y035257D02*
X042804Y035257D01*
X042847Y035135D02*
X042804Y035092D01*
X042804Y035005D01*
X042847Y034962D01*
X043021Y034962D01*
X043064Y035005D01*
X043064Y035092D01*
X043021Y035135D01*
X042934Y035135D01*
X042934Y035049D01*
X042070Y035026D02*
X042070Y035113D01*
X042027Y035156D01*
X041940Y035156D01*
X041940Y035069D01*
X042027Y034983D02*
X042070Y035026D01*
X042027Y034983D02*
X041853Y034983D01*
X041810Y035026D01*
X041810Y035113D01*
X041853Y035156D01*
X041810Y035277D02*
X041810Y035407D01*
X041853Y035451D01*
X041940Y035451D01*
X041983Y035407D01*
X041983Y035277D01*
X042070Y035277D02*
X041810Y035277D01*
X041853Y035572D02*
X041810Y035615D01*
X041810Y035702D01*
X041853Y035745D01*
X041897Y035745D01*
X042070Y035572D01*
X042070Y035745D01*
X041940Y035866D02*
X041940Y036040D01*
X042070Y035997D02*
X041810Y035997D01*
X041940Y035866D01*
X041081Y035871D02*
X041038Y035827D01*
X041081Y035871D02*
X041081Y035958D01*
X041038Y036001D01*
X040994Y036001D01*
X040951Y035958D01*
X040951Y035914D01*
X040951Y035958D02*
X040908Y036001D01*
X040864Y036001D01*
X040821Y035958D01*
X040821Y035871D01*
X040864Y035827D01*
X040864Y035706D02*
X040821Y035663D01*
X040821Y035576D01*
X040864Y035533D01*
X040864Y035412D02*
X040951Y035412D01*
X040994Y035368D01*
X040994Y035238D01*
X041081Y035238D02*
X040821Y035238D01*
X040821Y035368D01*
X040864Y035412D01*
X041081Y035533D02*
X040908Y035706D01*
X040864Y035706D01*
X041081Y035706D02*
X041081Y035533D01*
X041038Y035117D02*
X040951Y035117D01*
X040951Y035030D01*
X041038Y034944D02*
X041081Y034987D01*
X041081Y035074D01*
X041038Y035117D01*
X041038Y034944D02*
X040864Y034944D01*
X040821Y034987D01*
X040821Y035074D01*
X040864Y035117D01*
X040065Y035108D02*
X040065Y035021D01*
X040022Y034978D01*
X039848Y034978D01*
X039805Y035021D01*
X039805Y035108D01*
X039848Y035151D01*
X039935Y035151D02*
X039935Y035065D01*
X039935Y035151D02*
X040022Y035151D01*
X040065Y035108D01*
X040065Y035273D02*
X039805Y035273D01*
X040065Y035446D01*
X039805Y035446D01*
X039805Y035567D02*
X039805Y035697D01*
X039848Y035741D01*
X040022Y035741D01*
X040065Y035697D01*
X040065Y035567D01*
X039805Y035567D01*
X039076Y035573D02*
X039076Y035660D01*
X039076Y035617D02*
X038816Y035617D01*
X038816Y035660D02*
X038816Y035573D01*
X038860Y035452D02*
X038946Y035452D01*
X038990Y035409D01*
X038990Y035279D01*
X039076Y035279D02*
X038816Y035279D01*
X038816Y035409D01*
X038860Y035452D01*
X038860Y035158D02*
X038816Y035114D01*
X038816Y035027D01*
X038860Y034984D01*
X039033Y034984D01*
X039076Y035027D01*
X039076Y035114D01*
X039033Y035158D01*
X038946Y035158D01*
X038946Y035071D01*
X038079Y035099D02*
X038036Y035143D01*
X037949Y035143D01*
X037949Y035056D01*
X038036Y034969D02*
X038079Y035013D01*
X038079Y035099D01*
X038036Y034969D02*
X037862Y034969D01*
X037819Y035013D01*
X037819Y035099D01*
X037862Y035143D01*
X037819Y035264D02*
X037819Y035394D01*
X037862Y035437D01*
X037949Y035437D01*
X037992Y035394D01*
X037992Y035264D01*
X038079Y035264D02*
X037819Y035264D01*
X037819Y035559D02*
X037819Y035645D01*
X037819Y035602D02*
X038079Y035602D01*
X038079Y035559D02*
X038079Y035645D01*
X038036Y035755D02*
X038079Y035798D01*
X038079Y035885D01*
X038036Y035928D01*
X037862Y035928D01*
X037819Y035885D01*
X037819Y035798D01*
X037862Y035755D01*
X038036Y035755D01*
X038079Y036050D02*
X038079Y036223D01*
X038079Y036136D02*
X037819Y036136D01*
X037905Y036050D01*
X037819Y036344D02*
X037819Y036518D01*
X037862Y036518D01*
X038036Y036344D01*
X038079Y036344D01*
X038816Y036359D02*
X038816Y036533D01*
X038860Y036533D01*
X039033Y036359D01*
X039076Y036359D01*
X039076Y036238D02*
X039076Y036064D01*
X038903Y036238D01*
X038860Y036238D01*
X038816Y036195D01*
X038816Y036108D01*
X038860Y036064D01*
X038860Y035943D02*
X038816Y035900D01*
X038816Y035813D01*
X038860Y035770D01*
X039033Y035770D01*
X039076Y035813D01*
X039076Y035900D01*
X039033Y035943D01*
X038860Y035943D01*
X037083Y035886D02*
X037039Y035929D01*
X036866Y035929D01*
X036823Y035886D01*
X036823Y035799D01*
X036866Y035756D01*
X037039Y035756D01*
X037083Y035799D01*
X037083Y035886D01*
X036953Y036050D02*
X036953Y036224D01*
X037083Y036180D02*
X036823Y036180D01*
X036953Y036050D01*
X037083Y035646D02*
X037083Y035559D01*
X037083Y035603D02*
X036823Y035603D01*
X036823Y035646D02*
X036823Y035559D01*
X036866Y035438D02*
X036953Y035438D01*
X036996Y035395D01*
X036996Y035265D01*
X037083Y035265D02*
X036823Y035265D01*
X036823Y035395D01*
X036866Y035438D01*
X036866Y035143D02*
X036823Y035100D01*
X036823Y035013D01*
X036866Y034970D01*
X037039Y034970D01*
X037083Y035013D01*
X037083Y035100D01*
X037039Y035143D01*
X036953Y035143D01*
X036953Y035057D01*
X036112Y035025D02*
X036112Y035111D01*
X036069Y035155D01*
X035982Y035155D01*
X035982Y035068D01*
X035895Y035155D02*
X035852Y035111D01*
X035852Y035025D01*
X035895Y034981D01*
X036069Y034981D01*
X036112Y035025D01*
X036112Y035276D02*
X035852Y035276D01*
X036112Y035449D01*
X035852Y035449D01*
X035852Y035570D02*
X035852Y035701D01*
X035895Y035744D01*
X036069Y035744D01*
X036112Y035701D01*
X036112Y035570D01*
X035852Y035570D01*
X035080Y035604D02*
X035036Y035560D01*
X035080Y035604D02*
X035080Y035690D01*
X035036Y035734D01*
X034993Y035734D01*
X034950Y035690D01*
X034950Y035647D01*
X034950Y035690D02*
X034906Y035734D01*
X034863Y035734D01*
X034820Y035690D01*
X034820Y035604D01*
X034863Y035560D01*
X034906Y035439D02*
X035080Y035352D01*
X034906Y035266D01*
X034906Y035145D02*
X034950Y035101D01*
X034993Y035145D01*
X035036Y035145D01*
X035080Y035101D01*
X035080Y035014D01*
X035036Y034971D01*
X034950Y035058D02*
X034950Y035101D01*
X034906Y035145D02*
X034863Y035145D01*
X034820Y035101D01*
X034820Y035014D01*
X034863Y034971D01*
X034067Y035023D02*
X034067Y035110D01*
X034023Y035153D01*
X033936Y035153D01*
X033893Y035110D01*
X033893Y035066D01*
X033936Y034980D01*
X033806Y034980D01*
X033806Y035153D01*
X033893Y035274D02*
X034067Y035361D01*
X033893Y035448D01*
X034067Y035023D02*
X034023Y034980D01*
X030977Y035171D02*
X030977Y035344D01*
X030977Y035257D02*
X030717Y035257D01*
X030803Y035171D01*
X030760Y035465D02*
X030717Y035509D01*
X030717Y035595D01*
X030760Y035639D01*
X030933Y035465D01*
X030977Y035509D01*
X030977Y035595D01*
X030933Y035639D01*
X030760Y035639D01*
X030717Y035760D02*
X030933Y035760D01*
X030977Y035803D01*
X030977Y035890D01*
X030933Y035933D01*
X030717Y035933D01*
X030760Y035465D02*
X030933Y035465D01*
X029538Y035171D02*
X029538Y035084D01*
X029495Y035041D01*
X029365Y035041D01*
X029452Y035041D02*
X029538Y034954D01*
X029365Y034954D02*
X029365Y035214D01*
X029495Y035214D01*
X029538Y035171D01*
X029244Y035171D02*
X029070Y034997D01*
X029113Y034954D01*
X029200Y034954D01*
X029244Y034997D01*
X029244Y035171D01*
X029200Y035214D01*
X029113Y035214D01*
X029070Y035171D01*
X029070Y034997D01*
X028949Y034954D02*
X028775Y034954D01*
X028949Y035128D01*
X028949Y035171D01*
X028906Y035214D01*
X028819Y035214D01*
X028775Y035171D01*
X028654Y035171D02*
X028611Y035214D01*
X028524Y035214D01*
X028481Y035171D01*
X028654Y035171D02*
X028654Y035128D01*
X028481Y034954D01*
X028654Y034954D01*
X034691Y037462D02*
X034734Y037419D01*
X034907Y037419D01*
X034951Y037462D01*
X034951Y037549D01*
X034907Y037593D01*
X034907Y037714D02*
X034951Y037757D01*
X034951Y037844D01*
X034907Y037887D01*
X034734Y037887D01*
X034691Y037844D01*
X034691Y037757D01*
X034734Y037714D01*
X034907Y037714D01*
X034734Y037593D02*
X034691Y037549D01*
X034691Y037462D01*
X034691Y038008D02*
X034951Y038182D01*
X034691Y038182D01*
X034691Y038303D02*
X034691Y038476D01*
X034691Y038390D02*
X034951Y038390D01*
X034951Y038598D02*
X034691Y038598D01*
X034691Y038728D01*
X034734Y038771D01*
X034821Y038771D01*
X034864Y038728D01*
X034864Y038598D01*
X034864Y038684D02*
X034951Y038771D01*
X034951Y038892D02*
X034777Y038892D01*
X034691Y038979D01*
X034777Y039066D01*
X034951Y039066D01*
X034907Y039187D02*
X034951Y039230D01*
X034951Y039317D01*
X034907Y039360D01*
X034864Y039360D01*
X034821Y039317D01*
X034821Y039230D01*
X034777Y039187D01*
X034734Y039187D01*
X034691Y039230D01*
X034691Y039317D01*
X034734Y039360D01*
X034691Y039482D02*
X034691Y039655D01*
X034691Y039568D02*
X034951Y039568D01*
X034821Y039066D02*
X034821Y038892D01*
X034951Y038008D02*
X034691Y038008D01*
X041875Y037722D02*
X041918Y037635D01*
X042005Y037548D01*
X042005Y037678D01*
X042048Y037722D01*
X042091Y037722D01*
X042135Y037678D01*
X042135Y037592D01*
X042091Y037548D01*
X042005Y037548D01*
X042005Y037427D02*
X042048Y037384D01*
X042048Y037254D01*
X042135Y037254D02*
X041875Y037254D01*
X041875Y037384D01*
X041918Y037427D01*
X042005Y037427D01*
X042005Y037133D02*
X042005Y037046D01*
X042005Y037133D02*
X042091Y037133D01*
X042135Y037089D01*
X042135Y037002D01*
X042091Y036959D01*
X041918Y036959D01*
X041875Y037002D01*
X041875Y037089D01*
X041918Y037133D01*
X045669Y037127D02*
X045669Y037257D01*
X045712Y037300D01*
X045799Y037300D01*
X045842Y037257D01*
X045842Y037127D01*
X045929Y037127D02*
X045669Y037127D01*
X045712Y037006D02*
X045669Y036962D01*
X045669Y036875D01*
X045712Y036832D01*
X045885Y036832D01*
X045929Y036875D01*
X045929Y036962D01*
X045885Y037006D01*
X045799Y037006D01*
X045799Y036919D01*
X045755Y037421D02*
X045669Y037508D01*
X045929Y037508D01*
X045929Y037421D02*
X045929Y037595D01*
X045929Y037716D02*
X045755Y037889D01*
X045712Y037889D01*
X045669Y037846D01*
X045669Y037759D01*
X045712Y037716D01*
X045929Y037716D02*
X045929Y037889D01*
X049529Y037830D02*
X049572Y037744D01*
X049659Y037657D01*
X049659Y037787D01*
X049702Y037830D01*
X049745Y037830D01*
X049789Y037787D01*
X049789Y037700D01*
X049745Y037657D01*
X049659Y037657D01*
X049789Y037536D02*
X049789Y037362D01*
X049789Y037449D02*
X049529Y037449D01*
X049615Y037362D01*
X049572Y037241D02*
X049659Y037241D01*
X049702Y037198D01*
X049702Y037068D01*
X049789Y037068D02*
X049529Y037068D01*
X049529Y037198D01*
X049572Y037241D01*
X049572Y036947D02*
X049529Y036903D01*
X049529Y036816D01*
X049572Y036773D01*
X049745Y036773D01*
X049789Y036816D01*
X049789Y036903D01*
X049745Y036947D01*
X049659Y036947D01*
X049659Y036860D01*
X053737Y036886D02*
X053737Y036799D01*
X053780Y036756D01*
X053953Y036756D01*
X053997Y036799D01*
X053997Y036886D01*
X053953Y036930D01*
X053867Y036930D01*
X053867Y036843D01*
X053780Y036930D02*
X053737Y036886D01*
X053737Y037051D02*
X053737Y037181D01*
X053780Y037224D01*
X053867Y037224D01*
X053910Y037181D01*
X053910Y037051D01*
X053997Y037051D02*
X053737Y037051D01*
X053780Y037345D02*
X053737Y037389D01*
X053737Y037475D01*
X053780Y037519D01*
X053823Y037519D01*
X053997Y037345D01*
X053997Y037519D01*
X053953Y037640D02*
X053780Y037813D01*
X053953Y037813D01*
X053997Y037770D01*
X053997Y037683D01*
X053953Y037640D01*
X053780Y037640D01*
X053737Y037683D01*
X053737Y037770D01*
X053780Y037813D01*
X057922Y037735D02*
X058182Y037735D01*
X058182Y037821D02*
X058182Y037648D01*
X058182Y037527D02*
X058182Y037353D01*
X058008Y037527D01*
X057965Y037527D01*
X057922Y037483D01*
X057922Y037397D01*
X057965Y037353D01*
X057965Y037232D02*
X058052Y037232D01*
X058095Y037189D01*
X058095Y037059D01*
X058182Y037059D02*
X057922Y037059D01*
X057922Y037189D01*
X057965Y037232D01*
X057965Y036938D02*
X057922Y036894D01*
X057922Y036807D01*
X057965Y036764D01*
X058138Y036764D01*
X058182Y036807D01*
X058182Y036894D01*
X058138Y036938D01*
X058052Y036938D01*
X058052Y036851D01*
X058008Y037648D02*
X057922Y037735D01*
X044525Y025399D02*
X044525Y025343D01*
X044525Y025229D02*
X044525Y025002D01*
X044469Y025002D02*
X044582Y025002D01*
X044714Y025002D02*
X044771Y025002D01*
X044771Y025059D01*
X044714Y025059D01*
X044714Y025002D01*
X044898Y025059D02*
X044955Y025002D01*
X045069Y025002D01*
X045125Y025059D01*
X045125Y025172D01*
X045069Y025229D01*
X044955Y025229D01*
X044898Y025172D01*
X044898Y025059D01*
X045267Y025002D02*
X045437Y025002D01*
X045494Y025059D01*
X045494Y025172D01*
X045437Y025229D01*
X045267Y025229D01*
X045267Y024889D01*
X045635Y025059D02*
X045635Y025172D01*
X045692Y025229D01*
X045805Y025229D01*
X045862Y025172D01*
X045862Y025116D01*
X045635Y025116D01*
X045635Y025059D02*
X045692Y025002D01*
X045805Y025002D01*
X046003Y025002D02*
X046003Y025229D01*
X046173Y025229D01*
X046230Y025172D01*
X046230Y025002D01*
X046372Y025002D02*
X046372Y025343D01*
X046428Y025229D02*
X046542Y025229D01*
X046599Y025172D01*
X046599Y025002D01*
X046740Y025059D02*
X046797Y025116D01*
X046967Y025116D01*
X046967Y025172D02*
X046967Y025002D01*
X046797Y025002D01*
X046740Y025059D01*
X046797Y025229D02*
X046910Y025229D01*
X046967Y025172D01*
X047108Y025116D02*
X047222Y025229D01*
X047278Y025229D01*
X047415Y025172D02*
X047472Y025229D01*
X047642Y025229D01*
X047642Y025343D02*
X047642Y025002D01*
X047472Y025002D01*
X047415Y025059D01*
X047415Y025172D01*
X047108Y025229D02*
X047108Y025002D01*
X047784Y025059D02*
X047840Y025002D01*
X047897Y025059D01*
X047954Y025002D01*
X048010Y025059D01*
X048010Y025229D01*
X048209Y025229D02*
X048322Y025229D01*
X048379Y025172D01*
X048379Y025002D01*
X048209Y025002D01*
X048152Y025059D01*
X048209Y025116D01*
X048379Y025116D01*
X048520Y025116D02*
X048634Y025229D01*
X048690Y025229D01*
X048827Y025172D02*
X048884Y025229D01*
X048997Y025229D01*
X049054Y025172D01*
X049054Y025116D01*
X048827Y025116D01*
X048827Y025172D02*
X048827Y025059D01*
X048884Y025002D01*
X048997Y025002D01*
X049195Y025002D02*
X049252Y025002D01*
X049252Y025059D01*
X049195Y025059D01*
X049195Y025002D01*
X049380Y025059D02*
X049436Y025002D01*
X049606Y025002D01*
X049748Y025059D02*
X049805Y025002D01*
X049918Y025002D01*
X049975Y025059D01*
X049975Y025172D01*
X049918Y025229D01*
X049805Y025229D01*
X049748Y025172D01*
X049748Y025059D01*
X049606Y025229D02*
X049436Y025229D01*
X049380Y025172D01*
X049380Y025059D01*
X050116Y025059D02*
X050173Y025059D01*
X050173Y025002D01*
X050116Y025002D01*
X050116Y025059D01*
X050300Y025002D02*
X050527Y025002D01*
X050669Y025059D02*
X050725Y025116D01*
X050896Y025116D01*
X050896Y025172D02*
X050896Y025002D01*
X050725Y025002D01*
X050669Y025059D01*
X050725Y025229D02*
X050839Y025229D01*
X050896Y025172D01*
X050527Y025229D02*
X050300Y025002D01*
X050300Y025229D02*
X050527Y025229D01*
X048520Y025229D02*
X048520Y025002D01*
X047784Y025059D02*
X047784Y025229D01*
X046428Y025229D02*
X046372Y025172D01*
X044525Y025229D02*
X044469Y025229D01*
X044332Y025229D02*
X044162Y025116D01*
X044332Y025002D01*
X044162Y025002D02*
X044162Y025343D01*
X043973Y025343D02*
X043973Y025399D01*
X043973Y025229D02*
X043973Y025002D01*
X043916Y025002D02*
X044030Y025002D01*
X043973Y025229D02*
X043916Y025229D01*
X043775Y025229D02*
X043775Y025059D01*
X043718Y025002D01*
X043661Y025059D01*
X043605Y025002D01*
X043548Y025059D01*
X043548Y025229D01*
X042684Y025229D02*
X042684Y025172D01*
X042627Y025172D01*
X042627Y025229D01*
X042684Y025229D01*
X042684Y025059D02*
X042684Y025002D01*
X042627Y025002D01*
X042627Y025059D01*
X042684Y025059D01*
X042486Y025059D02*
X042429Y025116D01*
X042316Y025116D01*
X042259Y025172D01*
X042316Y025229D01*
X042486Y025229D01*
X042486Y025059D02*
X042429Y025002D01*
X042259Y025002D01*
X042117Y025002D02*
X042117Y025172D01*
X042061Y025229D01*
X041890Y025229D01*
X041890Y025002D01*
X041749Y025059D02*
X041749Y025172D01*
X041692Y025229D01*
X041579Y025229D01*
X041522Y025172D01*
X041522Y025059D01*
X041579Y025002D01*
X041692Y025002D01*
X041749Y025059D01*
X041390Y025002D02*
X041277Y025002D01*
X041333Y025002D02*
X041333Y025229D01*
X041277Y025229D01*
X041333Y025343D02*
X041333Y025399D01*
X041145Y025229D02*
X041031Y025229D01*
X041088Y025286D02*
X041088Y025059D01*
X041145Y025002D01*
X040890Y025002D02*
X040719Y025002D01*
X040663Y025059D01*
X040663Y025172D01*
X040719Y025229D01*
X040890Y025229D01*
X040521Y025229D02*
X040521Y025002D01*
X040351Y025002D01*
X040294Y025059D01*
X040294Y025229D01*
X040158Y025229D02*
X040101Y025229D01*
X039988Y025116D01*
X039988Y025229D02*
X039988Y025002D01*
X039855Y025002D02*
X039799Y025059D01*
X039799Y025286D01*
X039855Y025229D02*
X039742Y025229D01*
X039601Y025229D02*
X039430Y025229D01*
X039374Y025172D01*
X039430Y025116D01*
X039544Y025116D01*
X039601Y025059D01*
X039544Y025002D01*
X039374Y025002D01*
X039232Y025002D02*
X039232Y025172D01*
X039176Y025229D01*
X039005Y025229D01*
X039005Y025002D01*
X038873Y025002D02*
X038760Y025002D01*
X038817Y025002D02*
X038817Y025343D01*
X038873Y025343D02*
X038760Y025343D01*
X038250Y025229D02*
X038250Y024946D01*
X038193Y024889D01*
X038137Y024889D01*
X038080Y025002D02*
X038250Y025002D01*
X038080Y025002D02*
X038023Y025059D01*
X038023Y025172D01*
X038080Y025229D01*
X038250Y025229D01*
X037882Y025172D02*
X037882Y025002D01*
X037882Y025172D02*
X037825Y025229D01*
X037655Y025229D01*
X037655Y025002D01*
X037523Y025002D02*
X037409Y025002D01*
X037466Y025002D02*
X037466Y025229D01*
X037409Y025229D01*
X037466Y025343D02*
X037466Y025399D01*
X037273Y025229D02*
X037216Y025229D01*
X037102Y025116D01*
X037102Y025229D02*
X037102Y025002D01*
X036970Y025002D02*
X036857Y025002D01*
X036914Y025002D02*
X036914Y025229D01*
X036857Y025229D01*
X036914Y025343D02*
X036914Y025399D01*
X036715Y025343D02*
X036715Y025002D01*
X036602Y025116D01*
X036489Y025002D01*
X036489Y025343D01*
X028983Y026419D02*
X028983Y026592D01*
X028983Y026419D02*
X028896Y026332D01*
X028809Y026419D01*
X028809Y026592D01*
X028688Y026592D02*
X028515Y026592D01*
X028515Y026462D01*
X028602Y026506D01*
X028645Y026506D01*
X028688Y026462D01*
X028688Y026375D01*
X028645Y026332D01*
X028558Y026332D01*
X028515Y026375D01*
X028584Y027276D02*
X028410Y027276D01*
X028410Y027536D01*
X028584Y027536D01*
X028497Y027406D02*
X028410Y027406D01*
X028289Y027406D02*
X028202Y027406D01*
X028289Y027406D02*
X028289Y027319D01*
X028246Y027276D01*
X028159Y027276D01*
X028115Y027319D01*
X028115Y027493D01*
X028159Y027536D01*
X028246Y027536D01*
X028289Y027493D01*
X027994Y027450D02*
X027994Y027276D01*
X027994Y027406D02*
X027821Y027406D01*
X027821Y027450D02*
X027908Y027536D01*
X027994Y027450D01*
X027821Y027450D02*
X027821Y027276D01*
X027613Y027276D02*
X027613Y027536D01*
X027526Y027536D02*
X027700Y027536D01*
X027405Y027276D02*
X027232Y027276D01*
X027232Y027536D01*
X027110Y027493D02*
X027067Y027536D01*
X026980Y027536D01*
X026937Y027493D01*
X026937Y027319D01*
X026980Y027276D01*
X027067Y027276D01*
X027110Y027319D01*
X027110Y027493D01*
X026816Y027536D02*
X026816Y027363D01*
X026729Y027276D01*
X026642Y027363D01*
X026642Y027536D01*
X026226Y027493D02*
X026183Y027536D01*
X026096Y027536D01*
X026053Y027493D01*
X026053Y027319D01*
X026096Y027276D01*
X026183Y027276D01*
X026226Y027319D01*
X025932Y027276D02*
X025758Y027276D01*
X025932Y027450D01*
X025932Y027493D01*
X025888Y027536D01*
X025802Y027536D01*
X025758Y027493D01*
X025649Y027536D02*
X025562Y027536D01*
X025605Y027536D02*
X025605Y027276D01*
X025562Y027276D02*
X025649Y027276D01*
X025514Y026629D02*
X025557Y026586D01*
X025557Y026543D01*
X025514Y026499D01*
X025557Y026456D01*
X025557Y026412D01*
X025514Y026369D01*
X025427Y026369D01*
X025384Y026412D01*
X025471Y026499D02*
X025514Y026499D01*
X025514Y026629D02*
X025427Y026629D01*
X025384Y026586D01*
X025678Y026412D02*
X025722Y026412D01*
X025722Y026369D01*
X025678Y026369D01*
X025678Y026412D01*
X025826Y026412D02*
X025869Y026369D01*
X025956Y026369D01*
X025999Y026412D01*
X025999Y026456D01*
X025956Y026499D01*
X025913Y026499D01*
X025956Y026499D02*
X025999Y026543D01*
X025999Y026586D01*
X025956Y026629D01*
X025869Y026629D01*
X025826Y026586D01*
X026120Y026629D02*
X026120Y026456D01*
X026207Y026369D01*
X026294Y026456D01*
X026294Y026629D01*
X020667Y024892D02*
X020537Y024762D01*
X020580Y024718D02*
X020407Y024892D01*
X020407Y024718D02*
X020667Y024718D01*
X020623Y024597D02*
X020667Y024554D01*
X020667Y024467D01*
X020623Y024424D01*
X020450Y024597D01*
X020623Y024597D01*
X020450Y024597D02*
X020407Y024554D01*
X020407Y024467D01*
X020450Y024424D01*
X020623Y024424D01*
X020667Y024303D02*
X020667Y024129D01*
X020667Y024216D02*
X020407Y024216D01*
X020493Y024129D01*
X020407Y023593D02*
X020580Y023419D01*
X020537Y023463D02*
X020667Y023593D01*
X020667Y023419D02*
X020407Y023419D01*
X020450Y023298D02*
X020623Y023125D01*
X020667Y023168D01*
X020667Y023255D01*
X020623Y023298D01*
X020450Y023298D01*
X020407Y023255D01*
X020407Y023168D01*
X020450Y023125D01*
X020623Y023125D01*
X020667Y023003D02*
X020667Y022830D01*
X020667Y022917D02*
X020407Y022917D01*
X020493Y022830D01*
X020407Y022057D02*
X020580Y021884D01*
X020537Y021927D02*
X020667Y022057D01*
X020667Y021884D02*
X020407Y021884D01*
X020450Y021763D02*
X020623Y021589D01*
X020667Y021633D01*
X020667Y021719D01*
X020623Y021763D01*
X020450Y021763D01*
X020407Y021719D01*
X020407Y021633D01*
X020450Y021589D01*
X020623Y021589D01*
X020667Y021468D02*
X020667Y021295D01*
X020667Y021381D02*
X020407Y021381D01*
X020493Y021295D01*
X016036Y022474D02*
X016036Y022647D01*
X016036Y022561D02*
X015776Y022561D01*
X015862Y022474D01*
X015819Y022768D02*
X015776Y022812D01*
X015776Y022899D01*
X015819Y022942D01*
X015992Y022768D01*
X016036Y022812D01*
X016036Y022899D01*
X015992Y022942D01*
X015819Y022942D01*
X015776Y023063D02*
X015992Y023063D01*
X016036Y023106D01*
X016036Y023193D01*
X015992Y023237D01*
X015776Y023237D01*
X015819Y022768D02*
X015992Y022768D01*
X011402Y022675D02*
X011315Y022589D01*
X011315Y022632D02*
X011315Y022502D01*
X011402Y022502D02*
X011142Y022502D01*
X011142Y022632D01*
X011185Y022675D01*
X011272Y022675D01*
X011315Y022632D01*
X011358Y022381D02*
X011185Y022381D01*
X011358Y022207D01*
X011402Y022251D01*
X011402Y022337D01*
X011358Y022381D01*
X011185Y022381D02*
X011142Y022337D01*
X011142Y022251D01*
X011185Y022207D01*
X011358Y022207D01*
X011358Y022086D02*
X011315Y022086D01*
X011272Y022043D01*
X011272Y021913D01*
X011358Y021913D01*
X011402Y021956D01*
X011402Y022043D01*
X011358Y022086D01*
X011185Y021999D02*
X011272Y021913D01*
X011272Y021792D02*
X011358Y021792D01*
X011402Y021748D01*
X011402Y021661D01*
X011358Y021618D01*
X011272Y021618D02*
X011228Y021705D01*
X011228Y021748D01*
X011272Y021792D01*
X011142Y021792D02*
X011142Y021618D01*
X011272Y021618D01*
X011185Y021999D02*
X011142Y022086D01*
X011168Y023913D02*
X011125Y023956D01*
X011125Y024043D01*
X011168Y024087D01*
X011211Y024087D01*
X011385Y023913D01*
X011385Y024087D01*
X011385Y024208D02*
X011211Y024381D01*
X011168Y024381D01*
X011125Y024338D01*
X011125Y024251D01*
X011168Y024208D01*
X011385Y024208D02*
X011385Y024381D01*
X011341Y024502D02*
X011168Y024676D01*
X011341Y024676D01*
X011385Y024632D01*
X011385Y024546D01*
X011341Y024502D01*
X011168Y024502D01*
X011125Y024546D01*
X011125Y024632D01*
X011168Y024676D01*
X011125Y024797D02*
X011125Y024927D01*
X011168Y024970D01*
X011255Y024970D01*
X011298Y024927D01*
X011298Y024797D01*
X011298Y024884D02*
X011385Y024970D01*
X011385Y024797D02*
X011125Y024797D01*
X011433Y031332D02*
X011346Y031419D01*
X011607Y031419D01*
X011607Y031332D02*
X011607Y031506D01*
X011563Y031627D02*
X011390Y031800D01*
X011563Y031800D01*
X011607Y031757D01*
X011607Y031670D01*
X011563Y031627D01*
X011390Y031627D01*
X011346Y031670D01*
X011346Y031757D01*
X011390Y031800D01*
X011346Y031921D02*
X011563Y031921D01*
X011607Y031965D01*
X011607Y032051D01*
X011563Y032095D01*
X011346Y032095D01*
X011374Y034049D02*
X011287Y034135D01*
X011548Y034135D01*
X011548Y034049D02*
X011548Y034222D01*
X011504Y034343D02*
X011331Y034517D01*
X011504Y034517D01*
X011548Y034473D01*
X011548Y034387D01*
X011504Y034343D01*
X011331Y034343D01*
X011287Y034387D01*
X011287Y034473D01*
X011331Y034517D01*
X011287Y034638D02*
X011504Y034638D01*
X011548Y034681D01*
X011548Y034768D01*
X011504Y034811D01*
X011287Y034811D01*
X011374Y036765D02*
X011287Y036852D01*
X011548Y036852D01*
X011548Y036765D02*
X011548Y036939D01*
X011504Y037060D02*
X011331Y037233D01*
X011504Y037233D01*
X011548Y037190D01*
X011548Y037103D01*
X011504Y037060D01*
X011331Y037060D01*
X011287Y037103D01*
X011287Y037190D01*
X011331Y037233D01*
X011287Y037354D02*
X011504Y037354D01*
X011548Y037398D01*
X011548Y037485D01*
X011504Y037528D01*
X011287Y037528D01*
X008846Y039961D02*
X008846Y040135D01*
X008802Y040178D01*
X008672Y040178D01*
X008672Y039918D01*
X008802Y039918D01*
X008846Y039961D01*
X008551Y039918D02*
X008551Y040178D01*
X008378Y040178D02*
X008551Y039918D01*
X008378Y039918D02*
X008378Y040178D01*
X008256Y040135D02*
X008213Y040178D01*
X008126Y040178D01*
X008083Y040135D01*
X008083Y039961D01*
X008126Y039918D01*
X008213Y039918D01*
X008256Y039961D01*
X008256Y040048D01*
X008170Y040048D01*
X007667Y040092D02*
X007537Y040092D01*
X007494Y040048D01*
X007537Y040005D01*
X007624Y040005D01*
X007667Y039961D01*
X007624Y039918D01*
X007494Y039918D01*
X007384Y039918D02*
X007297Y039918D01*
X007340Y039918D02*
X007340Y040092D01*
X007297Y040092D01*
X007340Y040178D02*
X007340Y040222D01*
X007176Y040092D02*
X007046Y040092D01*
X007002Y040048D01*
X007046Y040005D01*
X007133Y040005D01*
X007176Y039961D01*
X007133Y039918D01*
X007002Y039918D01*
X006881Y039961D02*
X006838Y040005D01*
X006751Y040005D01*
X006708Y040048D01*
X006751Y040092D01*
X006881Y040092D01*
X006881Y039961D02*
X006838Y039918D01*
X006708Y039918D01*
X006587Y039918D02*
X006457Y039918D01*
X006413Y039961D01*
X006457Y040005D01*
X006587Y040005D01*
X006587Y040048D02*
X006587Y039918D01*
X006587Y040048D02*
X006543Y040092D01*
X006457Y040092D01*
X006292Y040048D02*
X006292Y039918D01*
X006292Y040048D02*
X006249Y040092D01*
X006162Y040092D01*
X006119Y040048D01*
X006119Y040178D02*
X006119Y039918D01*
X005997Y039961D02*
X005954Y039918D01*
X005867Y039918D01*
X005824Y039961D01*
X005824Y040135D01*
X005867Y040178D01*
X005954Y040178D01*
X005997Y040135D01*
X031012Y018689D02*
X031229Y018689D01*
X031272Y018646D01*
X031272Y018559D01*
X031229Y018516D01*
X031012Y018516D01*
X031055Y018395D02*
X031229Y018221D01*
X031272Y018265D01*
X031272Y018351D01*
X031229Y018395D01*
X031055Y018395D01*
X031012Y018351D01*
X031012Y018265D01*
X031055Y018221D01*
X031229Y018221D01*
X031272Y018100D02*
X031272Y017927D01*
X031272Y018013D02*
X031012Y018013D01*
X031099Y017927D01*
X022072Y007773D02*
X021846Y007773D01*
X021959Y007773D02*
X021959Y007433D01*
X021704Y007433D02*
X021591Y007546D01*
X021647Y007546D02*
X021477Y007546D01*
X021477Y007433D02*
X021477Y007773D01*
X021647Y007773D01*
X021704Y007717D01*
X021704Y007603D01*
X021647Y007546D01*
X021336Y007490D02*
X021336Y007717D01*
X021279Y007773D01*
X021166Y007773D01*
X021109Y007717D01*
X021109Y007490D01*
X021166Y007433D01*
X021279Y007433D01*
X021336Y007490D01*
X020968Y007490D02*
X020911Y007433D01*
X020741Y007433D01*
X020741Y007773D01*
X020911Y007773D01*
X020968Y007717D01*
X020968Y007660D01*
X020911Y007603D01*
X020741Y007603D01*
X020599Y007603D02*
X020372Y007603D01*
X020372Y007660D02*
X020372Y007433D01*
X020372Y007660D02*
X020486Y007773D01*
X020599Y007660D01*
X020599Y007433D01*
X020911Y007603D02*
X020968Y007546D01*
X020968Y007490D01*
X017822Y007490D02*
X017822Y007717D01*
X017766Y007773D01*
X017596Y007773D01*
X017596Y007433D01*
X017766Y007433D01*
X017822Y007490D01*
X017454Y007433D02*
X017227Y007433D01*
X017227Y007773D01*
X017086Y007717D02*
X017029Y007773D01*
X016916Y007773D01*
X016859Y007717D01*
X016859Y007490D01*
X016916Y007433D01*
X017029Y007433D01*
X017086Y007490D01*
X017086Y007717D01*
X016718Y007773D02*
X016718Y007433D01*
X016718Y007603D02*
X016491Y007603D01*
X016491Y007433D02*
X016491Y007773D01*
X014013Y007773D02*
X013787Y007773D01*
X013900Y007773D02*
X013900Y007433D01*
X013645Y007433D02*
X013532Y007546D01*
X013588Y007546D02*
X013418Y007546D01*
X013418Y007433D02*
X013418Y007773D01*
X013588Y007773D01*
X013645Y007717D01*
X013645Y007603D01*
X013588Y007546D01*
X013277Y007603D02*
X013050Y007603D01*
X013050Y007660D02*
X013050Y007433D01*
X013277Y007433D02*
X013277Y007660D01*
X013163Y007773D01*
X013050Y007660D01*
X012908Y007773D02*
X012682Y007773D01*
X012795Y007773D02*
X012795Y007433D01*
X012540Y007490D02*
X012483Y007433D01*
X012370Y007433D01*
X012313Y007490D01*
X012370Y007603D02*
X012483Y007603D01*
X012540Y007546D01*
X012540Y007490D01*
X012370Y007603D02*
X012313Y007660D01*
X012313Y007717D01*
X012370Y007773D01*
X012483Y007773D01*
X012540Y007717D01*
X009882Y007374D02*
X009655Y007374D01*
X009655Y007714D01*
X009513Y007658D02*
X009457Y007714D01*
X009343Y007714D01*
X009286Y007658D01*
X009286Y007431D01*
X009343Y007374D01*
X009457Y007374D01*
X009513Y007431D01*
X009513Y007658D01*
X009145Y007658D02*
X009145Y007431D01*
X009088Y007374D01*
X008975Y007374D01*
X008918Y007431D01*
X008918Y007658D01*
X008975Y007714D01*
X009088Y007714D01*
X009145Y007658D01*
X008777Y007658D02*
X008720Y007714D01*
X008606Y007714D01*
X008550Y007658D01*
X008550Y007431D01*
X008606Y007374D01*
X008720Y007374D01*
X008777Y007431D01*
X049319Y015356D02*
X049579Y015356D01*
X049579Y015269D02*
X049579Y015443D01*
X049536Y015564D02*
X049362Y015737D01*
X049536Y015737D01*
X049579Y015694D01*
X049579Y015607D01*
X049536Y015564D01*
X049362Y015564D01*
X049319Y015607D01*
X049319Y015694D01*
X049362Y015737D01*
X049319Y015858D02*
X049536Y015858D01*
X049579Y015902D01*
X049579Y015988D01*
X049536Y016032D01*
X049319Y016032D01*
X049319Y015356D02*
X049406Y015269D01*
X051056Y013899D02*
X051113Y013956D01*
X051227Y013956D01*
X051283Y013899D01*
X051056Y013672D01*
X051113Y013616D01*
X051227Y013616D01*
X051283Y013672D01*
X051283Y013899D01*
X051056Y013899D02*
X051056Y013672D01*
X051425Y013672D02*
X051481Y013672D01*
X051481Y013616D01*
X051425Y013616D01*
X051425Y013672D01*
X051609Y013616D02*
X051836Y013616D01*
X051722Y013616D02*
X051722Y013956D01*
X051609Y013842D01*
X051977Y013842D02*
X051977Y013672D01*
X052034Y013616D01*
X052204Y013616D01*
X052204Y013842D01*
X051722Y012598D02*
X051722Y012257D01*
X051609Y012257D02*
X051836Y012257D01*
X051977Y012314D02*
X052034Y012257D01*
X052204Y012257D01*
X052204Y012484D01*
X051977Y012484D02*
X051977Y012314D01*
X051722Y012598D02*
X051609Y012484D01*
X051481Y012314D02*
X051481Y012257D01*
X051425Y012257D01*
X051425Y012314D01*
X051481Y012314D01*
X051283Y012314D02*
X051227Y012257D01*
X051113Y012257D01*
X051056Y012314D01*
X051283Y012541D01*
X051283Y012314D01*
X051056Y012314D02*
X051056Y012541D01*
X051113Y012598D01*
X051227Y012598D01*
X051283Y012541D01*
X051227Y011180D02*
X051113Y011180D01*
X051056Y011123D01*
X051056Y010897D01*
X051283Y011123D01*
X051283Y010897D01*
X051227Y010840D01*
X051113Y010840D01*
X051056Y010897D01*
X051283Y011123D02*
X051227Y011180D01*
X051425Y010897D02*
X051481Y010897D01*
X051481Y010840D01*
X051425Y010840D01*
X051425Y010897D01*
X051609Y010840D02*
X051836Y010840D01*
X051722Y010840D02*
X051722Y011180D01*
X051609Y011067D01*
X051977Y011067D02*
X051977Y010897D01*
X052034Y010840D01*
X052204Y010840D01*
X052204Y011067D01*
X052179Y020938D02*
X052405Y020938D01*
X052292Y020938D02*
X052292Y021279D01*
X052179Y021165D01*
X052547Y021222D02*
X052547Y020995D01*
X052774Y021222D01*
X052774Y020995D01*
X052717Y020938D01*
X052604Y020938D01*
X052547Y020995D01*
X052547Y021222D02*
X052604Y021279D01*
X052717Y021279D01*
X052774Y021222D01*
X052915Y021279D02*
X052915Y020938D01*
X052915Y021052D02*
X053142Y021279D01*
X052972Y021108D02*
X053142Y020938D01*
X053142Y022415D02*
X052972Y022585D01*
X052915Y022528D02*
X053142Y022755D01*
X052915Y022755D02*
X052915Y022415D01*
X052774Y022471D02*
X052717Y022415D01*
X052604Y022415D01*
X052547Y022471D01*
X052774Y022698D01*
X052774Y022471D01*
X052547Y022471D02*
X052547Y022698D01*
X052604Y022755D01*
X052717Y022755D01*
X052774Y022698D01*
X052405Y022415D02*
X052179Y022415D01*
X052292Y022415D02*
X052292Y022755D01*
X052179Y022642D01*
X052179Y023832D02*
X052405Y023832D01*
X052292Y023832D02*
X052292Y024172D01*
X052179Y024059D01*
X052547Y024116D02*
X052604Y024172D01*
X052717Y024172D01*
X052774Y024116D01*
X052547Y023889D01*
X052604Y023832D01*
X052717Y023832D01*
X052774Y023889D01*
X052774Y024116D01*
X052915Y024172D02*
X052915Y023832D01*
X052915Y023945D02*
X053142Y024172D01*
X052972Y024002D02*
X053142Y023832D01*
X052547Y023889D02*
X052547Y024116D01*
D16*
X051839Y038685D02*
X051930Y038775D01*
X051839Y038685D02*
X051659Y038685D01*
X051569Y038775D01*
X051569Y039135D01*
X051659Y039226D01*
X051839Y039226D01*
X051930Y039135D01*
X051322Y039226D02*
X051322Y038685D01*
X050962Y039226D01*
X050962Y038685D01*
X050714Y038775D02*
X050624Y038685D01*
X050444Y038685D01*
X050354Y038775D01*
X050354Y039135D01*
X050444Y039226D01*
X050624Y039226D01*
X050714Y039135D01*
X048359Y039223D02*
X048359Y038682D01*
X048179Y038862D01*
X047999Y038682D01*
X047999Y039223D01*
X047752Y039223D02*
X047391Y039223D01*
X047571Y039223D02*
X047571Y038682D01*
X047144Y038682D02*
X046784Y038682D01*
X046784Y039223D01*
X047144Y039223D01*
X046964Y038952D02*
X046784Y038952D01*
X046536Y038682D02*
X046536Y039223D01*
X046176Y039223D02*
X046536Y038682D01*
X046176Y038682D02*
X046176Y039223D01*
X044620Y039238D02*
X044260Y039238D01*
X044440Y039238D02*
X044440Y038697D01*
X044013Y038787D02*
X044013Y039147D01*
X043922Y039238D01*
X043742Y039238D01*
X043652Y039147D01*
X043652Y038787D01*
X043742Y038697D01*
X043922Y038697D01*
X044013Y038787D01*
X043405Y038787D02*
X043405Y039147D01*
X043315Y039238D01*
X043135Y039238D01*
X043045Y039147D01*
X043045Y038787D01*
X043135Y038697D01*
X043315Y038697D01*
X043405Y038787D01*
X042797Y038787D02*
X042707Y038697D01*
X042437Y038697D01*
X042437Y039238D01*
X042707Y039238D01*
X042797Y039147D01*
X042797Y039057D01*
X042707Y038967D01*
X042437Y038967D01*
X042707Y038967D02*
X042797Y038877D01*
X042797Y038787D01*
X053512Y038865D02*
X053782Y038865D01*
X053872Y038955D01*
X053872Y039135D01*
X053782Y039226D01*
X053512Y039226D01*
X053512Y038685D01*
X054120Y038685D02*
X054120Y039226D01*
X054390Y039226D01*
X054480Y039135D01*
X054480Y038955D01*
X054390Y038865D01*
X054120Y038865D01*
X054300Y038865D02*
X054480Y038685D01*
X054727Y038775D02*
X054727Y039135D01*
X054817Y039226D01*
X054997Y039226D01*
X055088Y039135D01*
X055088Y038775D01*
X054997Y038685D01*
X054817Y038685D01*
X054727Y038775D01*
X055335Y038685D02*
X055335Y039226D01*
X055605Y039226D01*
X055695Y039135D01*
X055695Y039045D01*
X055605Y038955D01*
X055335Y038955D01*
X055335Y038685D02*
X055605Y038685D01*
X055695Y038775D01*
X055695Y038865D01*
X055605Y038955D01*
X055943Y038685D02*
X056303Y038685D01*
X056550Y038685D02*
X056550Y039226D01*
X056911Y039226D01*
X057158Y039226D02*
X057338Y039045D01*
X057518Y039226D01*
X057518Y038685D01*
X057158Y038685D02*
X057158Y039226D01*
X056731Y038955D02*
X056550Y038955D01*
X056550Y038685D02*
X056911Y038685D01*
X055943Y038685D02*
X055943Y039226D01*
X058702Y039246D02*
X058702Y038705D01*
X058702Y038885D02*
X058972Y038885D01*
X059062Y038975D01*
X059062Y039155D01*
X058972Y039246D01*
X058702Y039246D01*
X058882Y038885D02*
X059062Y038705D01*
X059310Y038795D02*
X059310Y039246D01*
X059670Y039246D02*
X059670Y038795D01*
X059580Y038705D01*
X059400Y038705D01*
X059310Y038795D01*
X059917Y038705D02*
X059917Y039246D01*
X060278Y038705D01*
X060278Y039246D01*
X027877Y016538D02*
X027877Y013822D01*
X027759Y013822D01*
X027109Y013822D02*
X026164Y013822D01*
X026164Y013763D01*
X027109Y013763D01*
X027109Y013822D01*
X027050Y013822D02*
X026282Y013822D01*
X025515Y013763D02*
X025337Y013763D01*
X025337Y016538D01*
X025515Y016538D01*
X026223Y016538D02*
X026223Y016420D01*
X027050Y016420D01*
X027050Y016538D01*
X026223Y016538D01*
X027759Y016538D02*
X027877Y016538D01*
X027905Y009423D02*
X027584Y009423D01*
X027584Y008782D01*
X027905Y008782D01*
X028011Y008889D01*
X028011Y009316D01*
X027905Y009423D01*
X028284Y009423D02*
X028284Y008782D01*
X028711Y008782D01*
X028984Y008782D02*
X029411Y008782D01*
X029198Y009103D02*
X028984Y009103D01*
X028984Y009423D02*
X028984Y008782D01*
X028984Y009423D02*
X029411Y009423D01*
X030809Y008895D02*
X031023Y008682D01*
X031450Y008682D01*
X031450Y008409D02*
X030809Y008409D01*
X031129Y008682D02*
X031129Y009109D01*
X031023Y009109D02*
X031450Y009109D01*
X031023Y009109D02*
X030809Y008895D01*
X031450Y008409D02*
X030809Y007982D01*
X031450Y007982D01*
X031450Y007709D02*
X031450Y007282D01*
X030809Y007282D01*
X030809Y007709D01*
X031129Y007496D02*
X031129Y007282D01*
X032750Y007441D02*
X032857Y007334D01*
X033284Y007334D01*
X033391Y007441D01*
X033391Y007655D01*
X033284Y007762D01*
X033070Y007762D01*
X033070Y007548D01*
X032857Y007762D02*
X032750Y007655D01*
X032750Y007441D01*
X032750Y008034D02*
X033391Y008461D01*
X032750Y008461D01*
X032750Y008734D02*
X032750Y009054D01*
X032857Y009161D01*
X033284Y009161D01*
X033391Y009054D01*
X033391Y008734D01*
X032750Y008734D01*
X032750Y008034D02*
X033391Y008034D01*
X034868Y007993D02*
X034975Y008100D01*
X035189Y008100D01*
X035295Y007993D01*
X035295Y007673D01*
X035509Y007673D02*
X034868Y007673D01*
X034868Y007993D01*
X034868Y008373D02*
X035402Y008373D01*
X035509Y008480D01*
X035509Y008693D01*
X035402Y008800D01*
X034868Y008800D01*
X034868Y009073D02*
X035509Y009073D01*
X035509Y009500D01*
X036868Y008818D02*
X036868Y008498D01*
X037509Y008498D01*
X037509Y008818D01*
X037402Y008925D01*
X036975Y008925D01*
X036868Y008818D01*
X036868Y008225D02*
X037509Y008225D01*
X036868Y007798D01*
X037509Y007798D01*
X037402Y007525D02*
X037189Y007525D01*
X037189Y007312D01*
X037402Y007525D02*
X037509Y007419D01*
X037509Y007205D01*
X037402Y007098D01*
X036975Y007098D01*
X036868Y007205D01*
X036868Y007419D01*
X036975Y007525D01*
X035509Y007400D02*
X035509Y006973D01*
X035402Y006973D01*
X034975Y007400D01*
X034868Y007400D01*
X034868Y006973D01*
X038868Y006973D02*
X038868Y007400D01*
X038975Y007400D01*
X039402Y006973D01*
X039509Y006973D01*
X039509Y007400D01*
X039509Y007673D02*
X038868Y007673D01*
X038868Y007993D01*
X038975Y008100D01*
X039402Y008100D01*
X039509Y007993D01*
X039509Y007673D01*
X039509Y008373D02*
X039509Y008586D01*
X039509Y008480D02*
X038868Y008480D01*
X038868Y008586D02*
X038868Y008373D01*
X038868Y008839D02*
X038868Y009160D01*
X038975Y009266D01*
X039189Y009266D01*
X039295Y009160D01*
X039295Y008839D01*
X039509Y008839D02*
X038868Y008839D01*
X039295Y009053D02*
X039509Y009266D01*
X040868Y008693D02*
X040868Y008373D01*
X041509Y008373D01*
X041509Y008693D01*
X041402Y008800D01*
X040975Y008800D01*
X040868Y008693D01*
X040868Y008100D02*
X041509Y008100D01*
X040868Y007673D01*
X041509Y007673D01*
X041402Y007400D02*
X041189Y007400D01*
X041189Y007187D01*
X041402Y007400D02*
X041509Y007294D01*
X041509Y007080D01*
X041402Y006973D01*
X040975Y006973D01*
X040868Y007080D01*
X040868Y007294D01*
X040975Y007400D01*
X042868Y007400D02*
X042975Y007400D01*
X043189Y007187D01*
X043509Y007187D01*
X043189Y007187D02*
X042975Y006973D01*
X042868Y006973D01*
X042868Y007673D02*
X042868Y007993D01*
X042975Y008100D01*
X043189Y008100D01*
X043295Y007993D01*
X043295Y007673D01*
X043509Y007673D02*
X042868Y007673D01*
X042868Y008373D02*
X043402Y008373D01*
X043509Y008480D01*
X043509Y008693D01*
X043402Y008800D01*
X042868Y008800D01*
X042868Y009073D02*
X043509Y009073D01*
X043509Y009500D01*
X044868Y008693D02*
X044868Y008373D01*
X045509Y008373D01*
X045509Y008693D01*
X045402Y008800D01*
X044975Y008800D01*
X044868Y008693D01*
X044868Y008100D02*
X045509Y008100D01*
X044868Y007673D01*
X045509Y007673D01*
X045402Y007400D02*
X045189Y007400D01*
X045189Y007187D01*
X045402Y007400D02*
X045509Y007294D01*
X045509Y007080D01*
X045402Y006973D01*
X044975Y006973D01*
X044868Y007080D01*
X044868Y007294D01*
X044975Y007400D01*
X046993Y007400D02*
X047100Y007400D01*
X047314Y007187D01*
X047634Y007187D01*
X047314Y007187D02*
X047100Y006973D01*
X046993Y006973D01*
X046993Y007673D02*
X046993Y007993D01*
X047100Y008100D01*
X047527Y008100D01*
X047634Y007993D01*
X047634Y007673D01*
X046993Y007673D01*
X046993Y008373D02*
X046993Y008586D01*
X046993Y008480D02*
X047634Y008480D01*
X047634Y008586D02*
X047634Y008373D01*
X047634Y008839D02*
X046993Y008839D01*
X046993Y009160D01*
X047100Y009266D01*
X047314Y009266D01*
X047420Y009160D01*
X047420Y008839D01*
X047420Y009053D02*
X047634Y009266D01*
X048868Y008693D02*
X048868Y008373D01*
X049509Y008373D01*
X049509Y008693D01*
X049402Y008800D01*
X048975Y008800D01*
X048868Y008693D01*
X048868Y008100D02*
X049509Y008100D01*
X048868Y007673D01*
X049509Y007673D01*
X049402Y007400D02*
X049189Y007400D01*
X049189Y007187D01*
X049402Y007400D02*
X049509Y007294D01*
X049509Y007080D01*
X049402Y006973D01*
X048975Y006973D01*
X048868Y007080D01*
X048868Y007294D01*
X048975Y007400D01*
X050868Y007400D02*
X051509Y006973D01*
X051509Y007400D02*
X050868Y006973D01*
X050868Y007673D02*
X050868Y007993D01*
X050975Y008100D01*
X051189Y008100D01*
X051295Y007993D01*
X051295Y007673D01*
X051509Y007673D02*
X050868Y007673D01*
X050868Y008373D02*
X051402Y008373D01*
X051509Y008480D01*
X051509Y008693D01*
X051402Y008800D01*
X050868Y008800D01*
X050868Y009073D02*
X051509Y009073D01*
X051509Y009500D01*
X052868Y008693D02*
X052868Y008373D01*
X053509Y008373D01*
X053509Y008693D01*
X053402Y008800D01*
X052975Y008800D01*
X052868Y008693D01*
X052868Y008100D02*
X053509Y008100D01*
X052868Y007673D01*
X053509Y007673D01*
X053402Y007400D02*
X053189Y007400D01*
X053189Y007187D01*
X053402Y007400D02*
X053509Y007294D01*
X053509Y007080D01*
X053402Y006973D01*
X052975Y006973D01*
X052868Y007080D01*
X052868Y007294D01*
X052975Y007400D01*
X054868Y007400D02*
X055509Y006973D01*
X055509Y007400D02*
X054868Y006973D01*
X054868Y007673D02*
X054868Y007993D01*
X054975Y008100D01*
X055402Y008100D01*
X055509Y007993D01*
X055509Y007673D01*
X054868Y007673D01*
X054868Y008373D02*
X054868Y008586D01*
X054868Y008480D02*
X055509Y008480D01*
X055509Y008586D02*
X055509Y008373D01*
X055509Y008839D02*
X054868Y008839D01*
X054868Y009160D01*
X054975Y009266D01*
X055189Y009266D01*
X055295Y009160D01*
X055295Y008839D01*
X055295Y009053D02*
X055509Y009266D01*
X057320Y009423D02*
X057320Y008782D01*
X057747Y008782D01*
X058020Y008782D02*
X058233Y008782D01*
X058126Y008782D02*
X058126Y009423D01*
X058020Y009423D02*
X058233Y009423D01*
X058486Y009423D02*
X058700Y009209D01*
X058913Y009423D01*
X058913Y008782D01*
X059186Y008782D02*
X059399Y008782D01*
X059293Y008782D02*
X059293Y009423D01*
X059399Y009423D02*
X059186Y009423D01*
X059652Y009423D02*
X060079Y009423D01*
X059866Y009423D02*
X059866Y008782D01*
X060352Y008889D02*
X060459Y008782D01*
X060672Y008782D01*
X060779Y008889D01*
X060779Y008996D01*
X060672Y009103D01*
X060459Y009103D01*
X060352Y009209D01*
X060352Y009316D01*
X060459Y009423D01*
X060672Y009423D01*
X060779Y009316D01*
X060879Y007739D02*
X061306Y007739D01*
X061306Y007632D01*
X060879Y007205D01*
X060879Y007098D01*
X061306Y007098D01*
X059431Y007632D02*
X059217Y007419D01*
X059217Y007098D01*
X059217Y007419D02*
X059004Y007632D01*
X059004Y007739D01*
X059431Y007739D02*
X059431Y007632D01*
X058486Y008782D02*
X058486Y009423D01*
X057431Y007739D02*
X057004Y007098D01*
X057431Y007098D02*
X057004Y007739D01*
X027312Y008782D02*
X027312Y009423D01*
X026885Y009423D02*
X027312Y008782D01*
X026885Y008782D02*
X026885Y009423D01*
X026632Y009423D02*
X026418Y009423D01*
X026525Y009423D02*
X026525Y008782D01*
X026418Y008782D02*
X026632Y008782D01*
X026145Y009103D02*
X026039Y008996D01*
X025718Y008996D01*
X025718Y008782D02*
X025718Y009423D01*
X026039Y009423D01*
X026145Y009316D01*
X026145Y009103D01*
X025446Y008996D02*
X025446Y008889D01*
X025339Y008782D01*
X025125Y008782D01*
X025019Y008889D01*
X025125Y009103D02*
X025339Y009103D01*
X025446Y008996D01*
X025446Y009316D02*
X025339Y009423D01*
X025125Y009423D01*
X025019Y009316D01*
X025019Y009209D01*
X025125Y009103D01*
D17*
X023743Y007859D02*
X023743Y007308D01*
X023376Y007859D01*
X023376Y007308D01*
X023136Y007400D02*
X023136Y007767D01*
X023044Y007859D01*
X022860Y007859D01*
X022769Y007767D01*
X022769Y007400D01*
X022860Y007308D01*
X023044Y007308D01*
X023136Y007400D01*
X026548Y007459D02*
X026640Y007367D01*
X026823Y007367D01*
X026915Y007459D01*
X026915Y007826D01*
X026823Y007918D01*
X026640Y007918D01*
X026548Y007826D01*
X026548Y007459D01*
X027156Y007367D02*
X027156Y007918D01*
X027523Y007367D01*
X027523Y007918D01*
X028393Y007918D02*
X028393Y007367D01*
X028668Y007367D01*
X028760Y007459D01*
X028760Y007826D01*
X028668Y007918D01*
X028393Y007918D01*
X029001Y007918D02*
X029184Y007918D01*
X029092Y007918D02*
X029092Y007367D01*
X029001Y007367D02*
X029184Y007367D01*
X029406Y007367D02*
X029406Y007918D01*
X029681Y007918D01*
X029773Y007826D01*
X029773Y007643D01*
X029681Y007551D01*
X029406Y007551D01*
X029589Y007551D02*
X029773Y007367D01*
D18*
X025759Y007457D02*
X025759Y007738D01*
X025689Y007808D01*
X025479Y007808D01*
X025479Y007387D01*
X025689Y007387D01*
X025759Y007457D01*
X025299Y007387D02*
X025299Y007808D01*
X025019Y007808D02*
X025019Y007387D01*
X024839Y007457D02*
X024839Y007598D01*
X024698Y007598D01*
X024558Y007738D02*
X024558Y007457D01*
X024628Y007387D01*
X024768Y007387D01*
X024839Y007457D01*
X024839Y007738D02*
X024768Y007808D01*
X024628Y007808D01*
X024558Y007738D01*
X025019Y007808D02*
X025299Y007387D01*
X019794Y007472D02*
X019794Y007752D01*
X019724Y007822D01*
X019514Y007822D01*
X019514Y007402D01*
X019724Y007402D01*
X019794Y007472D01*
X019333Y007402D02*
X019333Y007822D01*
X019053Y007822D02*
X019053Y007402D01*
X018873Y007472D02*
X018873Y007612D01*
X018733Y007612D01*
X018873Y007472D02*
X018803Y007402D01*
X018663Y007402D01*
X018593Y007472D01*
X018593Y007752D01*
X018663Y007822D01*
X018803Y007822D01*
X018873Y007752D01*
X019053Y007822D02*
X019333Y007402D01*
X015735Y007472D02*
X015735Y007752D01*
X015665Y007822D01*
X015454Y007822D01*
X015454Y007402D01*
X015665Y007402D01*
X015735Y007472D01*
X015274Y007402D02*
X015274Y007822D01*
X014994Y007822D02*
X015274Y007402D01*
X014994Y007402D02*
X014994Y007822D01*
X014814Y007752D02*
X014744Y007822D01*
X014604Y007822D01*
X014534Y007752D01*
X014534Y007472D01*
X014604Y007402D01*
X014744Y007402D01*
X014814Y007472D01*
X014814Y007612D01*
X014674Y007612D01*
X011794Y007693D02*
X011794Y007413D01*
X011724Y007343D01*
X011514Y007343D01*
X011514Y007763D01*
X011724Y007763D01*
X011794Y007693D01*
X011333Y007763D02*
X011333Y007343D01*
X011053Y007763D01*
X011053Y007343D01*
X010873Y007413D02*
X010873Y007553D01*
X010733Y007553D01*
X010873Y007413D02*
X010803Y007343D01*
X010663Y007343D01*
X010593Y007413D01*
X010593Y007693D01*
X010663Y007763D01*
X010803Y007763D01*
X010873Y007693D01*
X007735Y007693D02*
X007735Y007413D01*
X007665Y007343D01*
X007454Y007343D01*
X007454Y007763D01*
X007665Y007763D01*
X007735Y007693D01*
X007274Y007763D02*
X007274Y007343D01*
X006994Y007763D01*
X006994Y007343D01*
X006814Y007413D02*
X006814Y007553D01*
X006674Y007553D01*
X006814Y007413D02*
X006744Y007343D01*
X006604Y007343D01*
X006534Y007413D01*
X006534Y007693D01*
X006604Y007763D01*
X006744Y007763D01*
X006814Y007693D01*
D19*
X025531Y012109D02*
X025632Y012007D01*
X025836Y012007D01*
X025938Y012109D01*
X025938Y012210D01*
X025836Y012312D01*
X025632Y012312D01*
X025531Y012414D01*
X025531Y012516D01*
X025632Y012617D01*
X025836Y012617D01*
X025938Y012516D01*
X026230Y012414D02*
X026536Y012414D01*
X026637Y012312D01*
X026637Y012109D01*
X026536Y012007D01*
X026230Y012007D01*
X026230Y011803D02*
X026230Y012414D01*
X026930Y012414D02*
X027032Y012414D01*
X027032Y012007D01*
X026930Y012007D02*
X027134Y012007D01*
X027397Y012007D02*
X027397Y012414D01*
X027702Y012414D01*
X027804Y012312D01*
X027804Y012007D01*
X028097Y012109D02*
X028097Y012312D01*
X028198Y012414D01*
X028504Y012414D01*
X028504Y012617D02*
X028504Y012007D01*
X028198Y012007D01*
X028097Y012109D01*
X028796Y012007D02*
X029000Y012007D01*
X028898Y012007D02*
X028898Y012617D01*
X028796Y012617D01*
X029263Y012312D02*
X029263Y012109D01*
X029365Y012007D01*
X029568Y012007D01*
X029670Y012210D02*
X029263Y012210D01*
X029263Y012312D02*
X029365Y012414D01*
X029568Y012414D01*
X029670Y012312D01*
X029670Y012210D01*
X028865Y013661D02*
X028254Y013661D01*
X028254Y013966D01*
X028356Y014068D01*
X028560Y014068D01*
X028661Y013966D01*
X028661Y013661D01*
X028661Y013864D02*
X028865Y014068D01*
X028865Y014360D02*
X028865Y014767D01*
X028763Y015060D02*
X028865Y015162D01*
X028865Y015365D01*
X028763Y015467D01*
X028661Y015467D01*
X028560Y015365D01*
X028560Y015162D01*
X028458Y015060D01*
X028356Y015060D01*
X028254Y015162D01*
X028254Y015365D01*
X028356Y015467D01*
X028254Y015760D02*
X028865Y015760D01*
X028865Y016167D01*
X028560Y015963D02*
X028560Y015760D01*
X028254Y015760D02*
X028254Y016167D01*
X028254Y016460D02*
X028254Y016867D01*
X028254Y016663D02*
X028865Y016663D01*
X028254Y014767D02*
X028254Y014360D01*
X028865Y014360D01*
X028560Y014360D02*
X028560Y014564D01*
X027032Y012719D02*
X027032Y012617D01*
X027033Y010449D02*
X027033Y010042D01*
X026830Y010245D02*
X027237Y010245D01*
D20*
X019255Y008813D02*
X018881Y008813D01*
X018881Y009373D01*
X018610Y009280D02*
X018517Y009373D01*
X018330Y009373D01*
X018237Y009280D01*
X018237Y008906D01*
X018330Y008813D01*
X018517Y008813D01*
X018610Y008906D01*
X018610Y009280D01*
X017966Y009280D02*
X017966Y009093D01*
X017872Y009000D01*
X017592Y009000D01*
X017779Y009000D02*
X017966Y008813D01*
X017592Y008813D02*
X017592Y009373D01*
X017872Y009373D01*
X017966Y009280D01*
X017321Y009373D02*
X016947Y009373D01*
X017134Y009373D02*
X017134Y008813D01*
X016677Y008813D02*
X016677Y009373D01*
X016303Y009373D02*
X016677Y008813D01*
X016303Y008813D02*
X016303Y009373D01*
X016032Y009280D02*
X015939Y009373D01*
X015752Y009373D01*
X015658Y009280D01*
X015658Y008906D01*
X015752Y008813D01*
X015939Y008813D01*
X016032Y008906D01*
X016032Y009280D01*
X015387Y009280D02*
X015294Y009373D01*
X015107Y009373D01*
X015014Y009280D01*
X015014Y008906D01*
X015107Y008813D01*
X015294Y008813D01*
X015387Y008906D01*
X009311Y009433D02*
X008937Y009433D01*
X009124Y009433D02*
X009124Y008872D01*
X008666Y008965D02*
X008573Y008872D01*
X008386Y008872D01*
X008293Y008965D01*
X008386Y009152D02*
X008573Y009152D01*
X008666Y009059D01*
X008666Y008965D01*
X008386Y009152D02*
X008293Y009246D01*
X008293Y009339D01*
X008386Y009433D01*
X008573Y009433D01*
X008666Y009339D01*
X008050Y009433D02*
X007863Y009433D01*
X007956Y009433D02*
X007956Y008872D01*
X007863Y008872D02*
X008050Y008872D01*
X007592Y008872D02*
X007592Y009433D01*
X007405Y009246D01*
X007219Y009433D01*
X007219Y008872D01*
X005955Y017967D02*
X005955Y018527D01*
X005581Y018527D02*
X005955Y017967D01*
X005581Y017967D02*
X005581Y018527D01*
X005338Y018527D02*
X005152Y018527D01*
X005245Y018527D02*
X005245Y017967D01*
X005152Y017967D02*
X005338Y017967D01*
X006226Y018247D02*
X006599Y018247D01*
X006413Y018434D02*
X006413Y018060D01*
X020919Y018237D02*
X021013Y018144D01*
X021200Y018144D01*
X021293Y018237D01*
X021293Y018611D01*
X021200Y018704D01*
X021013Y018704D01*
X020919Y018611D01*
X020919Y018237D01*
X021564Y018237D02*
X021657Y018144D01*
X021844Y018144D01*
X021937Y018237D01*
X021937Y018704D01*
X022208Y018704D02*
X022582Y018704D01*
X022395Y018704D02*
X022395Y018144D01*
X022853Y018424D02*
X023227Y018424D01*
X023040Y018611D02*
X023040Y018237D01*
X021564Y018237D02*
X021564Y018704D01*
D21*
X020001Y018679D02*
X020001Y018569D01*
X019946Y018514D01*
X019781Y018514D01*
X019891Y018514D02*
X020001Y018404D01*
X019781Y018404D02*
X019781Y018734D01*
X019946Y018734D01*
X020001Y018679D01*
X019633Y018734D02*
X019413Y018734D01*
X019413Y018404D01*
X019633Y018404D01*
X019523Y018569D02*
X019413Y018569D01*
X019264Y018734D02*
X019044Y018734D01*
X019154Y018734D02*
X019154Y018404D01*
X018896Y018404D02*
X018786Y018514D01*
X018841Y018514D02*
X018676Y018514D01*
X018676Y018404D02*
X018676Y018734D01*
X018841Y018734D01*
X018896Y018679D01*
X018896Y018569D01*
X018841Y018514D01*
X018528Y018404D02*
X018308Y018404D01*
X018308Y018734D01*
X018528Y018734D01*
X018418Y018569D02*
X018308Y018569D01*
X018159Y018514D02*
X018159Y018734D01*
X017939Y018734D02*
X017939Y018514D01*
X018049Y018404D01*
X018159Y018514D01*
X017791Y018404D02*
X017791Y018734D01*
X017571Y018734D02*
X017791Y018404D01*
X017571Y018404D02*
X017571Y018734D01*
X017423Y018679D02*
X017368Y018734D01*
X017258Y018734D01*
X017203Y018679D01*
X017203Y018459D01*
X017258Y018404D01*
X017368Y018404D01*
X017423Y018459D01*
X017423Y018679D01*
X017055Y018679D02*
X016999Y018734D01*
X016889Y018734D01*
X016834Y018679D01*
X016834Y018459D01*
X016889Y018404D01*
X016999Y018404D01*
X017055Y018459D01*
X016318Y018459D02*
X016263Y018404D01*
X016153Y018404D01*
X016098Y018459D01*
X016098Y018679D01*
X016153Y018734D01*
X016263Y018734D01*
X016318Y018679D01*
X015950Y018679D02*
X015950Y018459D01*
X015895Y018404D01*
X015729Y018404D01*
X015729Y018734D01*
X015895Y018734D01*
X015950Y018679D01*
X015581Y018734D02*
X015361Y018404D01*
X015213Y018459D02*
X015158Y018404D01*
X015048Y018404D01*
X014993Y018459D01*
X014993Y018679D01*
X015048Y018734D01*
X015158Y018734D01*
X015213Y018679D01*
X014845Y018679D02*
X014790Y018734D01*
X014624Y018734D01*
X014624Y018404D01*
X014790Y018404D01*
X014845Y018459D01*
X014845Y018679D01*
D22*
X009162Y027602D02*
X009299Y027738D01*
X009299Y028012D01*
X009162Y028149D01*
X008888Y028149D01*
X008752Y028012D01*
X008752Y027875D01*
X008888Y027602D01*
X008478Y027602D01*
X008478Y028149D01*
X008478Y028522D02*
X009025Y028522D01*
X009299Y028796D01*
X009025Y029070D01*
X008478Y029070D01*
X008674Y033295D02*
X009221Y033295D01*
X009358Y033432D01*
X009358Y033705D01*
X009221Y033842D01*
X008947Y033842D01*
X008947Y033569D01*
X008674Y033842D02*
X008537Y033705D01*
X008537Y033432D01*
X008674Y033295D01*
X008537Y034216D02*
X009358Y034763D01*
X008537Y034763D01*
X008537Y035137D02*
X008537Y035547D01*
X008674Y035684D01*
X009221Y035684D01*
X009358Y035547D01*
X009358Y035137D01*
X008537Y035137D01*
X008537Y034216D02*
X009358Y034216D01*
X033813Y011366D02*
X034224Y011366D01*
X034360Y011230D01*
X034360Y010956D01*
X034224Y010819D01*
X033813Y010819D01*
X033813Y010546D02*
X033813Y011366D01*
X034087Y010819D02*
X034360Y010546D01*
X034734Y010546D02*
X035281Y010546D01*
X035655Y010682D02*
X035792Y010546D01*
X036065Y010546D01*
X036202Y010682D01*
X036202Y010819D01*
X036065Y010956D01*
X035792Y010956D01*
X035655Y011093D01*
X035655Y011230D01*
X035792Y011366D01*
X036065Y011366D01*
X036202Y011230D01*
X036576Y011366D02*
X036576Y010546D01*
X037123Y010546D01*
X036849Y010956D02*
X036576Y010956D01*
X036576Y011366D02*
X037123Y011366D01*
X037496Y011366D02*
X038044Y011366D01*
X037770Y011366D02*
X037770Y010546D01*
X035281Y011366D02*
X034734Y011366D01*
X034734Y010546D01*
X034734Y010956D02*
X035008Y010956D01*
D23*
X025695Y030187D02*
X024874Y030187D01*
X024874Y031828D01*
X025695Y031828D01*
X025968Y031555D01*
X025968Y031281D01*
X025695Y031008D01*
X024874Y031008D01*
X024620Y031260D02*
X024073Y031260D01*
X024346Y031260D02*
X024346Y032354D01*
X024073Y032354D01*
X024346Y032901D02*
X024346Y033175D01*
X023326Y032628D02*
X023326Y032081D01*
X023052Y031807D01*
X022231Y031807D01*
X022231Y031260D02*
X022231Y032901D01*
X023052Y032901D01*
X023326Y032628D01*
X021277Y032901D02*
X021277Y031260D01*
X021004Y031260D02*
X021551Y031260D01*
X020256Y031534D02*
X020256Y032081D01*
X019983Y032354D01*
X019162Y032354D01*
X019162Y032901D02*
X019162Y031260D01*
X019983Y031260D01*
X020256Y031534D01*
X021004Y032901D02*
X021277Y032901D01*
X018448Y032354D02*
X018175Y032354D01*
X017627Y031807D01*
X017627Y031260D02*
X017627Y032354D01*
X016880Y032081D02*
X016333Y032081D01*
X016880Y032081D02*
X016880Y031534D01*
X016607Y031260D01*
X016059Y031260D01*
X015786Y031534D01*
X015786Y032628D01*
X016059Y032901D01*
X016607Y032901D01*
X016880Y032628D01*
X025695Y031008D02*
X025968Y030734D01*
X025968Y030461D01*
X025695Y030187D01*
X026715Y031008D02*
X027810Y031008D01*
X027263Y031555D02*
X027263Y030461D01*
D24*
X025408Y029693D02*
X025408Y029122D01*
X025313Y029122D02*
X025503Y029122D01*
X025742Y029217D02*
X025838Y029122D01*
X026028Y029122D01*
X026123Y029312D02*
X025742Y029312D01*
X025742Y029217D02*
X025742Y029407D01*
X025838Y029502D01*
X026028Y029502D01*
X026123Y029407D01*
X026123Y029312D01*
X026387Y029312D02*
X026577Y029502D01*
X026672Y029502D01*
X026387Y029502D02*
X026387Y029122D01*
X025408Y029693D02*
X025313Y029693D01*
X024978Y029693D02*
X024978Y029122D01*
X024883Y029122D02*
X025073Y029122D01*
X024619Y029217D02*
X024619Y029407D01*
X024524Y029502D01*
X024334Y029502D01*
X024238Y029407D01*
X024238Y029217D01*
X024334Y029122D01*
X024524Y029122D01*
X024619Y029217D01*
X024883Y029693D02*
X024978Y029693D01*
X024347Y030296D02*
X024347Y030581D01*
X024252Y030676D01*
X023967Y030676D01*
X023967Y030296D01*
X023703Y030391D02*
X023703Y030581D01*
X023607Y030676D01*
X023417Y030676D01*
X023322Y030581D01*
X023322Y030391D01*
X023417Y030296D01*
X023607Y030296D01*
X023703Y030391D01*
X023083Y030296D02*
X022893Y030296D01*
X022988Y030296D02*
X022988Y030676D01*
X022893Y030676D01*
X022988Y030867D02*
X022988Y030962D01*
X022653Y030676D02*
X022463Y030676D01*
X022558Y030771D02*
X022558Y030391D01*
X022653Y030296D01*
X022223Y030296D02*
X022033Y030296D01*
X022128Y030296D02*
X022128Y030676D01*
X022033Y030676D01*
X022128Y030867D02*
X022128Y030962D01*
X021769Y030867D02*
X021769Y030296D01*
X021484Y030296D01*
X021389Y030391D01*
X021389Y030581D01*
X021484Y030676D01*
X021769Y030676D01*
X021124Y030867D02*
X020744Y030867D01*
X020744Y030296D01*
X021124Y030296D01*
X020934Y030581D02*
X020744Y030581D01*
X019860Y030296D02*
X019670Y030296D01*
X019765Y030296D02*
X019765Y030867D01*
X019670Y030867D01*
X019406Y030581D02*
X019406Y030296D01*
X019120Y030296D01*
X019025Y030391D01*
X019120Y030486D01*
X019406Y030486D01*
X019406Y030581D02*
X019310Y030676D01*
X019120Y030676D01*
X018691Y030676D02*
X018691Y030296D01*
X018596Y030296D02*
X018786Y030296D01*
X018691Y030676D02*
X018596Y030676D01*
X018691Y030867D02*
X018691Y030962D01*
X018344Y030676D02*
X018249Y030676D01*
X018058Y030486D01*
X018058Y030296D02*
X018058Y030676D01*
X017819Y030676D02*
X017629Y030676D01*
X017724Y030771D02*
X017724Y030391D01*
X017819Y030296D01*
X017364Y030391D02*
X017269Y030486D01*
X017079Y030486D01*
X016984Y030581D01*
X017079Y030676D01*
X017364Y030676D01*
X017364Y030391D02*
X017269Y030296D01*
X016984Y030296D01*
X016720Y030296D02*
X016720Y030676D01*
X016720Y030296D02*
X016435Y030296D01*
X016340Y030391D01*
X016340Y030676D01*
X016075Y030676D02*
X015790Y030676D01*
X015695Y030581D01*
X015695Y030391D01*
X015790Y030296D01*
X016075Y030296D01*
X016075Y030867D01*
X015431Y030581D02*
X015431Y030296D01*
X015431Y030581D02*
X015336Y030676D01*
X015051Y030676D01*
X015051Y030296D01*
X014811Y030296D02*
X014621Y030296D01*
X014716Y030296D02*
X014716Y030867D01*
X014621Y030867D02*
X014811Y030867D01*
X014748Y029693D02*
X014558Y029693D01*
X014463Y029597D01*
X014653Y029407D02*
X014748Y029407D01*
X014843Y029312D01*
X014843Y029217D01*
X014748Y029122D01*
X014558Y029122D01*
X014463Y029217D01*
X014748Y029407D02*
X014843Y029502D01*
X014843Y029597D01*
X014748Y029693D01*
X015107Y029407D02*
X015488Y029407D01*
X015752Y029407D02*
X016132Y029407D01*
X016132Y029502D02*
X016132Y029122D01*
X016396Y029122D02*
X016777Y029502D01*
X017041Y029502D02*
X017136Y029502D01*
X017136Y029122D01*
X017041Y029122D02*
X017231Y029122D01*
X017471Y029122D02*
X017756Y029122D01*
X017851Y029217D01*
X017756Y029312D01*
X017566Y029312D01*
X017471Y029407D01*
X017566Y029502D01*
X017851Y029502D01*
X017136Y029693D02*
X017136Y029788D01*
X016777Y029122D02*
X016396Y029502D01*
X016132Y029502D02*
X015942Y029693D01*
X015752Y029502D01*
X015752Y029122D01*
X018760Y029217D02*
X018855Y029122D01*
X019045Y029122D01*
X019140Y029217D01*
X019404Y029122D02*
X019404Y029693D01*
X019785Y029122D01*
X019785Y029693D01*
X020049Y029597D02*
X020049Y029217D01*
X020144Y029122D01*
X020334Y029122D01*
X020429Y029217D01*
X020429Y029597D02*
X020334Y029693D01*
X020144Y029693D01*
X020049Y029597D01*
X019140Y029597D02*
X019045Y029693D01*
X018855Y029693D01*
X018760Y029597D01*
X018760Y029217D01*
X021338Y029217D02*
X021433Y029122D01*
X021623Y029122D01*
X021718Y029217D01*
X021983Y029217D02*
X022078Y029122D01*
X022268Y029122D01*
X022363Y029217D01*
X022363Y029407D01*
X022268Y029502D01*
X022078Y029502D01*
X021983Y029407D01*
X021983Y029217D01*
X021718Y029597D02*
X021623Y029693D01*
X021433Y029693D01*
X021338Y029597D01*
X021338Y029217D01*
X022627Y029122D02*
X022627Y029502D01*
X022912Y029502D01*
X023007Y029407D01*
X023007Y029122D01*
X023367Y029217D02*
X023462Y029122D01*
X023367Y029217D02*
X023367Y029597D01*
X023272Y029502D02*
X023462Y029502D01*
X023701Y029502D02*
X023701Y029122D01*
X023701Y029312D02*
X023892Y029502D01*
X023987Y029502D01*
X023989Y033552D02*
X024084Y033552D01*
X024084Y033647D01*
X023989Y033647D01*
X023989Y033552D01*
X023725Y033647D02*
X023725Y033837D01*
X023630Y033932D01*
X023439Y033932D01*
X023344Y033837D01*
X023344Y033647D01*
X023439Y033552D01*
X023630Y033552D01*
X023725Y033647D01*
X024311Y033552D02*
X024692Y033552D01*
X024956Y033647D02*
X025051Y033742D01*
X025336Y033742D01*
X025336Y033837D02*
X025336Y033552D01*
X025051Y033552D01*
X024956Y033647D01*
X025051Y033932D02*
X025241Y033932D01*
X025336Y033837D01*
X024692Y033932D02*
X024311Y033552D01*
X024311Y033932D02*
X024692Y033932D01*
X023080Y033932D02*
X022795Y033932D01*
X022700Y033837D01*
X022700Y033647D01*
X022795Y033552D01*
X023080Y033552D01*
X022473Y033552D02*
X022378Y033552D01*
X022378Y033647D01*
X022473Y033647D01*
X022473Y033552D01*
X022113Y033742D02*
X021733Y033742D01*
X021733Y033647D02*
X021733Y033837D01*
X021828Y033932D01*
X022018Y033932D01*
X022113Y033837D01*
X022113Y033742D01*
X022018Y033552D02*
X021828Y033552D01*
X021733Y033647D01*
X021481Y033932D02*
X021386Y033932D01*
X021196Y033742D01*
X021196Y033552D02*
X021196Y033932D01*
X020932Y033837D02*
X020932Y033552D01*
X020646Y033552D01*
X020551Y033647D01*
X020646Y033742D01*
X020932Y033742D01*
X020932Y033837D02*
X020837Y033932D01*
X020646Y033932D01*
X020287Y033932D02*
X020287Y033647D01*
X020192Y033552D01*
X020097Y033647D01*
X020002Y033552D01*
X019907Y033647D01*
X019907Y033932D01*
X019643Y033932D02*
X019357Y033932D01*
X019262Y033837D01*
X019262Y033647D01*
X019357Y033552D01*
X019643Y033552D01*
X019643Y034123D01*
X019010Y033932D02*
X018915Y033932D01*
X018725Y033742D01*
X018725Y033552D02*
X018725Y033932D01*
X018461Y033837D02*
X018461Y033552D01*
X018176Y033552D01*
X018081Y033647D01*
X018176Y033742D01*
X018461Y033742D01*
X018461Y033837D02*
X018366Y033932D01*
X018176Y033932D01*
X017816Y033837D02*
X017436Y033837D01*
X017172Y033837D02*
X017172Y033552D01*
X017436Y033552D02*
X017436Y034123D01*
X017816Y034123D02*
X017816Y033552D01*
X017172Y033837D02*
X017077Y033932D01*
X016791Y033932D01*
X016791Y033552D01*
X016527Y033742D02*
X016527Y033837D01*
X016432Y033932D01*
X016242Y033932D01*
X016147Y033837D01*
X016147Y033647D01*
X016242Y033552D01*
X016432Y033552D01*
X016527Y033742D02*
X016147Y033742D01*
X015883Y033837D02*
X015883Y033647D01*
X015788Y033552D01*
X015502Y033552D01*
X015502Y033362D02*
X015502Y033932D01*
X015788Y033932D01*
X015883Y033837D01*
X015238Y033647D02*
X015238Y034027D01*
X015143Y034123D01*
X014953Y034123D01*
X014858Y034027D01*
X014858Y033647D01*
X014953Y033552D01*
X015143Y033552D01*
X015238Y033647D01*
X015178Y024629D02*
X015178Y024248D01*
X014988Y024058D01*
X014797Y024248D01*
X014797Y024629D01*
X014533Y024629D02*
X014153Y024629D01*
X014153Y024343D01*
X014343Y024438D01*
X014438Y024438D01*
X014533Y024343D01*
X014533Y024153D01*
X014438Y024058D01*
X014248Y024058D01*
X014153Y024153D01*
X014285Y022147D02*
X014285Y021576D01*
X014095Y021576D02*
X014475Y021576D01*
X014739Y021576D02*
X015120Y021956D01*
X015120Y022051D01*
X015025Y022147D01*
X014834Y022147D01*
X014739Y022051D01*
X014285Y022147D02*
X014095Y021956D01*
X014739Y021576D02*
X015120Y021576D01*
X015384Y021766D02*
X015384Y022147D01*
X015764Y022147D02*
X015764Y021766D01*
X015574Y021576D01*
X015384Y021766D01*
M02*
